%TF.GenerationSoftware,KiCad,Pcbnew,9.0.3*%
%TF.CreationDate,2025-09-19T12:26:28+12:00*%
%TF.ProjectId,Sensor2,53656e73-6f72-4322-9e6b-696361645f70,REV2*%
%TF.SameCoordinates,Original*%
%TF.FileFunction,Copper,L2,Bot*%
%TF.FilePolarity,Positive*%
%FSLAX46Y46*%
G04 Gerber Fmt 4.6, Leading zero omitted, Abs format (unit mm)*
G04 Created by KiCad (PCBNEW 9.0.3) date 2025-09-19 12:26:28*
%MOMM*%
%LPD*%
G01*
G04 APERTURE LIST*
%TA.AperFunction,ComponentPad*%
%ADD10C,3.000000*%
%TD*%
%TA.AperFunction,ComponentPad*%
%ADD11R,1.700000X1.700000*%
%TD*%
%TA.AperFunction,ComponentPad*%
%ADD12C,1.700000*%
%TD*%
%TA.AperFunction,ComponentPad*%
%ADD13R,1.500000X1.500000*%
%TD*%
%TA.AperFunction,ComponentPad*%
%ADD14C,1.950000*%
%TD*%
%TA.AperFunction,ComponentPad*%
%ADD15C,1.500000*%
%TD*%
%TA.AperFunction,ViaPad*%
%ADD16C,0.600000*%
%TD*%
G04 APERTURE END LIST*
D10*
%TO.P,TP1,1,1*%
%TO.N,Net-(R1-Pad1)*%
X157400000Y-77000000D03*
%TD*%
D11*
%TO.P,J1,1,Pin_1*%
%TO.N,Vcc*%
X149960000Y-83600000D03*
D12*
%TO.P,J1,2,Pin_2*%
%TO.N,Vout*%
X147420000Y-83600000D03*
%TO.P,J1,3,Pin_3*%
%TO.N,GND*%
X144880000Y-83600000D03*
%TD*%
D13*
%TO.P,VR1,1,CCW*%
%TO.N,unconnected-(VR1-CCW-Pad1)*%
X147800000Y-67050000D03*
D14*
%TO.P,VR1,2,WIPER*%
%TO.N,Vout*%
X145300000Y-72050000D03*
D15*
%TO.P,VR1,3,CW*%
%TO.N,GND*%
X142800000Y-67050000D03*
%TD*%
%TO.P,U1,1,C*%
%TO.N,Vcc*%
X145960000Y-79350000D03*
%TO.P,U1,2,E*%
%TO.N,Vout*%
X145960000Y-76810000D03*
%TO.P,U1,3,A*%
%TO.N,Vcc*%
X151460000Y-79350000D03*
%TO.P,U1,4*%
%TO.N,Net-(R1-Pad1)*%
X151460000Y-76810000D03*
%TD*%
D16*
%TO.N,GND*%
X156300000Y-73100000D03*
X158700000Y-81500000D03*
%TD*%
%TA.AperFunction,Conductor*%
%TO.N,GND*%
G36*
X161192539Y-62770185D02*
G01*
X161238294Y-62822989D01*
X161249500Y-62874500D01*
X161249500Y-85625500D01*
X161229815Y-85692539D01*
X161177011Y-85738294D01*
X161125500Y-85749500D01*
X140624500Y-85749500D01*
X140557461Y-85729815D01*
X140511706Y-85677011D01*
X140500500Y-85625500D01*
X140500500Y-83493753D01*
X143530000Y-83493753D01*
X143530000Y-83706246D01*
X143563242Y-83916127D01*
X143563242Y-83916130D01*
X143628904Y-84118217D01*
X143725375Y-84307550D01*
X143764728Y-84361716D01*
X144397037Y-83729408D01*
X144414075Y-83792993D01*
X144479901Y-83907007D01*
X144572993Y-84000099D01*
X144687007Y-84065925D01*
X144750590Y-84082962D01*
X144118282Y-84715269D01*
X144118282Y-84715270D01*
X144172449Y-84754624D01*
X144361782Y-84851095D01*
X144563870Y-84916757D01*
X144773754Y-84950000D01*
X144986246Y-84950000D01*
X145196127Y-84916757D01*
X145196130Y-84916757D01*
X145398217Y-84851095D01*
X145587554Y-84754622D01*
X145641716Y-84715270D01*
X145641717Y-84715270D01*
X145009408Y-84082962D01*
X145072993Y-84065925D01*
X145187007Y-84000099D01*
X145280099Y-83907007D01*
X145345925Y-83792993D01*
X145362962Y-83729408D01*
X145995270Y-84361717D01*
X145995270Y-84361716D01*
X146034622Y-84307555D01*
X146039232Y-84298507D01*
X146087205Y-84247709D01*
X146155025Y-84230912D01*
X146221161Y-84253447D01*
X146260204Y-84298504D01*
X146264949Y-84307817D01*
X146389890Y-84479786D01*
X146540213Y-84630109D01*
X146712179Y-84755048D01*
X146712181Y-84755049D01*
X146712184Y-84755051D01*
X146901588Y-84851557D01*
X147103757Y-84917246D01*
X147313713Y-84950500D01*
X147313714Y-84950500D01*
X147526286Y-84950500D01*
X147526287Y-84950500D01*
X147736243Y-84917246D01*
X147938412Y-84851557D01*
X148127816Y-84755051D01*
X148299792Y-84630104D01*
X148413329Y-84516566D01*
X148474648Y-84483084D01*
X148544340Y-84488068D01*
X148600274Y-84529939D01*
X148617189Y-84560917D01*
X148666202Y-84692328D01*
X148666206Y-84692335D01*
X148752452Y-84807544D01*
X148752455Y-84807547D01*
X148867664Y-84893793D01*
X148867671Y-84893797D01*
X149002517Y-84944091D01*
X149002516Y-84944091D01*
X149009444Y-84944835D01*
X149062127Y-84950500D01*
X150857872Y-84950499D01*
X150917483Y-84944091D01*
X151052331Y-84893796D01*
X151167546Y-84807546D01*
X151253796Y-84692331D01*
X151304091Y-84557483D01*
X151310500Y-84497873D01*
X151310499Y-82702128D01*
X151304091Y-82642517D01*
X151302810Y-82639083D01*
X151253797Y-82507671D01*
X151253793Y-82507664D01*
X151167547Y-82392455D01*
X151167544Y-82392452D01*
X151052335Y-82306206D01*
X151052328Y-82306202D01*
X150917482Y-82255908D01*
X150917483Y-82255908D01*
X150857883Y-82249501D01*
X150857881Y-82249500D01*
X150857873Y-82249500D01*
X150857864Y-82249500D01*
X149062129Y-82249500D01*
X149062123Y-82249501D01*
X149002516Y-82255908D01*
X148867671Y-82306202D01*
X148867664Y-82306206D01*
X148752455Y-82392452D01*
X148752452Y-82392455D01*
X148666206Y-82507664D01*
X148666203Y-82507669D01*
X148617189Y-82639083D01*
X148575317Y-82695016D01*
X148509853Y-82719433D01*
X148441580Y-82704581D01*
X148413326Y-82683430D01*
X148299786Y-82569890D01*
X148127820Y-82444951D01*
X147938414Y-82348444D01*
X147938413Y-82348443D01*
X147938412Y-82348443D01*
X147736243Y-82282754D01*
X147736241Y-82282753D01*
X147736240Y-82282753D01*
X147574957Y-82257208D01*
X147526287Y-82249500D01*
X147313713Y-82249500D01*
X147265042Y-82257208D01*
X147103760Y-82282753D01*
X146901585Y-82348444D01*
X146712179Y-82444951D01*
X146540213Y-82569890D01*
X146389890Y-82720213D01*
X146264949Y-82892182D01*
X146260202Y-82901499D01*
X146212227Y-82952293D01*
X146144405Y-82969087D01*
X146078271Y-82946548D01*
X146039234Y-82901495D01*
X146034626Y-82892452D01*
X145995270Y-82838282D01*
X145995269Y-82838282D01*
X145362962Y-83470590D01*
X145345925Y-83407007D01*
X145280099Y-83292993D01*
X145187007Y-83199901D01*
X145072993Y-83134075D01*
X145009409Y-83117037D01*
X145641716Y-82484728D01*
X145587550Y-82445375D01*
X145398217Y-82348904D01*
X145196129Y-82283242D01*
X144986246Y-82250000D01*
X144773754Y-82250000D01*
X144563872Y-82283242D01*
X144563869Y-82283242D01*
X144361782Y-82348904D01*
X144172439Y-82445380D01*
X144118282Y-82484727D01*
X144118282Y-82484728D01*
X144750591Y-83117037D01*
X144687007Y-83134075D01*
X144572993Y-83199901D01*
X144479901Y-83292993D01*
X144414075Y-83407007D01*
X144397037Y-83470591D01*
X143764728Y-82838282D01*
X143764727Y-82838282D01*
X143725380Y-82892439D01*
X143628904Y-83081782D01*
X143563242Y-83283869D01*
X143563242Y-83283872D01*
X143530000Y-83493753D01*
X140500500Y-83493753D01*
X140500500Y-76711577D01*
X144709500Y-76711577D01*
X144709500Y-76908422D01*
X144740290Y-77102826D01*
X144801117Y-77290029D01*
X144818690Y-77324517D01*
X144890476Y-77465405D01*
X145006172Y-77624646D01*
X145145354Y-77763828D01*
X145304595Y-77879524D01*
X145427992Y-77942397D01*
X145481213Y-77969515D01*
X145532009Y-78017489D01*
X145548804Y-78085310D01*
X145526267Y-78151445D01*
X145481213Y-78190485D01*
X145304594Y-78280476D01*
X145247635Y-78321860D01*
X145145354Y-78396172D01*
X145145352Y-78396174D01*
X145145351Y-78396174D01*
X145006174Y-78535351D01*
X145006174Y-78535352D01*
X145006172Y-78535354D01*
X144966882Y-78589432D01*
X144890476Y-78694594D01*
X144801117Y-78869970D01*
X144740290Y-79057173D01*
X144709500Y-79251577D01*
X144709500Y-79448422D01*
X144740290Y-79642826D01*
X144801117Y-79830029D01*
X144890476Y-80005405D01*
X145006172Y-80164646D01*
X145145354Y-80303828D01*
X145304595Y-80419524D01*
X145387455Y-80461743D01*
X145479970Y-80508882D01*
X145479972Y-80508882D01*
X145479975Y-80508884D01*
X145580317Y-80541487D01*
X145667173Y-80569709D01*
X145861578Y-80600500D01*
X145861583Y-80600500D01*
X146058422Y-80600500D01*
X146252826Y-80569709D01*
X146295042Y-80555992D01*
X146440025Y-80508884D01*
X146615405Y-80419524D01*
X146774646Y-80303828D01*
X146913828Y-80164646D01*
X146989275Y-80060802D01*
X147044602Y-80018138D01*
X147114216Y-80012159D01*
X147176011Y-80044764D01*
X147210368Y-80105603D01*
X147212064Y-80114290D01*
X147246447Y-80331369D01*
X147319433Y-80555996D01*
X147426657Y-80766433D01*
X147565483Y-80957510D01*
X147732490Y-81124517D01*
X147923567Y-81263343D01*
X148022991Y-81314002D01*
X148134003Y-81370566D01*
X148134005Y-81370566D01*
X148134008Y-81370568D01*
X148254412Y-81409689D01*
X148358631Y-81443553D01*
X148591903Y-81480500D01*
X148591908Y-81480500D01*
X148828097Y-81480500D01*
X149061368Y-81443553D01*
X149285992Y-81370568D01*
X149496433Y-81263343D01*
X149687510Y-81124517D01*
X149854517Y-80957510D01*
X149993343Y-80766433D01*
X150100568Y-80555992D01*
X150173553Y-80331368D01*
X150199960Y-80164642D01*
X150207935Y-80114291D01*
X150237864Y-80051156D01*
X150297176Y-80014225D01*
X150367038Y-80015223D01*
X150425271Y-80053833D01*
X150430715Y-80060789D01*
X150506172Y-80164646D01*
X150645354Y-80303828D01*
X150804595Y-80419524D01*
X150887455Y-80461743D01*
X150979970Y-80508882D01*
X150979972Y-80508882D01*
X150979975Y-80508884D01*
X151080317Y-80541487D01*
X151167173Y-80569709D01*
X151361578Y-80600500D01*
X151361583Y-80600500D01*
X151558422Y-80600500D01*
X151752826Y-80569709D01*
X151795042Y-80555992D01*
X151940025Y-80508884D01*
X152115405Y-80419524D01*
X152274646Y-80303828D01*
X152413828Y-80164646D01*
X152529524Y-80005405D01*
X152618884Y-79830025D01*
X152679709Y-79642826D01*
X152681957Y-79628632D01*
X152710500Y-79448422D01*
X152710500Y-79251577D01*
X152679709Y-79057173D01*
X152618882Y-78869970D01*
X152571743Y-78777455D01*
X152529524Y-78694595D01*
X152413828Y-78535354D01*
X152274646Y-78396172D01*
X152172365Y-78321860D01*
X152115403Y-78280474D01*
X151938787Y-78190485D01*
X151887990Y-78142511D01*
X151871195Y-78074690D01*
X151893732Y-78008555D01*
X151938787Y-77969515D01*
X152115403Y-77879525D01*
X152115402Y-77879525D01*
X152115405Y-77879524D01*
X152274646Y-77763828D01*
X152413828Y-77624646D01*
X152529524Y-77465405D01*
X152618884Y-77290025D01*
X152679709Y-77102826D01*
X152695048Y-77005979D01*
X152710500Y-76908422D01*
X152710500Y-76868872D01*
X155399500Y-76868872D01*
X155399500Y-77131127D01*
X155420421Y-77290025D01*
X155433730Y-77391116D01*
X155501370Y-77643553D01*
X155501602Y-77644418D01*
X155501605Y-77644428D01*
X155601953Y-77886690D01*
X155601958Y-77886700D01*
X155733075Y-78113803D01*
X155892718Y-78321851D01*
X155892726Y-78321860D01*
X156078140Y-78507274D01*
X156078148Y-78507281D01*
X156286196Y-78666924D01*
X156513299Y-78798041D01*
X156513309Y-78798046D01*
X156755571Y-78898394D01*
X156755581Y-78898398D01*
X157008884Y-78966270D01*
X157268880Y-79000500D01*
X157268887Y-79000500D01*
X157531113Y-79000500D01*
X157531120Y-79000500D01*
X157791116Y-78966270D01*
X158044419Y-78898398D01*
X158286697Y-78798043D01*
X158513803Y-78666924D01*
X158721851Y-78507282D01*
X158721855Y-78507277D01*
X158721860Y-78507274D01*
X158907274Y-78321860D01*
X158907277Y-78321855D01*
X158907282Y-78321851D01*
X159066924Y-78113803D01*
X159198043Y-77886697D01*
X159298398Y-77644419D01*
X159366270Y-77391116D01*
X159400500Y-77131120D01*
X159400500Y-76868880D01*
X159366270Y-76608884D01*
X159298398Y-76355581D01*
X159298394Y-76355571D01*
X159198046Y-76113309D01*
X159198041Y-76113299D01*
X159066924Y-75886196D01*
X158907281Y-75678148D01*
X158907274Y-75678140D01*
X158721860Y-75492726D01*
X158721851Y-75492718D01*
X158513803Y-75333075D01*
X158286700Y-75201958D01*
X158286690Y-75201953D01*
X158044428Y-75101605D01*
X158044421Y-75101603D01*
X158044419Y-75101602D01*
X157791116Y-75033730D01*
X157733339Y-75026123D01*
X157531127Y-74999500D01*
X157531120Y-74999500D01*
X157268880Y-74999500D01*
X157268872Y-74999500D01*
X157037772Y-75029926D01*
X157008884Y-75033730D01*
X156755581Y-75101602D01*
X156755571Y-75101605D01*
X156513309Y-75201953D01*
X156513299Y-75201958D01*
X156286196Y-75333075D01*
X156078148Y-75492718D01*
X155892718Y-75678148D01*
X155733075Y-75886196D01*
X155601958Y-76113299D01*
X155601953Y-76113309D01*
X155501605Y-76355571D01*
X155501602Y-76355581D01*
X155458304Y-76517174D01*
X155433730Y-76608885D01*
X155399500Y-76868872D01*
X152710500Y-76868872D01*
X152710500Y-76711577D01*
X152679709Y-76517173D01*
X152651487Y-76430317D01*
X152618884Y-76329975D01*
X152618882Y-76329972D01*
X152618882Y-76329970D01*
X152529523Y-76154594D01*
X152520272Y-76141861D01*
X152413828Y-75995354D01*
X152274646Y-75856172D01*
X152115405Y-75740476D01*
X151940029Y-75651117D01*
X151752826Y-75590290D01*
X151558422Y-75559500D01*
X151558417Y-75559500D01*
X151361583Y-75559500D01*
X151361578Y-75559500D01*
X151167173Y-75590290D01*
X150979970Y-75651117D01*
X150804594Y-75740476D01*
X150713741Y-75806485D01*
X150645354Y-75856172D01*
X150645352Y-75856174D01*
X150645351Y-75856174D01*
X150506173Y-75995352D01*
X150430726Y-76099196D01*
X150375395Y-76141861D01*
X150305782Y-76147840D01*
X150243987Y-76115234D01*
X150209630Y-76054395D01*
X150207935Y-76045708D01*
X150173553Y-75828631D01*
X150124658Y-75678149D01*
X150100568Y-75604008D01*
X150100566Y-75604005D01*
X150100566Y-75604003D01*
X150002272Y-75411092D01*
X149993343Y-75393567D01*
X149854517Y-75202490D01*
X149687510Y-75035483D01*
X149496433Y-74896657D01*
X149285996Y-74789433D01*
X149061368Y-74716446D01*
X148828097Y-74679500D01*
X148828092Y-74679500D01*
X148591908Y-74679500D01*
X148591903Y-74679500D01*
X148358631Y-74716446D01*
X148134003Y-74789433D01*
X147923566Y-74896657D01*
X147829622Y-74964912D01*
X147732490Y-75035483D01*
X147732488Y-75035485D01*
X147732487Y-75035485D01*
X147565485Y-75202487D01*
X147565485Y-75202488D01*
X147565483Y-75202490D01*
X147513166Y-75274498D01*
X147426657Y-75393566D01*
X147319433Y-75604003D01*
X147246447Y-75828630D01*
X147212064Y-76045709D01*
X147182134Y-76108843D01*
X147122823Y-76145774D01*
X147052960Y-76144776D01*
X146994728Y-76106166D01*
X146989273Y-76099195D01*
X146962182Y-76061908D01*
X146913828Y-75995354D01*
X146774646Y-75856172D01*
X146615405Y-75740476D01*
X146440029Y-75651117D01*
X146252826Y-75590290D01*
X146058422Y-75559500D01*
X146058417Y-75559500D01*
X145861583Y-75559500D01*
X145861578Y-75559500D01*
X145667173Y-75590290D01*
X145479970Y-75651117D01*
X145304594Y-75740476D01*
X145213741Y-75806485D01*
X145145354Y-75856172D01*
X145145352Y-75856174D01*
X145145351Y-75856174D01*
X145006171Y-75995354D01*
X144961409Y-76056962D01*
X144961398Y-76056979D01*
X144890476Y-76154595D01*
X144837909Y-76257763D01*
X144837898Y-76257782D01*
X144801118Y-76329967D01*
X144740290Y-76517173D01*
X144709500Y-76711577D01*
X140500500Y-76711577D01*
X140500500Y-75703920D01*
X143309499Y-75703920D01*
X143338340Y-75848907D01*
X143338343Y-75848917D01*
X143394912Y-75985488D01*
X143394919Y-75985501D01*
X143477048Y-76108415D01*
X143477051Y-76108419D01*
X143581580Y-76212948D01*
X143581584Y-76212951D01*
X143704498Y-76295080D01*
X143704511Y-76295087D01*
X143788720Y-76329967D01*
X143841087Y-76351658D01*
X143841091Y-76351658D01*
X143841092Y-76351659D01*
X143986079Y-76380500D01*
X143986082Y-76380500D01*
X144133920Y-76380500D01*
X144259241Y-76355571D01*
X144278913Y-76351658D01*
X144415495Y-76295084D01*
X144538416Y-76212951D01*
X144642951Y-76108416D01*
X144725084Y-75985495D01*
X144781658Y-75848913D01*
X144810500Y-75703918D01*
X144810500Y-75556082D01*
X144810500Y-75556079D01*
X144781659Y-75411092D01*
X144781658Y-75411091D01*
X144781658Y-75411087D01*
X144749345Y-75333076D01*
X144725087Y-75274511D01*
X144725080Y-75274498D01*
X144642951Y-75151584D01*
X144642948Y-75151580D01*
X144538419Y-75047051D01*
X144538415Y-75047048D01*
X144415501Y-74964919D01*
X144415488Y-74964912D01*
X144278917Y-74908343D01*
X144278907Y-74908340D01*
X144133920Y-74879500D01*
X144133918Y-74879500D01*
X143986082Y-74879500D01*
X143986080Y-74879500D01*
X143841092Y-74908340D01*
X143841082Y-74908343D01*
X143704511Y-74964912D01*
X143704498Y-74964919D01*
X143581584Y-75047048D01*
X143581580Y-75047051D01*
X143477051Y-75151580D01*
X143477048Y-75151584D01*
X143394919Y-75274498D01*
X143394912Y-75274511D01*
X143338343Y-75411082D01*
X143338340Y-75411092D01*
X143309500Y-75556079D01*
X143309500Y-75556082D01*
X143309500Y-75703918D01*
X143309500Y-75703920D01*
X143309499Y-75703920D01*
X140500500Y-75703920D01*
X140500500Y-71933870D01*
X143824500Y-71933870D01*
X143824500Y-72166129D01*
X143860831Y-72395514D01*
X143932601Y-72616400D01*
X144038039Y-72823331D01*
X144174551Y-73011224D01*
X144338776Y-73175449D01*
X144526669Y-73311961D01*
X144624436Y-73361776D01*
X144733599Y-73417398D01*
X144733601Y-73417398D01*
X144733604Y-73417400D01*
X144954486Y-73489169D01*
X145072668Y-73507886D01*
X145183871Y-73525500D01*
X145183876Y-73525500D01*
X145416129Y-73525500D01*
X145517502Y-73509443D01*
X145645514Y-73489169D01*
X145866396Y-73417400D01*
X146073331Y-73311961D01*
X146261224Y-73175449D01*
X146425449Y-73011224D01*
X146561961Y-72823331D01*
X146667400Y-72616396D01*
X146739169Y-72395514D01*
X146759443Y-72267502D01*
X146775500Y-72166129D01*
X146775500Y-71933870D01*
X146756232Y-71812222D01*
X146739169Y-71704486D01*
X146667400Y-71483604D01*
X146667398Y-71483601D01*
X146667398Y-71483599D01*
X146561960Y-71276668D01*
X146425449Y-71088776D01*
X146261224Y-70924551D01*
X146073331Y-70788039D01*
X146047977Y-70775120D01*
X145997182Y-70727146D01*
X145980387Y-70659325D01*
X146002925Y-70593190D01*
X146031385Y-70564320D01*
X146114646Y-70503828D01*
X146253828Y-70364646D01*
X146369524Y-70205405D01*
X146458884Y-70030025D01*
X146519709Y-69842826D01*
X146523508Y-69818838D01*
X146550500Y-69648422D01*
X146550500Y-69451577D01*
X146519709Y-69257173D01*
X146458882Y-69069970D01*
X146369523Y-68894594D01*
X146253828Y-68735354D01*
X146114646Y-68596172D01*
X145955405Y-68480476D01*
X145780029Y-68391117D01*
X145592826Y-68330290D01*
X145398422Y-68299500D01*
X145398417Y-68299500D01*
X145201583Y-68299500D01*
X145201578Y-68299500D01*
X145007173Y-68330290D01*
X144819970Y-68391117D01*
X144644594Y-68480476D01*
X144553741Y-68546485D01*
X144485354Y-68596172D01*
X144485352Y-68596174D01*
X144485351Y-68596174D01*
X144346174Y-68735351D01*
X144346174Y-68735352D01*
X144346172Y-68735354D01*
X144296485Y-68803741D01*
X144230476Y-68894594D01*
X144141117Y-69069970D01*
X144080290Y-69257173D01*
X144049500Y-69451577D01*
X144049500Y-69648422D01*
X144080290Y-69842826D01*
X144141117Y-70030029D01*
X144230476Y-70205405D01*
X144346172Y-70364646D01*
X144485354Y-70503828D01*
X144568613Y-70564319D01*
X144611277Y-70619648D01*
X144617256Y-70689261D01*
X144584650Y-70751056D01*
X144552023Y-70775120D01*
X144526668Y-70788039D01*
X144338773Y-70924553D01*
X144174553Y-71088773D01*
X144038039Y-71276668D01*
X143932601Y-71483599D01*
X143860831Y-71704485D01*
X143824500Y-71933870D01*
X140500500Y-71933870D01*
X140500500Y-66951617D01*
X141550000Y-66951617D01*
X141550000Y-67148382D01*
X141580778Y-67342705D01*
X141641581Y-67529835D01*
X141730905Y-67705145D01*
X141756319Y-67740125D01*
X141756320Y-67740125D01*
X142317037Y-67179408D01*
X142334075Y-67242993D01*
X142399901Y-67357007D01*
X142492993Y-67450099D01*
X142607007Y-67515925D01*
X142670590Y-67532962D01*
X142109873Y-68093677D01*
X142109873Y-68093678D01*
X142144858Y-68119096D01*
X142320164Y-68208418D01*
X142507294Y-68269221D01*
X142701618Y-68300000D01*
X142898382Y-68300000D01*
X143092705Y-68269221D01*
X143279835Y-68208418D01*
X143455143Y-68119095D01*
X143490125Y-68093678D01*
X143490126Y-68093678D01*
X142929410Y-67532962D01*
X142992993Y-67515925D01*
X143107007Y-67450099D01*
X143200099Y-67357007D01*
X143265925Y-67242993D01*
X143282962Y-67179410D01*
X143843678Y-67740126D01*
X143843678Y-67740125D01*
X143869095Y-67705143D01*
X143958418Y-67529835D01*
X144019221Y-67342705D01*
X144050000Y-67148382D01*
X144050000Y-66951617D01*
X144019221Y-66757294D01*
X143958418Y-66570164D01*
X143869093Y-66394854D01*
X143843679Y-66359873D01*
X143843677Y-66359873D01*
X143282962Y-66920589D01*
X143265925Y-66857007D01*
X143200099Y-66742993D01*
X143107007Y-66649901D01*
X142992993Y-66584075D01*
X142929409Y-66567037D01*
X143244310Y-66252135D01*
X146549500Y-66252135D01*
X146549500Y-67847870D01*
X146549501Y-67847876D01*
X146555908Y-67907483D01*
X146606202Y-68042328D01*
X146606206Y-68042335D01*
X146692452Y-68157544D01*
X146692455Y-68157547D01*
X146807664Y-68243793D01*
X146807671Y-68243797D01*
X146942517Y-68294091D01*
X146942516Y-68294091D01*
X146949444Y-68294835D01*
X147002127Y-68300500D01*
X148597872Y-68300499D01*
X148657483Y-68294091D01*
X148792331Y-68243796D01*
X148907546Y-68157546D01*
X148993796Y-68042331D01*
X149044091Y-67907483D01*
X149047184Y-67878711D01*
X155449500Y-67878711D01*
X155449500Y-68121288D01*
X155472961Y-68299500D01*
X155481162Y-68361789D01*
X155512554Y-68478944D01*
X155543947Y-68596104D01*
X155636773Y-68820205D01*
X155636776Y-68820212D01*
X155758064Y-69030289D01*
X155758066Y-69030292D01*
X155758067Y-69030293D01*
X155905733Y-69222736D01*
X155905739Y-69222743D01*
X156077256Y-69394260D01*
X156077262Y-69394265D01*
X156269711Y-69541936D01*
X156479788Y-69663224D01*
X156703900Y-69756054D01*
X156938211Y-69818838D01*
X157118586Y-69842584D01*
X157178711Y-69850500D01*
X157178712Y-69850500D01*
X157421289Y-69850500D01*
X157479579Y-69842826D01*
X157661789Y-69818838D01*
X157896100Y-69756054D01*
X158120212Y-69663224D01*
X158330289Y-69541936D01*
X158522738Y-69394265D01*
X158694265Y-69222738D01*
X158841936Y-69030289D01*
X158963224Y-68820212D01*
X159056054Y-68596100D01*
X159118838Y-68361789D01*
X159150500Y-68121288D01*
X159150500Y-67878712D01*
X159118838Y-67638211D01*
X159056054Y-67403900D01*
X158963224Y-67179788D01*
X158841936Y-66969711D01*
X158694265Y-66777262D01*
X158694260Y-66777256D01*
X158522743Y-66605739D01*
X158522736Y-66605733D01*
X158330293Y-66458067D01*
X158330292Y-66458066D01*
X158330289Y-66458064D01*
X158120212Y-66336776D01*
X158120205Y-66336773D01*
X157896104Y-66243947D01*
X157661785Y-66181161D01*
X157421289Y-66149500D01*
X157421288Y-66149500D01*
X157178712Y-66149500D01*
X157178711Y-66149500D01*
X156938214Y-66181161D01*
X156703895Y-66243947D01*
X156479794Y-66336773D01*
X156479785Y-66336777D01*
X156269706Y-66458067D01*
X156077263Y-66605733D01*
X156077256Y-66605739D01*
X155905739Y-66777256D01*
X155905733Y-66777263D01*
X155758067Y-66969706D01*
X155636777Y-67179785D01*
X155636773Y-67179794D01*
X155543947Y-67403895D01*
X155481161Y-67638214D01*
X155449500Y-67878711D01*
X149047184Y-67878711D01*
X149050500Y-67847873D01*
X149050499Y-66252128D01*
X149044091Y-66192517D01*
X149039855Y-66181161D01*
X148993797Y-66057671D01*
X148993793Y-66057664D01*
X148907547Y-65942455D01*
X148907544Y-65942452D01*
X148792335Y-65856206D01*
X148792328Y-65856202D01*
X148657482Y-65805908D01*
X148657483Y-65805908D01*
X148597883Y-65799501D01*
X148597881Y-65799500D01*
X148597873Y-65799500D01*
X148597864Y-65799500D01*
X147002129Y-65799500D01*
X147002123Y-65799501D01*
X146942516Y-65805908D01*
X146807671Y-65856202D01*
X146807664Y-65856206D01*
X146692455Y-65942452D01*
X146692452Y-65942455D01*
X146606206Y-66057664D01*
X146606202Y-66057671D01*
X146555908Y-66192517D01*
X146550379Y-66243947D01*
X146549501Y-66252123D01*
X146549500Y-66252135D01*
X143244310Y-66252135D01*
X143490125Y-66006320D01*
X143490125Y-66006319D01*
X143455145Y-65980905D01*
X143279835Y-65891581D01*
X143092705Y-65830778D01*
X142898382Y-65800000D01*
X142701618Y-65800000D01*
X142507294Y-65830778D01*
X142320161Y-65891582D01*
X142144863Y-65980899D01*
X142144859Y-65980902D01*
X142109873Y-66006320D01*
X142109872Y-66006320D01*
X142670590Y-66567037D01*
X142607007Y-66584075D01*
X142492993Y-66649901D01*
X142399901Y-66742993D01*
X142334075Y-66857007D01*
X142317037Y-66920590D01*
X141756320Y-66359872D01*
X141756320Y-66359873D01*
X141730902Y-66394859D01*
X141730899Y-66394863D01*
X141641582Y-66570161D01*
X141580778Y-66757294D01*
X141550000Y-66951617D01*
X140500500Y-66951617D01*
X140500500Y-62874500D01*
X140520185Y-62807461D01*
X140572989Y-62761706D01*
X140624500Y-62750500D01*
X161125500Y-62750500D01*
X161192539Y-62770185D01*
G37*
%TD.AperFunction*%
%TD*%
M02*
