%TF.GenerationSoftware,KiCad,Pcbnew,9.0.3*%
%TF.CreationDate,2025-09-19T12:26:28+12:00*%
%TF.ProjectId,Sensor2,53656e73-6f72-4322-9e6b-696361645f70,REV2*%
%TF.SameCoordinates,Original*%
%TF.FileFunction,Copper,L1,Top*%
%TF.FilePolarity,Positive*%
%FSLAX46Y46*%
G04 Gerber Fmt 4.6, Leading zero omitted, Abs format (unit mm)*
G04 Created by KiCad (PCBNEW 9.0.3) date 2025-09-19 12:26:28*
%MOMM*%
%LPD*%
G01*
G04 APERTURE LIST*
G04 Aperture macros list*
%AMRoundRect*
0 Rectangle with rounded corners*
0 $1 Rounding radius*
0 $2 $3 $4 $5 $6 $7 $8 $9 X,Y pos of 4 corners*
0 Add a 4 corners polygon primitive as box body*
4,1,4,$2,$3,$4,$5,$6,$7,$8,$9,$2,$3,0*
0 Add four circle primitives for the rounded corners*
1,1,$1+$1,$2,$3*
1,1,$1+$1,$4,$5*
1,1,$1+$1,$6,$7*
1,1,$1+$1,$8,$9*
0 Add four rect primitives between the rounded corners*
20,1,$1+$1,$2,$3,$4,$5,0*
20,1,$1+$1,$4,$5,$6,$7,0*
20,1,$1+$1,$6,$7,$8,$9,0*
20,1,$1+$1,$8,$9,$2,$3,0*%
G04 Aperture macros list end*
%TA.AperFunction,ComponentPad*%
%ADD10C,3.000000*%
%TD*%
%TA.AperFunction,ComponentPad*%
%ADD11R,1.700000X1.700000*%
%TD*%
%TA.AperFunction,ComponentPad*%
%ADD12C,1.700000*%
%TD*%
%TA.AperFunction,SMDPad,CuDef*%
%ADD13RoundRect,0.250000X-0.350000X-0.450000X0.350000X-0.450000X0.350000X0.450000X-0.350000X0.450000X0*%
%TD*%
%TA.AperFunction,ComponentPad*%
%ADD14R,1.500000X1.500000*%
%TD*%
%TA.AperFunction,ComponentPad*%
%ADD15C,1.950000*%
%TD*%
%TA.AperFunction,ComponentPad*%
%ADD16C,1.500000*%
%TD*%
%TA.AperFunction,SMDPad,CuDef*%
%ADD17RoundRect,0.250000X0.650000X-0.412500X0.650000X0.412500X-0.650000X0.412500X-0.650000X-0.412500X0*%
%TD*%
%TA.AperFunction,ViaPad*%
%ADD18C,0.600000*%
%TD*%
%TA.AperFunction,Conductor*%
%ADD19C,0.760000*%
%TD*%
%TA.AperFunction,Conductor*%
%ADD20C,0.254000*%
%TD*%
%TA.AperFunction,Conductor*%
%ADD21C,0.500000*%
%TD*%
G04 APERTURE END LIST*
D10*
%TO.P,TP1,1,1*%
%TO.N,Net-(R1-Pad1)*%
X157400000Y-77000000D03*
%TD*%
D11*
%TO.P,J1,1,Pin_1*%
%TO.N,Vcc*%
X149960000Y-83600000D03*
D12*
%TO.P,J1,2,Pin_2*%
%TO.N,Vout*%
X147420000Y-83600000D03*
%TO.P,J1,3,Pin_3*%
%TO.N,GND*%
X144880000Y-83600000D03*
%TD*%
D13*
%TO.P,R1,1*%
%TO.N,Net-(R1-Pad1)*%
X152400000Y-73100000D03*
%TO.P,R1,2*%
%TO.N,GND*%
X154400000Y-73100000D03*
%TD*%
D14*
%TO.P,VR1,1,CCW*%
%TO.N,unconnected-(VR1-CCW-Pad1)*%
X147800000Y-67050000D03*
D15*
%TO.P,VR1,2,WIPER*%
%TO.N,Vout*%
X145300000Y-72050000D03*
D16*
%TO.P,VR1,3,CW*%
%TO.N,GND*%
X142800000Y-67050000D03*
%TD*%
D17*
%TO.P,C1,1*%
%TO.N,Vcc*%
X157300000Y-84662500D03*
%TO.P,C1,2*%
%TO.N,GND*%
X157300000Y-81537500D03*
%TD*%
D16*
%TO.P,U1,1,C*%
%TO.N,Vcc*%
X145960000Y-79350000D03*
%TO.P,U1,2,E*%
%TO.N,Vout*%
X145960000Y-76810000D03*
%TO.P,U1,3,A*%
%TO.N,Vcc*%
X151460000Y-79350000D03*
%TO.P,U1,4*%
%TO.N,Net-(R1-Pad1)*%
X151460000Y-76810000D03*
%TD*%
D18*
%TO.N,GND*%
X156300000Y-73100000D03*
X158700000Y-81500000D03*
%TD*%
D19*
%TO.N,GND*%
X154400000Y-73100000D02*
X156300000Y-73100000D01*
%TO.N,Net-(R1-Pad1)*%
X153530000Y-77000000D02*
X152400000Y-75870000D01*
X157400000Y-77000000D02*
X153530000Y-77000000D01*
X152400000Y-75870000D02*
X151460000Y-76810000D01*
X152400000Y-73100000D02*
X152400000Y-75870000D01*
%TO.N,Vout*%
X145300000Y-76150000D02*
X145960000Y-76810000D01*
X145300000Y-72050000D02*
X145300000Y-76150000D01*
D20*
X144882000Y-77888000D02*
X145960000Y-76810000D01*
X144882000Y-81062000D02*
X144882000Y-77888000D01*
X147420000Y-83600000D02*
X144882000Y-81062000D01*
D19*
%TO.N,GND*%
X158662500Y-81537500D02*
X158700000Y-81500000D01*
X157300000Y-81537500D02*
X158662500Y-81537500D01*
%TO.N,Vcc*%
X151460000Y-79350000D02*
X150209000Y-78099000D01*
X149960000Y-83600000D02*
X151460000Y-82100000D01*
X157300000Y-84662500D02*
X151022500Y-84662500D01*
X150209000Y-78099000D02*
X147211000Y-78099000D01*
X151022500Y-84662500D02*
X149960000Y-83600000D01*
X151460000Y-82100000D02*
X151460000Y-79350000D01*
X147211000Y-78099000D02*
X145960000Y-79350000D01*
D21*
%TO.N,Net-(R1-Pad1)*%
X151500000Y-76850000D02*
X151460000Y-76810000D01*
X151210000Y-76560000D02*
X151460000Y-76810000D01*
D19*
X151650000Y-77000000D02*
X151460000Y-76810000D01*
%TD*%
M02*
