%TF.GenerationSoftware,KiCad,Pcbnew,9.0.3*%
%TF.CreationDate,2025-09-19T12:26:28+12:00*%
%TF.ProjectId,Sensor2,53656e73-6f72-4322-9e6b-696361645f70,REV2*%
%TF.SameCoordinates,Original*%
%TF.FileFunction,Legend,Top*%
%TF.FilePolarity,Positive*%
%FSLAX46Y46*%
G04 Gerber Fmt 4.6, Leading zero omitted, Abs format (unit mm)*
G04 Created by KiCad (PCBNEW 9.0.3) date 2025-09-19 12:26:28*
%MOMM*%
%LPD*%
G01*
G04 APERTURE LIST*
%ADD10C,0.150000*%
%ADD11C,0.254000*%
%ADD12C,0.120000*%
%ADD13C,0.200000*%
%ADD14C,0.100000*%
G04 APERTURE END LIST*
D10*
X156138095Y-73956819D02*
X156709523Y-73956819D01*
X156423809Y-74956819D02*
X156423809Y-73956819D01*
X157042857Y-74956819D02*
X157042857Y-73956819D01*
X157042857Y-73956819D02*
X157423809Y-73956819D01*
X157423809Y-73956819D02*
X157519047Y-74004438D01*
X157519047Y-74004438D02*
X157566666Y-74052057D01*
X157566666Y-74052057D02*
X157614285Y-74147295D01*
X157614285Y-74147295D02*
X157614285Y-74290152D01*
X157614285Y-74290152D02*
X157566666Y-74385390D01*
X157566666Y-74385390D02*
X157519047Y-74433009D01*
X157519047Y-74433009D02*
X157423809Y-74480628D01*
X157423809Y-74480628D02*
X157042857Y-74480628D01*
X158566666Y-74956819D02*
X157995238Y-74956819D01*
X158280952Y-74956819D02*
X158280952Y-73956819D01*
X158280952Y-73956819D02*
X158185714Y-74099676D01*
X158185714Y-74099676D02*
X158090476Y-74194914D01*
X158090476Y-74194914D02*
X157995238Y-74242533D01*
X152836666Y-83054819D02*
X152836666Y-83769104D01*
X152836666Y-83769104D02*
X152789047Y-83911961D01*
X152789047Y-83911961D02*
X152693809Y-84007200D01*
X152693809Y-84007200D02*
X152550952Y-84054819D01*
X152550952Y-84054819D02*
X152455714Y-84054819D01*
X153836666Y-84054819D02*
X153265238Y-84054819D01*
X153550952Y-84054819D02*
X153550952Y-83054819D01*
X153550952Y-83054819D02*
X153455714Y-83197676D01*
X153455714Y-83197676D02*
X153360476Y-83292914D01*
X153360476Y-83292914D02*
X153265238Y-83340533D01*
X153233333Y-71904819D02*
X152900000Y-71428628D01*
X152661905Y-71904819D02*
X152661905Y-70904819D01*
X152661905Y-70904819D02*
X153042857Y-70904819D01*
X153042857Y-70904819D02*
X153138095Y-70952438D01*
X153138095Y-70952438D02*
X153185714Y-71000057D01*
X153185714Y-71000057D02*
X153233333Y-71095295D01*
X153233333Y-71095295D02*
X153233333Y-71238152D01*
X153233333Y-71238152D02*
X153185714Y-71333390D01*
X153185714Y-71333390D02*
X153138095Y-71381009D01*
X153138095Y-71381009D02*
X153042857Y-71428628D01*
X153042857Y-71428628D02*
X152661905Y-71428628D01*
X154185714Y-71904819D02*
X153614286Y-71904819D01*
X153900000Y-71904819D02*
X153900000Y-70904819D01*
X153900000Y-70904819D02*
X153804762Y-71047676D01*
X153804762Y-71047676D02*
X153709524Y-71142914D01*
X153709524Y-71142914D02*
X153614286Y-71190533D01*
X156538095Y-64304819D02*
X156538095Y-63304819D01*
X156538095Y-63781009D02*
X157109523Y-63781009D01*
X157109523Y-64304819D02*
X157109523Y-63304819D01*
X158109523Y-64304819D02*
X157538095Y-64304819D01*
X157823809Y-64304819D02*
X157823809Y-63304819D01*
X157823809Y-63304819D02*
X157728571Y-63447676D01*
X157728571Y-63447676D02*
X157633333Y-63542914D01*
X157633333Y-63542914D02*
X157538095Y-63590533D01*
D11*
X150336905Y-64304318D02*
X150760238Y-65574318D01*
X150760238Y-65574318D02*
X151183572Y-64304318D01*
X152332619Y-65574318D02*
X151909285Y-64969556D01*
X151606904Y-65574318D02*
X151606904Y-64304318D01*
X151606904Y-64304318D02*
X152090714Y-64304318D01*
X152090714Y-64304318D02*
X152211666Y-64364794D01*
X152211666Y-64364794D02*
X152272143Y-64425270D01*
X152272143Y-64425270D02*
X152332619Y-64546222D01*
X152332619Y-64546222D02*
X152332619Y-64727651D01*
X152332619Y-64727651D02*
X152272143Y-64848603D01*
X152272143Y-64848603D02*
X152211666Y-64909080D01*
X152211666Y-64909080D02*
X152090714Y-64969556D01*
X152090714Y-64969556D02*
X151606904Y-64969556D01*
X153542143Y-65574318D02*
X152816428Y-65574318D01*
X153179285Y-65574318D02*
X153179285Y-64304318D01*
X153179285Y-64304318D02*
X153058333Y-64485746D01*
X153058333Y-64485746D02*
X152937381Y-64606699D01*
X152937381Y-64606699D02*
X152816428Y-64667175D01*
D10*
X157233333Y-80159580D02*
X157185714Y-80207200D01*
X157185714Y-80207200D02*
X157042857Y-80254819D01*
X157042857Y-80254819D02*
X156947619Y-80254819D01*
X156947619Y-80254819D02*
X156804762Y-80207200D01*
X156804762Y-80207200D02*
X156709524Y-80111961D01*
X156709524Y-80111961D02*
X156661905Y-80016723D01*
X156661905Y-80016723D02*
X156614286Y-79826247D01*
X156614286Y-79826247D02*
X156614286Y-79683390D01*
X156614286Y-79683390D02*
X156661905Y-79492914D01*
X156661905Y-79492914D02*
X156709524Y-79397676D01*
X156709524Y-79397676D02*
X156804762Y-79302438D01*
X156804762Y-79302438D02*
X156947619Y-79254819D01*
X156947619Y-79254819D02*
X157042857Y-79254819D01*
X157042857Y-79254819D02*
X157185714Y-79302438D01*
X157185714Y-79302438D02*
X157233333Y-79350057D01*
X158185714Y-80254819D02*
X157614286Y-80254819D01*
X157900000Y-80254819D02*
X157900000Y-79254819D01*
X157900000Y-79254819D02*
X157804762Y-79397676D01*
X157804762Y-79397676D02*
X157709524Y-79492914D01*
X157709524Y-79492914D02*
X157614286Y-79540533D01*
D12*
%TO.C,TP1*%
X159100000Y-77000000D02*
G75*
G02*
X155700000Y-77000000I-1700000J0D01*
G01*
X155700000Y-77000000D02*
G75*
G02*
X159100000Y-77000000I1700000J0D01*
G01*
%TO.C,J1*%
X143500000Y-82220000D02*
X143500000Y-84980000D01*
X148690000Y-82220000D02*
X143500000Y-82220000D01*
X148690000Y-82220000D02*
X148690000Y-84980000D01*
X148690000Y-84980000D02*
X143500000Y-84980000D01*
X149960000Y-82220000D02*
X151340000Y-82220000D01*
X151340000Y-82220000D02*
X151340000Y-83600000D01*
%TO.C,R1*%
X153172936Y-73835000D02*
X153627064Y-73835000D01*
X153172936Y-72365000D02*
X153627064Y-72365000D01*
D13*
%TO.C,VR1*%
X142100000Y-73250000D02*
X142100000Y-68050000D01*
X143600000Y-64550000D02*
X146800000Y-64550000D01*
X148500000Y-68050000D02*
X148500000Y-73250000D01*
X148500000Y-73250000D02*
X142100000Y-73250000D01*
D14*
X149000000Y-67050000D02*
X149000000Y-67050000D01*
X149100000Y-67050000D02*
X149100000Y-67050000D01*
X149000000Y-67050000D02*
G75*
G02*
X149100000Y-67050000I50000J0D01*
G01*
X149100000Y-67050000D02*
G75*
G02*
X149000000Y-67050000I-50000J0D01*
G01*
D12*
%TO.C,C1*%
X156390000Y-83811252D02*
X156390000Y-82388748D01*
X158210000Y-83811252D02*
X158210000Y-82388748D01*
%TD*%
M02*
