%TF.GenerationSoftware,KiCad,Pcbnew,9.0.3*%
%TF.CreationDate,2025-09-19T12:26:28+12:00*%
%TF.ProjectId,Sensor2,53656e73-6f72-4322-9e6b-696361645f70,REV2*%
%TF.SameCoordinates,Original*%
%TF.FileFunction,Legend,Bot*%
%TF.FilePolarity,Positive*%
%FSLAX46Y46*%
G04 Gerber Fmt 4.6, Leading zero omitted, Abs format (unit mm)*
G04 Created by KiCad (PCBNEW 9.0.3) date 2025-09-19 12:26:28*
%MOMM*%
%LPD*%
G01*
G04 APERTURE LIST*
%ADD10C,0.150000*%
%ADD11C,0.127000*%
G04 APERTURE END LIST*
D10*
X142765048Y-77652602D02*
X142765048Y-78465466D01*
X142765048Y-78465466D02*
X142717232Y-78561097D01*
X142717232Y-78561097D02*
X142669417Y-78608913D01*
X142669417Y-78608913D02*
X142573786Y-78656728D01*
X142573786Y-78656728D02*
X142382524Y-78656728D01*
X142382524Y-78656728D02*
X142286893Y-78608913D01*
X142286893Y-78608913D02*
X142239077Y-78561097D01*
X142239077Y-78561097D02*
X142191262Y-78465466D01*
X142191262Y-78465466D02*
X142191262Y-77652602D01*
X141187135Y-78656728D02*
X141760921Y-78656728D01*
X141474028Y-78656728D02*
X141474028Y-77652602D01*
X141474028Y-77652602D02*
X141569659Y-77796049D01*
X141569659Y-77796049D02*
X141665290Y-77891680D01*
X141665290Y-77891680D02*
X141760921Y-77939495D01*
D11*
%TO.C,U1*%
X143560000Y-76280000D02*
X143560000Y-81030000D01*
X143560000Y-81030000D02*
X147540000Y-81030000D01*
X144710000Y-75130000D02*
X147540000Y-75130000D01*
X149880000Y-75130000D02*
X152310000Y-75130000D01*
X152310000Y-75130000D02*
X153860000Y-76680000D01*
X152310000Y-81030000D02*
X149880000Y-81030000D01*
X152310000Y-81030000D02*
X153860000Y-79480000D01*
X153860000Y-76680000D02*
X153860000Y-79480000D01*
%TD*%
M02*
