%TF.GenerationSoftware,KiCad,Pcbnew,9.0.3*%
%TF.CreationDate,2025-09-19T11:05:40+12:00*%
%TF.ProjectId,sensors,73656e73-6f72-4732-9e6b-696361645f70,rev?*%
%TF.SameCoordinates,Original*%
%TF.FileFunction,Legend,Top*%
%TF.FilePolarity,Positive*%
%FSLAX46Y46*%
G04 Gerber Fmt 4.6, Leading zero omitted, Abs format (unit mm)*
G04 Created by KiCad (PCBNEW 9.0.3) date 2025-09-19 11:05:40*
%MOMM*%
%LPD*%
G01*
G04 APERTURE LIST*
%ADD10C,0.100000*%
%ADD11C,0.150000*%
%ADD12C,0.120000*%
G04 APERTURE END LIST*
D10*
X151880074Y-106972419D02*
X151403884Y-106972419D01*
X151403884Y-106972419D02*
X151403884Y-105972419D01*
X152546741Y-106448609D02*
X152213408Y-106448609D01*
X152213408Y-106972419D02*
X152213408Y-105972419D01*
X152213408Y-105972419D02*
X152689598Y-105972419D01*
X153641979Y-106972419D02*
X153308646Y-106496228D01*
X153070551Y-106972419D02*
X153070551Y-105972419D01*
X153070551Y-105972419D02*
X153451503Y-105972419D01*
X153451503Y-105972419D02*
X153546741Y-106020038D01*
X153546741Y-106020038D02*
X153594360Y-106067657D01*
X153594360Y-106067657D02*
X153641979Y-106162895D01*
X153641979Y-106162895D02*
X153641979Y-106305752D01*
X153641979Y-106305752D02*
X153594360Y-106400990D01*
X153594360Y-106400990D02*
X153546741Y-106448609D01*
X153546741Y-106448609D02*
X153451503Y-106496228D01*
X153451503Y-106496228D02*
X153070551Y-106496228D01*
X155356265Y-106020038D02*
X155261027Y-105972419D01*
X155261027Y-105972419D02*
X155118170Y-105972419D01*
X155118170Y-105972419D02*
X154975313Y-106020038D01*
X154975313Y-106020038D02*
X154880075Y-106115276D01*
X154880075Y-106115276D02*
X154832456Y-106210514D01*
X154832456Y-106210514D02*
X154784837Y-106400990D01*
X154784837Y-106400990D02*
X154784837Y-106543847D01*
X154784837Y-106543847D02*
X154832456Y-106734323D01*
X154832456Y-106734323D02*
X154880075Y-106829561D01*
X154880075Y-106829561D02*
X154975313Y-106924800D01*
X154975313Y-106924800D02*
X155118170Y-106972419D01*
X155118170Y-106972419D02*
X155213408Y-106972419D01*
X155213408Y-106972419D02*
X155356265Y-106924800D01*
X155356265Y-106924800D02*
X155403884Y-106877180D01*
X155403884Y-106877180D02*
X155403884Y-106543847D01*
X155403884Y-106543847D02*
X155213408Y-106543847D01*
X155832456Y-106972419D02*
X155832456Y-106305752D01*
X155832456Y-106496228D02*
X155880075Y-106400990D01*
X155880075Y-106400990D02*
X155927694Y-106353371D01*
X155927694Y-106353371D02*
X156022932Y-106305752D01*
X156022932Y-106305752D02*
X156118170Y-106305752D01*
X156594361Y-106972419D02*
X156499123Y-106924800D01*
X156499123Y-106924800D02*
X156451504Y-106877180D01*
X156451504Y-106877180D02*
X156403885Y-106781942D01*
X156403885Y-106781942D02*
X156403885Y-106496228D01*
X156403885Y-106496228D02*
X156451504Y-106400990D01*
X156451504Y-106400990D02*
X156499123Y-106353371D01*
X156499123Y-106353371D02*
X156594361Y-106305752D01*
X156594361Y-106305752D02*
X156737218Y-106305752D01*
X156737218Y-106305752D02*
X156832456Y-106353371D01*
X156832456Y-106353371D02*
X156880075Y-106400990D01*
X156880075Y-106400990D02*
X156927694Y-106496228D01*
X156927694Y-106496228D02*
X156927694Y-106781942D01*
X156927694Y-106781942D02*
X156880075Y-106877180D01*
X156880075Y-106877180D02*
X156832456Y-106924800D01*
X156832456Y-106924800D02*
X156737218Y-106972419D01*
X156737218Y-106972419D02*
X156594361Y-106972419D01*
X157784837Y-106305752D02*
X157784837Y-106972419D01*
X157356266Y-106305752D02*
X157356266Y-106829561D01*
X157356266Y-106829561D02*
X157403885Y-106924800D01*
X157403885Y-106924800D02*
X157499123Y-106972419D01*
X157499123Y-106972419D02*
X157641980Y-106972419D01*
X157641980Y-106972419D02*
X157737218Y-106924800D01*
X157737218Y-106924800D02*
X157784837Y-106877180D01*
X158261028Y-106305752D02*
X158261028Y-107305752D01*
X158261028Y-106353371D02*
X158356266Y-106305752D01*
X158356266Y-106305752D02*
X158546742Y-106305752D01*
X158546742Y-106305752D02*
X158641980Y-106353371D01*
X158641980Y-106353371D02*
X158689599Y-106400990D01*
X158689599Y-106400990D02*
X158737218Y-106496228D01*
X158737218Y-106496228D02*
X158737218Y-106781942D01*
X158737218Y-106781942D02*
X158689599Y-106877180D01*
X158689599Y-106877180D02*
X158641980Y-106924800D01*
X158641980Y-106924800D02*
X158546742Y-106972419D01*
X158546742Y-106972419D02*
X158356266Y-106972419D01*
X158356266Y-106972419D02*
X158261028Y-106924800D01*
X159832457Y-105972419D02*
X160451504Y-105972419D01*
X160451504Y-105972419D02*
X160118171Y-106353371D01*
X160118171Y-106353371D02*
X160261028Y-106353371D01*
X160261028Y-106353371D02*
X160356266Y-106400990D01*
X160356266Y-106400990D02*
X160403885Y-106448609D01*
X160403885Y-106448609D02*
X160451504Y-106543847D01*
X160451504Y-106543847D02*
X160451504Y-106781942D01*
X160451504Y-106781942D02*
X160403885Y-106877180D01*
X160403885Y-106877180D02*
X160356266Y-106924800D01*
X160356266Y-106924800D02*
X160261028Y-106972419D01*
X160261028Y-106972419D02*
X159975314Y-106972419D01*
X159975314Y-106972419D02*
X159880076Y-106924800D01*
X159880076Y-106924800D02*
X159832457Y-106877180D01*
X160832457Y-106067657D02*
X160880076Y-106020038D01*
X160880076Y-106020038D02*
X160975314Y-105972419D01*
X160975314Y-105972419D02*
X161213409Y-105972419D01*
X161213409Y-105972419D02*
X161308647Y-106020038D01*
X161308647Y-106020038D02*
X161356266Y-106067657D01*
X161356266Y-106067657D02*
X161403885Y-106162895D01*
X161403885Y-106162895D02*
X161403885Y-106258133D01*
X161403885Y-106258133D02*
X161356266Y-106400990D01*
X161356266Y-106400990D02*
X160784838Y-106972419D01*
X160784838Y-106972419D02*
X161403885Y-106972419D01*
D11*
X163533333Y-81559580D02*
X163485714Y-81607200D01*
X163485714Y-81607200D02*
X163342857Y-81654819D01*
X163342857Y-81654819D02*
X163247619Y-81654819D01*
X163247619Y-81654819D02*
X163104762Y-81607200D01*
X163104762Y-81607200D02*
X163009524Y-81511961D01*
X163009524Y-81511961D02*
X162961905Y-81416723D01*
X162961905Y-81416723D02*
X162914286Y-81226247D01*
X162914286Y-81226247D02*
X162914286Y-81083390D01*
X162914286Y-81083390D02*
X162961905Y-80892914D01*
X162961905Y-80892914D02*
X163009524Y-80797676D01*
X163009524Y-80797676D02*
X163104762Y-80702438D01*
X163104762Y-80702438D02*
X163247619Y-80654819D01*
X163247619Y-80654819D02*
X163342857Y-80654819D01*
X163342857Y-80654819D02*
X163485714Y-80702438D01*
X163485714Y-80702438D02*
X163533333Y-80750057D01*
X164485714Y-81654819D02*
X163914286Y-81654819D01*
X164200000Y-81654819D02*
X164200000Y-80654819D01*
X164200000Y-80654819D02*
X164104762Y-80797676D01*
X164104762Y-80797676D02*
X164009524Y-80892914D01*
X164009524Y-80892914D02*
X163914286Y-80940533D01*
X155433333Y-77654819D02*
X155100000Y-77178628D01*
X154861905Y-77654819D02*
X154861905Y-76654819D01*
X154861905Y-76654819D02*
X155242857Y-76654819D01*
X155242857Y-76654819D02*
X155338095Y-76702438D01*
X155338095Y-76702438D02*
X155385714Y-76750057D01*
X155385714Y-76750057D02*
X155433333Y-76845295D01*
X155433333Y-76845295D02*
X155433333Y-76988152D01*
X155433333Y-76988152D02*
X155385714Y-77083390D01*
X155385714Y-77083390D02*
X155338095Y-77131009D01*
X155338095Y-77131009D02*
X155242857Y-77178628D01*
X155242857Y-77178628D02*
X154861905Y-77178628D01*
X156385714Y-77654819D02*
X155814286Y-77654819D01*
X156100000Y-77654819D02*
X156100000Y-76654819D01*
X156100000Y-76654819D02*
X156004762Y-76797676D01*
X156004762Y-76797676D02*
X155909524Y-76892914D01*
X155909524Y-76892914D02*
X155814286Y-76940533D01*
X160333333Y-77454819D02*
X160000000Y-76978628D01*
X159761905Y-77454819D02*
X159761905Y-76454819D01*
X159761905Y-76454819D02*
X160142857Y-76454819D01*
X160142857Y-76454819D02*
X160238095Y-76502438D01*
X160238095Y-76502438D02*
X160285714Y-76550057D01*
X160285714Y-76550057D02*
X160333333Y-76645295D01*
X160333333Y-76645295D02*
X160333333Y-76788152D01*
X160333333Y-76788152D02*
X160285714Y-76883390D01*
X160285714Y-76883390D02*
X160238095Y-76931009D01*
X160238095Y-76931009D02*
X160142857Y-76978628D01*
X160142857Y-76978628D02*
X159761905Y-76978628D01*
X160714286Y-76550057D02*
X160761905Y-76502438D01*
X160761905Y-76502438D02*
X160857143Y-76454819D01*
X160857143Y-76454819D02*
X161095238Y-76454819D01*
X161095238Y-76454819D02*
X161190476Y-76502438D01*
X161190476Y-76502438D02*
X161238095Y-76550057D01*
X161238095Y-76550057D02*
X161285714Y-76645295D01*
X161285714Y-76645295D02*
X161285714Y-76740533D01*
X161285714Y-76740533D02*
X161238095Y-76883390D01*
X161238095Y-76883390D02*
X160666667Y-77454819D01*
X160666667Y-77454819D02*
X161285714Y-77454819D01*
X167266666Y-77514819D02*
X167266666Y-78229104D01*
X167266666Y-78229104D02*
X167219047Y-78371961D01*
X167219047Y-78371961D02*
X167123809Y-78467200D01*
X167123809Y-78467200D02*
X166980952Y-78514819D01*
X166980952Y-78514819D02*
X166885714Y-78514819D01*
X168266666Y-78514819D02*
X167695238Y-78514819D01*
X167980952Y-78514819D02*
X167980952Y-77514819D01*
X167980952Y-77514819D02*
X167885714Y-77657676D01*
X167885714Y-77657676D02*
X167790476Y-77752914D01*
X167790476Y-77752914D02*
X167695238Y-77800533D01*
D12*
%TO.C,C1*%
X164610000Y-84088748D02*
X164610000Y-85511252D01*
X162790000Y-84088748D02*
X162790000Y-85511252D01*
%TO.C,R1*%
X154130000Y-79540000D02*
X154460000Y-79540000D01*
X154130000Y-86080000D02*
X154130000Y-79540000D01*
X154460000Y-86080000D02*
X154130000Y-86080000D01*
X156540000Y-86080000D02*
X156870000Y-86080000D01*
X156870000Y-79540000D02*
X156540000Y-79540000D01*
X156870000Y-86080000D02*
X156870000Y-79540000D01*
%TO.C,R2*%
X159130000Y-79540000D02*
X159460000Y-79540000D01*
X159130000Y-86080000D02*
X159130000Y-79540000D01*
X159460000Y-86080000D02*
X159130000Y-86080000D01*
X161540000Y-86080000D02*
X161870000Y-86080000D01*
X161870000Y-79540000D02*
X161540000Y-79540000D01*
X161870000Y-86080000D02*
X161870000Y-79540000D01*
%TO.C,J1*%
X166220000Y-84430000D02*
X166220000Y-79240000D01*
X168980000Y-79240000D02*
X166220000Y-79240000D01*
X168980000Y-84430000D02*
X166220000Y-84430000D01*
X168980000Y-84430000D02*
X168980000Y-79240000D01*
X168980000Y-85700000D02*
X168980000Y-87080000D01*
X168980000Y-87080000D02*
X167600000Y-87080000D01*
%TD*%
M02*
