%TF.GenerationSoftware,KiCad,Pcbnew,9.0.3*%
%TF.CreationDate,2025-09-19T11:05:40+12:00*%
%TF.ProjectId,sensors,73656e73-6f72-4732-9e6b-696361645f70,rev?*%
%TF.SameCoordinates,Original*%
%TF.FileFunction,Legend,Bot*%
%TF.FilePolarity,Positive*%
%FSLAX46Y46*%
G04 Gerber Fmt 4.6, Leading zero omitted, Abs format (unit mm)*
G04 Created by KiCad (PCBNEW 9.0.3) date 2025-09-19 11:05:40*
%MOMM*%
%LPD*%
G01*
G04 APERTURE LIST*
%ADD10C,0.150000*%
%ADD11C,0.127000*%
G04 APERTURE END LIST*
D10*
X159251498Y-96797362D02*
X159251498Y-97610226D01*
X159251498Y-97610226D02*
X159203682Y-97705857D01*
X159203682Y-97705857D02*
X159155867Y-97753673D01*
X159155867Y-97753673D02*
X159060236Y-97801488D01*
X159060236Y-97801488D02*
X158868974Y-97801488D01*
X158868974Y-97801488D02*
X158773343Y-97753673D01*
X158773343Y-97753673D02*
X158725527Y-97705857D01*
X158725527Y-97705857D02*
X158677712Y-97610226D01*
X158677712Y-97610226D02*
X158677712Y-96797362D01*
X157673585Y-97801488D02*
X158247371Y-97801488D01*
X157960478Y-97801488D02*
X157960478Y-96797362D01*
X157960478Y-96797362D02*
X158056109Y-96940809D01*
X158056109Y-96940809D02*
X158151740Y-97036440D01*
X158151740Y-97036440D02*
X158247371Y-97084255D01*
D11*
%TO.C,U1*%
X155100000Y-90970000D02*
X155100000Y-95720000D01*
X155100000Y-95720000D02*
X159080000Y-95720000D01*
X156250000Y-89820000D02*
X159080000Y-89820000D01*
X161420000Y-89820000D02*
X163850000Y-89820000D01*
X163850000Y-89820000D02*
X165400000Y-91370000D01*
X163850000Y-95720000D02*
X161420000Y-95720000D01*
X163850000Y-95720000D02*
X165400000Y-94170000D01*
X165400000Y-91370000D02*
X165400000Y-94170000D01*
%TD*%
M02*
