%TF.GenerationSoftware,KiCad,Pcbnew,9.0.3*%
%TF.CreationDate,2025-09-19T10:57:45+12:00*%
%TF.ProjectId,LFR_PCB_Main,4c46525f-5043-4425-9f4d-61696e2e6b69,REV4*%
%TF.SameCoordinates,Original*%
%TF.FileFunction,Copper,L2,Bot*%
%TF.FilePolarity,Positive*%
%FSLAX46Y46*%
G04 Gerber Fmt 4.6, Leading zero omitted, Abs format (unit mm)*
G04 Created by KiCad (PCBNEW 9.0.3) date 2025-09-19 10:57:45*
%MOMM*%
%LPD*%
G01*
G04 APERTURE LIST*
G04 Aperture macros list*
%AMRoundRect*
0 Rectangle with rounded corners*
0 $1 Rounding radius*
0 $2 $3 $4 $5 $6 $7 $8 $9 X,Y pos of 4 corners*
0 Add a 4 corners polygon primitive as box body*
4,1,4,$2,$3,$4,$5,$6,$7,$8,$9,$2,$3,0*
0 Add four circle primitives for the rounded corners*
1,1,$1+$1,$2,$3*
1,1,$1+$1,$4,$5*
1,1,$1+$1,$6,$7*
1,1,$1+$1,$8,$9*
0 Add four rect primitives between the rounded corners*
20,1,$1+$1,$2,$3,$4,$5,0*
20,1,$1+$1,$4,$5,$6,$7,0*
20,1,$1+$1,$6,$7,$8,$9,0*
20,1,$1+$1,$8,$9,$2,$3,0*%
G04 Aperture macros list end*
%TA.AperFunction,ComponentPad*%
%ADD10R,1.700000X1.700000*%
%TD*%
%TA.AperFunction,ComponentPad*%
%ADD11C,1.700000*%
%TD*%
%TA.AperFunction,ComponentPad*%
%ADD12R,1.800000X1.800000*%
%TD*%
%TA.AperFunction,ComponentPad*%
%ADD13C,1.800000*%
%TD*%
%TA.AperFunction,ComponentPad*%
%ADD14RoundRect,0.250000X-0.600000X0.600000X-0.600000X-0.600000X0.600000X-0.600000X0.600000X0.600000X0*%
%TD*%
%TA.AperFunction,ComponentPad*%
%ADD15RoundRect,0.249999X0.850001X-0.850001X0.850001X0.850001X-0.850001X0.850001X-0.850001X-0.850001X0*%
%TD*%
%TA.AperFunction,ComponentPad*%
%ADD16C,2.200000*%
%TD*%
%TA.AperFunction,ComponentPad*%
%ADD17RoundRect,0.250000X0.550000X-0.550000X0.550000X0.550000X-0.550000X0.550000X-0.550000X-0.550000X0*%
%TD*%
%TA.AperFunction,ComponentPad*%
%ADD18C,1.600000*%
%TD*%
%TA.AperFunction,ComponentPad*%
%ADD19R,1.600000X1.600000*%
%TD*%
%TA.AperFunction,ComponentPad*%
%ADD20R,2.000000X2.000000*%
%TD*%
%TA.AperFunction,ComponentPad*%
%ADD21C,2.000000*%
%TD*%
%TA.AperFunction,ComponentPad*%
%ADD22R,1.500000X1.050000*%
%TD*%
%TA.AperFunction,ComponentPad*%
%ADD23O,1.500000X1.050000*%
%TD*%
%TA.AperFunction,ComponentPad*%
%ADD24C,1.397000*%
%TD*%
%TA.AperFunction,ComponentPad*%
%ADD25RoundRect,0.249999X-0.850001X0.850001X-0.850001X-0.850001X0.850001X-0.850001X0.850001X0.850001X0*%
%TD*%
%TA.AperFunction,ViaPad*%
%ADD26C,0.600000*%
%TD*%
%TA.AperFunction,Conductor*%
%ADD27C,0.254000*%
%TD*%
G04 APERTURE END LIST*
D10*
%TO.P,J8,1,Pin_1*%
%TO.N,GND*%
X104300000Y-92210000D03*
D11*
%TO.P,J8,2,Pin_2*%
%TO.N,TXD*%
X104300000Y-89670000D03*
%TO.P,J8,3,Pin_3*%
%TO.N,RXD*%
X104300000Y-87130000D03*
%TO.P,J8,4,Pin_4*%
%TO.N,Vre*%
X104300000Y-84590000D03*
%TD*%
D12*
%TO.P,D4,1*%
%TO.N,GND*%
X106780000Y-117140000D03*
D13*
%TO.P,D4,2*%
%TO.N,Net-(R6--)*%
X109320000Y-117140000D03*
%TD*%
D14*
%TO.P,J9,1,MISO*%
%TO.N,Net-(J9-MISO)*%
X136840000Y-79360000D03*
D11*
%TO.P,J9,2,VCC*%
%TO.N,Vcc*%
X136840000Y-81900000D03*
%TO.P,J9,3,SCK*%
%TO.N,Net-(J9-SCK)*%
X134300000Y-79360000D03*
%TO.P,J9,4,MOSI*%
%TO.N,Net-(J9-MOSI)*%
X134300000Y-81900000D03*
%TO.P,J9,5,~{RST}*%
%TO.N,Vreset*%
X131760000Y-79360000D03*
%TO.P,J9,6,GND*%
%TO.N,GND*%
X131760000Y-81900000D03*
%TD*%
D15*
%TO.P,D2,1,K*%
%TO.N,Vbat+*%
X120900000Y-145880000D03*
D16*
%TO.P,D2,2,A*%
%TO.N,Net-(D2-A)*%
X120900000Y-135720000D03*
%TD*%
D17*
%TO.P,C1,1*%
%TO.N,Vbat+*%
X138600000Y-139100000D03*
D18*
%TO.P,C1,2*%
%TO.N,GND*%
X138600000Y-136600000D03*
%TD*%
D10*
%TO.P,J6,1,Pin_1*%
%TO.N,Net-(D1-A)*%
X125100000Y-147200000D03*
D11*
%TO.P,J6,2,Pin_2*%
%TO.N,Vbat+*%
X125100000Y-144660000D03*
%TD*%
D19*
%TO.P,U2,1,PC6*%
%TO.N,Vreset*%
X117100000Y-83140000D03*
D18*
%TO.P,U2,2,PD0*%
%TO.N,RXD*%
X117100000Y-85680000D03*
%TO.P,U2,3,PD1*%
%TO.N,TXD*%
X117100000Y-88220000D03*
%TO.P,U2,4,PD2*%
%TO.N,unconnected-(U2-PD2-Pad4)*%
X117100000Y-90760000D03*
%TO.P,U2,5,PD3*%
%TO.N,unconnected-(U2-PD3-Pad5)*%
X117100000Y-93300000D03*
%TO.P,U2,6,PD4*%
%TO.N,unconnected-(U2-PD4-Pad6)*%
X117100000Y-95840000D03*
%TO.P,U2,7,VCC*%
%TO.N,Vcc*%
X117100000Y-98380000D03*
%TO.P,U2,8,GND*%
%TO.N,GND*%
X117100000Y-100920000D03*
%TO.P,U2,9,PB6*%
%TO.N,XTAL1*%
X117100000Y-103460000D03*
%TO.P,U2,10,PB7*%
%TO.N,XTAL2*%
X117100000Y-106000000D03*
%TO.P,U2,11,PD5*%
%TO.N,Vgate1*%
X117100000Y-108540000D03*
%TO.P,U2,12,PD6*%
%TO.N,Vgate2*%
X117100000Y-111080000D03*
%TO.P,U2,13,PD7*%
%TO.N,Button1*%
X117100000Y-113620000D03*
%TO.P,U2,14,PB0*%
%TO.N,LED1*%
X117100000Y-116160000D03*
%TO.P,U2,15,PB1*%
%TO.N,LED2*%
X124720000Y-116160000D03*
%TO.P,U2,16,PB2*%
%TO.N,unconnected-(U2-PB2-Pad16)*%
X124720000Y-113620000D03*
%TO.P,U2,17,PB3*%
%TO.N,Vmosi*%
X124720000Y-111080000D03*
%TO.P,U2,18,PB4*%
%TO.N,Vmiso*%
X124720000Y-108540000D03*
%TO.P,U2,19,PB5*%
%TO.N,Vsck*%
X124720000Y-106000000D03*
%TO.P,U2,20,AVCC*%
%TO.N,Vcc*%
X124720000Y-103460000D03*
%TO.P,U2,21,AREF*%
%TO.N,unconnected-(U2-AREF-Pad21)*%
X124720000Y-100920000D03*
%TO.P,U2,22,GND*%
%TO.N,GND*%
X124720000Y-98380000D03*
%TO.P,U2,23,PC0*%
%TO.N,Vsens1*%
X124720000Y-95840000D03*
%TO.P,U2,24,PC1*%
%TO.N,Vsens2*%
X124720000Y-93300000D03*
%TO.P,U2,25,PC2*%
%TO.N,Vsens3*%
X124720000Y-90760000D03*
%TO.P,U2,26,PC3*%
%TO.N,Vsens4*%
X124720000Y-88220000D03*
%TO.P,U2,27,PC4*%
%TO.N,Vsens5*%
X124720000Y-85680000D03*
%TO.P,U2,28,PC5*%
%TO.N,unconnected-(U2-PC5-Pad28)*%
X124720000Y-83140000D03*
%TD*%
D20*
%TO.P,S1,1*%
%TO.N,GND*%
X114450000Y-95050000D03*
D21*
%TO.P,S1,2*%
X107950000Y-95050000D03*
%TO.P,S1,3*%
%TO.N,Net-(R3--)*%
X114450000Y-90550000D03*
%TO.P,S1,4*%
X107950000Y-90550000D03*
%TD*%
D10*
%TO.P,J5,1,Pin_1*%
%TO.N,Vcc*%
X133150000Y-92150000D03*
D11*
%TO.P,J5,2,Pin_2*%
%TO.N,Vsens5*%
X135690000Y-92150000D03*
%TO.P,J5,3,Pin_3*%
%TO.N,GND*%
X138230000Y-92150000D03*
%TD*%
D12*
%TO.P,D3,1*%
%TO.N,GND*%
X139500000Y-123900000D03*
D13*
%TO.P,D3,2*%
%TO.N,Net-(R1--)*%
X136960000Y-123900000D03*
%TD*%
D10*
%TO.P,J3,1,Pin_1*%
%TO.N,Vcc*%
X133140000Y-99450000D03*
D11*
%TO.P,J3,2,Pin_2*%
%TO.N,Vsens3*%
X135680000Y-99450000D03*
%TO.P,J3,3,Pin_3*%
%TO.N,GND*%
X138220000Y-99450000D03*
%TD*%
D18*
%TO.P,R2,1,+*%
%TO.N,Vcc*%
X141150000Y-87600000D03*
%TO.P,R2,2,-*%
%TO.N,Vreset*%
X128450000Y-87600000D03*
%TD*%
D17*
%TO.P,C3,1*%
%TO.N,Net-(U1-VO)*%
X137900000Y-131010000D03*
D18*
%TO.P,C3,2*%
%TO.N,GND*%
X137900000Y-129010000D03*
%TD*%
D10*
%TO.P,J7,1,Pin_1*%
%TO.N,Net-(D2-A)*%
X129500000Y-144625000D03*
D11*
%TO.P,J7,2,Pin_2*%
%TO.N,Vbat+*%
X129500000Y-147165000D03*
%TD*%
D20*
%TO.P,S2,1*%
%TO.N,Button1*%
X114740000Y-127830000D03*
D21*
%TO.P,S2,2*%
X108240000Y-127830000D03*
%TO.P,S2,3*%
%TO.N,Net-(R4-+)*%
X114740000Y-123330000D03*
%TO.P,S2,4*%
X108240000Y-123330000D03*
%TD*%
D22*
%TO.P,U1,1,GND*%
%TO.N,GND*%
X129640000Y-128959774D03*
D23*
%TO.P,U1,2,VI*%
%TO.N,Vbat+*%
X129640000Y-130229774D03*
%TO.P,U1,3,VO*%
%TO.N,Net-(U1-VO)*%
X129640000Y-131499774D03*
%TD*%
D24*
%TO.P,S3,1*%
%TO.N,Vcc*%
X125000000Y-124600000D03*
%TO.P,S3,2*%
%TO.N,Net-(U1-VO)*%
X127500000Y-124600000D03*
%TO.P,S3,3*%
%TO.N,unconnected-(S3-Pad3)*%
X130000000Y-124600000D03*
%TO.P,S3,4*%
%TO.N,Vcc*%
X130000000Y-121300000D03*
%TO.P,S3,5*%
%TO.N,Net-(U1-VO)*%
X127500000Y-121300000D03*
%TO.P,S3,6*%
%TO.N,unconnected-(S3-Pad6)*%
X125000000Y-121300000D03*
%TD*%
D10*
%TO.P,J2,1,Pin_1*%
%TO.N,Vcc*%
X133110000Y-103160000D03*
D11*
%TO.P,J2,2,Pin_2*%
%TO.N,Vsens2*%
X135650000Y-103160000D03*
%TO.P,J2,3,Pin_3*%
%TO.N,GND*%
X138190000Y-103160000D03*
%TD*%
D25*
%TO.P,D1,1,K*%
%TO.N,Vbat+*%
X117000000Y-137820000D03*
D16*
%TO.P,D1,2,A*%
%TO.N,Net-(D1-A)*%
X117000000Y-147980000D03*
%TD*%
D17*
%TO.P,C2,1*%
%TO.N,Vbat+*%
X121700000Y-130655113D03*
D18*
%TO.P,C2,2*%
%TO.N,GND*%
X121700000Y-128655113D03*
%TD*%
D10*
%TO.P,J4,1,Pin_1*%
%TO.N,Vcc*%
X133170000Y-95740000D03*
D11*
%TO.P,J4,2,Pin_2*%
%TO.N,Vsens4*%
X135710000Y-95740000D03*
%TO.P,J4,3,Pin_3*%
%TO.N,GND*%
X138250000Y-95740000D03*
%TD*%
D10*
%TO.P,J1,1,Pin_1*%
%TO.N,Vcc*%
X133090000Y-106880000D03*
D11*
%TO.P,J1,2,Pin_2*%
%TO.N,Vsens1*%
X135630000Y-106880000D03*
%TO.P,J1,3,Pin_3*%
%TO.N,GND*%
X138170000Y-106880000D03*
%TD*%
D18*
%TO.P,R5,1,+*%
%TO.N,GND*%
X117550000Y-131200000D03*
%TO.P,R5,2,-*%
%TO.N,Button1*%
X104850000Y-131200000D03*
%TD*%
D10*
%TO.P,J10,1,Pin_1*%
%TO.N,GND*%
X133100000Y-144577620D03*
D11*
%TO.P,J10,2,Pin_2*%
%TO.N,Vbat+*%
X133100000Y-147117620D03*
%TD*%
D12*
%TO.P,D5,1*%
%TO.N,GND*%
X134075000Y-116700000D03*
D13*
%TO.P,D5,2*%
%TO.N,Net-(R7--)*%
X131535000Y-116700000D03*
%TD*%
D26*
%TO.N,GND*%
X109899000Y-144839408D03*
X111900000Y-137900000D03*
X110300000Y-136400000D03*
X110300000Y-146600000D03*
X103590000Y-106000000D03*
X126000000Y-135600000D03*
X135090000Y-128509774D03*
X124890000Y-128609774D03*
%TO.N,Vsens1*%
X132230001Y-104775493D03*
X134100000Y-104800000D03*
%TO.N,Vsens2*%
X134100000Y-101300000D03*
X132260000Y-101300000D03*
%TO.N,Vsens3*%
X134050000Y-97800000D03*
X132290000Y-97800000D03*
%TO.N,Vsens4*%
X132100000Y-94300000D03*
X134030000Y-94300000D03*
%TO.N,Vsens5*%
X134500000Y-90800000D03*
X132298635Y-90547335D03*
%TD*%
D27*
%TO.N,Vsens1*%
X133975493Y-104775493D02*
X134075493Y-104775493D01*
X132230001Y-104775493D02*
X133975493Y-104775493D01*
X134075493Y-104775493D02*
X134100000Y-104800000D01*
%TO.N,Vsens2*%
X134100000Y-101300000D02*
X132260000Y-101300000D01*
%TO.N,Vsens3*%
X134050000Y-97800000D02*
X132390000Y-97800000D01*
X132390000Y-97800000D02*
X132290000Y-97800000D01*
%TO.N,Vsens4*%
X133930000Y-94300000D02*
X134030000Y-94300000D01*
X132100000Y-94300000D02*
X133930000Y-94300000D01*
%TO.N,Vsens5*%
X134300000Y-90600000D02*
X132351300Y-90600000D01*
X134500000Y-90800000D02*
X134300000Y-90600000D01*
X132351300Y-90600000D02*
X132298635Y-90547335D01*
%TD*%
%TA.AperFunction,Conductor*%
%TO.N,GND*%
G36*
X133101444Y-80013999D02*
G01*
X133140486Y-80059056D01*
X133144951Y-80067820D01*
X133269890Y-80239786D01*
X133420213Y-80390109D01*
X133592182Y-80515050D01*
X133600946Y-80519516D01*
X133651742Y-80567491D01*
X133668536Y-80635312D01*
X133645998Y-80701447D01*
X133600946Y-80740484D01*
X133592182Y-80744949D01*
X133420213Y-80869890D01*
X133269890Y-81020213D01*
X133144949Y-81192182D01*
X133140202Y-81201499D01*
X133092227Y-81252293D01*
X133024405Y-81269087D01*
X132958271Y-81246548D01*
X132919234Y-81201495D01*
X132914626Y-81192452D01*
X132875270Y-81138282D01*
X132875269Y-81138282D01*
X132242962Y-81770590D01*
X132225925Y-81707007D01*
X132160099Y-81592993D01*
X132067007Y-81499901D01*
X131952993Y-81434075D01*
X131889409Y-81417037D01*
X132521716Y-80784728D01*
X132467547Y-80745373D01*
X132467547Y-80745372D01*
X132458500Y-80740763D01*
X132407706Y-80692788D01*
X132390912Y-80624966D01*
X132413451Y-80558832D01*
X132458508Y-80519793D01*
X132467816Y-80515051D01*
X132586728Y-80428657D01*
X132639786Y-80390109D01*
X132639788Y-80390106D01*
X132639792Y-80390104D01*
X132790104Y-80239792D01*
X132790106Y-80239788D01*
X132790109Y-80239786D01*
X132915048Y-80067820D01*
X132915047Y-80067820D01*
X132915051Y-80067816D01*
X132919514Y-80059054D01*
X132967488Y-80008259D01*
X133035308Y-79991463D01*
X133101444Y-80013999D01*
G37*
%TD.AperFunction*%
%TA.AperFunction,Conductor*%
G36*
X143642539Y-74870185D02*
G01*
X143688294Y-74922989D01*
X143699500Y-74974500D01*
X143699500Y-149425500D01*
X143679815Y-149492539D01*
X143627011Y-149538294D01*
X143575500Y-149549500D01*
X117944335Y-149549500D01*
X117877296Y-149529815D01*
X117831541Y-149477011D01*
X117821597Y-149407853D01*
X117850622Y-149344297D01*
X117871450Y-149325182D01*
X118042649Y-149200798D01*
X118042647Y-149200798D01*
X118042656Y-149200793D01*
X118220793Y-149022656D01*
X118368870Y-148818845D01*
X118483241Y-148594379D01*
X118561090Y-148354785D01*
X118600500Y-148105962D01*
X118600500Y-147854038D01*
X118561090Y-147605215D01*
X118483241Y-147365621D01*
X118483239Y-147365618D01*
X118483239Y-147365616D01*
X118411034Y-147223907D01*
X118368870Y-147141155D01*
X118308973Y-147058713D01*
X118220798Y-146937350D01*
X118220794Y-146937345D01*
X118042654Y-146759205D01*
X118042649Y-146759201D01*
X117838848Y-146611132D01*
X117838847Y-146611131D01*
X117838845Y-146611130D01*
X117768747Y-146575413D01*
X117614383Y-146496760D01*
X117374785Y-146418910D01*
X117317261Y-146409799D01*
X117125962Y-146379500D01*
X116874038Y-146379500D01*
X116749626Y-146399205D01*
X116625214Y-146418910D01*
X116385616Y-146496760D01*
X116161151Y-146611132D01*
X115957350Y-146759201D01*
X115957345Y-146759205D01*
X115779205Y-146937345D01*
X115779201Y-146937350D01*
X115631132Y-147141151D01*
X115516760Y-147365616D01*
X115438910Y-147605214D01*
X115399500Y-147854038D01*
X115399500Y-148105961D01*
X115438910Y-148354785D01*
X115516760Y-148594383D01*
X115631132Y-148818848D01*
X115779201Y-149022649D01*
X115779205Y-149022654D01*
X115957345Y-149200794D01*
X115957350Y-149200798D01*
X116128550Y-149325182D01*
X116171216Y-149380512D01*
X116177195Y-149450125D01*
X116144589Y-149511920D01*
X116083751Y-149546277D01*
X116055665Y-149549500D01*
X102124500Y-149549500D01*
X102057461Y-149529815D01*
X102011706Y-149477011D01*
X102000500Y-149425500D01*
X102000500Y-144979982D01*
X119299500Y-144979982D01*
X119299500Y-146780017D01*
X119310000Y-146882796D01*
X119365185Y-147049332D01*
X119365187Y-147049337D01*
X119400070Y-147105890D01*
X119457288Y-147198656D01*
X119581344Y-147322712D01*
X119730665Y-147414814D01*
X119897202Y-147469999D01*
X119999990Y-147480500D01*
X119999995Y-147480500D01*
X121800005Y-147480500D01*
X121800010Y-147480500D01*
X121902798Y-147469999D01*
X122069335Y-147414814D01*
X122218656Y-147322712D01*
X122342712Y-147198656D01*
X122434814Y-147049335D01*
X122489999Y-146882798D01*
X122500500Y-146780010D01*
X122500500Y-144979990D01*
X122489999Y-144877202D01*
X122434814Y-144710665D01*
X122375151Y-144613937D01*
X122375151Y-144613935D01*
X122342714Y-144561347D01*
X122342711Y-144561343D01*
X122335081Y-144553713D01*
X123749500Y-144553713D01*
X123749500Y-144766287D01*
X123782754Y-144976243D01*
X123783971Y-144979990D01*
X123848444Y-145178414D01*
X123944951Y-145367820D01*
X124069890Y-145539786D01*
X124183430Y-145653326D01*
X124216915Y-145714649D01*
X124211931Y-145784341D01*
X124170059Y-145840274D01*
X124139083Y-145857189D01*
X124007669Y-145906203D01*
X124007664Y-145906206D01*
X123892455Y-145992452D01*
X123892452Y-145992455D01*
X123806206Y-146107664D01*
X123806202Y-146107671D01*
X123755908Y-146242517D01*
X123751318Y-146285215D01*
X123749501Y-146302123D01*
X123749500Y-146302135D01*
X123749500Y-148097870D01*
X123749501Y-148097876D01*
X123755908Y-148157483D01*
X123806202Y-148292328D01*
X123806206Y-148292335D01*
X123892452Y-148407544D01*
X123892455Y-148407547D01*
X124007664Y-148493793D01*
X124007671Y-148493797D01*
X124142517Y-148544091D01*
X124142516Y-148544091D01*
X124149444Y-148544835D01*
X124202127Y-148550500D01*
X125997872Y-148550499D01*
X126057483Y-148544091D01*
X126192331Y-148493796D01*
X126307546Y-148407546D01*
X126393796Y-148292331D01*
X126444091Y-148157483D01*
X126450500Y-148097873D01*
X126450499Y-146302128D01*
X126444091Y-146242517D01*
X126393796Y-146107669D01*
X126393795Y-146107668D01*
X126393793Y-146107664D01*
X126307547Y-145992455D01*
X126307544Y-145992452D01*
X126192335Y-145906206D01*
X126192328Y-145906202D01*
X126060917Y-145857189D01*
X126004983Y-145815318D01*
X125980566Y-145749853D01*
X125995418Y-145681580D01*
X126016563Y-145653332D01*
X126130104Y-145539792D01*
X126133592Y-145534992D01*
X126255048Y-145367820D01*
X126255047Y-145367820D01*
X126255051Y-145367816D01*
X126351557Y-145178412D01*
X126417246Y-144976243D01*
X126450500Y-144766287D01*
X126450500Y-144553713D01*
X126417246Y-144343757D01*
X126351557Y-144141588D01*
X126255051Y-143952184D01*
X126130104Y-143780208D01*
X126077031Y-143727135D01*
X128149500Y-143727135D01*
X128149500Y-145522870D01*
X128149501Y-145522876D01*
X128155908Y-145582483D01*
X128206202Y-145717328D01*
X128206206Y-145717335D01*
X128292452Y-145832544D01*
X128292455Y-145832547D01*
X128407664Y-145918793D01*
X128407671Y-145918797D01*
X128539082Y-145967810D01*
X128595016Y-146009681D01*
X128619433Y-146075145D01*
X128604582Y-146143418D01*
X128583431Y-146171673D01*
X128469889Y-146285215D01*
X128344951Y-146457179D01*
X128248444Y-146646585D01*
X128182753Y-146848760D01*
X128149500Y-147058713D01*
X128149500Y-147271286D01*
X128175249Y-147433863D01*
X128182754Y-147481243D01*
X128234965Y-147641932D01*
X128248444Y-147683414D01*
X128344951Y-147872820D01*
X128469890Y-148044786D01*
X128620213Y-148195109D01*
X128792179Y-148320048D01*
X128792181Y-148320049D01*
X128792184Y-148320051D01*
X128981588Y-148416557D01*
X129183757Y-148482246D01*
X129393713Y-148515500D01*
X129393714Y-148515500D01*
X129606286Y-148515500D01*
X129606287Y-148515500D01*
X129816243Y-148482246D01*
X130018412Y-148416557D01*
X130207816Y-148320051D01*
X130245974Y-148292328D01*
X130379786Y-148195109D01*
X130379788Y-148195106D01*
X130379792Y-148195104D01*
X130530104Y-148044792D01*
X130530106Y-148044788D01*
X130530109Y-148044786D01*
X130655048Y-147872820D01*
X130655047Y-147872820D01*
X130655051Y-147872816D01*
X130751557Y-147683412D01*
X130817246Y-147481243D01*
X130850500Y-147271287D01*
X130850500Y-147058713D01*
X130842996Y-147011333D01*
X131749500Y-147011333D01*
X131749500Y-147223906D01*
X131779736Y-147414812D01*
X131782754Y-147433863D01*
X131802380Y-147494266D01*
X131848444Y-147636034D01*
X131944951Y-147825440D01*
X132069890Y-147997406D01*
X132220213Y-148147729D01*
X132392179Y-148272668D01*
X132392181Y-148272669D01*
X132392184Y-148272671D01*
X132581588Y-148369177D01*
X132783757Y-148434866D01*
X132993713Y-148468120D01*
X132993714Y-148468120D01*
X133206286Y-148468120D01*
X133206287Y-148468120D01*
X133416243Y-148434866D01*
X133618412Y-148369177D01*
X133807816Y-148272671D01*
X133914579Y-148195104D01*
X133979786Y-148147729D01*
X133979788Y-148147726D01*
X133979792Y-148147724D01*
X134130104Y-147997412D01*
X134130106Y-147997408D01*
X134130109Y-147997406D01*
X134255048Y-147825440D01*
X134255047Y-147825440D01*
X134255051Y-147825436D01*
X134351557Y-147636032D01*
X134417246Y-147433863D01*
X134450500Y-147223907D01*
X134450500Y-147011333D01*
X134417246Y-146801377D01*
X134351557Y-146599208D01*
X134255051Y-146409804D01*
X134255049Y-146409801D01*
X134255048Y-146409799D01*
X134130109Y-146237833D01*
X134016181Y-146123905D01*
X133999940Y-146094161D01*
X133983176Y-146064700D01*
X133983236Y-146063572D01*
X133982696Y-146062582D01*
X133985113Y-146028777D01*
X133986939Y-145994932D01*
X133987599Y-145994016D01*
X133987680Y-145992890D01*
X133998294Y-145978711D01*
X138249500Y-145978711D01*
X138249500Y-146221288D01*
X138281161Y-146461785D01*
X138343947Y-146696104D01*
X138436773Y-146920205D01*
X138436776Y-146920212D01*
X138558064Y-147130289D01*
X138558066Y-147130292D01*
X138558067Y-147130293D01*
X138705733Y-147322736D01*
X138705739Y-147322743D01*
X138877256Y-147494260D01*
X138877262Y-147494265D01*
X139069711Y-147641936D01*
X139279788Y-147763224D01*
X139503900Y-147856054D01*
X139738211Y-147918838D01*
X139918586Y-147942584D01*
X139978711Y-147950500D01*
X139978712Y-147950500D01*
X140221289Y-147950500D01*
X140269388Y-147944167D01*
X140461789Y-147918838D01*
X140696100Y-147856054D01*
X140920212Y-147763224D01*
X141130289Y-147641936D01*
X141322738Y-147494265D01*
X141494265Y-147322738D01*
X141641936Y-147130289D01*
X141763224Y-146920212D01*
X141856054Y-146696100D01*
X141918838Y-146461789D01*
X141950500Y-146221288D01*
X141950500Y-145978712D01*
X141949233Y-145969091D01*
X141933489Y-145849500D01*
X141918838Y-145738211D01*
X141856054Y-145503900D01*
X141763224Y-145279788D01*
X141641936Y-145069711D01*
X141570213Y-144976239D01*
X141494266Y-144877263D01*
X141494260Y-144877256D01*
X141322743Y-144705739D01*
X141322736Y-144705733D01*
X141130293Y-144558067D01*
X141130292Y-144558066D01*
X141130289Y-144558064D01*
X140920212Y-144436776D01*
X140920205Y-144436773D01*
X140696104Y-144343947D01*
X140494776Y-144290001D01*
X140461789Y-144281162D01*
X140461788Y-144281161D01*
X140461785Y-144281161D01*
X140221289Y-144249500D01*
X140221288Y-144249500D01*
X139978712Y-144249500D01*
X139978711Y-144249500D01*
X139738214Y-144281161D01*
X139503895Y-144343947D01*
X139279794Y-144436773D01*
X139279785Y-144436777D01*
X139069706Y-144558067D01*
X138877263Y-144705733D01*
X138877256Y-144705739D01*
X138705739Y-144877256D01*
X138705733Y-144877263D01*
X138558067Y-145069706D01*
X138436777Y-145279785D01*
X138436773Y-145279794D01*
X138343947Y-145503895D01*
X138281161Y-145738214D01*
X138249500Y-145978711D01*
X133998294Y-145978711D01*
X134007990Y-145965758D01*
X134027824Y-145938274D01*
X134029097Y-145937564D01*
X134029552Y-145936957D01*
X134058500Y-145920819D01*
X134199582Y-145865364D01*
X134307187Y-145784810D01*
X134307190Y-145784807D01*
X134393350Y-145669713D01*
X134393354Y-145669706D01*
X134443596Y-145534999D01*
X134443598Y-145534992D01*
X134449999Y-145475464D01*
X134450000Y-145475447D01*
X134450000Y-144827620D01*
X133533012Y-144827620D01*
X133565925Y-144770613D01*
X133600000Y-144643446D01*
X133600000Y-144511794D01*
X133565925Y-144384627D01*
X133533012Y-144327620D01*
X134450000Y-144327620D01*
X134450000Y-143679792D01*
X134449999Y-143679775D01*
X134443598Y-143620247D01*
X134443596Y-143620240D01*
X134393354Y-143485533D01*
X134393350Y-143485526D01*
X134307190Y-143370432D01*
X134307187Y-143370429D01*
X134192093Y-143284269D01*
X134192086Y-143284265D01*
X134057379Y-143234023D01*
X134057372Y-143234021D01*
X133997844Y-143227620D01*
X133350000Y-143227620D01*
X133350000Y-144144608D01*
X133292993Y-144111695D01*
X133165826Y-144077620D01*
X133034174Y-144077620D01*
X132907007Y-144111695D01*
X132850000Y-144144608D01*
X132850000Y-143227620D01*
X132202155Y-143227620D01*
X132142627Y-143234021D01*
X132142620Y-143234023D01*
X132007913Y-143284265D01*
X132007906Y-143284269D01*
X131892812Y-143370429D01*
X131892809Y-143370432D01*
X131806649Y-143485526D01*
X131806645Y-143485533D01*
X131756403Y-143620240D01*
X131756401Y-143620247D01*
X131750000Y-143679775D01*
X131750000Y-144327620D01*
X132666988Y-144327620D01*
X132634075Y-144384627D01*
X132600000Y-144511794D01*
X132600000Y-144643446D01*
X132634075Y-144770613D01*
X132666988Y-144827620D01*
X131750000Y-144827620D01*
X131750000Y-145475464D01*
X131756401Y-145534992D01*
X131756403Y-145534999D01*
X131806645Y-145669706D01*
X131806649Y-145669713D01*
X131892809Y-145784807D01*
X131892812Y-145784810D01*
X132007906Y-145870970D01*
X132007913Y-145870974D01*
X132139470Y-145920042D01*
X132195404Y-145961913D01*
X132219821Y-146027378D01*
X132204969Y-146095651D01*
X132183819Y-146123905D01*
X132069889Y-146237835D01*
X131944951Y-146409799D01*
X131848444Y-146599205D01*
X131782753Y-146801380D01*
X131749500Y-147011333D01*
X130842996Y-147011333D01*
X130817246Y-146848757D01*
X130751557Y-146646588D01*
X130655051Y-146457184D01*
X130655049Y-146457181D01*
X130655048Y-146457179D01*
X130530109Y-146285213D01*
X130416569Y-146171673D01*
X130383084Y-146110350D01*
X130388068Y-146040658D01*
X130429940Y-145984725D01*
X130460915Y-145967810D01*
X130592331Y-145918796D01*
X130707546Y-145832546D01*
X130793796Y-145717331D01*
X130844091Y-145582483D01*
X130850500Y-145522873D01*
X130850499Y-143727128D01*
X130844091Y-143667517D01*
X130830059Y-143629896D01*
X130793797Y-143532671D01*
X130793793Y-143532664D01*
X130707547Y-143417455D01*
X130707544Y-143417452D01*
X130592335Y-143331206D01*
X130592328Y-143331202D01*
X130457482Y-143280908D01*
X130457483Y-143280908D01*
X130397883Y-143274501D01*
X130397881Y-143274500D01*
X130397873Y-143274500D01*
X130397864Y-143274500D01*
X128602129Y-143274500D01*
X128602123Y-143274501D01*
X128542516Y-143280908D01*
X128407671Y-143331202D01*
X128407664Y-143331206D01*
X128292455Y-143417452D01*
X128292452Y-143417455D01*
X128206206Y-143532664D01*
X128206202Y-143532671D01*
X128155908Y-143667517D01*
X128153521Y-143689725D01*
X128149501Y-143727125D01*
X128149500Y-143727135D01*
X126077031Y-143727135D01*
X125979792Y-143629896D01*
X125979786Y-143629890D01*
X125807820Y-143504951D01*
X125618414Y-143408444D01*
X125618413Y-143408443D01*
X125618412Y-143408443D01*
X125416243Y-143342754D01*
X125416241Y-143342753D01*
X125416240Y-143342753D01*
X125254957Y-143317208D01*
X125206287Y-143309500D01*
X124993713Y-143309500D01*
X124945042Y-143317208D01*
X124783760Y-143342753D01*
X124581585Y-143408444D01*
X124392179Y-143504951D01*
X124220213Y-143629890D01*
X124069890Y-143780213D01*
X123944951Y-143952179D01*
X123848444Y-144141585D01*
X123782753Y-144343760D01*
X123768021Y-144436776D01*
X123749500Y-144553713D01*
X122335081Y-144553713D01*
X122218657Y-144437289D01*
X122218656Y-144437288D01*
X122069335Y-144345186D01*
X121902798Y-144290001D01*
X121902796Y-144290000D01*
X121800017Y-144279500D01*
X121800010Y-144279500D01*
X119999990Y-144279500D01*
X119999982Y-144279500D01*
X119897203Y-144290000D01*
X119897202Y-144290001D01*
X119814669Y-144317349D01*
X119730667Y-144345185D01*
X119730662Y-144345187D01*
X119581342Y-144437289D01*
X119457289Y-144561342D01*
X119365187Y-144710662D01*
X119365186Y-144710665D01*
X119310001Y-144877202D01*
X119310001Y-144877203D01*
X119310000Y-144877203D01*
X119299500Y-144979982D01*
X102000500Y-144979982D01*
X102000500Y-141578711D01*
X103949500Y-141578711D01*
X103949500Y-141821288D01*
X103981161Y-142061785D01*
X104043947Y-142296104D01*
X104136773Y-142520205D01*
X104136776Y-142520212D01*
X104258064Y-142730289D01*
X104258066Y-142730292D01*
X104258067Y-142730293D01*
X104405733Y-142922736D01*
X104405739Y-142922743D01*
X104577256Y-143094260D01*
X104577262Y-143094265D01*
X104769711Y-143241936D01*
X104979788Y-143363224D01*
X105203900Y-143456054D01*
X105438211Y-143518838D01*
X105618586Y-143542584D01*
X105678711Y-143550500D01*
X105678712Y-143550500D01*
X105921289Y-143550500D01*
X105969388Y-143544167D01*
X106161789Y-143518838D01*
X106396100Y-143456054D01*
X106620212Y-143363224D01*
X106830289Y-143241936D01*
X107022738Y-143094265D01*
X107194265Y-142922738D01*
X107341936Y-142730289D01*
X107463224Y-142520212D01*
X107556054Y-142296100D01*
X107618838Y-142061789D01*
X107650500Y-141821288D01*
X107650500Y-141578712D01*
X107618838Y-141338211D01*
X107556054Y-141103900D01*
X107463224Y-140879788D01*
X107341936Y-140669711D01*
X107194265Y-140477262D01*
X107194260Y-140477256D01*
X107022743Y-140305739D01*
X107022736Y-140305733D01*
X106830293Y-140158067D01*
X106830292Y-140158066D01*
X106830289Y-140158064D01*
X106620212Y-140036776D01*
X106620205Y-140036773D01*
X106396104Y-139943947D01*
X106161785Y-139881161D01*
X105921289Y-139849500D01*
X105921288Y-139849500D01*
X105678712Y-139849500D01*
X105678711Y-139849500D01*
X105438214Y-139881161D01*
X105203895Y-139943947D01*
X104979794Y-140036773D01*
X104979785Y-140036777D01*
X104769706Y-140158067D01*
X104577263Y-140305733D01*
X104577256Y-140305739D01*
X104405739Y-140477256D01*
X104405733Y-140477263D01*
X104258067Y-140669706D01*
X104136777Y-140879785D01*
X104136773Y-140879794D01*
X104043947Y-141103895D01*
X103981161Y-141338214D01*
X103949500Y-141578711D01*
X102000500Y-141578711D01*
X102000500Y-136919982D01*
X115399500Y-136919982D01*
X115399500Y-138720017D01*
X115410000Y-138822796D01*
X115410001Y-138822798D01*
X115465186Y-138989335D01*
X115557288Y-139138656D01*
X115681344Y-139262712D01*
X115830665Y-139354814D01*
X115997202Y-139409999D01*
X116099990Y-139420500D01*
X116099995Y-139420500D01*
X117900005Y-139420500D01*
X117900010Y-139420500D01*
X118002798Y-139409999D01*
X118169335Y-139354814D01*
X118318656Y-139262712D01*
X118442712Y-139138656D01*
X118534814Y-138989335D01*
X118589999Y-138822798D01*
X118600500Y-138720010D01*
X118600500Y-138499983D01*
X137299500Y-138499983D01*
X137299500Y-139700001D01*
X137299501Y-139700018D01*
X137310000Y-139802796D01*
X137310001Y-139802799D01*
X137365185Y-139969331D01*
X137365186Y-139969334D01*
X137457288Y-140118656D01*
X137581344Y-140242712D01*
X137730666Y-140334814D01*
X137897203Y-140389999D01*
X137999991Y-140400500D01*
X139200008Y-140400499D01*
X139302797Y-140389999D01*
X139469334Y-140334814D01*
X139618656Y-140242712D01*
X139742712Y-140118656D01*
X139834814Y-139969334D01*
X139889999Y-139802797D01*
X139900500Y-139700009D01*
X139900499Y-138499992D01*
X139889999Y-138397203D01*
X139834814Y-138230666D01*
X139742712Y-138081344D01*
X139618656Y-137957288D01*
X139469334Y-137865186D01*
X139407558Y-137844715D01*
X139350115Y-137804943D01*
X139323292Y-137740427D01*
X139322946Y-137717280D01*
X139325921Y-137679473D01*
X138646447Y-137000000D01*
X138652661Y-137000000D01*
X138754394Y-136972741D01*
X138845606Y-136920080D01*
X138920080Y-136845606D01*
X138972741Y-136754394D01*
X139000000Y-136652661D01*
X139000000Y-136646448D01*
X139679474Y-137325922D01*
X139679474Y-137325921D01*
X139711859Y-137281349D01*
X139804755Y-137099031D01*
X139867990Y-136904417D01*
X139900000Y-136702317D01*
X139900000Y-136497682D01*
X139867990Y-136295582D01*
X139804755Y-136100968D01*
X139711859Y-135918650D01*
X139679474Y-135874077D01*
X139679474Y-135874076D01*
X139000000Y-136553551D01*
X139000000Y-136547339D01*
X138972741Y-136445606D01*
X138920080Y-136354394D01*
X138845606Y-136279920D01*
X138754394Y-136227259D01*
X138652661Y-136200000D01*
X138646446Y-136200000D01*
X139325922Y-135520524D01*
X139325921Y-135520523D01*
X139281359Y-135488147D01*
X139281350Y-135488141D01*
X139099031Y-135395244D01*
X138904417Y-135332009D01*
X138702317Y-135300000D01*
X138497683Y-135300000D01*
X138295582Y-135332009D01*
X138100968Y-135395244D01*
X137918644Y-135488143D01*
X137874077Y-135520523D01*
X137874077Y-135520524D01*
X138553554Y-136200000D01*
X138547339Y-136200000D01*
X138445606Y-136227259D01*
X138354394Y-136279920D01*
X138279920Y-136354394D01*
X138227259Y-136445606D01*
X138200000Y-136547339D01*
X138200000Y-136553553D01*
X137520524Y-135874077D01*
X137520523Y-135874077D01*
X137488143Y-135918644D01*
X137395244Y-136100968D01*
X137332009Y-136295582D01*
X137300000Y-136497682D01*
X137300000Y-136702317D01*
X137332009Y-136904417D01*
X137395244Y-137099031D01*
X137488141Y-137281350D01*
X137488147Y-137281359D01*
X137520523Y-137325921D01*
X137520524Y-137325922D01*
X138200000Y-136646446D01*
X138200000Y-136652661D01*
X138227259Y-136754394D01*
X138279920Y-136845606D01*
X138354394Y-136920080D01*
X138445606Y-136972741D01*
X138547339Y-137000000D01*
X138553553Y-137000000D01*
X137874076Y-137679474D01*
X137877052Y-137717282D01*
X137862687Y-137785659D01*
X137813636Y-137835415D01*
X137792440Y-137844715D01*
X137730672Y-137865184D01*
X137730663Y-137865187D01*
X137581342Y-137957289D01*
X137457289Y-138081342D01*
X137365187Y-138230663D01*
X137365186Y-138230666D01*
X137310001Y-138397203D01*
X137310001Y-138397204D01*
X137310000Y-138397204D01*
X137299500Y-138499983D01*
X118600500Y-138499983D01*
X118600500Y-136919990D01*
X118589999Y-136817202D01*
X118534814Y-136650665D01*
X118442712Y-136501344D01*
X118318656Y-136377288D01*
X118169335Y-136285186D01*
X118002798Y-136230001D01*
X118002796Y-136230000D01*
X117900017Y-136219500D01*
X117900010Y-136219500D01*
X116099990Y-136219500D01*
X116099982Y-136219500D01*
X115997203Y-136230000D01*
X115997202Y-136230001D01*
X115914669Y-136257349D01*
X115830667Y-136285185D01*
X115830662Y-136285187D01*
X115681342Y-136377289D01*
X115557289Y-136501342D01*
X115465187Y-136650662D01*
X115465185Y-136650667D01*
X115448070Y-136702317D01*
X115410001Y-136817202D01*
X115410001Y-136817203D01*
X115410000Y-136817203D01*
X115399500Y-136919982D01*
X102000500Y-136919982D01*
X102000500Y-135594038D01*
X119299500Y-135594038D01*
X119299500Y-135845961D01*
X119338910Y-136094785D01*
X119416760Y-136334383D01*
X119468803Y-136436521D01*
X119525267Y-136547339D01*
X119531132Y-136558848D01*
X119679201Y-136762649D01*
X119679205Y-136762654D01*
X119857345Y-136940794D01*
X119857350Y-136940798D01*
X120035117Y-137069952D01*
X120061155Y-137088870D01*
X120204184Y-137161747D01*
X120285616Y-137203239D01*
X120285618Y-137203239D01*
X120285621Y-137203241D01*
X120525215Y-137281090D01*
X120774038Y-137320500D01*
X120774039Y-137320500D01*
X121025961Y-137320500D01*
X121025962Y-137320500D01*
X121274785Y-137281090D01*
X121514379Y-137203241D01*
X121738845Y-137088870D01*
X121942656Y-136940793D01*
X122120793Y-136762656D01*
X122268870Y-136558845D01*
X122383241Y-136334379D01*
X122461090Y-136094785D01*
X122500500Y-135845962D01*
X122500500Y-135594038D01*
X122461090Y-135345215D01*
X122383241Y-135105621D01*
X122383239Y-135105618D01*
X122383239Y-135105616D01*
X122341747Y-135024184D01*
X122268870Y-134881155D01*
X122249952Y-134855117D01*
X122120798Y-134677350D01*
X122120794Y-134677345D01*
X121942654Y-134499205D01*
X121942649Y-134499201D01*
X121738848Y-134351132D01*
X121738847Y-134351131D01*
X121738845Y-134351130D01*
X121668747Y-134315413D01*
X121514383Y-134236760D01*
X121274785Y-134158910D01*
X121025962Y-134119500D01*
X120774038Y-134119500D01*
X120649626Y-134139205D01*
X120525214Y-134158910D01*
X120285616Y-134236760D01*
X120061151Y-134351132D01*
X119857350Y-134499201D01*
X119857345Y-134499205D01*
X119679205Y-134677345D01*
X119679201Y-134677350D01*
X119531132Y-134881151D01*
X119416760Y-135105616D01*
X119338910Y-135345214D01*
X119299500Y-135594038D01*
X102000500Y-135594038D01*
X102000500Y-131097648D01*
X103549500Y-131097648D01*
X103549500Y-131302351D01*
X103581522Y-131504534D01*
X103644781Y-131699223D01*
X103708691Y-131824653D01*
X103737585Y-131881359D01*
X103737715Y-131881613D01*
X103858028Y-132047213D01*
X104002786Y-132191971D01*
X104151477Y-132299999D01*
X104168390Y-132312287D01*
X104284607Y-132371503D01*
X104350776Y-132405218D01*
X104350778Y-132405218D01*
X104350781Y-132405220D01*
X104455137Y-132439127D01*
X104545465Y-132468477D01*
X104646557Y-132484488D01*
X104747648Y-132500500D01*
X104747649Y-132500500D01*
X104952351Y-132500500D01*
X104952352Y-132500500D01*
X105154534Y-132468477D01*
X105349219Y-132405220D01*
X105531610Y-132312287D01*
X105624590Y-132244732D01*
X105697213Y-132191971D01*
X105697215Y-132191968D01*
X105697219Y-132191966D01*
X105841966Y-132047219D01*
X105841968Y-132047215D01*
X105841971Y-132047213D01*
X105908522Y-131955612D01*
X105962287Y-131881610D01*
X106055220Y-131699219D01*
X106118477Y-131504534D01*
X106150500Y-131302352D01*
X106150500Y-131097682D01*
X116250000Y-131097682D01*
X116250000Y-131302317D01*
X116282009Y-131504417D01*
X116345244Y-131699031D01*
X116438141Y-131881350D01*
X116438147Y-131881359D01*
X116470523Y-131925921D01*
X116470524Y-131925922D01*
X117150000Y-131246446D01*
X117150000Y-131252661D01*
X117177259Y-131354394D01*
X117229920Y-131445606D01*
X117304394Y-131520080D01*
X117395606Y-131572741D01*
X117497339Y-131600000D01*
X117503553Y-131600000D01*
X116824076Y-132279474D01*
X116868650Y-132311859D01*
X117050968Y-132404755D01*
X117245582Y-132467990D01*
X117447683Y-132500000D01*
X117652317Y-132500000D01*
X117854417Y-132467990D01*
X118049031Y-132404755D01*
X118231349Y-132311859D01*
X118275921Y-132279474D01*
X117596447Y-131600000D01*
X117602661Y-131600000D01*
X117704394Y-131572741D01*
X117795606Y-131520080D01*
X117870080Y-131445606D01*
X117922741Y-131354394D01*
X117950000Y-131252661D01*
X117950000Y-131246448D01*
X118629474Y-131925922D01*
X118629474Y-131925921D01*
X118661859Y-131881349D01*
X118754755Y-131699031D01*
X118817990Y-131504417D01*
X118850000Y-131302317D01*
X118850000Y-131097682D01*
X118817990Y-130895582D01*
X118754755Y-130700968D01*
X118661859Y-130518650D01*
X118629474Y-130474077D01*
X118629474Y-130474076D01*
X117950000Y-131153551D01*
X117950000Y-131147339D01*
X117922741Y-131045606D01*
X117870080Y-130954394D01*
X117795606Y-130879920D01*
X117704394Y-130827259D01*
X117602661Y-130800000D01*
X117596446Y-130800000D01*
X118275922Y-130120524D01*
X118275921Y-130120523D01*
X118231359Y-130088147D01*
X118231350Y-130088141D01*
X118166496Y-130055096D01*
X120399500Y-130055096D01*
X120399500Y-131255114D01*
X120399501Y-131255131D01*
X120410000Y-131357909D01*
X120410001Y-131357912D01*
X120458549Y-131504417D01*
X120465186Y-131524447D01*
X120557288Y-131673769D01*
X120681344Y-131797825D01*
X120830666Y-131889927D01*
X120997203Y-131945112D01*
X121099991Y-131955613D01*
X122300008Y-131955612D01*
X122402797Y-131945112D01*
X122569334Y-131889927D01*
X122718656Y-131797825D01*
X122842712Y-131673769D01*
X122934814Y-131524447D01*
X122989999Y-131357910D01*
X123000500Y-131255122D01*
X123000499Y-130128766D01*
X128389500Y-130128766D01*
X128389500Y-130330781D01*
X128428907Y-130528893D01*
X128428909Y-130528901D01*
X128506213Y-130715529D01*
X128559904Y-130795883D01*
X128580782Y-130862561D01*
X128562297Y-130929941D01*
X128559904Y-130933665D01*
X128506213Y-131014018D01*
X128428909Y-131200646D01*
X128428907Y-131200654D01*
X128389500Y-131398766D01*
X128389500Y-131600781D01*
X128428907Y-131798893D01*
X128428909Y-131798901D01*
X128506212Y-131985526D01*
X128506217Y-131985536D01*
X128618441Y-132153492D01*
X128761281Y-132296332D01*
X128929237Y-132408556D01*
X128929241Y-132408558D01*
X128929244Y-132408560D01*
X129115873Y-132485865D01*
X129313992Y-132525273D01*
X129313996Y-132525274D01*
X129313997Y-132525274D01*
X129966004Y-132525274D01*
X129966005Y-132525273D01*
X130164127Y-132485865D01*
X130350756Y-132408560D01*
X130518718Y-132296332D01*
X130661558Y-132153492D01*
X130773786Y-131985530D01*
X130851091Y-131798901D01*
X130890500Y-131600777D01*
X130890500Y-131398771D01*
X130851091Y-131200647D01*
X130773786Y-131014018D01*
X130720094Y-130933663D01*
X130699217Y-130866988D01*
X130717701Y-130799608D01*
X130720078Y-130795908D01*
X130773786Y-130715530D01*
X130851091Y-130528901D01*
X130864344Y-130462268D01*
X130874745Y-130409983D01*
X136599500Y-130409983D01*
X136599500Y-131610001D01*
X136599501Y-131610018D01*
X136610000Y-131712796D01*
X136610001Y-131712799D01*
X136665185Y-131879331D01*
X136665187Y-131879336D01*
X136700069Y-131935888D01*
X136757288Y-132028656D01*
X136881344Y-132152712D01*
X137030666Y-132244814D01*
X137197203Y-132299999D01*
X137299991Y-132310500D01*
X138500008Y-132310499D01*
X138602797Y-132299999D01*
X138769334Y-132244814D01*
X138918656Y-132152712D01*
X139042712Y-132028656D01*
X139134814Y-131879334D01*
X139189999Y-131712797D01*
X139200500Y-131610009D01*
X139200499Y-130409992D01*
X139189999Y-130307203D01*
X139134814Y-130140666D01*
X139042712Y-129991344D01*
X138973488Y-129922120D01*
X138940003Y-129860797D01*
X138944987Y-129791105D01*
X138960852Y-129761552D01*
X139011858Y-129691349D01*
X139011863Y-129691341D01*
X139104755Y-129509031D01*
X139167990Y-129314417D01*
X139200000Y-129112317D01*
X139200000Y-128907682D01*
X139167990Y-128705582D01*
X139104755Y-128510968D01*
X139011859Y-128328650D01*
X138979474Y-128284077D01*
X138979474Y-128284076D01*
X138300000Y-128963551D01*
X138300000Y-128957339D01*
X138272741Y-128855606D01*
X138220080Y-128764394D01*
X138145606Y-128689920D01*
X138054394Y-128637259D01*
X137952661Y-128610000D01*
X137946446Y-128610000D01*
X138625922Y-127930524D01*
X138625921Y-127930523D01*
X138581359Y-127898147D01*
X138581350Y-127898141D01*
X138399031Y-127805244D01*
X138204417Y-127742009D01*
X138002317Y-127710000D01*
X137797683Y-127710000D01*
X137595582Y-127742009D01*
X137400968Y-127805244D01*
X137218644Y-127898143D01*
X137174077Y-127930523D01*
X137174077Y-127930524D01*
X137853554Y-128610000D01*
X137847339Y-128610000D01*
X137745606Y-128637259D01*
X137654394Y-128689920D01*
X137579920Y-128764394D01*
X137527259Y-128855606D01*
X137500000Y-128957339D01*
X137500000Y-128963553D01*
X136820524Y-128284077D01*
X136820523Y-128284077D01*
X136788143Y-128328644D01*
X136695244Y-128510968D01*
X136632009Y-128705582D01*
X136600000Y-128907682D01*
X136600000Y-129112317D01*
X136632009Y-129314417D01*
X136695244Y-129509031D01*
X136788142Y-129691352D01*
X136839147Y-129761555D01*
X136862627Y-129827361D01*
X136846802Y-129895415D01*
X136826511Y-129922121D01*
X136757287Y-129991345D01*
X136665187Y-130140663D01*
X136665186Y-130140666D01*
X136610001Y-130307203D01*
X136610001Y-130307204D01*
X136610000Y-130307204D01*
X136599500Y-130409983D01*
X130874745Y-130409983D01*
X130880184Y-130382643D01*
X130890499Y-130330781D01*
X130890500Y-130330778D01*
X130890500Y-130128770D01*
X130890499Y-130128766D01*
X130882418Y-130088141D01*
X130851091Y-129930647D01*
X130817451Y-129849435D01*
X130809983Y-129779968D01*
X130829592Y-129734918D01*
X130829101Y-129734650D01*
X130832102Y-129729153D01*
X130832748Y-129727670D01*
X130833352Y-129726863D01*
X130883597Y-129592150D01*
X130883598Y-129592146D01*
X130889999Y-129532618D01*
X130890000Y-129532601D01*
X130890000Y-129209774D01*
X130005866Y-129209774D01*
X129981674Y-129207391D01*
X129966004Y-129204274D01*
X129966003Y-129204274D01*
X129925830Y-129204274D01*
X129940075Y-129190029D01*
X129989444Y-129104519D01*
X130015000Y-129009144D01*
X130015000Y-128910404D01*
X129989444Y-128815029D01*
X129940075Y-128729519D01*
X129920330Y-128709774D01*
X130890000Y-128709774D01*
X130890000Y-128386946D01*
X130889999Y-128386929D01*
X130883598Y-128327401D01*
X130883596Y-128327394D01*
X130833354Y-128192687D01*
X130833350Y-128192680D01*
X130747192Y-128077588D01*
X130746475Y-128077052D01*
X130746472Y-128077049D01*
X130632089Y-127991421D01*
X130632086Y-127991419D01*
X130497379Y-127941177D01*
X130497372Y-127941175D01*
X130437844Y-127934774D01*
X129890000Y-127934774D01*
X129890000Y-128679444D01*
X129870255Y-128659699D01*
X129784745Y-128610330D01*
X129689370Y-128584774D01*
X129590630Y-128584774D01*
X129495255Y-128610330D01*
X129409745Y-128659699D01*
X129390000Y-128679444D01*
X129390000Y-127934774D01*
X128842155Y-127934774D01*
X128782627Y-127941175D01*
X128782620Y-127941177D01*
X128647913Y-127991419D01*
X128647906Y-127991423D01*
X128532812Y-128077583D01*
X128532809Y-128077586D01*
X128446649Y-128192680D01*
X128446645Y-128192687D01*
X128396403Y-128327394D01*
X128396401Y-128327401D01*
X128390000Y-128386929D01*
X128390000Y-128709774D01*
X129359670Y-128709774D01*
X129339925Y-128729519D01*
X129290556Y-128815029D01*
X129265000Y-128910404D01*
X129265000Y-129009144D01*
X129290556Y-129104519D01*
X129339925Y-129190029D01*
X129354170Y-129204274D01*
X129313997Y-129204274D01*
X129313996Y-129204274D01*
X129298326Y-129207391D01*
X129274134Y-129209774D01*
X128390000Y-129209774D01*
X128390000Y-129532618D01*
X128396401Y-129592146D01*
X128396403Y-129592153D01*
X128446645Y-129726860D01*
X128447251Y-129727669D01*
X128447604Y-129728615D01*
X128450897Y-129734646D01*
X128450030Y-129735119D01*
X128471670Y-129793133D01*
X128462547Y-129849435D01*
X128428910Y-129930642D01*
X128428907Y-129930654D01*
X128389500Y-130128766D01*
X123000499Y-130128766D01*
X123000499Y-130055105D01*
X122989999Y-129952316D01*
X122934814Y-129785779D01*
X122842712Y-129636457D01*
X122773488Y-129567233D01*
X122740003Y-129505910D01*
X122744987Y-129436218D01*
X122760852Y-129406665D01*
X122811858Y-129336462D01*
X122811863Y-129336454D01*
X122904755Y-129154144D01*
X122967990Y-128959530D01*
X123000000Y-128757430D01*
X123000000Y-128552795D01*
X122976278Y-128403023D01*
X122967990Y-128350695D01*
X122904755Y-128156081D01*
X122811859Y-127973763D01*
X122779474Y-127929190D01*
X122779474Y-127929189D01*
X122100000Y-128608664D01*
X122100000Y-128602452D01*
X122072741Y-128500719D01*
X122020080Y-128409507D01*
X121945606Y-128335033D01*
X121854394Y-128282372D01*
X121752661Y-128255113D01*
X121746446Y-128255113D01*
X122425922Y-127575637D01*
X122425921Y-127575636D01*
X122381359Y-127543260D01*
X122381350Y-127543254D01*
X122199031Y-127450357D01*
X122004417Y-127387122D01*
X121802317Y-127355113D01*
X121597683Y-127355113D01*
X121395582Y-127387122D01*
X121200968Y-127450357D01*
X121018644Y-127543256D01*
X120974077Y-127575636D01*
X120974077Y-127575637D01*
X121653554Y-128255113D01*
X121647339Y-128255113D01*
X121545606Y-128282372D01*
X121454394Y-128335033D01*
X121379920Y-128409507D01*
X121327259Y-128500719D01*
X121300000Y-128602452D01*
X121300000Y-128608666D01*
X120620524Y-127929190D01*
X120620523Y-127929190D01*
X120588143Y-127973757D01*
X120495244Y-128156081D01*
X120432009Y-128350695D01*
X120400000Y-128552795D01*
X120400000Y-128757430D01*
X120432009Y-128959530D01*
X120495244Y-129154144D01*
X120588142Y-129336465D01*
X120639147Y-129406668D01*
X120662627Y-129472474D01*
X120646802Y-129540528D01*
X120626511Y-129567234D01*
X120557287Y-129636458D01*
X120465187Y-129785776D01*
X120465186Y-129785779D01*
X120410001Y-129952316D01*
X120410001Y-129952317D01*
X120410000Y-129952317D01*
X120399500Y-130055096D01*
X118166496Y-130055096D01*
X118049031Y-129995244D01*
X117854417Y-129932009D01*
X117652317Y-129900000D01*
X117447683Y-129900000D01*
X117245582Y-129932009D01*
X117050968Y-129995244D01*
X116868644Y-130088143D01*
X116824077Y-130120523D01*
X116824077Y-130120524D01*
X117503554Y-130800000D01*
X117497339Y-130800000D01*
X117395606Y-130827259D01*
X117304394Y-130879920D01*
X117229920Y-130954394D01*
X117177259Y-131045606D01*
X117150000Y-131147339D01*
X117150000Y-131153553D01*
X116470524Y-130474077D01*
X116470523Y-130474077D01*
X116438143Y-130518644D01*
X116345244Y-130700968D01*
X116282009Y-130895582D01*
X116250000Y-131097682D01*
X106150500Y-131097682D01*
X106150500Y-131097648D01*
X106137254Y-131014018D01*
X106118477Y-130895465D01*
X106087331Y-130799608D01*
X106055220Y-130700781D01*
X106055218Y-130700778D01*
X106055218Y-130700776D01*
X106021503Y-130634607D01*
X105962287Y-130518390D01*
X105930092Y-130474077D01*
X105841971Y-130352786D01*
X105697213Y-130208028D01*
X105531613Y-130087715D01*
X105531612Y-130087714D01*
X105531610Y-130087713D01*
X105467592Y-130055094D01*
X105349223Y-129994781D01*
X105154534Y-129931522D01*
X104979995Y-129903878D01*
X104952352Y-129899500D01*
X104747648Y-129899500D01*
X104723329Y-129903351D01*
X104545465Y-129931522D01*
X104350776Y-129994781D01*
X104168386Y-130087715D01*
X104002786Y-130208028D01*
X103858028Y-130352786D01*
X103737715Y-130518386D01*
X103644781Y-130700776D01*
X103581522Y-130895465D01*
X103549500Y-131097648D01*
X102000500Y-131097648D01*
X102000500Y-127711902D01*
X106739500Y-127711902D01*
X106739500Y-127948097D01*
X106776446Y-128181368D01*
X106849433Y-128405996D01*
X106924232Y-128552795D01*
X106956657Y-128616433D01*
X107095483Y-128807510D01*
X107262490Y-128974517D01*
X107453567Y-129113343D01*
X107491322Y-129132580D01*
X107664003Y-129220566D01*
X107664005Y-129220566D01*
X107664008Y-129220568D01*
X107771844Y-129255606D01*
X107888631Y-129293553D01*
X108121903Y-129330500D01*
X108121908Y-129330500D01*
X108358097Y-129330500D01*
X108591368Y-129293553D01*
X108815992Y-129220568D01*
X109026433Y-129113343D01*
X109217510Y-128974517D01*
X109384517Y-128807510D01*
X109523343Y-128616433D01*
X109630568Y-128405992D01*
X109703553Y-128181368D01*
X109719990Y-128077588D01*
X109740500Y-127948097D01*
X109740500Y-127711902D01*
X109703553Y-127478631D01*
X109630566Y-127254003D01*
X109523342Y-127043566D01*
X109384517Y-126852490D01*
X109314162Y-126782135D01*
X113239500Y-126782135D01*
X113239500Y-128877870D01*
X113239501Y-128877876D01*
X113245908Y-128937483D01*
X113296202Y-129072328D01*
X113296206Y-129072335D01*
X113382452Y-129187544D01*
X113382455Y-129187547D01*
X113497664Y-129273793D01*
X113497671Y-129273797D01*
X113632517Y-129324091D01*
X113632516Y-129324091D01*
X113639444Y-129324835D01*
X113692127Y-129330500D01*
X115787872Y-129330499D01*
X115847483Y-129324091D01*
X115982331Y-129273796D01*
X116097546Y-129187546D01*
X116183796Y-129072331D01*
X116234091Y-128937483D01*
X116240500Y-128877873D01*
X116240499Y-126782128D01*
X116234091Y-126722517D01*
X116220278Y-126685483D01*
X116183797Y-126587671D01*
X116183793Y-126587664D01*
X116097547Y-126472455D01*
X116097544Y-126472452D01*
X115982335Y-126386206D01*
X115982328Y-126386202D01*
X115847482Y-126335908D01*
X115847483Y-126335908D01*
X115787883Y-126329501D01*
X115787881Y-126329500D01*
X115787873Y-126329500D01*
X115787864Y-126329500D01*
X113692129Y-126329500D01*
X113692123Y-126329501D01*
X113632516Y-126335908D01*
X113497671Y-126386202D01*
X113497664Y-126386206D01*
X113382455Y-126472452D01*
X113382452Y-126472455D01*
X113296206Y-126587664D01*
X113296202Y-126587671D01*
X113245908Y-126722517D01*
X113239501Y-126782116D01*
X113239501Y-126782123D01*
X113239500Y-126782135D01*
X109314162Y-126782135D01*
X109217510Y-126685483D01*
X109026433Y-126546657D01*
X108815996Y-126439433D01*
X108591368Y-126366446D01*
X108358097Y-126329500D01*
X108358092Y-126329500D01*
X108121908Y-126329500D01*
X108121903Y-126329500D01*
X107888631Y-126366446D01*
X107664003Y-126439433D01*
X107453566Y-126546657D01*
X107397119Y-126587669D01*
X107262490Y-126685483D01*
X107262488Y-126685485D01*
X107262487Y-126685485D01*
X107095485Y-126852487D01*
X107095485Y-126852488D01*
X107095483Y-126852490D01*
X107035862Y-126934550D01*
X106956657Y-127043566D01*
X106849433Y-127254003D01*
X106776446Y-127478631D01*
X106739500Y-127711902D01*
X102000500Y-127711902D01*
X102000500Y-123211902D01*
X106739500Y-123211902D01*
X106739500Y-123448097D01*
X106776446Y-123681368D01*
X106849433Y-123905996D01*
X106934880Y-124073694D01*
X106956657Y-124116433D01*
X107095483Y-124307510D01*
X107262490Y-124474517D01*
X107453567Y-124613343D01*
X107494152Y-124634022D01*
X107664003Y-124720566D01*
X107664005Y-124720566D01*
X107664008Y-124720568D01*
X107784412Y-124759689D01*
X107888631Y-124793553D01*
X108121903Y-124830500D01*
X108121908Y-124830500D01*
X108358097Y-124830500D01*
X108591368Y-124793553D01*
X108815992Y-124720568D01*
X109026433Y-124613343D01*
X109217510Y-124474517D01*
X109384517Y-124307510D01*
X109523343Y-124116433D01*
X109630568Y-123905992D01*
X109703553Y-123681368D01*
X109712688Y-123623694D01*
X109740500Y-123448097D01*
X109740500Y-123211902D01*
X113239500Y-123211902D01*
X113239500Y-123448097D01*
X113276446Y-123681368D01*
X113349433Y-123905996D01*
X113434880Y-124073694D01*
X113456657Y-124116433D01*
X113595483Y-124307510D01*
X113762490Y-124474517D01*
X113953567Y-124613343D01*
X113994152Y-124634022D01*
X114164003Y-124720566D01*
X114164005Y-124720566D01*
X114164008Y-124720568D01*
X114284412Y-124759689D01*
X114388631Y-124793553D01*
X114621903Y-124830500D01*
X114621908Y-124830500D01*
X114858097Y-124830500D01*
X115091368Y-124793553D01*
X115315992Y-124720568D01*
X115526433Y-124613343D01*
X115674685Y-124505631D01*
X123801000Y-124505631D01*
X123801000Y-124694368D01*
X123830522Y-124880763D01*
X123830523Y-124880767D01*
X123888843Y-125060256D01*
X123974523Y-125228413D01*
X124085454Y-125381096D01*
X124218904Y-125514546D01*
X124371587Y-125625477D01*
X124539744Y-125711157D01*
X124719233Y-125769477D01*
X124789134Y-125780548D01*
X124905632Y-125799000D01*
X124905637Y-125799000D01*
X125094368Y-125799000D01*
X125197920Y-125782598D01*
X125280767Y-125769477D01*
X125460256Y-125711157D01*
X125628413Y-125625477D01*
X125781096Y-125514546D01*
X125914546Y-125381096D01*
X126025477Y-125228413D01*
X126111157Y-125060256D01*
X126132069Y-124995894D01*
X126171507Y-124938219D01*
X126235865Y-124911021D01*
X126304712Y-124922936D01*
X126356187Y-124970180D01*
X126367929Y-124995892D01*
X126388843Y-125060256D01*
X126474523Y-125228413D01*
X126585454Y-125381096D01*
X126718904Y-125514546D01*
X126871587Y-125625477D01*
X127039744Y-125711157D01*
X127219233Y-125769477D01*
X127289134Y-125780548D01*
X127405632Y-125799000D01*
X127405637Y-125799000D01*
X127594368Y-125799000D01*
X127697920Y-125782598D01*
X127780767Y-125769477D01*
X127960256Y-125711157D01*
X128128413Y-125625477D01*
X128281096Y-125514546D01*
X128414546Y-125381096D01*
X128525477Y-125228413D01*
X128611157Y-125060256D01*
X128632069Y-124995894D01*
X128671507Y-124938219D01*
X128735865Y-124911021D01*
X128804712Y-124922936D01*
X128856187Y-124970180D01*
X128867929Y-124995892D01*
X128888843Y-125060256D01*
X128974523Y-125228413D01*
X129085454Y-125381096D01*
X129218904Y-125514546D01*
X129371587Y-125625477D01*
X129539744Y-125711157D01*
X129719233Y-125769477D01*
X129789134Y-125780548D01*
X129905632Y-125799000D01*
X129905637Y-125799000D01*
X130094368Y-125799000D01*
X130197920Y-125782598D01*
X130280767Y-125769477D01*
X130460256Y-125711157D01*
X130628413Y-125625477D01*
X130781096Y-125514546D01*
X130914546Y-125381096D01*
X131025477Y-125228413D01*
X131111157Y-125060256D01*
X131169477Y-124880767D01*
X131194850Y-124720568D01*
X131199000Y-124694368D01*
X131199000Y-124505631D01*
X131174350Y-124350000D01*
X131169477Y-124319233D01*
X131111157Y-124139744D01*
X131025477Y-123971587D01*
X130914546Y-123818904D01*
X130885420Y-123789778D01*
X135559500Y-123789778D01*
X135559500Y-124010221D01*
X135593985Y-124227952D01*
X135662103Y-124437603D01*
X135662104Y-124437606D01*
X135730122Y-124571096D01*
X135751648Y-124613343D01*
X135762187Y-124634025D01*
X135891752Y-124812358D01*
X135891756Y-124812363D01*
X136047636Y-124968243D01*
X136047641Y-124968247D01*
X136174282Y-125060256D01*
X136225978Y-125097815D01*
X136342501Y-125157187D01*
X136422393Y-125197895D01*
X136422396Y-125197896D01*
X136516320Y-125228413D01*
X136632049Y-125266015D01*
X136849778Y-125300500D01*
X136849779Y-125300500D01*
X137070221Y-125300500D01*
X137070222Y-125300500D01*
X137287951Y-125266015D01*
X137497606Y-125197895D01*
X137694022Y-125097815D01*
X137872365Y-124968242D01*
X137922924Y-124917682D01*
X137984245Y-124884198D01*
X138053936Y-124889182D01*
X138109870Y-124931053D01*
X138126786Y-124962030D01*
X138156646Y-125042087D01*
X138156649Y-125042093D01*
X138242809Y-125157187D01*
X138242812Y-125157190D01*
X138357906Y-125243350D01*
X138357913Y-125243354D01*
X138492620Y-125293596D01*
X138492627Y-125293598D01*
X138552155Y-125299999D01*
X138552172Y-125300000D01*
X139250000Y-125300000D01*
X139250000Y-124275277D01*
X139326306Y-124319333D01*
X139440756Y-124350000D01*
X139559244Y-124350000D01*
X139673694Y-124319333D01*
X139750000Y-124275277D01*
X139750000Y-125300000D01*
X140447828Y-125300000D01*
X140447844Y-125299999D01*
X140507372Y-125293598D01*
X140507379Y-125293596D01*
X140642086Y-125243354D01*
X140642093Y-125243350D01*
X140757187Y-125157190D01*
X140757190Y-125157187D01*
X140843350Y-125042093D01*
X140843354Y-125042086D01*
X140893596Y-124907379D01*
X140893598Y-124907372D01*
X140899999Y-124847844D01*
X140900000Y-124847827D01*
X140900000Y-124150000D01*
X139875278Y-124150000D01*
X139919333Y-124073694D01*
X139950000Y-123959244D01*
X139950000Y-123840756D01*
X139919333Y-123726306D01*
X139875278Y-123650000D01*
X140900000Y-123650000D01*
X140900000Y-122952172D01*
X140899999Y-122952155D01*
X140893598Y-122892627D01*
X140893596Y-122892620D01*
X140843354Y-122757913D01*
X140843350Y-122757906D01*
X140757190Y-122642812D01*
X140757187Y-122642809D01*
X140642093Y-122556649D01*
X140642086Y-122556645D01*
X140507379Y-122506403D01*
X140507372Y-122506401D01*
X140447844Y-122500000D01*
X139750000Y-122500000D01*
X139750000Y-123524722D01*
X139673694Y-123480667D01*
X139559244Y-123450000D01*
X139440756Y-123450000D01*
X139326306Y-123480667D01*
X139250000Y-123524722D01*
X139250000Y-122500000D01*
X138552155Y-122500000D01*
X138492627Y-122506401D01*
X138492620Y-122506403D01*
X138357913Y-122556645D01*
X138357906Y-122556649D01*
X138242812Y-122642809D01*
X138242809Y-122642812D01*
X138156649Y-122757906D01*
X138156643Y-122757918D01*
X138126785Y-122837969D01*
X138084914Y-122893903D01*
X138019449Y-122918319D01*
X137951176Y-122903467D01*
X137922923Y-122882316D01*
X137872363Y-122831756D01*
X137872358Y-122831752D01*
X137694025Y-122702187D01*
X137694024Y-122702186D01*
X137694022Y-122702185D01*
X137631096Y-122670122D01*
X137497606Y-122602104D01*
X137497603Y-122602103D01*
X137287952Y-122533985D01*
X137179086Y-122516742D01*
X137070222Y-122499500D01*
X136849778Y-122499500D01*
X136777201Y-122510995D01*
X136632047Y-122533985D01*
X136422396Y-122602103D01*
X136422393Y-122602104D01*
X136225974Y-122702187D01*
X136047641Y-122831752D01*
X136047636Y-122831756D01*
X135891756Y-122987636D01*
X135891752Y-122987641D01*
X135762187Y-123165974D01*
X135662104Y-123362393D01*
X135662103Y-123362396D01*
X135593985Y-123572047D01*
X135559500Y-123789778D01*
X130885420Y-123789778D01*
X130781096Y-123685454D01*
X130628413Y-123574523D01*
X130460256Y-123488843D01*
X130280767Y-123430523D01*
X130280765Y-123430522D01*
X130280763Y-123430522D01*
X130094368Y-123401000D01*
X130094363Y-123401000D01*
X129905637Y-123401000D01*
X129905632Y-123401000D01*
X129719236Y-123430522D01*
X129539741Y-123488844D01*
X129371586Y-123574523D01*
X129303909Y-123623694D01*
X129218904Y-123685454D01*
X129218902Y-123685456D01*
X129218901Y-123685456D01*
X129085456Y-123818901D01*
X129085456Y-123818902D01*
X129085454Y-123818904D01*
X129085452Y-123818907D01*
X128974523Y-123971586D01*
X128888844Y-124139739D01*
X128867931Y-124204105D01*
X128828493Y-124261780D01*
X128764134Y-124288978D01*
X128695288Y-124277063D01*
X128643812Y-124229819D01*
X128632069Y-124204105D01*
X128611157Y-124139744D01*
X128611155Y-124139741D01*
X128611155Y-124139739D01*
X128525476Y-123971586D01*
X128516509Y-123959244D01*
X128414546Y-123818904D01*
X128281096Y-123685454D01*
X128128413Y-123574523D01*
X127960256Y-123488843D01*
X127780767Y-123430523D01*
X127780765Y-123430522D01*
X127780763Y-123430522D01*
X127594368Y-123401000D01*
X127594363Y-123401000D01*
X127405637Y-123401000D01*
X127405632Y-123401000D01*
X127219236Y-123430522D01*
X127039741Y-123488844D01*
X126871586Y-123574523D01*
X126803909Y-123623694D01*
X126718904Y-123685454D01*
X126718902Y-123685456D01*
X126718901Y-123685456D01*
X126585456Y-123818901D01*
X126585456Y-123818902D01*
X126585454Y-123818904D01*
X126585452Y-123818907D01*
X126474523Y-123971586D01*
X126388844Y-124139739D01*
X126367931Y-124204105D01*
X126328493Y-124261780D01*
X126264134Y-124288978D01*
X126195288Y-124277063D01*
X126143812Y-124229819D01*
X126132069Y-124204105D01*
X126111157Y-124139744D01*
X126111155Y-124139741D01*
X126111155Y-124139739D01*
X126025476Y-123971586D01*
X126016509Y-123959244D01*
X125914546Y-123818904D01*
X125781096Y-123685454D01*
X125628413Y-123574523D01*
X125460256Y-123488843D01*
X125280767Y-123430523D01*
X125280765Y-123430522D01*
X125280763Y-123430522D01*
X125094368Y-123401000D01*
X125094363Y-123401000D01*
X124905637Y-123401000D01*
X124905632Y-123401000D01*
X124719236Y-123430522D01*
X124539741Y-123488844D01*
X124371586Y-123574523D01*
X124303909Y-123623694D01*
X124218904Y-123685454D01*
X124218902Y-123685456D01*
X124218901Y-123685456D01*
X124085456Y-123818901D01*
X124085456Y-123818902D01*
X124085454Y-123818904D01*
X124085452Y-123818907D01*
X123974523Y-123971586D01*
X123888844Y-124139741D01*
X123830522Y-124319236D01*
X123801000Y-124505631D01*
X115674685Y-124505631D01*
X115717510Y-124474517D01*
X115884517Y-124307510D01*
X116023343Y-124116433D01*
X116130568Y-123905992D01*
X116203553Y-123681368D01*
X116212688Y-123623694D01*
X116240500Y-123448097D01*
X116240500Y-123211902D01*
X116203553Y-122978631D01*
X116157849Y-122837969D01*
X116130568Y-122754008D01*
X116130566Y-122754005D01*
X116130566Y-122754003D01*
X116073909Y-122642809D01*
X116023343Y-122543567D01*
X115884517Y-122352490D01*
X115717510Y-122185483D01*
X115526433Y-122046657D01*
X115315996Y-121939433D01*
X115091368Y-121866446D01*
X114858097Y-121829500D01*
X114858092Y-121829500D01*
X114621908Y-121829500D01*
X114621903Y-121829500D01*
X114388631Y-121866446D01*
X114164003Y-121939433D01*
X113953566Y-122046657D01*
X113906163Y-122081098D01*
X113762490Y-122185483D01*
X113762488Y-122185485D01*
X113762487Y-122185485D01*
X113595485Y-122352487D01*
X113595485Y-122352488D01*
X113595483Y-122352490D01*
X113552860Y-122411155D01*
X113456657Y-122543566D01*
X113349433Y-122754003D01*
X113276446Y-122978631D01*
X113239500Y-123211902D01*
X109740500Y-123211902D01*
X109703553Y-122978631D01*
X109657849Y-122837969D01*
X109630568Y-122754008D01*
X109630566Y-122754005D01*
X109630566Y-122754003D01*
X109573909Y-122642809D01*
X109523343Y-122543567D01*
X109384517Y-122352490D01*
X109217510Y-122185483D01*
X109026433Y-122046657D01*
X108815996Y-121939433D01*
X108591368Y-121866446D01*
X108358097Y-121829500D01*
X108358092Y-121829500D01*
X108121908Y-121829500D01*
X108121903Y-121829500D01*
X107888631Y-121866446D01*
X107664003Y-121939433D01*
X107453566Y-122046657D01*
X107406163Y-122081098D01*
X107262490Y-122185483D01*
X107262488Y-122185485D01*
X107262487Y-122185485D01*
X107095485Y-122352487D01*
X107095485Y-122352488D01*
X107095483Y-122352490D01*
X107052860Y-122411155D01*
X106956657Y-122543566D01*
X106849433Y-122754003D01*
X106776446Y-122978631D01*
X106739500Y-123211902D01*
X102000500Y-123211902D01*
X102000500Y-121205631D01*
X123801000Y-121205631D01*
X123801000Y-121394368D01*
X123830522Y-121580763D01*
X123830523Y-121580767D01*
X123888843Y-121760256D01*
X123974523Y-121928413D01*
X124085454Y-122081096D01*
X124218904Y-122214546D01*
X124371587Y-122325477D01*
X124539744Y-122411157D01*
X124719233Y-122469477D01*
X124789134Y-122480548D01*
X124905632Y-122499000D01*
X124905637Y-122499000D01*
X125094368Y-122499000D01*
X125197920Y-122482598D01*
X125280767Y-122469477D01*
X125460256Y-122411157D01*
X125628413Y-122325477D01*
X125781096Y-122214546D01*
X125914546Y-122081096D01*
X126025477Y-121928413D01*
X126111157Y-121760256D01*
X126132069Y-121695894D01*
X126171507Y-121638219D01*
X126235865Y-121611021D01*
X126304712Y-121622936D01*
X126356187Y-121670180D01*
X126367929Y-121695892D01*
X126388843Y-121760256D01*
X126474523Y-121928413D01*
X126585454Y-122081096D01*
X126718904Y-122214546D01*
X126871587Y-122325477D01*
X127039744Y-122411157D01*
X127219233Y-122469477D01*
X127289134Y-122480548D01*
X127405632Y-122499000D01*
X127405637Y-122499000D01*
X127594368Y-122499000D01*
X127697920Y-122482598D01*
X127780767Y-122469477D01*
X127960256Y-122411157D01*
X128128413Y-122325477D01*
X128281096Y-122214546D01*
X128414546Y-122081096D01*
X128525477Y-121928413D01*
X128611157Y-121760256D01*
X128632069Y-121695894D01*
X128671507Y-121638219D01*
X128735865Y-121611021D01*
X128804712Y-121622936D01*
X128856187Y-121670180D01*
X128867929Y-121695892D01*
X128888843Y-121760256D01*
X128974523Y-121928413D01*
X129085454Y-122081096D01*
X129218904Y-122214546D01*
X129371587Y-122325477D01*
X129539744Y-122411157D01*
X129719233Y-122469477D01*
X129789134Y-122480548D01*
X129905632Y-122499000D01*
X129905637Y-122499000D01*
X130094368Y-122499000D01*
X130197920Y-122482598D01*
X130280767Y-122469477D01*
X130460256Y-122411157D01*
X130628413Y-122325477D01*
X130781096Y-122214546D01*
X130914546Y-122081096D01*
X131025477Y-121928413D01*
X131111157Y-121760256D01*
X131169477Y-121580767D01*
X131182598Y-121497920D01*
X131199000Y-121394368D01*
X131199000Y-121205631D01*
X131169477Y-121019236D01*
X131169477Y-121019233D01*
X131111157Y-120839744D01*
X131025477Y-120671587D01*
X130914546Y-120518904D01*
X130781096Y-120385454D01*
X130628413Y-120274523D01*
X130460256Y-120188843D01*
X130280767Y-120130523D01*
X130280765Y-120130522D01*
X130280763Y-120130522D01*
X130094368Y-120101000D01*
X130094363Y-120101000D01*
X129905637Y-120101000D01*
X129905632Y-120101000D01*
X129719236Y-120130522D01*
X129539741Y-120188844D01*
X129371586Y-120274523D01*
X129284475Y-120337813D01*
X129218904Y-120385454D01*
X129218902Y-120385456D01*
X129218901Y-120385456D01*
X129085456Y-120518901D01*
X129085456Y-120518902D01*
X129085454Y-120518904D01*
X129037813Y-120584475D01*
X128974523Y-120671586D01*
X128888844Y-120839739D01*
X128867931Y-120904105D01*
X128828493Y-120961780D01*
X128764134Y-120988978D01*
X128695288Y-120977063D01*
X128643812Y-120929819D01*
X128632069Y-120904105D01*
X128611155Y-120839739D01*
X128525476Y-120671586D01*
X128414546Y-120518904D01*
X128281096Y-120385454D01*
X128128413Y-120274523D01*
X127960256Y-120188843D01*
X127780767Y-120130523D01*
X127780765Y-120130522D01*
X127780763Y-120130522D01*
X127594368Y-120101000D01*
X127594363Y-120101000D01*
X127405637Y-120101000D01*
X127405632Y-120101000D01*
X127219236Y-120130522D01*
X127039741Y-120188844D01*
X126871586Y-120274523D01*
X126784475Y-120337813D01*
X126718904Y-120385454D01*
X126718902Y-120385456D01*
X126718901Y-120385456D01*
X126585456Y-120518901D01*
X126585456Y-120518902D01*
X126585454Y-120518904D01*
X126537813Y-120584475D01*
X126474523Y-120671586D01*
X126388844Y-120839739D01*
X126367931Y-120904105D01*
X126328493Y-120961780D01*
X126264134Y-120988978D01*
X126195288Y-120977063D01*
X126143812Y-120929819D01*
X126132069Y-120904105D01*
X126111155Y-120839739D01*
X126025476Y-120671586D01*
X125914546Y-120518904D01*
X125781096Y-120385454D01*
X125628413Y-120274523D01*
X125460256Y-120188843D01*
X125280767Y-120130523D01*
X125280765Y-120130522D01*
X125280763Y-120130522D01*
X125094368Y-120101000D01*
X125094363Y-120101000D01*
X124905637Y-120101000D01*
X124905632Y-120101000D01*
X124719236Y-120130522D01*
X124539741Y-120188844D01*
X124371586Y-120274523D01*
X124284475Y-120337813D01*
X124218904Y-120385454D01*
X124218902Y-120385456D01*
X124218901Y-120385456D01*
X124085456Y-120518901D01*
X124085456Y-120518902D01*
X124085454Y-120518904D01*
X124037813Y-120584475D01*
X123974523Y-120671586D01*
X123888844Y-120839741D01*
X123830522Y-121019236D01*
X123801000Y-121205631D01*
X102000500Y-121205631D01*
X102000500Y-116192155D01*
X105380000Y-116192155D01*
X105380000Y-116890000D01*
X106404722Y-116890000D01*
X106360667Y-116966306D01*
X106330000Y-117080756D01*
X106330000Y-117199244D01*
X106360667Y-117313694D01*
X106404722Y-117390000D01*
X105380000Y-117390000D01*
X105380000Y-118087844D01*
X105386401Y-118147372D01*
X105386403Y-118147379D01*
X105436645Y-118282086D01*
X105436649Y-118282093D01*
X105522809Y-118397187D01*
X105522812Y-118397190D01*
X105637906Y-118483350D01*
X105637913Y-118483354D01*
X105772620Y-118533596D01*
X105772627Y-118533598D01*
X105832155Y-118539999D01*
X105832172Y-118540000D01*
X106530000Y-118540000D01*
X106530000Y-117515277D01*
X106606306Y-117559333D01*
X106720756Y-117590000D01*
X106839244Y-117590000D01*
X106953694Y-117559333D01*
X107030000Y-117515277D01*
X107030000Y-118540000D01*
X107727828Y-118540000D01*
X107727844Y-118539999D01*
X107787372Y-118533598D01*
X107787379Y-118533596D01*
X107922086Y-118483354D01*
X107922093Y-118483350D01*
X108037187Y-118397190D01*
X108037190Y-118397187D01*
X108123350Y-118282093D01*
X108123354Y-118282086D01*
X108153213Y-118202031D01*
X108195084Y-118146097D01*
X108260548Y-118121680D01*
X108328821Y-118136531D01*
X108357076Y-118157683D01*
X108407636Y-118208243D01*
X108407641Y-118208247D01*
X108563192Y-118321260D01*
X108585978Y-118337815D01*
X108702501Y-118397187D01*
X108782393Y-118437895D01*
X108782396Y-118437896D01*
X108887221Y-118471955D01*
X108992049Y-118506015D01*
X109209778Y-118540500D01*
X109209779Y-118540500D01*
X109430221Y-118540500D01*
X109430222Y-118540500D01*
X109647951Y-118506015D01*
X109857606Y-118437895D01*
X110054022Y-118337815D01*
X110232365Y-118208242D01*
X110388242Y-118052365D01*
X110517815Y-117874022D01*
X110617895Y-117677606D01*
X110686015Y-117467951D01*
X110720500Y-117250222D01*
X110720500Y-117029778D01*
X110686015Y-116812049D01*
X110651955Y-116707221D01*
X110617896Y-116602396D01*
X110617895Y-116602393D01*
X110540500Y-116450500D01*
X110517815Y-116405978D01*
X110426772Y-116280667D01*
X110388247Y-116227641D01*
X110388243Y-116227636D01*
X110232363Y-116071756D01*
X110232358Y-116071752D01*
X110054025Y-115942187D01*
X110054024Y-115942186D01*
X110054022Y-115942185D01*
X109991096Y-115910122D01*
X109857606Y-115842104D01*
X109857603Y-115842103D01*
X109647952Y-115773985D01*
X109539086Y-115756742D01*
X109430222Y-115739500D01*
X109209778Y-115739500D01*
X109137201Y-115750995D01*
X108992047Y-115773985D01*
X108782396Y-115842103D01*
X108782393Y-115842104D01*
X108585974Y-115942187D01*
X108407641Y-116071752D01*
X108407636Y-116071756D01*
X108357075Y-116122317D01*
X108295752Y-116155801D01*
X108226060Y-116150816D01*
X108170127Y-116108945D01*
X108153213Y-116077968D01*
X108123354Y-115997913D01*
X108123350Y-115997906D01*
X108037190Y-115882812D01*
X108037187Y-115882809D01*
X107922093Y-115796649D01*
X107922086Y-115796645D01*
X107787379Y-115746403D01*
X107787372Y-115746401D01*
X107727844Y-115740000D01*
X107030000Y-115740000D01*
X107030000Y-116764722D01*
X106953694Y-116720667D01*
X106839244Y-116690000D01*
X106720756Y-116690000D01*
X106606306Y-116720667D01*
X106530000Y-116764722D01*
X106530000Y-115740000D01*
X105832155Y-115740000D01*
X105772627Y-115746401D01*
X105772620Y-115746403D01*
X105637913Y-115796645D01*
X105637906Y-115796649D01*
X105522812Y-115882809D01*
X105522809Y-115882812D01*
X105436649Y-115997906D01*
X105436645Y-115997913D01*
X105386403Y-116132620D01*
X105386401Y-116132627D01*
X105380000Y-116192155D01*
X102000500Y-116192155D01*
X102000500Y-94931947D01*
X106450000Y-94931947D01*
X106450000Y-95168052D01*
X106486934Y-95401247D01*
X106559897Y-95625802D01*
X106667087Y-95836174D01*
X106727338Y-95919104D01*
X106727340Y-95919105D01*
X107467037Y-95179408D01*
X107484075Y-95242993D01*
X107549901Y-95357007D01*
X107642993Y-95450099D01*
X107757007Y-95515925D01*
X107820590Y-95532962D01*
X107080893Y-96272658D01*
X107163828Y-96332914D01*
X107374197Y-96440102D01*
X107598752Y-96513065D01*
X107598751Y-96513065D01*
X107831948Y-96550000D01*
X108068052Y-96550000D01*
X108301247Y-96513065D01*
X108525802Y-96440102D01*
X108736163Y-96332918D01*
X108736169Y-96332914D01*
X108819104Y-96272658D01*
X108819105Y-96272658D01*
X108079408Y-95532962D01*
X108142993Y-95515925D01*
X108257007Y-95450099D01*
X108350099Y-95357007D01*
X108415925Y-95242993D01*
X108432962Y-95179409D01*
X109172658Y-95919105D01*
X109172658Y-95919104D01*
X109232914Y-95836169D01*
X109232918Y-95836163D01*
X109340102Y-95625802D01*
X109413065Y-95401247D01*
X109440309Y-95229240D01*
X109440309Y-95229239D01*
X109450000Y-95168053D01*
X109450000Y-94931947D01*
X109413065Y-94698752D01*
X109340102Y-94474197D01*
X109232914Y-94263828D01*
X109172658Y-94180894D01*
X109172658Y-94180893D01*
X108432962Y-94920590D01*
X108415925Y-94857007D01*
X108350099Y-94742993D01*
X108257007Y-94649901D01*
X108142993Y-94584075D01*
X108079409Y-94567037D01*
X108735276Y-93911170D01*
X108819105Y-93827340D01*
X108819104Y-93827338D01*
X108736174Y-93767087D01*
X108525802Y-93659897D01*
X108301247Y-93586934D01*
X108301248Y-93586934D01*
X108068052Y-93550000D01*
X107831948Y-93550000D01*
X107598752Y-93586934D01*
X107374197Y-93659897D01*
X107163830Y-93767084D01*
X107080894Y-93827340D01*
X107820591Y-94567037D01*
X107757007Y-94584075D01*
X107642993Y-94649901D01*
X107549901Y-94742993D01*
X107484075Y-94857007D01*
X107467037Y-94920591D01*
X106727340Y-94180894D01*
X106667084Y-94263830D01*
X106559897Y-94474197D01*
X106486934Y-94698752D01*
X106450000Y-94931947D01*
X102000500Y-94931947D01*
X102000500Y-84483713D01*
X102949500Y-84483713D01*
X102949500Y-84696286D01*
X102971118Y-84832781D01*
X102982754Y-84906243D01*
X103012693Y-84998386D01*
X103048444Y-85108414D01*
X103144951Y-85297820D01*
X103269890Y-85469786D01*
X103420213Y-85620109D01*
X103592182Y-85745050D01*
X103600946Y-85749516D01*
X103651742Y-85797491D01*
X103668536Y-85865312D01*
X103645998Y-85931447D01*
X103600946Y-85970484D01*
X103592182Y-85974949D01*
X103420213Y-86099890D01*
X103269890Y-86250213D01*
X103144951Y-86422179D01*
X103048444Y-86611585D01*
X102982753Y-86813760D01*
X102949500Y-87023713D01*
X102949500Y-87236286D01*
X102971118Y-87372781D01*
X102982754Y-87446243D01*
X103016164Y-87549069D01*
X103048444Y-87648414D01*
X103144951Y-87837820D01*
X103269890Y-88009786D01*
X103420213Y-88160109D01*
X103592182Y-88285050D01*
X103600946Y-88289516D01*
X103651742Y-88337491D01*
X103668536Y-88405312D01*
X103645998Y-88471447D01*
X103600946Y-88510484D01*
X103592182Y-88514949D01*
X103420213Y-88639890D01*
X103269890Y-88790213D01*
X103144951Y-88962179D01*
X103048444Y-89151585D01*
X102982753Y-89353760D01*
X102949500Y-89563713D01*
X102949500Y-89776286D01*
X102971118Y-89912781D01*
X102982754Y-89986243D01*
X103045128Y-90178211D01*
X103048444Y-90188414D01*
X103144951Y-90377820D01*
X103269890Y-90549786D01*
X103383818Y-90663714D01*
X103417303Y-90725037D01*
X103412319Y-90794729D01*
X103370447Y-90850662D01*
X103339471Y-90867577D01*
X103207912Y-90916646D01*
X103207906Y-90916649D01*
X103092812Y-91002809D01*
X103092809Y-91002812D01*
X103006649Y-91117906D01*
X103006645Y-91117913D01*
X102956403Y-91252620D01*
X102956401Y-91252627D01*
X102950000Y-91312155D01*
X102950000Y-91960000D01*
X103866988Y-91960000D01*
X103834075Y-92017007D01*
X103800000Y-92144174D01*
X103800000Y-92275826D01*
X103834075Y-92402993D01*
X103866988Y-92460000D01*
X102950000Y-92460000D01*
X102950000Y-93107844D01*
X102956401Y-93167372D01*
X102956403Y-93167379D01*
X103006645Y-93302086D01*
X103006649Y-93302093D01*
X103092809Y-93417187D01*
X103092812Y-93417190D01*
X103207906Y-93503350D01*
X103207913Y-93503354D01*
X103342620Y-93553596D01*
X103342627Y-93553598D01*
X103402155Y-93559999D01*
X103402172Y-93560000D01*
X104050000Y-93560000D01*
X104050000Y-92643012D01*
X104107007Y-92675925D01*
X104234174Y-92710000D01*
X104365826Y-92710000D01*
X104492993Y-92675925D01*
X104550000Y-92643012D01*
X104550000Y-93560000D01*
X105197828Y-93560000D01*
X105197844Y-93559999D01*
X105257372Y-93553598D01*
X105257379Y-93553596D01*
X105392086Y-93503354D01*
X105392093Y-93503350D01*
X105507187Y-93417190D01*
X105507190Y-93417187D01*
X105593350Y-93302093D01*
X105593354Y-93302086D01*
X105643596Y-93167379D01*
X105643598Y-93167372D01*
X105649999Y-93107844D01*
X105650000Y-93107827D01*
X105650000Y-92460000D01*
X104733012Y-92460000D01*
X104765925Y-92402993D01*
X104800000Y-92275826D01*
X104800000Y-92144174D01*
X104765925Y-92017007D01*
X104733012Y-91960000D01*
X105650000Y-91960000D01*
X105650000Y-91312172D01*
X105649999Y-91312155D01*
X105643598Y-91252627D01*
X105643596Y-91252620D01*
X105593354Y-91117913D01*
X105593350Y-91117906D01*
X105507190Y-91002812D01*
X105507187Y-91002809D01*
X105392093Y-90916649D01*
X105392088Y-90916646D01*
X105260528Y-90867577D01*
X105204595Y-90825705D01*
X105180178Y-90760241D01*
X105195030Y-90691968D01*
X105216175Y-90663720D01*
X105330104Y-90549792D01*
X105389175Y-90468488D01*
X105415756Y-90431902D01*
X106449500Y-90431902D01*
X106449500Y-90668097D01*
X106486446Y-90901368D01*
X106559433Y-91125996D01*
X106632916Y-91270213D01*
X106666657Y-91336433D01*
X106805483Y-91527510D01*
X106972490Y-91694517D01*
X107163567Y-91833343D01*
X107239993Y-91872284D01*
X107374003Y-91940566D01*
X107374005Y-91940566D01*
X107374008Y-91940568D01*
X107449879Y-91965220D01*
X107598631Y-92013553D01*
X107831903Y-92050500D01*
X107831908Y-92050500D01*
X108068097Y-92050500D01*
X108301368Y-92013553D01*
X108525992Y-91940568D01*
X108736433Y-91833343D01*
X108927510Y-91694517D01*
X109094517Y-91527510D01*
X109233343Y-91336433D01*
X109340568Y-91125992D01*
X109413553Y-90901368D01*
X109418905Y-90867577D01*
X109450500Y-90668097D01*
X109450500Y-90431902D01*
X112949500Y-90431902D01*
X112949500Y-90668097D01*
X112986446Y-90901368D01*
X113059433Y-91125996D01*
X113132916Y-91270213D01*
X113166657Y-91336433D01*
X113305483Y-91527510D01*
X113472490Y-91694517D01*
X113663567Y-91833343D01*
X113739993Y-91872284D01*
X113874003Y-91940566D01*
X113874005Y-91940566D01*
X113874008Y-91940568D01*
X113949879Y-91965220D01*
X114098631Y-92013553D01*
X114331903Y-92050500D01*
X114331908Y-92050500D01*
X114568097Y-92050500D01*
X114801368Y-92013553D01*
X115025992Y-91940568D01*
X115236433Y-91833343D01*
X115427510Y-91694517D01*
X115594517Y-91527510D01*
X115732420Y-91337702D01*
X115787750Y-91295038D01*
X115857364Y-91289059D01*
X115919159Y-91321665D01*
X115943223Y-91354294D01*
X115987715Y-91441613D01*
X116108028Y-91607213D01*
X116252786Y-91751971D01*
X116378070Y-91842993D01*
X116418390Y-91872287D01*
X116478654Y-91902993D01*
X116511080Y-91919515D01*
X116561876Y-91967490D01*
X116578671Y-92035311D01*
X116556134Y-92101446D01*
X116511080Y-92140485D01*
X116418386Y-92187715D01*
X116252786Y-92308028D01*
X116108028Y-92452786D01*
X115987715Y-92618386D01*
X115894781Y-92800776D01*
X115831522Y-92995465D01*
X115802278Y-93180109D01*
X115799500Y-93197648D01*
X115799500Y-93402352D01*
X115807401Y-93452234D01*
X115798445Y-93521528D01*
X115753448Y-93574979D01*
X115686697Y-93595618D01*
X115641594Y-93587813D01*
X115557379Y-93556403D01*
X115557372Y-93556401D01*
X115497844Y-93550000D01*
X114700000Y-93550000D01*
X114700000Y-94616988D01*
X114642993Y-94584075D01*
X114515826Y-94550000D01*
X114384174Y-94550000D01*
X114257007Y-94584075D01*
X114200000Y-94616988D01*
X114200000Y-93550000D01*
X113402155Y-93550000D01*
X113342627Y-93556401D01*
X113342620Y-93556403D01*
X113207913Y-93606645D01*
X113207906Y-93606649D01*
X113092812Y-93692809D01*
X113092809Y-93692812D01*
X113006649Y-93807906D01*
X113006645Y-93807913D01*
X112956403Y-93942620D01*
X112956401Y-93942627D01*
X112950000Y-94002155D01*
X112950000Y-94800000D01*
X114016988Y-94800000D01*
X113984075Y-94857007D01*
X113950000Y-94984174D01*
X113950000Y-95115826D01*
X113984075Y-95242993D01*
X114016988Y-95300000D01*
X112950000Y-95300000D01*
X112950000Y-96097844D01*
X112956401Y-96157372D01*
X112956403Y-96157379D01*
X113006645Y-96292086D01*
X113006649Y-96292093D01*
X113092809Y-96407187D01*
X113092812Y-96407190D01*
X113207906Y-96493350D01*
X113207913Y-96493354D01*
X113342620Y-96543596D01*
X113342627Y-96543598D01*
X113402155Y-96549999D01*
X113402172Y-96550000D01*
X114200000Y-96550000D01*
X114200000Y-95483012D01*
X114257007Y-95515925D01*
X114384174Y-95550000D01*
X114515826Y-95550000D01*
X114642993Y-95515925D01*
X114700000Y-95483012D01*
X114700000Y-96550000D01*
X115497828Y-96550000D01*
X115497844Y-96549999D01*
X115557372Y-96543598D01*
X115557379Y-96543596D01*
X115692086Y-96493354D01*
X115692089Y-96493352D01*
X115777742Y-96429232D01*
X115843206Y-96404814D01*
X115911479Y-96419665D01*
X115960885Y-96469069D01*
X115962534Y-96472194D01*
X115977577Y-96501717D01*
X115987715Y-96521614D01*
X116108028Y-96687213D01*
X116252786Y-96831971D01*
X116367312Y-96915177D01*
X116418390Y-96952287D01*
X116474040Y-96980642D01*
X116511080Y-96999515D01*
X116561876Y-97047490D01*
X116578671Y-97115311D01*
X116556134Y-97181446D01*
X116511080Y-97220485D01*
X116418386Y-97267715D01*
X116252786Y-97388028D01*
X116108028Y-97532786D01*
X115987715Y-97698386D01*
X115894781Y-97880776D01*
X115831522Y-98075465D01*
X115799500Y-98277648D01*
X115799500Y-98482351D01*
X115831522Y-98684534D01*
X115894781Y-98879223D01*
X115948207Y-98984075D01*
X115987585Y-99061359D01*
X115987715Y-99061613D01*
X116108028Y-99227213D01*
X116252786Y-99371971D01*
X116418385Y-99492284D01*
X116418387Y-99492285D01*
X116418390Y-99492287D01*
X116464588Y-99515826D01*
X116511630Y-99539795D01*
X116562426Y-99587770D01*
X116579221Y-99655591D01*
X116556684Y-99721725D01*
X116511630Y-99760765D01*
X116418644Y-99808143D01*
X116374077Y-99840523D01*
X116374077Y-99840524D01*
X116970591Y-100437037D01*
X116907007Y-100454075D01*
X116792993Y-100519901D01*
X116699901Y-100612993D01*
X116634075Y-100727007D01*
X116617037Y-100790590D01*
X116020524Y-100194077D01*
X116020523Y-100194077D01*
X115988143Y-100238644D01*
X115895244Y-100420968D01*
X115832009Y-100615582D01*
X115800000Y-100817682D01*
X115800000Y-101022317D01*
X115832009Y-101224417D01*
X115895244Y-101419031D01*
X115988141Y-101601350D01*
X115988147Y-101601359D01*
X116020523Y-101645921D01*
X116020524Y-101645922D01*
X116617037Y-101049409D01*
X116634075Y-101112993D01*
X116699901Y-101227007D01*
X116792993Y-101320099D01*
X116907007Y-101385925D01*
X116970590Y-101402962D01*
X116374076Y-101999474D01*
X116418652Y-102031861D01*
X116511628Y-102079234D01*
X116562425Y-102127208D01*
X116579220Y-102195029D01*
X116556683Y-102261164D01*
X116511630Y-102300203D01*
X116418388Y-102347713D01*
X116252786Y-102468028D01*
X116108028Y-102612786D01*
X115987715Y-102778386D01*
X115894781Y-102960776D01*
X115831522Y-103155465D01*
X115799500Y-103357648D01*
X115799500Y-103562351D01*
X115831522Y-103764534D01*
X115894781Y-103959223D01*
X115987715Y-104141613D01*
X116108028Y-104307213D01*
X116252786Y-104451971D01*
X116376707Y-104542003D01*
X116418390Y-104572287D01*
X116509840Y-104618883D01*
X116511080Y-104619515D01*
X116561876Y-104667490D01*
X116578671Y-104735311D01*
X116556134Y-104801446D01*
X116511080Y-104840485D01*
X116418386Y-104887715D01*
X116252786Y-105008028D01*
X116108028Y-105152786D01*
X115987715Y-105318386D01*
X115894781Y-105500776D01*
X115831522Y-105695465D01*
X115799500Y-105897648D01*
X115799500Y-106102351D01*
X115831522Y-106304534D01*
X115894781Y-106499223D01*
X115987715Y-106681613D01*
X116108028Y-106847213D01*
X116252786Y-106991971D01*
X116407749Y-107104556D01*
X116418390Y-107112287D01*
X116509840Y-107158883D01*
X116511080Y-107159515D01*
X116561876Y-107207490D01*
X116578671Y-107275311D01*
X116556134Y-107341446D01*
X116511080Y-107380485D01*
X116418386Y-107427715D01*
X116252786Y-107548028D01*
X116108028Y-107692786D01*
X115987715Y-107858386D01*
X115894781Y-108040776D01*
X115831522Y-108235465D01*
X115799500Y-108437648D01*
X115799500Y-108642351D01*
X115831522Y-108844534D01*
X115894781Y-109039223D01*
X115987715Y-109221613D01*
X116108028Y-109387213D01*
X116252786Y-109531971D01*
X116407749Y-109644556D01*
X116418390Y-109652287D01*
X116509840Y-109698883D01*
X116511080Y-109699515D01*
X116561876Y-109747490D01*
X116578671Y-109815311D01*
X116556134Y-109881446D01*
X116511080Y-109920485D01*
X116418386Y-109967715D01*
X116252786Y-110088028D01*
X116108028Y-110232786D01*
X115987715Y-110398386D01*
X115894781Y-110580776D01*
X115831522Y-110775465D01*
X115799500Y-110977648D01*
X115799500Y-111182351D01*
X115831522Y-111384534D01*
X115894781Y-111579223D01*
X115987715Y-111761613D01*
X116108028Y-111927213D01*
X116252786Y-112071971D01*
X116407749Y-112184556D01*
X116418390Y-112192287D01*
X116509840Y-112238883D01*
X116511080Y-112239515D01*
X116561876Y-112287490D01*
X116578671Y-112355311D01*
X116556134Y-112421446D01*
X116511080Y-112460485D01*
X116418386Y-112507715D01*
X116252786Y-112628028D01*
X116108028Y-112772786D01*
X115987715Y-112938386D01*
X115894781Y-113120776D01*
X115831522Y-113315465D01*
X115799500Y-113517648D01*
X115799500Y-113722351D01*
X115831522Y-113924534D01*
X115894781Y-114119223D01*
X115987715Y-114301613D01*
X116108028Y-114467213D01*
X116252786Y-114611971D01*
X116403251Y-114721288D01*
X116418390Y-114732287D01*
X116509840Y-114778883D01*
X116511080Y-114779515D01*
X116561876Y-114827490D01*
X116578671Y-114895311D01*
X116556134Y-114961446D01*
X116511080Y-115000485D01*
X116418386Y-115047715D01*
X116252786Y-115168028D01*
X116108028Y-115312786D01*
X115987715Y-115478386D01*
X115894781Y-115660776D01*
X115831522Y-115855465D01*
X115809539Y-115994265D01*
X115799500Y-116057648D01*
X115799500Y-116262352D01*
X115802401Y-116280667D01*
X115831522Y-116464534D01*
X115894781Y-116659223D01*
X115926089Y-116720667D01*
X115971719Y-116810221D01*
X115987715Y-116841613D01*
X116108028Y-117007213D01*
X116252786Y-117151971D01*
X116388020Y-117250222D01*
X116418390Y-117272287D01*
X116499656Y-117313694D01*
X116600776Y-117365218D01*
X116600778Y-117365218D01*
X116600781Y-117365220D01*
X116677046Y-117390000D01*
X116795465Y-117428477D01*
X116896557Y-117444488D01*
X116997648Y-117460500D01*
X116997649Y-117460500D01*
X117202351Y-117460500D01*
X117202352Y-117460500D01*
X117404534Y-117428477D01*
X117599219Y-117365220D01*
X117781610Y-117272287D01*
X117882146Y-117199244D01*
X117947213Y-117151971D01*
X117947215Y-117151968D01*
X117947219Y-117151966D01*
X118091966Y-117007219D01*
X118091968Y-117007215D01*
X118091971Y-117007213D01*
X118177130Y-116890000D01*
X118212287Y-116841610D01*
X118305220Y-116659219D01*
X118368477Y-116464534D01*
X118400500Y-116262352D01*
X118400500Y-116057648D01*
X118385980Y-115965974D01*
X118368477Y-115855465D01*
X118323915Y-115718319D01*
X118305220Y-115660781D01*
X118305218Y-115660778D01*
X118305218Y-115660776D01*
X118271503Y-115594607D01*
X118212287Y-115478390D01*
X118204556Y-115467749D01*
X118091971Y-115312786D01*
X117947213Y-115168028D01*
X117781614Y-115047715D01*
X117775006Y-115044348D01*
X117688917Y-115000483D01*
X117638123Y-114952511D01*
X117621328Y-114884690D01*
X117643865Y-114818555D01*
X117688917Y-114779516D01*
X117781610Y-114732287D01*
X117802770Y-114716913D01*
X117947213Y-114611971D01*
X117947215Y-114611968D01*
X117947219Y-114611966D01*
X118091966Y-114467219D01*
X118091968Y-114467215D01*
X118091971Y-114467213D01*
X118144732Y-114394590D01*
X118212287Y-114301610D01*
X118305220Y-114119219D01*
X118368477Y-113924534D01*
X118400500Y-113722352D01*
X118400500Y-113517648D01*
X118368477Y-113315466D01*
X118305220Y-113120781D01*
X118305218Y-113120778D01*
X118305218Y-113120776D01*
X118271503Y-113054607D01*
X118212287Y-112938390D01*
X118143671Y-112843947D01*
X118091971Y-112772786D01*
X117947213Y-112628028D01*
X117781614Y-112507715D01*
X117775006Y-112504348D01*
X117688917Y-112460483D01*
X117638123Y-112412511D01*
X117621328Y-112344690D01*
X117643865Y-112278555D01*
X117688917Y-112239516D01*
X117781610Y-112192287D01*
X117802770Y-112176913D01*
X117947213Y-112071971D01*
X117947215Y-112071968D01*
X117947219Y-112071966D01*
X118091966Y-111927219D01*
X118091968Y-111927215D01*
X118091971Y-111927213D01*
X118144732Y-111854590D01*
X118212287Y-111761610D01*
X118305220Y-111579219D01*
X118368477Y-111384534D01*
X118400500Y-111182352D01*
X118400500Y-110977648D01*
X118368477Y-110775466D01*
X118305220Y-110580781D01*
X118305218Y-110580778D01*
X118305218Y-110580776D01*
X118271503Y-110514607D01*
X118212287Y-110398390D01*
X118204556Y-110387749D01*
X118091971Y-110232786D01*
X117947213Y-110088028D01*
X117781614Y-109967715D01*
X117775006Y-109964348D01*
X117688917Y-109920483D01*
X117638123Y-109872511D01*
X117621328Y-109804690D01*
X117643865Y-109738555D01*
X117688917Y-109699516D01*
X117781610Y-109652287D01*
X117802770Y-109636913D01*
X117947213Y-109531971D01*
X117947215Y-109531968D01*
X117947219Y-109531966D01*
X118091966Y-109387219D01*
X118091968Y-109387215D01*
X118091971Y-109387213D01*
X118144732Y-109314590D01*
X118212287Y-109221610D01*
X118305220Y-109039219D01*
X118368477Y-108844534D01*
X118400500Y-108642352D01*
X118400500Y-108437648D01*
X118368477Y-108235466D01*
X118366863Y-108230500D01*
X118305218Y-108040776D01*
X118238637Y-107910105D01*
X118212287Y-107858390D01*
X118153791Y-107777876D01*
X118091971Y-107692786D01*
X117947213Y-107548028D01*
X117781614Y-107427715D01*
X117775006Y-107424348D01*
X117688917Y-107380483D01*
X117638123Y-107332511D01*
X117621328Y-107264690D01*
X117643865Y-107198555D01*
X117688917Y-107159516D01*
X117781610Y-107112287D01*
X117835694Y-107072993D01*
X117947213Y-106991971D01*
X117947215Y-106991968D01*
X117947219Y-106991966D01*
X118091966Y-106847219D01*
X118091968Y-106847215D01*
X118091971Y-106847213D01*
X118145371Y-106773713D01*
X118212287Y-106681610D01*
X118305220Y-106499219D01*
X118368477Y-106304534D01*
X118400500Y-106102352D01*
X118400500Y-105897648D01*
X118368477Y-105695466D01*
X118366736Y-105690109D01*
X118319369Y-105544328D01*
X118305220Y-105500781D01*
X118305218Y-105500778D01*
X118305218Y-105500776D01*
X118271503Y-105434607D01*
X118212287Y-105318390D01*
X118188596Y-105285782D01*
X118091971Y-105152786D01*
X117947213Y-105008028D01*
X117781614Y-104887715D01*
X117775006Y-104884348D01*
X117688917Y-104840483D01*
X117638123Y-104792511D01*
X117621328Y-104724690D01*
X117643865Y-104658555D01*
X117688917Y-104619516D01*
X117781610Y-104572287D01*
X117823309Y-104541991D01*
X117947213Y-104451971D01*
X117947215Y-104451968D01*
X117947219Y-104451966D01*
X118091966Y-104307219D01*
X118091968Y-104307215D01*
X118091971Y-104307213D01*
X118144732Y-104234590D01*
X118212287Y-104141610D01*
X118305220Y-103959219D01*
X118368477Y-103764534D01*
X118400500Y-103562352D01*
X118400500Y-103357648D01*
X118368477Y-103155466D01*
X118305220Y-102960781D01*
X118305218Y-102960778D01*
X118305218Y-102960776D01*
X118250299Y-102852993D01*
X118212287Y-102778390D01*
X118198854Y-102759901D01*
X118091971Y-102612786D01*
X117947213Y-102468028D01*
X117781611Y-102347713D01*
X117688369Y-102300203D01*
X117637574Y-102252229D01*
X117620779Y-102184407D01*
X117643317Y-102118273D01*
X117688371Y-102079234D01*
X117781346Y-102031861D01*
X117781347Y-102031861D01*
X117825921Y-101999474D01*
X117229409Y-101402962D01*
X117292993Y-101385925D01*
X117407007Y-101320099D01*
X117500099Y-101227007D01*
X117565925Y-101112993D01*
X117582962Y-101049410D01*
X118179474Y-101645922D01*
X118179474Y-101645921D01*
X118211859Y-101601349D01*
X118304755Y-101419031D01*
X118367990Y-101224417D01*
X118400000Y-101022317D01*
X118400000Y-100817682D01*
X118367990Y-100615582D01*
X118304755Y-100420968D01*
X118211859Y-100238650D01*
X118179474Y-100194077D01*
X118179474Y-100194076D01*
X117582962Y-100790589D01*
X117565925Y-100727007D01*
X117500099Y-100612993D01*
X117407007Y-100519901D01*
X117292993Y-100454075D01*
X117229408Y-100437037D01*
X117825922Y-99840524D01*
X117825921Y-99840523D01*
X117781359Y-99808147D01*
X117781350Y-99808141D01*
X117688369Y-99760765D01*
X117637573Y-99712790D01*
X117620778Y-99644969D01*
X117643315Y-99578835D01*
X117688370Y-99539795D01*
X117689471Y-99539234D01*
X117781610Y-99492287D01*
X117839815Y-99449999D01*
X117947213Y-99371971D01*
X117947215Y-99371968D01*
X117947219Y-99371966D01*
X118091966Y-99227219D01*
X118091968Y-99227215D01*
X118091971Y-99227213D01*
X118159788Y-99133869D01*
X118212287Y-99061610D01*
X118305220Y-98879219D01*
X118368477Y-98684534D01*
X118400500Y-98482352D01*
X118400500Y-98277648D01*
X118372284Y-98099500D01*
X118368477Y-98075465D01*
X118316038Y-97914075D01*
X118305220Y-97880781D01*
X118305218Y-97880778D01*
X118305218Y-97880776D01*
X118271503Y-97814607D01*
X118212287Y-97698390D01*
X118180092Y-97654077D01*
X118091971Y-97532786D01*
X117947213Y-97388028D01*
X117781614Y-97267715D01*
X117775006Y-97264348D01*
X117688917Y-97220483D01*
X117638123Y-97172511D01*
X117621328Y-97104690D01*
X117643865Y-97038555D01*
X117688917Y-96999516D01*
X117781610Y-96952287D01*
X117832688Y-96915177D01*
X117947213Y-96831971D01*
X117947215Y-96831968D01*
X117947219Y-96831966D01*
X118091966Y-96687219D01*
X118091968Y-96687215D01*
X118091971Y-96687213D01*
X118144732Y-96614590D01*
X118212287Y-96521610D01*
X118305220Y-96339219D01*
X118368477Y-96144534D01*
X118400500Y-95942352D01*
X118400500Y-95737648D01*
X118368477Y-95535466D01*
X118305220Y-95340781D01*
X118305218Y-95340778D01*
X118305218Y-95340776D01*
X118248386Y-95229239D01*
X118212287Y-95158390D01*
X118169716Y-95099795D01*
X118091971Y-94992786D01*
X117947213Y-94848028D01*
X117781614Y-94727715D01*
X117746630Y-94709890D01*
X117688917Y-94680483D01*
X117638123Y-94632511D01*
X117621328Y-94564690D01*
X117643865Y-94498555D01*
X117688917Y-94459516D01*
X117781610Y-94412287D01*
X117827642Y-94378843D01*
X117947213Y-94291971D01*
X117947215Y-94291968D01*
X117947219Y-94291966D01*
X118091966Y-94147219D01*
X118091968Y-94147215D01*
X118091971Y-94147213D01*
X118197360Y-94002155D01*
X118212287Y-93981610D01*
X118305220Y-93799219D01*
X118368477Y-93604534D01*
X118400500Y-93402352D01*
X118400500Y-93197648D01*
X118376778Y-93047873D01*
X118368477Y-92995465D01*
X118323752Y-92857816D01*
X118305220Y-92800781D01*
X118305218Y-92800778D01*
X118305218Y-92800776D01*
X118271503Y-92734607D01*
X118212287Y-92618390D01*
X118204556Y-92607749D01*
X118091971Y-92452786D01*
X117947213Y-92308028D01*
X117781614Y-92187715D01*
X117775006Y-92184348D01*
X117688917Y-92140483D01*
X117638123Y-92092511D01*
X117621328Y-92024690D01*
X117643865Y-91958555D01*
X117688917Y-91919516D01*
X117781610Y-91872287D01*
X117834488Y-91833869D01*
X117947213Y-91751971D01*
X117947215Y-91751968D01*
X117947219Y-91751966D01*
X118091966Y-91607219D01*
X118091968Y-91607215D01*
X118091971Y-91607213D01*
X118149877Y-91527511D01*
X118212287Y-91441610D01*
X118305220Y-91259219D01*
X118368477Y-91064534D01*
X118400500Y-90862352D01*
X118400500Y-90657648D01*
X118368477Y-90455466D01*
X118305220Y-90260781D01*
X118305218Y-90260778D01*
X118305218Y-90260776D01*
X118258025Y-90168156D01*
X118212287Y-90078390D01*
X118177320Y-90030261D01*
X118091971Y-89912786D01*
X117947213Y-89768028D01*
X117781614Y-89647715D01*
X117775006Y-89644348D01*
X117688917Y-89600483D01*
X117638123Y-89552511D01*
X117621328Y-89484690D01*
X117643865Y-89418555D01*
X117688917Y-89379516D01*
X117781610Y-89332287D01*
X117871943Y-89266657D01*
X117947213Y-89211971D01*
X117947215Y-89211968D01*
X117947219Y-89211966D01*
X118091966Y-89067219D01*
X118091968Y-89067215D01*
X118091971Y-89067213D01*
X118144732Y-88994590D01*
X118212287Y-88901610D01*
X118305220Y-88719219D01*
X118368477Y-88524534D01*
X118400500Y-88322352D01*
X118400500Y-88117648D01*
X118368477Y-87915466D01*
X118305220Y-87720781D01*
X118305218Y-87720778D01*
X118305218Y-87720776D01*
X118268346Y-87648412D01*
X118212287Y-87538390D01*
X118204556Y-87527749D01*
X118091971Y-87372786D01*
X117947213Y-87228028D01*
X117781614Y-87107715D01*
X117767995Y-87100776D01*
X117688917Y-87060483D01*
X117638123Y-87012511D01*
X117621328Y-86944690D01*
X117643865Y-86878555D01*
X117688917Y-86839516D01*
X117781610Y-86792287D01*
X117835986Y-86752781D01*
X117947213Y-86671971D01*
X117947215Y-86671968D01*
X117947219Y-86671966D01*
X118091966Y-86527219D01*
X118091968Y-86527215D01*
X118091971Y-86527213D01*
X118144732Y-86454590D01*
X118212287Y-86361610D01*
X118305220Y-86179219D01*
X118368477Y-85984534D01*
X118400500Y-85782352D01*
X118400500Y-85577648D01*
X118368477Y-85375466D01*
X118305220Y-85180781D01*
X118305218Y-85180778D01*
X118305218Y-85180776D01*
X118268346Y-85108412D01*
X118212287Y-84998390D01*
X118204556Y-84987749D01*
X118091971Y-84832786D01*
X117947219Y-84688034D01*
X117910930Y-84661669D01*
X117868264Y-84606339D01*
X117862285Y-84536726D01*
X117894890Y-84474931D01*
X117955728Y-84440573D01*
X117970562Y-84438060D01*
X118007483Y-84434091D01*
X118142328Y-84383797D01*
X118142327Y-84383797D01*
X118142331Y-84383796D01*
X118257546Y-84297546D01*
X118343796Y-84182331D01*
X118394091Y-84047483D01*
X118400500Y-83987873D01*
X118400499Y-83037648D01*
X123419500Y-83037648D01*
X123419500Y-83242351D01*
X123451522Y-83444534D01*
X123514781Y-83639223D01*
X123607715Y-83821613D01*
X123728028Y-83987213D01*
X123872786Y-84131971D01*
X124027749Y-84244556D01*
X124038390Y-84252287D01*
X124127212Y-84297544D01*
X124131080Y-84299515D01*
X124181876Y-84347490D01*
X124198671Y-84415311D01*
X124176134Y-84481446D01*
X124131080Y-84520485D01*
X124038386Y-84567715D01*
X123872786Y-84688028D01*
X123728028Y-84832786D01*
X123607715Y-84998386D01*
X123514781Y-85180776D01*
X123451522Y-85375465D01*
X123419500Y-85577648D01*
X123419500Y-85782351D01*
X123451522Y-85984534D01*
X123514781Y-86179223D01*
X123550953Y-86250213D01*
X123592382Y-86331522D01*
X123607715Y-86361613D01*
X123728028Y-86527213D01*
X123872786Y-86671971D01*
X123984014Y-86752781D01*
X124038390Y-86792287D01*
X124129840Y-86838883D01*
X124131080Y-86839515D01*
X124181876Y-86887490D01*
X124198671Y-86955311D01*
X124176134Y-87021446D01*
X124131080Y-87060485D01*
X124038386Y-87107715D01*
X123872786Y-87228028D01*
X123728028Y-87372786D01*
X123607715Y-87538386D01*
X123514781Y-87720776D01*
X123451522Y-87915465D01*
X123419500Y-88117648D01*
X123419500Y-88322351D01*
X123451522Y-88524534D01*
X123514781Y-88719223D01*
X123578691Y-88844653D01*
X123607147Y-88900500D01*
X123607715Y-88901613D01*
X123728028Y-89067213D01*
X123872786Y-89211971D01*
X124027749Y-89324556D01*
X124038390Y-89332287D01*
X124129840Y-89378883D01*
X124131080Y-89379515D01*
X124181876Y-89427490D01*
X124198671Y-89495311D01*
X124176134Y-89561446D01*
X124131080Y-89600485D01*
X124038386Y-89647715D01*
X123872786Y-89768028D01*
X123728028Y-89912786D01*
X123607715Y-90078386D01*
X123514781Y-90260776D01*
X123451522Y-90455465D01*
X123419500Y-90657648D01*
X123419500Y-90862351D01*
X123451522Y-91064534D01*
X123514781Y-91259223D01*
X123607715Y-91441613D01*
X123728028Y-91607213D01*
X123872786Y-91751971D01*
X123998070Y-91842993D01*
X124038390Y-91872287D01*
X124098654Y-91902993D01*
X124131080Y-91919515D01*
X124181876Y-91967490D01*
X124198671Y-92035311D01*
X124176134Y-92101446D01*
X124131080Y-92140485D01*
X124038386Y-92187715D01*
X123872786Y-92308028D01*
X123728028Y-92452786D01*
X123607715Y-92618386D01*
X123514781Y-92800776D01*
X123451522Y-92995465D01*
X123419500Y-93197648D01*
X123419500Y-93402351D01*
X123451522Y-93604534D01*
X123514781Y-93799223D01*
X123607715Y-93981613D01*
X123728028Y-94147213D01*
X123872786Y-94291971D01*
X123992362Y-94378846D01*
X124038390Y-94412287D01*
X124122865Y-94455329D01*
X124131080Y-94459515D01*
X124181876Y-94507490D01*
X124198671Y-94575311D01*
X124176134Y-94641446D01*
X124131080Y-94680485D01*
X124038386Y-94727715D01*
X123872786Y-94848028D01*
X123728028Y-94992786D01*
X123607715Y-95158386D01*
X123514781Y-95340776D01*
X123451522Y-95535465D01*
X123419500Y-95737648D01*
X123419500Y-95942351D01*
X123451522Y-96144534D01*
X123514781Y-96339223D01*
X123570113Y-96447816D01*
X123597576Y-96501716D01*
X123607715Y-96521613D01*
X123728028Y-96687213D01*
X123872786Y-96831971D01*
X124038385Y-96952284D01*
X124038387Y-96952285D01*
X124038390Y-96952287D01*
X124072475Y-96969654D01*
X124131630Y-96999795D01*
X124182426Y-97047770D01*
X124199221Y-97115591D01*
X124176684Y-97181725D01*
X124131630Y-97220765D01*
X124038644Y-97268143D01*
X123994077Y-97300523D01*
X123994077Y-97300524D01*
X124590591Y-97897037D01*
X124527007Y-97914075D01*
X124412993Y-97979901D01*
X124319901Y-98072993D01*
X124254075Y-98187007D01*
X124237037Y-98250590D01*
X123640524Y-97654077D01*
X123640523Y-97654077D01*
X123608143Y-97698644D01*
X123515244Y-97880968D01*
X123452009Y-98075582D01*
X123420000Y-98277682D01*
X123420000Y-98482317D01*
X123452009Y-98684417D01*
X123515244Y-98879031D01*
X123608141Y-99061350D01*
X123608147Y-99061359D01*
X123640523Y-99105921D01*
X123640524Y-99105922D01*
X124237037Y-98509409D01*
X124254075Y-98572993D01*
X124319901Y-98687007D01*
X124412993Y-98780099D01*
X124527007Y-98845925D01*
X124590590Y-98862962D01*
X123994076Y-99459474D01*
X124038652Y-99491861D01*
X124131628Y-99539234D01*
X124182425Y-99587208D01*
X124199220Y-99655029D01*
X124176683Y-99721164D01*
X124131630Y-99760203D01*
X124038388Y-99807713D01*
X123872786Y-99928028D01*
X123728028Y-100072786D01*
X123607715Y-100238386D01*
X123514781Y-100420776D01*
X123451522Y-100615465D01*
X123419500Y-100817648D01*
X123419500Y-101022351D01*
X123451522Y-101224534D01*
X123514781Y-101419223D01*
X123573008Y-101533497D01*
X123607585Y-101601359D01*
X123607715Y-101601613D01*
X123728028Y-101767213D01*
X123872786Y-101911971D01*
X124001355Y-102005380D01*
X124038390Y-102032287D01*
X124107831Y-102067669D01*
X124131080Y-102079515D01*
X124181876Y-102127490D01*
X124198671Y-102195311D01*
X124176134Y-102261446D01*
X124131080Y-102300485D01*
X124038386Y-102347715D01*
X123872786Y-102468028D01*
X123728028Y-102612786D01*
X123607715Y-102778386D01*
X123514781Y-102960776D01*
X123451522Y-103155465D01*
X123419500Y-103357648D01*
X123419500Y-103562351D01*
X123451522Y-103764534D01*
X123514781Y-103959223D01*
X123607715Y-104141613D01*
X123728028Y-104307213D01*
X123872786Y-104451971D01*
X123996707Y-104542003D01*
X124038390Y-104572287D01*
X124129840Y-104618883D01*
X124131080Y-104619515D01*
X124181876Y-104667490D01*
X124198671Y-104735311D01*
X124176134Y-104801446D01*
X124131080Y-104840485D01*
X124038386Y-104887715D01*
X123872786Y-105008028D01*
X123728028Y-105152786D01*
X123607715Y-105318386D01*
X123514781Y-105500776D01*
X123451522Y-105695465D01*
X123419500Y-105897648D01*
X123419500Y-106102351D01*
X123451522Y-106304534D01*
X123514781Y-106499223D01*
X123607715Y-106681613D01*
X123728028Y-106847213D01*
X123872786Y-106991971D01*
X124027749Y-107104556D01*
X124038390Y-107112287D01*
X124129840Y-107158883D01*
X124131080Y-107159515D01*
X124181876Y-107207490D01*
X124198671Y-107275311D01*
X124176134Y-107341446D01*
X124131080Y-107380485D01*
X124038386Y-107427715D01*
X123872786Y-107548028D01*
X123728028Y-107692786D01*
X123607715Y-107858386D01*
X123514781Y-108040776D01*
X123451522Y-108235465D01*
X123419500Y-108437648D01*
X123419500Y-108642351D01*
X123451522Y-108844534D01*
X123514781Y-109039223D01*
X123607715Y-109221613D01*
X123728028Y-109387213D01*
X123872786Y-109531971D01*
X124027749Y-109644556D01*
X124038390Y-109652287D01*
X124129840Y-109698883D01*
X124131080Y-109699515D01*
X124181876Y-109747490D01*
X124198671Y-109815311D01*
X124176134Y-109881446D01*
X124131080Y-109920485D01*
X124038386Y-109967715D01*
X123872786Y-110088028D01*
X123728028Y-110232786D01*
X123607715Y-110398386D01*
X123514781Y-110580776D01*
X123451522Y-110775465D01*
X123419500Y-110977648D01*
X123419500Y-111182351D01*
X123451522Y-111384534D01*
X123514781Y-111579223D01*
X123607715Y-111761613D01*
X123728028Y-111927213D01*
X123872786Y-112071971D01*
X124027749Y-112184556D01*
X124038390Y-112192287D01*
X124129840Y-112238883D01*
X124131080Y-112239515D01*
X124181876Y-112287490D01*
X124198671Y-112355311D01*
X124176134Y-112421446D01*
X124131080Y-112460485D01*
X124038386Y-112507715D01*
X123872786Y-112628028D01*
X123728028Y-112772786D01*
X123607715Y-112938386D01*
X123514781Y-113120776D01*
X123451522Y-113315465D01*
X123419500Y-113517648D01*
X123419500Y-113722351D01*
X123451522Y-113924534D01*
X123514781Y-114119223D01*
X123607715Y-114301613D01*
X123728028Y-114467213D01*
X123872786Y-114611971D01*
X124023251Y-114721288D01*
X124038390Y-114732287D01*
X124129840Y-114778883D01*
X124131080Y-114779515D01*
X124181876Y-114827490D01*
X124198671Y-114895311D01*
X124176134Y-114961446D01*
X124131080Y-115000485D01*
X124038386Y-115047715D01*
X123872786Y-115168028D01*
X123728028Y-115312786D01*
X123607715Y-115478386D01*
X123514781Y-115660776D01*
X123451522Y-115855465D01*
X123429539Y-115994265D01*
X123419500Y-116057648D01*
X123419500Y-116262352D01*
X123422401Y-116280667D01*
X123451522Y-116464534D01*
X123514781Y-116659223D01*
X123546089Y-116720667D01*
X123591719Y-116810221D01*
X123607715Y-116841613D01*
X123728028Y-117007213D01*
X123872786Y-117151971D01*
X124008020Y-117250222D01*
X124038390Y-117272287D01*
X124119656Y-117313694D01*
X124220776Y-117365218D01*
X124220778Y-117365218D01*
X124220781Y-117365220D01*
X124297046Y-117390000D01*
X124415465Y-117428477D01*
X124516557Y-117444488D01*
X124617648Y-117460500D01*
X124617649Y-117460500D01*
X124822351Y-117460500D01*
X124822352Y-117460500D01*
X125024534Y-117428477D01*
X125219219Y-117365220D01*
X125401610Y-117272287D01*
X125502146Y-117199244D01*
X125567213Y-117151971D01*
X125567215Y-117151968D01*
X125567219Y-117151966D01*
X125711966Y-117007219D01*
X125711968Y-117007215D01*
X125711971Y-117007213D01*
X125797130Y-116890000D01*
X125832287Y-116841610D01*
X125925220Y-116659219D01*
X125947783Y-116589778D01*
X130134500Y-116589778D01*
X130134500Y-116810222D01*
X130139471Y-116841610D01*
X130168985Y-117027952D01*
X130237103Y-117237603D01*
X130237104Y-117237606D01*
X130275874Y-117313694D01*
X130314754Y-117390000D01*
X130337187Y-117434025D01*
X130466752Y-117612358D01*
X130466756Y-117612363D01*
X130622636Y-117768243D01*
X130622641Y-117768247D01*
X130768234Y-117874025D01*
X130800978Y-117897815D01*
X130917501Y-117957187D01*
X130997393Y-117997895D01*
X130997396Y-117997896D01*
X131102221Y-118031955D01*
X131207049Y-118066015D01*
X131424778Y-118100500D01*
X131424779Y-118100500D01*
X131645221Y-118100500D01*
X131645222Y-118100500D01*
X131862951Y-118066015D01*
X132072606Y-117997895D01*
X132269022Y-117897815D01*
X132447365Y-117768242D01*
X132497924Y-117717682D01*
X132559245Y-117684198D01*
X132628936Y-117689182D01*
X132684870Y-117731053D01*
X132701786Y-117762030D01*
X132731646Y-117842087D01*
X132731649Y-117842093D01*
X132817809Y-117957187D01*
X132817812Y-117957190D01*
X132932906Y-118043350D01*
X132932913Y-118043354D01*
X133067620Y-118093596D01*
X133067627Y-118093598D01*
X133127155Y-118099999D01*
X133127172Y-118100000D01*
X133825000Y-118100000D01*
X133825000Y-117075277D01*
X133901306Y-117119333D01*
X134015756Y-117150000D01*
X134134244Y-117150000D01*
X134248694Y-117119333D01*
X134325000Y-117075277D01*
X134325000Y-118100000D01*
X135022828Y-118100000D01*
X135022844Y-118099999D01*
X135082372Y-118093598D01*
X135082379Y-118093596D01*
X135217086Y-118043354D01*
X135217093Y-118043350D01*
X135332187Y-117957190D01*
X135332190Y-117957187D01*
X135418350Y-117842093D01*
X135418354Y-117842086D01*
X135468596Y-117707379D01*
X135468598Y-117707372D01*
X135474999Y-117647844D01*
X135475000Y-117647827D01*
X135475000Y-116950000D01*
X134450278Y-116950000D01*
X134494333Y-116873694D01*
X134525000Y-116759244D01*
X134525000Y-116640756D01*
X134494333Y-116526306D01*
X134450278Y-116450000D01*
X135475000Y-116450000D01*
X135475000Y-115752172D01*
X135474999Y-115752155D01*
X135468598Y-115692627D01*
X135468596Y-115692620D01*
X135418354Y-115557913D01*
X135418350Y-115557906D01*
X135332190Y-115442812D01*
X135332187Y-115442809D01*
X135217093Y-115356649D01*
X135217086Y-115356645D01*
X135082379Y-115306403D01*
X135082372Y-115306401D01*
X135022844Y-115300000D01*
X134325000Y-115300000D01*
X134325000Y-116324722D01*
X134248694Y-116280667D01*
X134134244Y-116250000D01*
X134015756Y-116250000D01*
X133901306Y-116280667D01*
X133825000Y-116324722D01*
X133825000Y-115300000D01*
X133127155Y-115300000D01*
X133067627Y-115306401D01*
X133067620Y-115306403D01*
X132932913Y-115356645D01*
X132932906Y-115356649D01*
X132817812Y-115442809D01*
X132817809Y-115442812D01*
X132731649Y-115557906D01*
X132731643Y-115557918D01*
X132701785Y-115637969D01*
X132659914Y-115693903D01*
X132594449Y-115718319D01*
X132526176Y-115703467D01*
X132497923Y-115682316D01*
X132447363Y-115631756D01*
X132447358Y-115631752D01*
X132269025Y-115502187D01*
X132269024Y-115502186D01*
X132269022Y-115502185D01*
X132206096Y-115470122D01*
X132072606Y-115402104D01*
X132072603Y-115402103D01*
X131862952Y-115333985D01*
X131729106Y-115312786D01*
X131645222Y-115299500D01*
X131424778Y-115299500D01*
X131352201Y-115310995D01*
X131207047Y-115333985D01*
X130997396Y-115402103D01*
X130997393Y-115402104D01*
X130800974Y-115502187D01*
X130622641Y-115631752D01*
X130622636Y-115631756D01*
X130466756Y-115787636D01*
X130466752Y-115787641D01*
X130337187Y-115965974D01*
X130237104Y-116162393D01*
X130237103Y-116162396D01*
X130168985Y-116372047D01*
X130154337Y-116464534D01*
X130134500Y-116589778D01*
X125947783Y-116589778D01*
X125988477Y-116464534D01*
X126020500Y-116262352D01*
X126020500Y-116057648D01*
X126005980Y-115965974D01*
X125988477Y-115855465D01*
X125943915Y-115718319D01*
X125925220Y-115660781D01*
X125925218Y-115660778D01*
X125925218Y-115660776D01*
X125891503Y-115594607D01*
X125832287Y-115478390D01*
X125824556Y-115467749D01*
X125711971Y-115312786D01*
X125567213Y-115168028D01*
X125401614Y-115047715D01*
X125395006Y-115044348D01*
X125308917Y-115000483D01*
X125258123Y-114952511D01*
X125241328Y-114884690D01*
X125263865Y-114818555D01*
X125308917Y-114779516D01*
X125401610Y-114732287D01*
X125422770Y-114716913D01*
X125567213Y-114611971D01*
X125567215Y-114611968D01*
X125567219Y-114611966D01*
X125700474Y-114478711D01*
X138249500Y-114478711D01*
X138249500Y-114721288D01*
X138281161Y-114961785D01*
X138343947Y-115196104D01*
X138410447Y-115356649D01*
X138436776Y-115420212D01*
X138558064Y-115630289D01*
X138558066Y-115630292D01*
X138558067Y-115630293D01*
X138705733Y-115822736D01*
X138705739Y-115822743D01*
X138877256Y-115994260D01*
X138877263Y-115994266D01*
X138978245Y-116071752D01*
X139069711Y-116141936D01*
X139279788Y-116263224D01*
X139503900Y-116356054D01*
X139738211Y-116418838D01*
X139918586Y-116442584D01*
X139978711Y-116450500D01*
X139978712Y-116450500D01*
X140221289Y-116450500D01*
X140269388Y-116444167D01*
X140461789Y-116418838D01*
X140696100Y-116356054D01*
X140920212Y-116263224D01*
X141130289Y-116141936D01*
X141322738Y-115994265D01*
X141494265Y-115822738D01*
X141641936Y-115630289D01*
X141763224Y-115420212D01*
X141856054Y-115196100D01*
X141918838Y-114961789D01*
X141950500Y-114721288D01*
X141950500Y-114478712D01*
X141948986Y-114467215D01*
X141918838Y-114238214D01*
X141918838Y-114238211D01*
X141856054Y-114003900D01*
X141763224Y-113779788D01*
X141641936Y-113569711D01*
X141494265Y-113377262D01*
X141494260Y-113377256D01*
X141322743Y-113205739D01*
X141322736Y-113205733D01*
X141130293Y-113058067D01*
X141130292Y-113058066D01*
X141130289Y-113058064D01*
X140920212Y-112936776D01*
X140920205Y-112936773D01*
X140696104Y-112843947D01*
X140461785Y-112781161D01*
X140221289Y-112749500D01*
X140221288Y-112749500D01*
X139978712Y-112749500D01*
X139978711Y-112749500D01*
X139738214Y-112781161D01*
X139503895Y-112843947D01*
X139279794Y-112936773D01*
X139279785Y-112936777D01*
X139069706Y-113058067D01*
X138877263Y-113205733D01*
X138877256Y-113205739D01*
X138705739Y-113377256D01*
X138705733Y-113377263D01*
X138558067Y-113569706D01*
X138436777Y-113779785D01*
X138436773Y-113779794D01*
X138343947Y-114003895D01*
X138281161Y-114238214D01*
X138249500Y-114478711D01*
X125700474Y-114478711D01*
X125711966Y-114467219D01*
X125832287Y-114301610D01*
X125925220Y-114119219D01*
X125988477Y-113924534D01*
X126020500Y-113722352D01*
X126020500Y-113517648D01*
X125988477Y-113315466D01*
X125925220Y-113120781D01*
X125925218Y-113120778D01*
X125925218Y-113120776D01*
X125891503Y-113054607D01*
X125832287Y-112938390D01*
X125763671Y-112843947D01*
X125711971Y-112772786D01*
X125567213Y-112628028D01*
X125401614Y-112507715D01*
X125395006Y-112504348D01*
X125308917Y-112460483D01*
X125258123Y-112412511D01*
X125241328Y-112344690D01*
X125263865Y-112278555D01*
X125308917Y-112239516D01*
X125401610Y-112192287D01*
X125422770Y-112176913D01*
X125567213Y-112071971D01*
X125567215Y-112071968D01*
X125567219Y-112071966D01*
X125711966Y-111927219D01*
X125711968Y-111927215D01*
X125711971Y-111927213D01*
X125764732Y-111854590D01*
X125832287Y-111761610D01*
X125925220Y-111579219D01*
X125988477Y-111384534D01*
X126020500Y-111182352D01*
X126020500Y-110977648D01*
X125988477Y-110775466D01*
X125925220Y-110580781D01*
X125925218Y-110580778D01*
X125925218Y-110580776D01*
X125891503Y-110514607D01*
X125832287Y-110398390D01*
X125824556Y-110387749D01*
X125711971Y-110232786D01*
X125567213Y-110088028D01*
X125401614Y-109967715D01*
X125395006Y-109964348D01*
X125308917Y-109920483D01*
X125258123Y-109872511D01*
X125241328Y-109804690D01*
X125263865Y-109738555D01*
X125308917Y-109699516D01*
X125401610Y-109652287D01*
X125422770Y-109636913D01*
X125567213Y-109531971D01*
X125567215Y-109531968D01*
X125567219Y-109531966D01*
X125711966Y-109387219D01*
X125711968Y-109387215D01*
X125711971Y-109387213D01*
X125764732Y-109314590D01*
X125832287Y-109221610D01*
X125925220Y-109039219D01*
X125988477Y-108844534D01*
X126020500Y-108642352D01*
X126020500Y-108437648D01*
X125988477Y-108235466D01*
X125986863Y-108230500D01*
X125925218Y-108040776D01*
X125858637Y-107910105D01*
X125832287Y-107858390D01*
X125773791Y-107777876D01*
X125711971Y-107692786D01*
X125567213Y-107548028D01*
X125401614Y-107427715D01*
X125395006Y-107424348D01*
X125308917Y-107380483D01*
X125258123Y-107332511D01*
X125241328Y-107264690D01*
X125263865Y-107198555D01*
X125308917Y-107159516D01*
X125401610Y-107112287D01*
X125455694Y-107072993D01*
X125567213Y-106991971D01*
X125567215Y-106991968D01*
X125567219Y-106991966D01*
X125711966Y-106847219D01*
X125711968Y-106847215D01*
X125711971Y-106847213D01*
X125765371Y-106773713D01*
X125832287Y-106681610D01*
X125925220Y-106499219D01*
X125988477Y-106304534D01*
X126020500Y-106102352D01*
X126020500Y-105897648D01*
X125988477Y-105695466D01*
X125986736Y-105690109D01*
X125939369Y-105544328D01*
X125925220Y-105500781D01*
X125925218Y-105500778D01*
X125925218Y-105500776D01*
X125891503Y-105434607D01*
X125832287Y-105318390D01*
X125808596Y-105285782D01*
X125711971Y-105152786D01*
X125567213Y-105008028D01*
X125401614Y-104887715D01*
X125395006Y-104884348D01*
X125308917Y-104840483D01*
X125258123Y-104792511D01*
X125241328Y-104724690D01*
X125263865Y-104658555D01*
X125308917Y-104619516D01*
X125401610Y-104572287D01*
X125443309Y-104541991D01*
X125567213Y-104451971D01*
X125567215Y-104451968D01*
X125567219Y-104451966D01*
X125711966Y-104307219D01*
X125711968Y-104307215D01*
X125711971Y-104307213D01*
X125764732Y-104234590D01*
X125832287Y-104141610D01*
X125925220Y-103959219D01*
X125988477Y-103764534D01*
X126020500Y-103562352D01*
X126020500Y-103357648D01*
X125988477Y-103155466D01*
X125925220Y-102960781D01*
X125925218Y-102960778D01*
X125925218Y-102960776D01*
X125870299Y-102852993D01*
X125832287Y-102778390D01*
X125818854Y-102759901D01*
X125711971Y-102612786D01*
X125567213Y-102468028D01*
X125401614Y-102347715D01*
X125395006Y-102344348D01*
X125308917Y-102300483D01*
X125258123Y-102252511D01*
X125241328Y-102184690D01*
X125263865Y-102118555D01*
X125308917Y-102079516D01*
X125401610Y-102032287D01*
X125438645Y-102005380D01*
X125567213Y-101911971D01*
X125567215Y-101911968D01*
X125567219Y-101911966D01*
X125711966Y-101767219D01*
X125711968Y-101767215D01*
X125711971Y-101767213D01*
X125775935Y-101679172D01*
X125832287Y-101601610D01*
X125925220Y-101419219D01*
X125988477Y-101224534D01*
X126020500Y-101022352D01*
X126020500Y-100817648D01*
X125992138Y-100638579D01*
X125988477Y-100615465D01*
X125957426Y-100519901D01*
X125925220Y-100420781D01*
X125925218Y-100420778D01*
X125925218Y-100420776D01*
X125878859Y-100329792D01*
X125832287Y-100238390D01*
X125812908Y-100211717D01*
X125711971Y-100072786D01*
X125567213Y-99928028D01*
X125401611Y-99807713D01*
X125308369Y-99760203D01*
X125257574Y-99712229D01*
X125240779Y-99644407D01*
X125263317Y-99578273D01*
X125308371Y-99539234D01*
X125401346Y-99491861D01*
X125401347Y-99491861D01*
X125445921Y-99459474D01*
X124849409Y-98862962D01*
X124912993Y-98845925D01*
X125027007Y-98780099D01*
X125120099Y-98687007D01*
X125185925Y-98572993D01*
X125202962Y-98509409D01*
X125799474Y-99105921D01*
X125831859Y-99061349D01*
X125924755Y-98879031D01*
X125987990Y-98684417D01*
X126020000Y-98482317D01*
X126020000Y-98277682D01*
X125987990Y-98075582D01*
X125924755Y-97880968D01*
X125831859Y-97698650D01*
X125799474Y-97654077D01*
X125799474Y-97654076D01*
X125202962Y-98250589D01*
X125185925Y-98187007D01*
X125120099Y-98072993D01*
X125027007Y-97979901D01*
X124912993Y-97914075D01*
X124849408Y-97897037D01*
X125445922Y-97300524D01*
X125445921Y-97300523D01*
X125401359Y-97268147D01*
X125401350Y-97268141D01*
X125308369Y-97220765D01*
X125257573Y-97172790D01*
X125240778Y-97104969D01*
X125263315Y-97038835D01*
X125308370Y-96999795D01*
X125367525Y-96969654D01*
X125401610Y-96952287D01*
X125480389Y-96895051D01*
X125567213Y-96831971D01*
X125567215Y-96831968D01*
X125567219Y-96831966D01*
X125711966Y-96687219D01*
X125711968Y-96687215D01*
X125711971Y-96687213D01*
X125764732Y-96614590D01*
X125832287Y-96521610D01*
X125925220Y-96339219D01*
X125988477Y-96144534D01*
X126020500Y-95942352D01*
X126020500Y-95737648D01*
X125988477Y-95535466D01*
X125925220Y-95340781D01*
X125925218Y-95340778D01*
X125925218Y-95340776D01*
X125868386Y-95229239D01*
X125832287Y-95158390D01*
X125789716Y-95099795D01*
X125711971Y-94992786D01*
X125567213Y-94848028D01*
X125401614Y-94727715D01*
X125366630Y-94709890D01*
X125308917Y-94680483D01*
X125258123Y-94632511D01*
X125241328Y-94564690D01*
X125263865Y-94498555D01*
X125308917Y-94459516D01*
X125401610Y-94412287D01*
X125447642Y-94378843D01*
X125567213Y-94291971D01*
X125567215Y-94291968D01*
X125567219Y-94291966D01*
X125638032Y-94221153D01*
X131299500Y-94221153D01*
X131299500Y-94378846D01*
X131330261Y-94533489D01*
X131330264Y-94533501D01*
X131390602Y-94679172D01*
X131390609Y-94679185D01*
X131478210Y-94810288D01*
X131478213Y-94810292D01*
X131589710Y-94921789D01*
X131695958Y-94992781D01*
X131720821Y-95009394D01*
X131720827Y-95009396D01*
X131720828Y-95009397D01*
X131742952Y-95018561D01*
X131797356Y-95062402D01*
X131819421Y-95128696D01*
X131819500Y-95133122D01*
X131819500Y-96637870D01*
X131819501Y-96637876D01*
X131825908Y-96697483D01*
X131876202Y-96832328D01*
X131876204Y-96832331D01*
X131923156Y-96895051D01*
X131938223Y-96915177D01*
X131962641Y-96980642D01*
X131947790Y-97048915D01*
X131907848Y-97092591D01*
X131779711Y-97178210D01*
X131779707Y-97178213D01*
X131668213Y-97289707D01*
X131668210Y-97289711D01*
X131580609Y-97420814D01*
X131580602Y-97420827D01*
X131520264Y-97566498D01*
X131520261Y-97566510D01*
X131489500Y-97721153D01*
X131489500Y-97878846D01*
X131520261Y-98033489D01*
X131520264Y-98033501D01*
X131580602Y-98179172D01*
X131580609Y-98179185D01*
X131668210Y-98310288D01*
X131668213Y-98310292D01*
X131759252Y-98401331D01*
X131792737Y-98462654D01*
X131794860Y-98502264D01*
X131789500Y-98552127D01*
X131789500Y-98552128D01*
X131789500Y-98552132D01*
X131789500Y-100347870D01*
X131789501Y-100347876D01*
X131795908Y-100407483D01*
X131833236Y-100507564D01*
X131838220Y-100577256D01*
X131804734Y-100638579D01*
X131785946Y-100653998D01*
X131749713Y-100678208D01*
X131749707Y-100678213D01*
X131638213Y-100789707D01*
X131638210Y-100789711D01*
X131550609Y-100920814D01*
X131550602Y-100920827D01*
X131490264Y-101066498D01*
X131490261Y-101066510D01*
X131459500Y-101221153D01*
X131459500Y-101378846D01*
X131490261Y-101533489D01*
X131490264Y-101533501D01*
X131550602Y-101679172D01*
X131550609Y-101679185D01*
X131638210Y-101810288D01*
X131638213Y-101810292D01*
X131749707Y-101921786D01*
X131749711Y-101921789D01*
X131764916Y-101931949D01*
X131809721Y-101985561D01*
X131818428Y-102054886D01*
X131812207Y-102078384D01*
X131765908Y-102202517D01*
X131759501Y-102262116D01*
X131759500Y-102262135D01*
X131759501Y-104061193D01*
X131758131Y-104061193D01*
X131743320Y-104123850D01*
X131723252Y-104150163D01*
X131608211Y-104265204D01*
X131520610Y-104396307D01*
X131520603Y-104396320D01*
X131460265Y-104541991D01*
X131460262Y-104542003D01*
X131429501Y-104696646D01*
X131429501Y-104854339D01*
X131460262Y-105008982D01*
X131460265Y-105008994D01*
X131520603Y-105154665D01*
X131520610Y-105154678D01*
X131608211Y-105285781D01*
X131608214Y-105285785D01*
X131719708Y-105397279D01*
X131719712Y-105397282D01*
X131855887Y-105488272D01*
X131854431Y-105490450D01*
X131896165Y-105531409D01*
X131911657Y-105599540D01*
X131887855Y-105665230D01*
X131887162Y-105666165D01*
X131882454Y-105672453D01*
X131882454Y-105672454D01*
X131865228Y-105695465D01*
X131796204Y-105787669D01*
X131796202Y-105787671D01*
X131745908Y-105922517D01*
X131739501Y-105982116D01*
X131739500Y-105982135D01*
X131739500Y-107777870D01*
X131739501Y-107777876D01*
X131745908Y-107837483D01*
X131796202Y-107972328D01*
X131796206Y-107972335D01*
X131882452Y-108087544D01*
X131882455Y-108087547D01*
X131997664Y-108173793D01*
X131997671Y-108173797D01*
X132132517Y-108224091D01*
X132132516Y-108224091D01*
X132139444Y-108224835D01*
X132192127Y-108230500D01*
X133987872Y-108230499D01*
X134047483Y-108224091D01*
X134182331Y-108173796D01*
X134297546Y-108087546D01*
X134383796Y-107972331D01*
X134432810Y-107840916D01*
X134474681Y-107784984D01*
X134540145Y-107760566D01*
X134608418Y-107775417D01*
X134636673Y-107796569D01*
X134750213Y-107910109D01*
X134922179Y-108035048D01*
X134922181Y-108035049D01*
X134922184Y-108035051D01*
X135111588Y-108131557D01*
X135313757Y-108197246D01*
X135523713Y-108230500D01*
X135523714Y-108230500D01*
X135736286Y-108230500D01*
X135736287Y-108230500D01*
X135946243Y-108197246D01*
X136148412Y-108131557D01*
X136337816Y-108035051D01*
X136424138Y-107972335D01*
X136509786Y-107910109D01*
X136509788Y-107910106D01*
X136509792Y-107910104D01*
X136660104Y-107759792D01*
X136660106Y-107759788D01*
X136660109Y-107759786D01*
X136745890Y-107641717D01*
X136785051Y-107587816D01*
X136789793Y-107578508D01*
X136837763Y-107527711D01*
X136905583Y-107510911D01*
X136971719Y-107533445D01*
X137010763Y-107578500D01*
X137015373Y-107587547D01*
X137054728Y-107641716D01*
X137687037Y-107009408D01*
X137704075Y-107072993D01*
X137769901Y-107187007D01*
X137862993Y-107280099D01*
X137977007Y-107345925D01*
X138040590Y-107362962D01*
X137408282Y-107995269D01*
X137408282Y-107995270D01*
X137462449Y-108034624D01*
X137651782Y-108131095D01*
X137853870Y-108196757D01*
X138063754Y-108230000D01*
X138276246Y-108230000D01*
X138486127Y-108196757D01*
X138486130Y-108196757D01*
X138688217Y-108131095D01*
X138877554Y-108034622D01*
X138931716Y-107995270D01*
X138931717Y-107995270D01*
X138299408Y-107362962D01*
X138362993Y-107345925D01*
X138477007Y-107280099D01*
X138570099Y-107187007D01*
X138635925Y-107072993D01*
X138652962Y-107009409D01*
X139285270Y-107641717D01*
X139285270Y-107641716D01*
X139324622Y-107587554D01*
X139421095Y-107398217D01*
X139486757Y-107196130D01*
X139486757Y-107196127D01*
X139520000Y-106986246D01*
X139520000Y-106773753D01*
X139486757Y-106563872D01*
X139486757Y-106563869D01*
X139421095Y-106361782D01*
X139324624Y-106172449D01*
X139285270Y-106118282D01*
X139285269Y-106118282D01*
X138652962Y-106750590D01*
X138635925Y-106687007D01*
X138570099Y-106572993D01*
X138477007Y-106479901D01*
X138362993Y-106414075D01*
X138299409Y-106397037D01*
X138931716Y-105764728D01*
X138877550Y-105725375D01*
X138688217Y-105628904D01*
X138486129Y-105563242D01*
X138276246Y-105530000D01*
X138063754Y-105530000D01*
X137853872Y-105563242D01*
X137853869Y-105563242D01*
X137651782Y-105628904D01*
X137462439Y-105725380D01*
X137408282Y-105764727D01*
X137408282Y-105764728D01*
X138040591Y-106397037D01*
X137977007Y-106414075D01*
X137862993Y-106479901D01*
X137769901Y-106572993D01*
X137704075Y-106687007D01*
X137687037Y-106750591D01*
X137054728Y-106118282D01*
X137054727Y-106118282D01*
X137015380Y-106172440D01*
X137015376Y-106172446D01*
X137010760Y-106181505D01*
X136962781Y-106232297D01*
X136894959Y-106249087D01*
X136828826Y-106226543D01*
X136789794Y-106181493D01*
X136785051Y-106172184D01*
X136785049Y-106172181D01*
X136785048Y-106172179D01*
X136660109Y-106000213D01*
X136509786Y-105849890D01*
X136337820Y-105724951D01*
X136148414Y-105628444D01*
X136148413Y-105628443D01*
X136148412Y-105628443D01*
X135946243Y-105562754D01*
X135946241Y-105562753D01*
X135946240Y-105562753D01*
X135784957Y-105537208D01*
X135736287Y-105529500D01*
X135523713Y-105529500D01*
X135475042Y-105537208D01*
X135313760Y-105562753D01*
X135111585Y-105628444D01*
X134922179Y-105724951D01*
X134750215Y-105849889D01*
X134636673Y-105963431D01*
X134611245Y-105977314D01*
X134587346Y-105993668D01*
X134580958Y-105993852D01*
X134575350Y-105996915D01*
X134546458Y-105994848D01*
X134517505Y-105995685D01*
X134512032Y-105992386D01*
X134505658Y-105991931D01*
X134482468Y-105974570D01*
X134457662Y-105959622D01*
X134453559Y-105952929D01*
X134449725Y-105950059D01*
X134437731Y-105930494D01*
X134434170Y-105923258D01*
X134434091Y-105922517D01*
X134383796Y-105787669D01*
X134336114Y-105723975D01*
X134331027Y-105713635D01*
X134326948Y-105690109D01*
X134318604Y-105667737D01*
X134321089Y-105656312D01*
X134319092Y-105644792D01*
X134328379Y-105622797D01*
X134333455Y-105599464D01*
X134341723Y-105591195D01*
X134346271Y-105580426D01*
X134365973Y-105566944D01*
X134382860Y-105550058D01*
X134394816Y-105544337D01*
X134479179Y-105509394D01*
X134610289Y-105421789D01*
X134721789Y-105310289D01*
X134809394Y-105179179D01*
X134869737Y-105033497D01*
X134900500Y-104878842D01*
X134900500Y-104721158D01*
X134900500Y-104721155D01*
X134900499Y-104721153D01*
X134880282Y-104619515D01*
X134869737Y-104566503D01*
X134846964Y-104511525D01*
X134839496Y-104442059D01*
X134870771Y-104379580D01*
X134930859Y-104343927D01*
X135000684Y-104346420D01*
X135017821Y-104353590D01*
X135131588Y-104411557D01*
X135333757Y-104477246D01*
X135543713Y-104510500D01*
X135543714Y-104510500D01*
X135756286Y-104510500D01*
X135756287Y-104510500D01*
X135966243Y-104477246D01*
X136168412Y-104411557D01*
X136357816Y-104315051D01*
X136426425Y-104265204D01*
X136529786Y-104190109D01*
X136529788Y-104190106D01*
X136529792Y-104190104D01*
X136680104Y-104039792D01*
X136680106Y-104039788D01*
X136680109Y-104039786D01*
X136765890Y-103921717D01*
X136805051Y-103867816D01*
X136809793Y-103858508D01*
X136857763Y-103807711D01*
X136925583Y-103790911D01*
X136991719Y-103813445D01*
X137030763Y-103858500D01*
X137035373Y-103867547D01*
X137074728Y-103921716D01*
X137707037Y-103289408D01*
X137724075Y-103352993D01*
X137789901Y-103467007D01*
X137882993Y-103560099D01*
X137997007Y-103625925D01*
X138060590Y-103642962D01*
X137428282Y-104275269D01*
X137428282Y-104275270D01*
X137482449Y-104314624D01*
X137671782Y-104411095D01*
X137873870Y-104476757D01*
X138083754Y-104510000D01*
X138296246Y-104510000D01*
X138506127Y-104476757D01*
X138506130Y-104476757D01*
X138708217Y-104411095D01*
X138897554Y-104314622D01*
X138951716Y-104275270D01*
X138951717Y-104275270D01*
X138319408Y-103642962D01*
X138382993Y-103625925D01*
X138497007Y-103560099D01*
X138590099Y-103467007D01*
X138655925Y-103352993D01*
X138672962Y-103289408D01*
X139305270Y-103921717D01*
X139305270Y-103921716D01*
X139344622Y-103867554D01*
X139441095Y-103678217D01*
X139506757Y-103476130D01*
X139506757Y-103476127D01*
X139540000Y-103266246D01*
X139540000Y-103053753D01*
X139506757Y-102843872D01*
X139506757Y-102843869D01*
X139441095Y-102641782D01*
X139344624Y-102452449D01*
X139305270Y-102398282D01*
X139305269Y-102398282D01*
X138672962Y-103030590D01*
X138655925Y-102967007D01*
X138590099Y-102852993D01*
X138497007Y-102759901D01*
X138382993Y-102694075D01*
X138319409Y-102677037D01*
X138951716Y-102044728D01*
X138897550Y-102005375D01*
X138708217Y-101908904D01*
X138506129Y-101843242D01*
X138296246Y-101810000D01*
X138083754Y-101810000D01*
X137873872Y-101843242D01*
X137873869Y-101843242D01*
X137671782Y-101908904D01*
X137482439Y-102005380D01*
X137428282Y-102044727D01*
X137428282Y-102044728D01*
X138060591Y-102677037D01*
X137997007Y-102694075D01*
X137882993Y-102759901D01*
X137789901Y-102852993D01*
X137724075Y-102967007D01*
X137707037Y-103030591D01*
X137074728Y-102398282D01*
X137074727Y-102398282D01*
X137035380Y-102452440D01*
X137035376Y-102452446D01*
X137030760Y-102461505D01*
X136982781Y-102512297D01*
X136914959Y-102529087D01*
X136848826Y-102506543D01*
X136809794Y-102461493D01*
X136805051Y-102452184D01*
X136805049Y-102452181D01*
X136805048Y-102452179D01*
X136680109Y-102280213D01*
X136529786Y-102129890D01*
X136357820Y-102004951D01*
X136168414Y-101908444D01*
X136168413Y-101908443D01*
X136168412Y-101908443D01*
X135966243Y-101842754D01*
X135966241Y-101842753D01*
X135966240Y-101842753D01*
X135761287Y-101810292D01*
X135756287Y-101809500D01*
X135543713Y-101809500D01*
X135538713Y-101810292D01*
X135333760Y-101842753D01*
X135131585Y-101908444D01*
X134942179Y-102004951D01*
X134770215Y-102129889D01*
X134656673Y-102243431D01*
X134595350Y-102276915D01*
X134525658Y-102271931D01*
X134469725Y-102230059D01*
X134452810Y-102199082D01*
X134435722Y-102153267D01*
X134430738Y-102083576D01*
X134464223Y-102022253D01*
X134483014Y-102006832D01*
X134556645Y-101957632D01*
X134610289Y-101921789D01*
X134721789Y-101810289D01*
X134809394Y-101679179D01*
X134869737Y-101533497D01*
X134900500Y-101378842D01*
X134900500Y-101221158D01*
X134900500Y-101221155D01*
X134900499Y-101221153D01*
X134869738Y-101066510D01*
X134869737Y-101066503D01*
X134836320Y-100985826D01*
X134809397Y-100920827D01*
X134809390Y-100920814D01*
X134721789Y-100789711D01*
X134721786Y-100789707D01*
X134610292Y-100678213D01*
X134610288Y-100678210D01*
X134510013Y-100611208D01*
X134491016Y-100588477D01*
X134470071Y-100567532D01*
X134468860Y-100561966D01*
X134465208Y-100557596D01*
X134461516Y-100528205D01*
X134455220Y-100499258D01*
X134456907Y-100491503D01*
X134456501Y-100488271D01*
X134462720Y-100464780D01*
X134482811Y-100410915D01*
X134524683Y-100354982D01*
X134590147Y-100330566D01*
X134658420Y-100345419D01*
X134686673Y-100366569D01*
X134800213Y-100480109D01*
X134972179Y-100605048D01*
X134972181Y-100605049D01*
X134972184Y-100605051D01*
X135161588Y-100701557D01*
X135363757Y-100767246D01*
X135573713Y-100800500D01*
X135573714Y-100800500D01*
X135786286Y-100800500D01*
X135786287Y-100800500D01*
X135996243Y-100767246D01*
X136198412Y-100701557D01*
X136387816Y-100605051D01*
X136442572Y-100565269D01*
X136559786Y-100480109D01*
X136559788Y-100480106D01*
X136559792Y-100480104D01*
X136710104Y-100329792D01*
X136710106Y-100329788D01*
X136710109Y-100329786D01*
X136795890Y-100211717D01*
X136835051Y-100157816D01*
X136839793Y-100148508D01*
X136887763Y-100097711D01*
X136955583Y-100080911D01*
X137021719Y-100103445D01*
X137060763Y-100148500D01*
X137065373Y-100157547D01*
X137104728Y-100211716D01*
X137737037Y-99579408D01*
X137754075Y-99642993D01*
X137819901Y-99757007D01*
X137912993Y-99850099D01*
X138027007Y-99915925D01*
X138090590Y-99932962D01*
X137458282Y-100565269D01*
X137458282Y-100565270D01*
X137512449Y-100604624D01*
X137701782Y-100701095D01*
X137903870Y-100766757D01*
X138113754Y-100800000D01*
X138326246Y-100800000D01*
X138536127Y-100766757D01*
X138536130Y-100766757D01*
X138738217Y-100701095D01*
X138927554Y-100604622D01*
X138981716Y-100565270D01*
X138981717Y-100565270D01*
X138349408Y-99932962D01*
X138412993Y-99915925D01*
X138527007Y-99850099D01*
X138620099Y-99757007D01*
X138685925Y-99642993D01*
X138702962Y-99579409D01*
X139335270Y-100211717D01*
X139335270Y-100211716D01*
X139374622Y-100157554D01*
X139471095Y-99968217D01*
X139536757Y-99766130D01*
X139536757Y-99766127D01*
X139570000Y-99556246D01*
X139570000Y-99343753D01*
X139536757Y-99133872D01*
X139536757Y-99133869D01*
X139471095Y-98931782D01*
X139374624Y-98742449D01*
X139335270Y-98688282D01*
X139335269Y-98688282D01*
X138702962Y-99320590D01*
X138685925Y-99257007D01*
X138620099Y-99142993D01*
X138527007Y-99049901D01*
X138412993Y-98984075D01*
X138349409Y-98967037D01*
X138981716Y-98334728D01*
X138927550Y-98295375D01*
X138738217Y-98198904D01*
X138536129Y-98133242D01*
X138326246Y-98100000D01*
X138113754Y-98100000D01*
X137903872Y-98133242D01*
X137903869Y-98133242D01*
X137701782Y-98198904D01*
X137512439Y-98295380D01*
X137458282Y-98334727D01*
X137458282Y-98334728D01*
X138090591Y-98967037D01*
X138027007Y-98984075D01*
X137912993Y-99049901D01*
X137819901Y-99142993D01*
X137754075Y-99257007D01*
X137737037Y-99320591D01*
X137104728Y-98688282D01*
X137104727Y-98688282D01*
X137065380Y-98742440D01*
X137065376Y-98742446D01*
X137060760Y-98751505D01*
X137012781Y-98802297D01*
X136944959Y-98819087D01*
X136878826Y-98796543D01*
X136839794Y-98751493D01*
X136835051Y-98742184D01*
X136835049Y-98742181D01*
X136835048Y-98742179D01*
X136710109Y-98570213D01*
X136559786Y-98419890D01*
X136387820Y-98294951D01*
X136198414Y-98198444D01*
X136198413Y-98198443D01*
X136198412Y-98198443D01*
X135996243Y-98132754D01*
X135996241Y-98132753D01*
X135996240Y-98132753D01*
X135834957Y-98107208D01*
X135786287Y-98099500D01*
X135573713Y-98099500D01*
X135525042Y-98107208D01*
X135363760Y-98132753D01*
X135161585Y-98198444D01*
X134972179Y-98294951D01*
X134954887Y-98307514D01*
X134889080Y-98330991D01*
X134821026Y-98315163D01*
X134772334Y-98265055D01*
X134758461Y-98196576D01*
X134767443Y-98159744D01*
X134819737Y-98033497D01*
X134850500Y-97878842D01*
X134850500Y-97721158D01*
X134850500Y-97721155D01*
X134850499Y-97721153D01*
X134845970Y-97698386D01*
X134819737Y-97566503D01*
X134805769Y-97532781D01*
X134759397Y-97420827D01*
X134759390Y-97420814D01*
X134671789Y-97289711D01*
X134671786Y-97289707D01*
X134560292Y-97178213D01*
X134560288Y-97178210D01*
X134432151Y-97092591D01*
X134387346Y-97038979D01*
X134378639Y-96969654D01*
X134401774Y-96915181D01*
X134463796Y-96832331D01*
X134512810Y-96700916D01*
X134554681Y-96644984D01*
X134620145Y-96620566D01*
X134688418Y-96635417D01*
X134716673Y-96656569D01*
X134830213Y-96770109D01*
X135002179Y-96895048D01*
X135002181Y-96895049D01*
X135002184Y-96895051D01*
X135191588Y-96991557D01*
X135393757Y-97057246D01*
X135603713Y-97090500D01*
X135603714Y-97090500D01*
X135816286Y-97090500D01*
X135816287Y-97090500D01*
X136026243Y-97057246D01*
X136228412Y-96991557D01*
X136417816Y-96895051D01*
X136472572Y-96855269D01*
X136589786Y-96770109D01*
X136589788Y-96770106D01*
X136589792Y-96770104D01*
X136740104Y-96619792D01*
X136740106Y-96619788D01*
X136740109Y-96619786D01*
X136825890Y-96501717D01*
X136865051Y-96447816D01*
X136869793Y-96438508D01*
X136917763Y-96387711D01*
X136985583Y-96370911D01*
X137051719Y-96393445D01*
X137090763Y-96438500D01*
X137095373Y-96447547D01*
X137134728Y-96501716D01*
X137767037Y-95869408D01*
X137784075Y-95932993D01*
X137849901Y-96047007D01*
X137942993Y-96140099D01*
X138057007Y-96205925D01*
X138120590Y-96222962D01*
X137488282Y-96855269D01*
X137488282Y-96855270D01*
X137542449Y-96894624D01*
X137731782Y-96991095D01*
X137933870Y-97056757D01*
X138143754Y-97090000D01*
X138356246Y-97090000D01*
X138566127Y-97056757D01*
X138566130Y-97056757D01*
X138768217Y-96991095D01*
X138957554Y-96894622D01*
X139011716Y-96855270D01*
X139011717Y-96855270D01*
X138379408Y-96222962D01*
X138442993Y-96205925D01*
X138557007Y-96140099D01*
X138650099Y-96047007D01*
X138715925Y-95932993D01*
X138732962Y-95869408D01*
X139365270Y-96501717D01*
X139365270Y-96501716D01*
X139404622Y-96447554D01*
X139501095Y-96258217D01*
X139566757Y-96056130D01*
X139566757Y-96056127D01*
X139600000Y-95846246D01*
X139600000Y-95633753D01*
X139566757Y-95423872D01*
X139566757Y-95423869D01*
X139501095Y-95221782D01*
X139404624Y-95032449D01*
X139365270Y-94978282D01*
X139365269Y-94978282D01*
X138732962Y-95610590D01*
X138715925Y-95547007D01*
X138650099Y-95432993D01*
X138557007Y-95339901D01*
X138442993Y-95274075D01*
X138379409Y-95257037D01*
X139011716Y-94624728D01*
X138957550Y-94585375D01*
X138768217Y-94488904D01*
X138566129Y-94423242D01*
X138356246Y-94390000D01*
X138143754Y-94390000D01*
X137933872Y-94423242D01*
X137933869Y-94423242D01*
X137731782Y-94488904D01*
X137542439Y-94585380D01*
X137488282Y-94624727D01*
X137488282Y-94624728D01*
X138120591Y-95257037D01*
X138057007Y-95274075D01*
X137942993Y-95339901D01*
X137849901Y-95432993D01*
X137784075Y-95547007D01*
X137767037Y-95610591D01*
X137134728Y-94978282D01*
X137134727Y-94978282D01*
X137095380Y-95032440D01*
X137095376Y-95032446D01*
X137090760Y-95041505D01*
X137042781Y-95092297D01*
X136974959Y-95109087D01*
X136908826Y-95086543D01*
X136869794Y-95041493D01*
X136865051Y-95032184D01*
X136865049Y-95032181D01*
X136865048Y-95032179D01*
X136740109Y-94860213D01*
X136589786Y-94709890D01*
X136417820Y-94584951D01*
X136228414Y-94488444D01*
X136228413Y-94488443D01*
X136228412Y-94488443D01*
X136026243Y-94422754D01*
X136026241Y-94422753D01*
X136026240Y-94422753D01*
X135864957Y-94397208D01*
X135816287Y-94389500D01*
X135603713Y-94389500D01*
X135555042Y-94397208D01*
X135393760Y-94422753D01*
X135393757Y-94422754D01*
X135235433Y-94474197D01*
X135191585Y-94488444D01*
X135002168Y-94584956D01*
X135001674Y-94585260D01*
X135001460Y-94585317D01*
X134997843Y-94587161D01*
X134997455Y-94586400D01*
X134934225Y-94603493D01*
X134867626Y-94582366D01*
X134823022Y-94528587D01*
X134814574Y-94459230D01*
X134815277Y-94455370D01*
X134830500Y-94378842D01*
X134830500Y-94221158D01*
X134830500Y-94221155D01*
X134830499Y-94221153D01*
X134819490Y-94165809D01*
X134799737Y-94066503D01*
X134799735Y-94066498D01*
X134739397Y-93920827D01*
X134739390Y-93920814D01*
X134651789Y-93789711D01*
X134651786Y-93789707D01*
X134540292Y-93678213D01*
X134540288Y-93678210D01*
X134409185Y-93590609D01*
X134409176Y-93590604D01*
X134376689Y-93577148D01*
X134322286Y-93533307D01*
X134300221Y-93467013D01*
X134317500Y-93399313D01*
X134349830Y-93363321D01*
X134357546Y-93357546D01*
X134443796Y-93242331D01*
X134492810Y-93110916D01*
X134534681Y-93054984D01*
X134600145Y-93030566D01*
X134668418Y-93045417D01*
X134696673Y-93066569D01*
X134810213Y-93180109D01*
X134982179Y-93305048D01*
X134982181Y-93305049D01*
X134982184Y-93305051D01*
X135171588Y-93401557D01*
X135373757Y-93467246D01*
X135583713Y-93500500D01*
X135583714Y-93500500D01*
X135796286Y-93500500D01*
X135796287Y-93500500D01*
X136006243Y-93467246D01*
X136208412Y-93401557D01*
X136397816Y-93305051D01*
X136484138Y-93242335D01*
X136569786Y-93180109D01*
X136569788Y-93180106D01*
X136569792Y-93180104D01*
X136720104Y-93029792D01*
X136720106Y-93029788D01*
X136720109Y-93029786D01*
X136805890Y-92911717D01*
X136845051Y-92857816D01*
X136849793Y-92848508D01*
X136897763Y-92797711D01*
X136965583Y-92780911D01*
X137031719Y-92803445D01*
X137070763Y-92848500D01*
X137075373Y-92857547D01*
X137114728Y-92911716D01*
X137747037Y-92279408D01*
X137764075Y-92342993D01*
X137829901Y-92457007D01*
X137922993Y-92550099D01*
X138037007Y-92615925D01*
X138100590Y-92632962D01*
X137468282Y-93265269D01*
X137468282Y-93265270D01*
X137522449Y-93304624D01*
X137711782Y-93401095D01*
X137913870Y-93466757D01*
X138123754Y-93500000D01*
X138336246Y-93500000D01*
X138546127Y-93466757D01*
X138546130Y-93466757D01*
X138748217Y-93401095D01*
X138937554Y-93304622D01*
X138991716Y-93265270D01*
X138991717Y-93265270D01*
X138359408Y-92632962D01*
X138422993Y-92615925D01*
X138537007Y-92550099D01*
X138630099Y-92457007D01*
X138695925Y-92342993D01*
X138712962Y-92279409D01*
X139345270Y-92911717D01*
X139345270Y-92911716D01*
X139384622Y-92857554D01*
X139481095Y-92668217D01*
X139546757Y-92466130D01*
X139546757Y-92466127D01*
X139580000Y-92256246D01*
X139580000Y-92043753D01*
X139546757Y-91833872D01*
X139546757Y-91833869D01*
X139481095Y-91631782D01*
X139384624Y-91442449D01*
X139345270Y-91388282D01*
X139345269Y-91388282D01*
X138712962Y-92020590D01*
X138695925Y-91957007D01*
X138630099Y-91842993D01*
X138537007Y-91749901D01*
X138422993Y-91684075D01*
X138359409Y-91667037D01*
X138991716Y-91034728D01*
X138937550Y-90995375D01*
X138748217Y-90898904D01*
X138546129Y-90833242D01*
X138336246Y-90800000D01*
X138123754Y-90800000D01*
X137913872Y-90833242D01*
X137913869Y-90833242D01*
X137711782Y-90898904D01*
X137522439Y-90995380D01*
X137468282Y-91034727D01*
X137468282Y-91034728D01*
X138100591Y-91667037D01*
X138037007Y-91684075D01*
X137922993Y-91749901D01*
X137829901Y-91842993D01*
X137764075Y-91957007D01*
X137747037Y-92020591D01*
X137114728Y-91388282D01*
X137114727Y-91388282D01*
X137075380Y-91442440D01*
X137075376Y-91442446D01*
X137070760Y-91451505D01*
X137022781Y-91502297D01*
X136954959Y-91519087D01*
X136888826Y-91496543D01*
X136849794Y-91451493D01*
X136845051Y-91442184D01*
X136845049Y-91442181D01*
X136845048Y-91442179D01*
X136720109Y-91270213D01*
X136569786Y-91119890D01*
X136397820Y-90994951D01*
X136208414Y-90898444D01*
X136208413Y-90898443D01*
X136208412Y-90898443D01*
X136006243Y-90832754D01*
X136006241Y-90832753D01*
X136006240Y-90832753D01*
X135844957Y-90807208D01*
X135796287Y-90799500D01*
X135583713Y-90799500D01*
X135526629Y-90808541D01*
X135442013Y-90821943D01*
X135372719Y-90812988D01*
X135319267Y-90767992D01*
X135300998Y-90723661D01*
X135269738Y-90566510D01*
X135269737Y-90566503D01*
X135262812Y-90549784D01*
X135209397Y-90420827D01*
X135209390Y-90420814D01*
X135121789Y-90289711D01*
X135121786Y-90289707D01*
X135010292Y-90178213D01*
X135010288Y-90178210D01*
X134879185Y-90090609D01*
X134879172Y-90090602D01*
X134733501Y-90030264D01*
X134733489Y-90030261D01*
X134578845Y-89999500D01*
X134578842Y-89999500D01*
X134509757Y-89999500D01*
X134485566Y-89997117D01*
X134361807Y-89972500D01*
X134361803Y-89972500D01*
X132907241Y-89972500D01*
X132840202Y-89952815D01*
X132819560Y-89936181D01*
X132808927Y-89925548D01*
X132808923Y-89925545D01*
X132677820Y-89837944D01*
X132677807Y-89837937D01*
X132532136Y-89777599D01*
X132532124Y-89777596D01*
X132377480Y-89746835D01*
X132377477Y-89746835D01*
X132219793Y-89746835D01*
X132219790Y-89746835D01*
X132065145Y-89777596D01*
X132065133Y-89777599D01*
X131919462Y-89837937D01*
X131919449Y-89837944D01*
X131788346Y-89925545D01*
X131788342Y-89925548D01*
X131676848Y-90037042D01*
X131676845Y-90037046D01*
X131589244Y-90168149D01*
X131589237Y-90168162D01*
X131528899Y-90313833D01*
X131528896Y-90313845D01*
X131498135Y-90468488D01*
X131498135Y-90626181D01*
X131528896Y-90780824D01*
X131528899Y-90780836D01*
X131589237Y-90926507D01*
X131589244Y-90926520D01*
X131676845Y-91057623D01*
X131676848Y-91057627D01*
X131764524Y-91145303D01*
X131798009Y-91206626D01*
X131800134Y-91246227D01*
X131799500Y-91252123D01*
X131799500Y-93047870D01*
X131799501Y-93047876D01*
X131805908Y-93107483D01*
X131856202Y-93242328D01*
X131856203Y-93242330D01*
X131927751Y-93337905D01*
X131952168Y-93403369D01*
X131937317Y-93471642D01*
X131887912Y-93521048D01*
X131872037Y-93527707D01*
X131872130Y-93527932D01*
X131720827Y-93590602D01*
X131720814Y-93590609D01*
X131589711Y-93678210D01*
X131589707Y-93678213D01*
X131478213Y-93789707D01*
X131478210Y-93789711D01*
X131390609Y-93920814D01*
X131390602Y-93920827D01*
X131330264Y-94066498D01*
X131330261Y-94066510D01*
X131299500Y-94221153D01*
X125638032Y-94221153D01*
X125711966Y-94147219D01*
X125715626Y-94142181D01*
X125715627Y-94142181D01*
X125817360Y-94002155D01*
X125832287Y-93981610D01*
X125925220Y-93799219D01*
X125988477Y-93604534D01*
X126020500Y-93402352D01*
X126020500Y-93197648D01*
X125996778Y-93047873D01*
X125988477Y-92995465D01*
X125943752Y-92857816D01*
X125925220Y-92800781D01*
X125925218Y-92800778D01*
X125925218Y-92800776D01*
X125891503Y-92734607D01*
X125832287Y-92618390D01*
X125824556Y-92607749D01*
X125711971Y-92452786D01*
X125567213Y-92308028D01*
X125401614Y-92187715D01*
X125395006Y-92184348D01*
X125308917Y-92140483D01*
X125258123Y-92092511D01*
X125241328Y-92024690D01*
X125263865Y-91958555D01*
X125308917Y-91919516D01*
X125401610Y-91872287D01*
X125454488Y-91833869D01*
X125567213Y-91751971D01*
X125567215Y-91751968D01*
X125567219Y-91751966D01*
X125711966Y-91607219D01*
X125711968Y-91607215D01*
X125711971Y-91607213D01*
X125769877Y-91527511D01*
X125832287Y-91441610D01*
X125925220Y-91259219D01*
X125988477Y-91064534D01*
X126020500Y-90862352D01*
X126020500Y-90657648D01*
X125988477Y-90455466D01*
X125925220Y-90260781D01*
X125925218Y-90260778D01*
X125925218Y-90260776D01*
X125878025Y-90168156D01*
X125832287Y-90078390D01*
X125797320Y-90030261D01*
X125711971Y-89912786D01*
X125567213Y-89768028D01*
X125401614Y-89647715D01*
X125395006Y-89644348D01*
X125308917Y-89600483D01*
X125258123Y-89552511D01*
X125241328Y-89484690D01*
X125263865Y-89418555D01*
X125308917Y-89379516D01*
X125401610Y-89332287D01*
X125491943Y-89266657D01*
X125567213Y-89211971D01*
X125567215Y-89211968D01*
X125567219Y-89211966D01*
X125711966Y-89067219D01*
X125711968Y-89067215D01*
X125711971Y-89067213D01*
X125764732Y-88994590D01*
X125832287Y-88901610D01*
X125925220Y-88719219D01*
X125988477Y-88524534D01*
X126020500Y-88322352D01*
X126020500Y-88117648D01*
X125988477Y-87915466D01*
X125925220Y-87720781D01*
X125925218Y-87720778D01*
X125925218Y-87720776D01*
X125837729Y-87549071D01*
X125837728Y-87549069D01*
X125832286Y-87538388D01*
X125802687Y-87497648D01*
X127149500Y-87497648D01*
X127149500Y-87702351D01*
X127181522Y-87904534D01*
X127244781Y-88099223D01*
X127337715Y-88281613D01*
X127458028Y-88447213D01*
X127602786Y-88591971D01*
X127757749Y-88704556D01*
X127768390Y-88712287D01*
X127884607Y-88771503D01*
X127950776Y-88805218D01*
X127950778Y-88805218D01*
X127950781Y-88805220D01*
X128055137Y-88839127D01*
X128145465Y-88868477D01*
X128246557Y-88884488D01*
X128347648Y-88900500D01*
X128347649Y-88900500D01*
X128552351Y-88900500D01*
X128552352Y-88900500D01*
X128754534Y-88868477D01*
X128949219Y-88805220D01*
X129131610Y-88712287D01*
X129224590Y-88644732D01*
X129297213Y-88591971D01*
X129297215Y-88591968D01*
X129297219Y-88591966D01*
X129441966Y-88447219D01*
X129441968Y-88447215D01*
X129441971Y-88447213D01*
X129532687Y-88322351D01*
X129562287Y-88281610D01*
X129655220Y-88099219D01*
X129718477Y-87904534D01*
X129750500Y-87702352D01*
X129750500Y-87497648D01*
X139849500Y-87497648D01*
X139849500Y-87702351D01*
X139881522Y-87904534D01*
X139944781Y-88099223D01*
X140037715Y-88281613D01*
X140158028Y-88447213D01*
X140302786Y-88591971D01*
X140457749Y-88704556D01*
X140468390Y-88712287D01*
X140584607Y-88771503D01*
X140650776Y-88805218D01*
X140650778Y-88805218D01*
X140650781Y-88805220D01*
X140755137Y-88839127D01*
X140845465Y-88868477D01*
X140946557Y-88884488D01*
X141047648Y-88900500D01*
X141047649Y-88900500D01*
X141252351Y-88900500D01*
X141252352Y-88900500D01*
X141454534Y-88868477D01*
X141649219Y-88805220D01*
X141831610Y-88712287D01*
X141924590Y-88644732D01*
X141997213Y-88591971D01*
X141997215Y-88591968D01*
X141997219Y-88591966D01*
X142141966Y-88447219D01*
X142141968Y-88447215D01*
X142141971Y-88447213D01*
X142232687Y-88322351D01*
X142262287Y-88281610D01*
X142355220Y-88099219D01*
X142418477Y-87904534D01*
X142450500Y-87702352D01*
X142450500Y-87497648D01*
X142442358Y-87446243D01*
X142418477Y-87295465D01*
X142355218Y-87100776D01*
X142281099Y-86955311D01*
X142262287Y-86918390D01*
X142238188Y-86885220D01*
X142141971Y-86752786D01*
X141997213Y-86608028D01*
X141831613Y-86487715D01*
X141831612Y-86487714D01*
X141831610Y-86487713D01*
X141774653Y-86458691D01*
X141649223Y-86394781D01*
X141454534Y-86331522D01*
X141279995Y-86303878D01*
X141252352Y-86299500D01*
X141047648Y-86299500D01*
X141023329Y-86303351D01*
X140845465Y-86331522D01*
X140650776Y-86394781D01*
X140468386Y-86487715D01*
X140302786Y-86608028D01*
X140158028Y-86752786D01*
X140037715Y-86918386D01*
X139944781Y-87100776D01*
X139881522Y-87295465D01*
X139849500Y-87497648D01*
X129750500Y-87497648D01*
X129742358Y-87446243D01*
X129718477Y-87295465D01*
X129655218Y-87100776D01*
X129581099Y-86955311D01*
X129562287Y-86918390D01*
X129538188Y-86885220D01*
X129441971Y-86752786D01*
X129297213Y-86608028D01*
X129131613Y-86487715D01*
X129131612Y-86487714D01*
X129131610Y-86487713D01*
X129074653Y-86458691D01*
X128949223Y-86394781D01*
X128754534Y-86331522D01*
X128579995Y-86303878D01*
X128552352Y-86299500D01*
X128347648Y-86299500D01*
X128323329Y-86303351D01*
X128145465Y-86331522D01*
X127950776Y-86394781D01*
X127768386Y-86487715D01*
X127602786Y-86608028D01*
X127458028Y-86752786D01*
X127337715Y-86918386D01*
X127244781Y-87100776D01*
X127181522Y-87295465D01*
X127149500Y-87497648D01*
X125802687Y-87497648D01*
X125711971Y-87372786D01*
X125567213Y-87228028D01*
X125401614Y-87107715D01*
X125387995Y-87100776D01*
X125308917Y-87060483D01*
X125258123Y-87012511D01*
X125241328Y-86944690D01*
X125263865Y-86878555D01*
X125308917Y-86839516D01*
X125401610Y-86792287D01*
X125455986Y-86752781D01*
X125567213Y-86671971D01*
X125567215Y-86671968D01*
X125567219Y-86671966D01*
X125711966Y-86527219D01*
X125711968Y-86527215D01*
X125711971Y-86527213D01*
X125764732Y-86454590D01*
X125832287Y-86361610D01*
X125925220Y-86179219D01*
X125988477Y-85984534D01*
X126020500Y-85782352D01*
X126020500Y-85577648D01*
X125988477Y-85375466D01*
X125925220Y-85180781D01*
X125925218Y-85180778D01*
X125925218Y-85180776D01*
X125888346Y-85108412D01*
X125832287Y-84998390D01*
X125824556Y-84987749D01*
X125711971Y-84832786D01*
X125567213Y-84688028D01*
X125401614Y-84567715D01*
X125395006Y-84564348D01*
X125308917Y-84520483D01*
X125258123Y-84472511D01*
X125241328Y-84404690D01*
X125263865Y-84338555D01*
X125308917Y-84299516D01*
X125401610Y-84252287D01*
X125422770Y-84236913D01*
X125567213Y-84131971D01*
X125567215Y-84131968D01*
X125567219Y-84131966D01*
X125711966Y-83987219D01*
X125711968Y-83987215D01*
X125711971Y-83987213D01*
X125764732Y-83914590D01*
X125832287Y-83821610D01*
X125925220Y-83639219D01*
X125988477Y-83444534D01*
X126020500Y-83242352D01*
X126020500Y-83037648D01*
X126016956Y-83015270D01*
X126012543Y-82987408D01*
X125988477Y-82835465D01*
X125959127Y-82745137D01*
X125925220Y-82640781D01*
X125925218Y-82640778D01*
X125925218Y-82640776D01*
X125880721Y-82553447D01*
X125832287Y-82458390D01*
X125789865Y-82400000D01*
X125711971Y-82292786D01*
X125567213Y-82148028D01*
X125401613Y-82027715D01*
X125401612Y-82027714D01*
X125401610Y-82027713D01*
X125344653Y-81998691D01*
X125219223Y-81934781D01*
X125133142Y-81906812D01*
X125024534Y-81871522D01*
X124849995Y-81843878D01*
X124822352Y-81839500D01*
X124617648Y-81839500D01*
X124593329Y-81843351D01*
X124415465Y-81871522D01*
X124220776Y-81934781D01*
X124038386Y-82027715D01*
X123872786Y-82148028D01*
X123728028Y-82292786D01*
X123607715Y-82458386D01*
X123514781Y-82640776D01*
X123451522Y-82835465D01*
X123419500Y-83037648D01*
X118400499Y-83037648D01*
X118400499Y-82292128D01*
X118394091Y-82232517D01*
X118388021Y-82216243D01*
X118343797Y-82097671D01*
X118343793Y-82097664D01*
X118257547Y-81982455D01*
X118257544Y-81982452D01*
X118142335Y-81896206D01*
X118142328Y-81896202D01*
X118007482Y-81845908D01*
X118007483Y-81845908D01*
X117947883Y-81839501D01*
X117947881Y-81839500D01*
X117947873Y-81839500D01*
X117947864Y-81839500D01*
X116252129Y-81839500D01*
X116252123Y-81839501D01*
X116192516Y-81845908D01*
X116057671Y-81896202D01*
X116057664Y-81896206D01*
X115942455Y-81982452D01*
X115942452Y-81982455D01*
X115856206Y-82097664D01*
X115856202Y-82097671D01*
X115805908Y-82232517D01*
X115799501Y-82292116D01*
X115799501Y-82292123D01*
X115799500Y-82292135D01*
X115799500Y-83987870D01*
X115799501Y-83987876D01*
X115805908Y-84047483D01*
X115856202Y-84182328D01*
X115856206Y-84182335D01*
X115942452Y-84297544D01*
X115942455Y-84297547D01*
X116057664Y-84383793D01*
X116057671Y-84383797D01*
X116102618Y-84400561D01*
X116192517Y-84434091D01*
X116229441Y-84438060D01*
X116293989Y-84464796D01*
X116333838Y-84522188D01*
X116336333Y-84592013D01*
X116300681Y-84652102D01*
X116289071Y-84661666D01*
X116252784Y-84688030D01*
X116108028Y-84832786D01*
X115987715Y-84998386D01*
X115894781Y-85180776D01*
X115831522Y-85375465D01*
X115799500Y-85577648D01*
X115799500Y-85782351D01*
X115831522Y-85984534D01*
X115894781Y-86179223D01*
X115930953Y-86250213D01*
X115972382Y-86331522D01*
X115987715Y-86361613D01*
X116108028Y-86527213D01*
X116252786Y-86671971D01*
X116364014Y-86752781D01*
X116418390Y-86792287D01*
X116509840Y-86838883D01*
X116511080Y-86839515D01*
X116561876Y-86887490D01*
X116578671Y-86955311D01*
X116556134Y-87021446D01*
X116511080Y-87060485D01*
X116418386Y-87107715D01*
X116252786Y-87228028D01*
X116108028Y-87372786D01*
X115987715Y-87538386D01*
X115894781Y-87720776D01*
X115831522Y-87915465D01*
X115799500Y-88117648D01*
X115799500Y-88322351D01*
X115831522Y-88524534D01*
X115894781Y-88719223D01*
X115958691Y-88844653D01*
X115987147Y-88900500D01*
X115987715Y-88901613D01*
X116108028Y-89067213D01*
X116252786Y-89211971D01*
X116407749Y-89324556D01*
X116418390Y-89332287D01*
X116509840Y-89378883D01*
X116511080Y-89379515D01*
X116561876Y-89427490D01*
X116578671Y-89495311D01*
X116556134Y-89561446D01*
X116511080Y-89600485D01*
X116418386Y-89647715D01*
X116252786Y-89768028D01*
X116108032Y-89912782D01*
X116051422Y-89990700D01*
X115996092Y-90033365D01*
X115926479Y-90039344D01*
X115864684Y-90006738D01*
X115840619Y-89974109D01*
X115840565Y-89974003D01*
X115733343Y-89763567D01*
X115594517Y-89572490D01*
X115427510Y-89405483D01*
X115236433Y-89266657D01*
X115025996Y-89159433D01*
X114801368Y-89086446D01*
X114568097Y-89049500D01*
X114568092Y-89049500D01*
X114331908Y-89049500D01*
X114331903Y-89049500D01*
X114098631Y-89086446D01*
X113874003Y-89159433D01*
X113663566Y-89266657D01*
X113573239Y-89332284D01*
X113472490Y-89405483D01*
X113472488Y-89405485D01*
X113472487Y-89405485D01*
X113305485Y-89572487D01*
X113305485Y-89572488D01*
X113305483Y-89572490D01*
X113250830Y-89647713D01*
X113166657Y-89763566D01*
X113059433Y-89974003D01*
X112986446Y-90198631D01*
X112949500Y-90431902D01*
X109450500Y-90431902D01*
X109413553Y-90198631D01*
X109358846Y-90030261D01*
X109340568Y-89974008D01*
X109340566Y-89974005D01*
X109340566Y-89974003D01*
X109271236Y-89837937D01*
X109233343Y-89763567D01*
X109094517Y-89572490D01*
X108927510Y-89405483D01*
X108736433Y-89266657D01*
X108525996Y-89159433D01*
X108301368Y-89086446D01*
X108068097Y-89049500D01*
X108068092Y-89049500D01*
X107831908Y-89049500D01*
X107831903Y-89049500D01*
X107598631Y-89086446D01*
X107374003Y-89159433D01*
X107163566Y-89266657D01*
X107073239Y-89332284D01*
X106972490Y-89405483D01*
X106972488Y-89405485D01*
X106972487Y-89405485D01*
X106805485Y-89572487D01*
X106805485Y-89572488D01*
X106805483Y-89572490D01*
X106750830Y-89647713D01*
X106666657Y-89763566D01*
X106559433Y-89974003D01*
X106486446Y-90198631D01*
X106449500Y-90431902D01*
X105415756Y-90431902D01*
X105455049Y-90377819D01*
X105458657Y-90370739D01*
X105458657Y-90370738D01*
X105551557Y-90188412D01*
X105617246Y-89986243D01*
X105650500Y-89776287D01*
X105650500Y-89563713D01*
X105617246Y-89353757D01*
X105551557Y-89151588D01*
X105455051Y-88962184D01*
X105455049Y-88962181D01*
X105455048Y-88962179D01*
X105330109Y-88790213D01*
X105179786Y-88639890D01*
X105007820Y-88514951D01*
X105007115Y-88514591D01*
X104999054Y-88510485D01*
X104948259Y-88462512D01*
X104931463Y-88394692D01*
X104953999Y-88328556D01*
X104999054Y-88289515D01*
X105007816Y-88285051D01*
X105029789Y-88269086D01*
X105179786Y-88160109D01*
X105179788Y-88160106D01*
X105179792Y-88160104D01*
X105330104Y-88009792D01*
X105330106Y-88009788D01*
X105330109Y-88009786D01*
X105455048Y-87837820D01*
X105455047Y-87837820D01*
X105455051Y-87837816D01*
X105551557Y-87648412D01*
X105617246Y-87446243D01*
X105650500Y-87236287D01*
X105650500Y-87023713D01*
X105617246Y-86813757D01*
X105551557Y-86611588D01*
X105455051Y-86422184D01*
X105455049Y-86422181D01*
X105455048Y-86422179D01*
X105330109Y-86250213D01*
X105179786Y-86099890D01*
X105007820Y-85974951D01*
X105007115Y-85974591D01*
X104999054Y-85970485D01*
X104948259Y-85922512D01*
X104931463Y-85854692D01*
X104953999Y-85788556D01*
X104999054Y-85749515D01*
X105007816Y-85745051D01*
X105029789Y-85729086D01*
X105179786Y-85620109D01*
X105179788Y-85620106D01*
X105179792Y-85620104D01*
X105330104Y-85469792D01*
X105330106Y-85469788D01*
X105330109Y-85469786D01*
X105455048Y-85297820D01*
X105455047Y-85297820D01*
X105455051Y-85297816D01*
X105551557Y-85108412D01*
X105617246Y-84906243D01*
X105650500Y-84696287D01*
X105650500Y-84483713D01*
X105617246Y-84273757D01*
X105551557Y-84071588D01*
X105455051Y-83882184D01*
X105455049Y-83882181D01*
X105455048Y-83882179D01*
X105330109Y-83710213D01*
X105179786Y-83559890D01*
X105007820Y-83434951D01*
X104818414Y-83338444D01*
X104818413Y-83338443D01*
X104818412Y-83338443D01*
X104616243Y-83272754D01*
X104616241Y-83272753D01*
X104616240Y-83272753D01*
X104454957Y-83247208D01*
X104406287Y-83239500D01*
X104193713Y-83239500D01*
X104145042Y-83247208D01*
X103983760Y-83272753D01*
X103781585Y-83338444D01*
X103592179Y-83434951D01*
X103420213Y-83559890D01*
X103269890Y-83710213D01*
X103144951Y-83882179D01*
X103048444Y-84071585D01*
X102982753Y-84273760D01*
X102949500Y-84483713D01*
X102000500Y-84483713D01*
X102000500Y-78278711D01*
X103949500Y-78278711D01*
X103949500Y-78521288D01*
X103981161Y-78761785D01*
X104043947Y-78996104D01*
X104063686Y-79043757D01*
X104136776Y-79220212D01*
X104258064Y-79430289D01*
X104258066Y-79430292D01*
X104258067Y-79430293D01*
X104405733Y-79622736D01*
X104405739Y-79622743D01*
X104577256Y-79794260D01*
X104577262Y-79794265D01*
X104769711Y-79941936D01*
X104979788Y-80063224D01*
X105203900Y-80156054D01*
X105438211Y-80218838D01*
X105597383Y-80239793D01*
X105678711Y-80250500D01*
X105678712Y-80250500D01*
X105921289Y-80250500D01*
X105969388Y-80244167D01*
X106161789Y-80218838D01*
X106396100Y-80156054D01*
X106620212Y-80063224D01*
X106830289Y-79941936D01*
X107022738Y-79794265D01*
X107194265Y-79622738D01*
X107341936Y-79430289D01*
X107443882Y-79253713D01*
X130409500Y-79253713D01*
X130409500Y-79466286D01*
X130434279Y-79622738D01*
X130442754Y-79676243D01*
X130481102Y-79794266D01*
X130508444Y-79878414D01*
X130604951Y-80067820D01*
X130729890Y-80239786D01*
X130880213Y-80390109D01*
X131052179Y-80515048D01*
X131052181Y-80515049D01*
X131052184Y-80515051D01*
X131061493Y-80519794D01*
X131112290Y-80567766D01*
X131129087Y-80635587D01*
X131106552Y-80701722D01*
X131061505Y-80740760D01*
X131052446Y-80745376D01*
X131052440Y-80745380D01*
X130998282Y-80784727D01*
X130998282Y-80784728D01*
X131630591Y-81417037D01*
X131567007Y-81434075D01*
X131452993Y-81499901D01*
X131359901Y-81592993D01*
X131294075Y-81707007D01*
X131277037Y-81770591D01*
X130644728Y-81138282D01*
X130644727Y-81138282D01*
X130605380Y-81192439D01*
X130508904Y-81381782D01*
X130443242Y-81583869D01*
X130443242Y-81583872D01*
X130410000Y-81793753D01*
X130410000Y-82006246D01*
X130443242Y-82216127D01*
X130443242Y-82216130D01*
X130508904Y-82418217D01*
X130605375Y-82607550D01*
X130644728Y-82661716D01*
X131277037Y-82029408D01*
X131294075Y-82092993D01*
X131359901Y-82207007D01*
X131452993Y-82300099D01*
X131567007Y-82365925D01*
X131630590Y-82382962D01*
X130998282Y-83015269D01*
X130998282Y-83015270D01*
X131052449Y-83054624D01*
X131241782Y-83151095D01*
X131443870Y-83216757D01*
X131653754Y-83250000D01*
X131866246Y-83250000D01*
X132076127Y-83216757D01*
X132076130Y-83216757D01*
X132278217Y-83151095D01*
X132467554Y-83054622D01*
X132521716Y-83015270D01*
X132521717Y-83015270D01*
X131889408Y-82382962D01*
X131952993Y-82365925D01*
X132067007Y-82300099D01*
X132160099Y-82207007D01*
X132225925Y-82092993D01*
X132242962Y-82029408D01*
X132875270Y-82661717D01*
X132875270Y-82661716D01*
X132914622Y-82607555D01*
X132919232Y-82598507D01*
X132967205Y-82547709D01*
X133035025Y-82530912D01*
X133101161Y-82553447D01*
X133140204Y-82598504D01*
X133144949Y-82607817D01*
X133269890Y-82779786D01*
X133420213Y-82930109D01*
X133592179Y-83055048D01*
X133592181Y-83055049D01*
X133592184Y-83055051D01*
X133781588Y-83151557D01*
X133983757Y-83217246D01*
X134193713Y-83250500D01*
X134193714Y-83250500D01*
X134406286Y-83250500D01*
X134406287Y-83250500D01*
X134616243Y-83217246D01*
X134818412Y-83151557D01*
X135007816Y-83055051D01*
X135062572Y-83015269D01*
X135179786Y-82930109D01*
X135179788Y-82930106D01*
X135179792Y-82930104D01*
X135330104Y-82779792D01*
X135330106Y-82779788D01*
X135330109Y-82779786D01*
X135455048Y-82607820D01*
X135455050Y-82607817D01*
X135455051Y-82607816D01*
X135459514Y-82599054D01*
X135507488Y-82548259D01*
X135575308Y-82531463D01*
X135641444Y-82553999D01*
X135680486Y-82599056D01*
X135684951Y-82607820D01*
X135809890Y-82779786D01*
X135960213Y-82930109D01*
X136132179Y-83055048D01*
X136132181Y-83055049D01*
X136132184Y-83055051D01*
X136321588Y-83151557D01*
X136523757Y-83217246D01*
X136733713Y-83250500D01*
X136733714Y-83250500D01*
X136946286Y-83250500D01*
X136946287Y-83250500D01*
X137156243Y-83217246D01*
X137358412Y-83151557D01*
X137547816Y-83055051D01*
X137602572Y-83015269D01*
X137719786Y-82930109D01*
X137719788Y-82930106D01*
X137719792Y-82930104D01*
X137870104Y-82779792D01*
X137870106Y-82779788D01*
X137870109Y-82779786D01*
X137995048Y-82607820D01*
X137995050Y-82607817D01*
X137995051Y-82607816D01*
X138091557Y-82418412D01*
X138157246Y-82216243D01*
X138190500Y-82006287D01*
X138190500Y-81793713D01*
X138157246Y-81583757D01*
X138091557Y-81381588D01*
X137995051Y-81192184D01*
X137995049Y-81192181D01*
X137995048Y-81192179D01*
X137870109Y-81020213D01*
X137719790Y-80869894D01*
X137719785Y-80869890D01*
X137714891Y-80866334D01*
X137672227Y-80811003D01*
X137666249Y-80741390D01*
X137698857Y-80679595D01*
X137748774Y-80648312D01*
X137759334Y-80644814D01*
X137908656Y-80552712D01*
X138032712Y-80428656D01*
X138124814Y-80279334D01*
X138179999Y-80112797D01*
X138190500Y-80010009D01*
X138190499Y-78709992D01*
X138179999Y-78607203D01*
X138124814Y-78440666D01*
X138032712Y-78291344D01*
X137908656Y-78167288D01*
X137759334Y-78075186D01*
X137592797Y-78020001D01*
X137592795Y-78020000D01*
X137490010Y-78009500D01*
X136189998Y-78009500D01*
X136189981Y-78009501D01*
X136087203Y-78020000D01*
X136087200Y-78020001D01*
X135920668Y-78075185D01*
X135920663Y-78075187D01*
X135771342Y-78167289D01*
X135647289Y-78291342D01*
X135555187Y-78440663D01*
X135555183Y-78440673D01*
X135551685Y-78451229D01*
X135511910Y-78508672D01*
X135447393Y-78535493D01*
X135378618Y-78523174D01*
X135333663Y-78485106D01*
X135330105Y-78480209D01*
X135179786Y-78329890D01*
X135007820Y-78204951D01*
X134818414Y-78108444D01*
X134818413Y-78108443D01*
X134818412Y-78108443D01*
X134616243Y-78042754D01*
X134616241Y-78042753D01*
X134616240Y-78042753D01*
X134454957Y-78017208D01*
X134406287Y-78009500D01*
X134193713Y-78009500D01*
X134145042Y-78017208D01*
X133983760Y-78042753D01*
X133781585Y-78108444D01*
X133592179Y-78204951D01*
X133420213Y-78329890D01*
X133269890Y-78480213D01*
X133144949Y-78652182D01*
X133140484Y-78660946D01*
X133092509Y-78711742D01*
X133024688Y-78728536D01*
X132958553Y-78705998D01*
X132919516Y-78660946D01*
X132915050Y-78652182D01*
X132790109Y-78480213D01*
X132639786Y-78329890D01*
X132467820Y-78204951D01*
X132278414Y-78108444D01*
X132278413Y-78108443D01*
X132278412Y-78108443D01*
X132076243Y-78042754D01*
X132076241Y-78042753D01*
X132076240Y-78042753D01*
X131914957Y-78017208D01*
X131866287Y-78009500D01*
X131653713Y-78009500D01*
X131605042Y-78017208D01*
X131443760Y-78042753D01*
X131241585Y-78108444D01*
X131052179Y-78204951D01*
X130880213Y-78329890D01*
X130729890Y-78480213D01*
X130604951Y-78652179D01*
X130508444Y-78841585D01*
X130442753Y-79043760D01*
X130409500Y-79253713D01*
X107443882Y-79253713D01*
X107463224Y-79220212D01*
X107556054Y-78996100D01*
X107618838Y-78761789D01*
X107650500Y-78521288D01*
X107650500Y-78278712D01*
X107618838Y-78038211D01*
X107556054Y-77803900D01*
X107463224Y-77579788D01*
X107341936Y-77369711D01*
X107194265Y-77177262D01*
X107194260Y-77177256D01*
X107022743Y-77005739D01*
X107022736Y-77005733D01*
X106830293Y-76858067D01*
X106830292Y-76858066D01*
X106830289Y-76858064D01*
X106620212Y-76736776D01*
X106620205Y-76736773D01*
X106396104Y-76643947D01*
X106161785Y-76581161D01*
X105921289Y-76549500D01*
X105921288Y-76549500D01*
X105678712Y-76549500D01*
X105678711Y-76549500D01*
X105438214Y-76581161D01*
X105203895Y-76643947D01*
X104979794Y-76736773D01*
X104979785Y-76736777D01*
X104769706Y-76858067D01*
X104577263Y-77005733D01*
X104577256Y-77005739D01*
X104405739Y-77177256D01*
X104405733Y-77177263D01*
X104258067Y-77369706D01*
X104136777Y-77579785D01*
X104136773Y-77579794D01*
X104043947Y-77803895D01*
X103981161Y-78038214D01*
X103949500Y-78278711D01*
X102000500Y-78278711D01*
X102000500Y-74974500D01*
X102020185Y-74907461D01*
X102072989Y-74861706D01*
X102124500Y-74850500D01*
X143575500Y-74850500D01*
X143642539Y-74870185D01*
G37*
%TD.AperFunction*%
%TD*%
M02*
