M48
; DRILL file {KiCad 9.0.3} date 2025-09-19T10:57:51+1200
; FORMAT={-:-/ absolute / metric / decimal}
; #@! TF.CreationDate,2025-09-19T10:57:51+12:00
; #@! TF.GenerationSoftware,Kicad,Pcbnew,9.0.3
; #@! TF.FileFunction,Plated,1,2,PTH
FMAT,2
METRIC
; #@! TA.AperFunction,Plated,PTH,ViaDrill
T1C0.300
; #@! TA.AperFunction,Plated,PTH,ComponentDrill
T2C0.750
; #@! TA.AperFunction,Plated,PTH,ComponentDrill
T3C0.800
; #@! TA.AperFunction,Plated,PTH,ComponentDrill
T4C0.889
; #@! TA.AperFunction,Plated,PTH,ComponentDrill
T5C0.900
; #@! TA.AperFunction,Plated,PTH,ComponentDrill
T6C1.000
; #@! TA.AperFunction,Plated,PTH,ComponentDrill
T7C1.100
%
G90
G05
T1
X103.59Y-106.0
X109.899Y-144.839
X110.3Y-136.4
X110.3Y-146.6
X111.9Y-137.9
X124.89Y-128.61
X126.0Y-135.6
X132.1Y-94.3
X132.23Y-104.775
X132.26Y-101.3
X132.29Y-97.8
X132.299Y-90.547
X134.03Y-94.3
X134.05Y-97.8
X134.1Y-101.3
X134.1Y-104.8
X134.5Y-90.8
X135.09Y-128.51
T2
X129.64Y-128.96
X129.64Y-130.23
X129.64Y-131.5
T3
X104.85Y-131.2
X117.55Y-131.2
X121.7Y-128.655
X121.7Y-130.655
X128.45Y-87.6
X137.9Y-129.01
X137.9Y-131.01
X138.6Y-136.6
X138.6Y-139.1
X141.15Y-87.6
T4
X125.0Y-121.3
X125.0Y-124.6
X127.5Y-121.3
X127.5Y-124.6
X130.0Y-121.3
X130.0Y-124.6
T5
X106.78Y-117.14
X109.32Y-117.14
X131.535Y-116.7
X134.075Y-116.7
X136.96Y-123.9
X139.5Y-123.9
T6
X104.3Y-84.59
X104.3Y-87.13
X104.3Y-89.67
X104.3Y-92.21
X107.95Y-90.55
X107.95Y-95.05
X108.24Y-123.33
X108.24Y-127.83
X114.45Y-90.55
X114.45Y-95.05
X114.74Y-123.33
X114.74Y-127.83
X117.1Y-83.14
X117.1Y-85.68
X117.1Y-88.22
X117.1Y-90.76
X117.1Y-93.3
X117.1Y-95.84
X117.1Y-98.38
X117.1Y-100.92
X117.1Y-103.46
X117.1Y-106.0
X117.1Y-108.54
X117.1Y-111.08
X117.1Y-113.62
X117.1Y-116.16
X124.72Y-83.14
X124.72Y-85.68
X124.72Y-88.22
X124.72Y-90.76
X124.72Y-93.3
X124.72Y-95.84
X124.72Y-98.38
X124.72Y-100.92
X124.72Y-103.46
X124.72Y-106.0
X124.72Y-108.54
X124.72Y-111.08
X124.72Y-113.62
X124.72Y-116.16
X125.1Y-144.66
X125.1Y-147.2
X129.5Y-144.625
X129.5Y-147.165
X131.76Y-79.36
X131.76Y-81.9
X133.09Y-106.88
X133.1Y-144.578
X133.1Y-147.118
X133.11Y-103.16
X133.14Y-99.45
X133.15Y-92.15
X133.17Y-95.74
X134.3Y-79.36
X134.3Y-81.9
X135.63Y-106.88
X135.65Y-103.16
X135.68Y-99.45
X135.69Y-92.15
X135.71Y-95.74
X136.84Y-79.36
X136.84Y-81.9
X138.17Y-106.88
X138.19Y-103.16
X138.22Y-99.45
X138.23Y-92.15
X138.25Y-95.74
T7
X117.0Y-137.82
X117.0Y-147.98
X120.9Y-135.72
X120.9Y-145.88
M30
