%TF.GenerationSoftware,KiCad,Pcbnew,9.0.3*%
%TF.CreationDate,2025-09-18T17:46:44+12:00*%
%TF.ProjectId,pcb_draft_lfr,7063625f-6472-4616-9674-5f6c66722e6b,REV4*%
%TF.SameCoordinates,Original*%
%TF.FileFunction,Legend,Top*%
%TF.FilePolarity,Positive*%
%FSLAX46Y46*%
G04 Gerber Fmt 4.6, Leading zero omitted, Abs format (unit mm)*
G04 Created by KiCad (PCBNEW 9.0.3) date 2025-09-18 17:46:44*
%MOMM*%
%LPD*%
G01*
G04 APERTURE LIST*
%ADD10C,0.100000*%
%ADD11C,0.150000*%
%ADD12C,0.120000*%
%ADD13C,0.152400*%
G04 APERTURE END LIST*
D10*
X103480074Y-148972419D02*
X103003884Y-148972419D01*
X103003884Y-148972419D02*
X103003884Y-147972419D01*
X104146741Y-148448609D02*
X103813408Y-148448609D01*
X103813408Y-148972419D02*
X103813408Y-147972419D01*
X103813408Y-147972419D02*
X104289598Y-147972419D01*
X105241979Y-148972419D02*
X104908646Y-148496228D01*
X104670551Y-148972419D02*
X104670551Y-147972419D01*
X104670551Y-147972419D02*
X105051503Y-147972419D01*
X105051503Y-147972419D02*
X105146741Y-148020038D01*
X105146741Y-148020038D02*
X105194360Y-148067657D01*
X105194360Y-148067657D02*
X105241979Y-148162895D01*
X105241979Y-148162895D02*
X105241979Y-148305752D01*
X105241979Y-148305752D02*
X105194360Y-148400990D01*
X105194360Y-148400990D02*
X105146741Y-148448609D01*
X105146741Y-148448609D02*
X105051503Y-148496228D01*
X105051503Y-148496228D02*
X104670551Y-148496228D01*
X106956265Y-148020038D02*
X106861027Y-147972419D01*
X106861027Y-147972419D02*
X106718170Y-147972419D01*
X106718170Y-147972419D02*
X106575313Y-148020038D01*
X106575313Y-148020038D02*
X106480075Y-148115276D01*
X106480075Y-148115276D02*
X106432456Y-148210514D01*
X106432456Y-148210514D02*
X106384837Y-148400990D01*
X106384837Y-148400990D02*
X106384837Y-148543847D01*
X106384837Y-148543847D02*
X106432456Y-148734323D01*
X106432456Y-148734323D02*
X106480075Y-148829561D01*
X106480075Y-148829561D02*
X106575313Y-148924800D01*
X106575313Y-148924800D02*
X106718170Y-148972419D01*
X106718170Y-148972419D02*
X106813408Y-148972419D01*
X106813408Y-148972419D02*
X106956265Y-148924800D01*
X106956265Y-148924800D02*
X107003884Y-148877180D01*
X107003884Y-148877180D02*
X107003884Y-148543847D01*
X107003884Y-148543847D02*
X106813408Y-148543847D01*
X107432456Y-148972419D02*
X107432456Y-148305752D01*
X107432456Y-148496228D02*
X107480075Y-148400990D01*
X107480075Y-148400990D02*
X107527694Y-148353371D01*
X107527694Y-148353371D02*
X107622932Y-148305752D01*
X107622932Y-148305752D02*
X107718170Y-148305752D01*
X108194361Y-148972419D02*
X108099123Y-148924800D01*
X108099123Y-148924800D02*
X108051504Y-148877180D01*
X108051504Y-148877180D02*
X108003885Y-148781942D01*
X108003885Y-148781942D02*
X108003885Y-148496228D01*
X108003885Y-148496228D02*
X108051504Y-148400990D01*
X108051504Y-148400990D02*
X108099123Y-148353371D01*
X108099123Y-148353371D02*
X108194361Y-148305752D01*
X108194361Y-148305752D02*
X108337218Y-148305752D01*
X108337218Y-148305752D02*
X108432456Y-148353371D01*
X108432456Y-148353371D02*
X108480075Y-148400990D01*
X108480075Y-148400990D02*
X108527694Y-148496228D01*
X108527694Y-148496228D02*
X108527694Y-148781942D01*
X108527694Y-148781942D02*
X108480075Y-148877180D01*
X108480075Y-148877180D02*
X108432456Y-148924800D01*
X108432456Y-148924800D02*
X108337218Y-148972419D01*
X108337218Y-148972419D02*
X108194361Y-148972419D01*
X109384837Y-148305752D02*
X109384837Y-148972419D01*
X108956266Y-148305752D02*
X108956266Y-148829561D01*
X108956266Y-148829561D02*
X109003885Y-148924800D01*
X109003885Y-148924800D02*
X109099123Y-148972419D01*
X109099123Y-148972419D02*
X109241980Y-148972419D01*
X109241980Y-148972419D02*
X109337218Y-148924800D01*
X109337218Y-148924800D02*
X109384837Y-148877180D01*
X109861028Y-148305752D02*
X109861028Y-149305752D01*
X109861028Y-148353371D02*
X109956266Y-148305752D01*
X109956266Y-148305752D02*
X110146742Y-148305752D01*
X110146742Y-148305752D02*
X110241980Y-148353371D01*
X110241980Y-148353371D02*
X110289599Y-148400990D01*
X110289599Y-148400990D02*
X110337218Y-148496228D01*
X110337218Y-148496228D02*
X110337218Y-148781942D01*
X110337218Y-148781942D02*
X110289599Y-148877180D01*
X110289599Y-148877180D02*
X110241980Y-148924800D01*
X110241980Y-148924800D02*
X110146742Y-148972419D01*
X110146742Y-148972419D02*
X109956266Y-148972419D01*
X109956266Y-148972419D02*
X109861028Y-148924800D01*
X111432457Y-147972419D02*
X112051504Y-147972419D01*
X112051504Y-147972419D02*
X111718171Y-148353371D01*
X111718171Y-148353371D02*
X111861028Y-148353371D01*
X111861028Y-148353371D02*
X111956266Y-148400990D01*
X111956266Y-148400990D02*
X112003885Y-148448609D01*
X112003885Y-148448609D02*
X112051504Y-148543847D01*
X112051504Y-148543847D02*
X112051504Y-148781942D01*
X112051504Y-148781942D02*
X112003885Y-148877180D01*
X112003885Y-148877180D02*
X111956266Y-148924800D01*
X111956266Y-148924800D02*
X111861028Y-148972419D01*
X111861028Y-148972419D02*
X111575314Y-148972419D01*
X111575314Y-148972419D02*
X111480076Y-148924800D01*
X111480076Y-148924800D02*
X111432457Y-148877180D01*
X112432457Y-148067657D02*
X112480076Y-148020038D01*
X112480076Y-148020038D02*
X112575314Y-147972419D01*
X112575314Y-147972419D02*
X112813409Y-147972419D01*
X112813409Y-147972419D02*
X112908647Y-148020038D01*
X112908647Y-148020038D02*
X112956266Y-148067657D01*
X112956266Y-148067657D02*
X113003885Y-148162895D01*
X113003885Y-148162895D02*
X113003885Y-148258133D01*
X113003885Y-148258133D02*
X112956266Y-148400990D01*
X112956266Y-148400990D02*
X112384838Y-148972419D01*
X112384838Y-148972419D02*
X113003885Y-148972419D01*
D11*
X103956666Y-94434819D02*
X103956666Y-95149104D01*
X103956666Y-95149104D02*
X103909047Y-95291961D01*
X103909047Y-95291961D02*
X103813809Y-95387200D01*
X103813809Y-95387200D02*
X103670952Y-95434819D01*
X103670952Y-95434819D02*
X103575714Y-95434819D01*
X104575714Y-94863390D02*
X104480476Y-94815771D01*
X104480476Y-94815771D02*
X104432857Y-94768152D01*
X104432857Y-94768152D02*
X104385238Y-94672914D01*
X104385238Y-94672914D02*
X104385238Y-94625295D01*
X104385238Y-94625295D02*
X104432857Y-94530057D01*
X104432857Y-94530057D02*
X104480476Y-94482438D01*
X104480476Y-94482438D02*
X104575714Y-94434819D01*
X104575714Y-94434819D02*
X104766190Y-94434819D01*
X104766190Y-94434819D02*
X104861428Y-94482438D01*
X104861428Y-94482438D02*
X104909047Y-94530057D01*
X104909047Y-94530057D02*
X104956666Y-94625295D01*
X104956666Y-94625295D02*
X104956666Y-94672914D01*
X104956666Y-94672914D02*
X104909047Y-94768152D01*
X104909047Y-94768152D02*
X104861428Y-94815771D01*
X104861428Y-94815771D02*
X104766190Y-94863390D01*
X104766190Y-94863390D02*
X104575714Y-94863390D01*
X104575714Y-94863390D02*
X104480476Y-94911009D01*
X104480476Y-94911009D02*
X104432857Y-94958628D01*
X104432857Y-94958628D02*
X104385238Y-95053866D01*
X104385238Y-95053866D02*
X104385238Y-95244342D01*
X104385238Y-95244342D02*
X104432857Y-95339580D01*
X104432857Y-95339580D02*
X104480476Y-95387200D01*
X104480476Y-95387200D02*
X104575714Y-95434819D01*
X104575714Y-95434819D02*
X104766190Y-95434819D01*
X104766190Y-95434819D02*
X104861428Y-95387200D01*
X104861428Y-95387200D02*
X104909047Y-95339580D01*
X104909047Y-95339580D02*
X104956666Y-95244342D01*
X104956666Y-95244342D02*
X104956666Y-95053866D01*
X104956666Y-95053866D02*
X104909047Y-94958628D01*
X104909047Y-94958628D02*
X104861428Y-94911009D01*
X104861428Y-94911009D02*
X104766190Y-94863390D01*
X127487142Y-104814819D02*
X127153809Y-104338628D01*
X126915714Y-104814819D02*
X126915714Y-103814819D01*
X126915714Y-103814819D02*
X127296666Y-103814819D01*
X127296666Y-103814819D02*
X127391904Y-103862438D01*
X127391904Y-103862438D02*
X127439523Y-103910057D01*
X127439523Y-103910057D02*
X127487142Y-104005295D01*
X127487142Y-104005295D02*
X127487142Y-104148152D01*
X127487142Y-104148152D02*
X127439523Y-104243390D01*
X127439523Y-104243390D02*
X127391904Y-104291009D01*
X127391904Y-104291009D02*
X127296666Y-104338628D01*
X127296666Y-104338628D02*
X126915714Y-104338628D01*
X128439523Y-104814819D02*
X127868095Y-104814819D01*
X128153809Y-104814819D02*
X128153809Y-103814819D01*
X128153809Y-103814819D02*
X128058571Y-103957676D01*
X128058571Y-103957676D02*
X127963333Y-104052914D01*
X127963333Y-104052914D02*
X127868095Y-104100533D01*
X129058571Y-103814819D02*
X129153809Y-103814819D01*
X129153809Y-103814819D02*
X129249047Y-103862438D01*
X129249047Y-103862438D02*
X129296666Y-103910057D01*
X129296666Y-103910057D02*
X129344285Y-104005295D01*
X129344285Y-104005295D02*
X129391904Y-104195771D01*
X129391904Y-104195771D02*
X129391904Y-104433866D01*
X129391904Y-104433866D02*
X129344285Y-104624342D01*
X129344285Y-104624342D02*
X129296666Y-104719580D01*
X129296666Y-104719580D02*
X129249047Y-104767200D01*
X129249047Y-104767200D02*
X129153809Y-104814819D01*
X129153809Y-104814819D02*
X129058571Y-104814819D01*
X129058571Y-104814819D02*
X128963333Y-104767200D01*
X128963333Y-104767200D02*
X128915714Y-104719580D01*
X128915714Y-104719580D02*
X128868095Y-104624342D01*
X128868095Y-104624342D02*
X128820476Y-104433866D01*
X128820476Y-104433866D02*
X128820476Y-104195771D01*
X128820476Y-104195771D02*
X128868095Y-104005295D01*
X128868095Y-104005295D02*
X128915714Y-103910057D01*
X128915714Y-103910057D02*
X128963333Y-103862438D01*
X128963333Y-103862438D02*
X129058571Y-103814819D01*
X104931905Y-113524819D02*
X104931905Y-112524819D01*
X104931905Y-112524819D02*
X105170000Y-112524819D01*
X105170000Y-112524819D02*
X105312857Y-112572438D01*
X105312857Y-112572438D02*
X105408095Y-112667676D01*
X105408095Y-112667676D02*
X105455714Y-112762914D01*
X105455714Y-112762914D02*
X105503333Y-112953390D01*
X105503333Y-112953390D02*
X105503333Y-113096247D01*
X105503333Y-113096247D02*
X105455714Y-113286723D01*
X105455714Y-113286723D02*
X105408095Y-113381961D01*
X105408095Y-113381961D02*
X105312857Y-113477200D01*
X105312857Y-113477200D02*
X105170000Y-113524819D01*
X105170000Y-113524819D02*
X104931905Y-113524819D01*
X106360476Y-112858152D02*
X106360476Y-113524819D01*
X106122381Y-112477200D02*
X105884286Y-113191485D01*
X105884286Y-113191485D02*
X106503333Y-113191485D01*
X111533333Y-83654819D02*
X111200000Y-83178628D01*
X110961905Y-83654819D02*
X110961905Y-82654819D01*
X110961905Y-82654819D02*
X111342857Y-82654819D01*
X111342857Y-82654819D02*
X111438095Y-82702438D01*
X111438095Y-82702438D02*
X111485714Y-82750057D01*
X111485714Y-82750057D02*
X111533333Y-82845295D01*
X111533333Y-82845295D02*
X111533333Y-82988152D01*
X111533333Y-82988152D02*
X111485714Y-83083390D01*
X111485714Y-83083390D02*
X111438095Y-83131009D01*
X111438095Y-83131009D02*
X111342857Y-83178628D01*
X111342857Y-83178628D02*
X110961905Y-83178628D01*
X111866667Y-82654819D02*
X112485714Y-82654819D01*
X112485714Y-82654819D02*
X112152381Y-83035771D01*
X112152381Y-83035771D02*
X112295238Y-83035771D01*
X112295238Y-83035771D02*
X112390476Y-83083390D01*
X112390476Y-83083390D02*
X112438095Y-83131009D01*
X112438095Y-83131009D02*
X112485714Y-83226247D01*
X112485714Y-83226247D02*
X112485714Y-83464342D01*
X112485714Y-83464342D02*
X112438095Y-83559580D01*
X112438095Y-83559580D02*
X112390476Y-83607200D01*
X112390476Y-83607200D02*
X112295238Y-83654819D01*
X112295238Y-83654819D02*
X112009524Y-83654819D01*
X112009524Y-83654819D02*
X111914286Y-83607200D01*
X111914286Y-83607200D02*
X111866667Y-83559580D01*
X104547142Y-107309580D02*
X104499523Y-107357200D01*
X104499523Y-107357200D02*
X104356666Y-107404819D01*
X104356666Y-107404819D02*
X104261428Y-107404819D01*
X104261428Y-107404819D02*
X104118571Y-107357200D01*
X104118571Y-107357200D02*
X104023333Y-107261961D01*
X104023333Y-107261961D02*
X103975714Y-107166723D01*
X103975714Y-107166723D02*
X103928095Y-106976247D01*
X103928095Y-106976247D02*
X103928095Y-106833390D01*
X103928095Y-106833390D02*
X103975714Y-106642914D01*
X103975714Y-106642914D02*
X104023333Y-106547676D01*
X104023333Y-106547676D02*
X104118571Y-106452438D01*
X104118571Y-106452438D02*
X104261428Y-106404819D01*
X104261428Y-106404819D02*
X104356666Y-106404819D01*
X104356666Y-106404819D02*
X104499523Y-106452438D01*
X104499523Y-106452438D02*
X104547142Y-106500057D01*
X105499523Y-107404819D02*
X104928095Y-107404819D01*
X105213809Y-107404819D02*
X105213809Y-106404819D01*
X105213809Y-106404819D02*
X105118571Y-106547676D01*
X105118571Y-106547676D02*
X105023333Y-106642914D01*
X105023333Y-106642914D02*
X104928095Y-106690533D01*
X106118571Y-106404819D02*
X106213809Y-106404819D01*
X106213809Y-106404819D02*
X106309047Y-106452438D01*
X106309047Y-106452438D02*
X106356666Y-106500057D01*
X106356666Y-106500057D02*
X106404285Y-106595295D01*
X106404285Y-106595295D02*
X106451904Y-106785771D01*
X106451904Y-106785771D02*
X106451904Y-107023866D01*
X106451904Y-107023866D02*
X106404285Y-107214342D01*
X106404285Y-107214342D02*
X106356666Y-107309580D01*
X106356666Y-107309580D02*
X106309047Y-107357200D01*
X106309047Y-107357200D02*
X106213809Y-107404819D01*
X106213809Y-107404819D02*
X106118571Y-107404819D01*
X106118571Y-107404819D02*
X106023333Y-107357200D01*
X106023333Y-107357200D02*
X105975714Y-107309580D01*
X105975714Y-107309580D02*
X105928095Y-107214342D01*
X105928095Y-107214342D02*
X105880476Y-107023866D01*
X105880476Y-107023866D02*
X105880476Y-106785771D01*
X105880476Y-106785771D02*
X105928095Y-106595295D01*
X105928095Y-106595295D02*
X105975714Y-106500057D01*
X105975714Y-106500057D02*
X106023333Y-106452438D01*
X106023333Y-106452438D02*
X106118571Y-106404819D01*
X128238095Y-139144819D02*
X128809523Y-139144819D01*
X128523809Y-140144819D02*
X128523809Y-139144819D01*
X129142857Y-140144819D02*
X129142857Y-139144819D01*
X129142857Y-139144819D02*
X129523809Y-139144819D01*
X129523809Y-139144819D02*
X129619047Y-139192438D01*
X129619047Y-139192438D02*
X129666666Y-139240057D01*
X129666666Y-139240057D02*
X129714285Y-139335295D01*
X129714285Y-139335295D02*
X129714285Y-139478152D01*
X129714285Y-139478152D02*
X129666666Y-139573390D01*
X129666666Y-139573390D02*
X129619047Y-139621009D01*
X129619047Y-139621009D02*
X129523809Y-139668628D01*
X129523809Y-139668628D02*
X129142857Y-139668628D01*
X130095238Y-139240057D02*
X130142857Y-139192438D01*
X130142857Y-139192438D02*
X130238095Y-139144819D01*
X130238095Y-139144819D02*
X130476190Y-139144819D01*
X130476190Y-139144819D02*
X130571428Y-139192438D01*
X130571428Y-139192438D02*
X130619047Y-139240057D01*
X130619047Y-139240057D02*
X130666666Y-139335295D01*
X130666666Y-139335295D02*
X130666666Y-139430533D01*
X130666666Y-139430533D02*
X130619047Y-139573390D01*
X130619047Y-139573390D02*
X130047619Y-140144819D01*
X130047619Y-140144819D02*
X130666666Y-140144819D01*
X133833333Y-126454819D02*
X133500000Y-125978628D01*
X133261905Y-126454819D02*
X133261905Y-125454819D01*
X133261905Y-125454819D02*
X133642857Y-125454819D01*
X133642857Y-125454819D02*
X133738095Y-125502438D01*
X133738095Y-125502438D02*
X133785714Y-125550057D01*
X133785714Y-125550057D02*
X133833333Y-125645295D01*
X133833333Y-125645295D02*
X133833333Y-125788152D01*
X133833333Y-125788152D02*
X133785714Y-125883390D01*
X133785714Y-125883390D02*
X133738095Y-125931009D01*
X133738095Y-125931009D02*
X133642857Y-125978628D01*
X133642857Y-125978628D02*
X133261905Y-125978628D01*
X134785714Y-126454819D02*
X134214286Y-126454819D01*
X134500000Y-126454819D02*
X134500000Y-125454819D01*
X134500000Y-125454819D02*
X134404762Y-125597676D01*
X134404762Y-125597676D02*
X134309524Y-125692914D01*
X134309524Y-125692914D02*
X134214286Y-125740533D01*
X124366666Y-75154819D02*
X124366666Y-75869104D01*
X124366666Y-75869104D02*
X124319047Y-76011961D01*
X124319047Y-76011961D02*
X124223809Y-76107200D01*
X124223809Y-76107200D02*
X124080952Y-76154819D01*
X124080952Y-76154819D02*
X123985714Y-76154819D01*
X124890476Y-76154819D02*
X125080952Y-76154819D01*
X125080952Y-76154819D02*
X125176190Y-76107200D01*
X125176190Y-76107200D02*
X125223809Y-76059580D01*
X125223809Y-76059580D02*
X125319047Y-75916723D01*
X125319047Y-75916723D02*
X125366666Y-75726247D01*
X125366666Y-75726247D02*
X125366666Y-75345295D01*
X125366666Y-75345295D02*
X125319047Y-75250057D01*
X125319047Y-75250057D02*
X125271428Y-75202438D01*
X125271428Y-75202438D02*
X125176190Y-75154819D01*
X125176190Y-75154819D02*
X124985714Y-75154819D01*
X124985714Y-75154819D02*
X124890476Y-75202438D01*
X124890476Y-75202438D02*
X124842857Y-75250057D01*
X124842857Y-75250057D02*
X124795238Y-75345295D01*
X124795238Y-75345295D02*
X124795238Y-75583390D01*
X124795238Y-75583390D02*
X124842857Y-75678628D01*
X124842857Y-75678628D02*
X124890476Y-75726247D01*
X124890476Y-75726247D02*
X124985714Y-75773866D01*
X124985714Y-75773866D02*
X125176190Y-75773866D01*
X125176190Y-75773866D02*
X125271428Y-75726247D01*
X125271428Y-75726247D02*
X125319047Y-75678628D01*
X125319047Y-75678628D02*
X125366666Y-75583390D01*
X114633333Y-103649580D02*
X114585714Y-103697200D01*
X114585714Y-103697200D02*
X114442857Y-103744819D01*
X114442857Y-103744819D02*
X114347619Y-103744819D01*
X114347619Y-103744819D02*
X114204762Y-103697200D01*
X114204762Y-103697200D02*
X114109524Y-103601961D01*
X114109524Y-103601961D02*
X114061905Y-103506723D01*
X114061905Y-103506723D02*
X114014286Y-103316247D01*
X114014286Y-103316247D02*
X114014286Y-103173390D01*
X114014286Y-103173390D02*
X114061905Y-102982914D01*
X114061905Y-102982914D02*
X114109524Y-102887676D01*
X114109524Y-102887676D02*
X114204762Y-102792438D01*
X114204762Y-102792438D02*
X114347619Y-102744819D01*
X114347619Y-102744819D02*
X114442857Y-102744819D01*
X114442857Y-102744819D02*
X114585714Y-102792438D01*
X114585714Y-102792438D02*
X114633333Y-102840057D01*
X115490476Y-102744819D02*
X115300000Y-102744819D01*
X115300000Y-102744819D02*
X115204762Y-102792438D01*
X115204762Y-102792438D02*
X115157143Y-102840057D01*
X115157143Y-102840057D02*
X115061905Y-102982914D01*
X115061905Y-102982914D02*
X115014286Y-103173390D01*
X115014286Y-103173390D02*
X115014286Y-103554342D01*
X115014286Y-103554342D02*
X115061905Y-103649580D01*
X115061905Y-103649580D02*
X115109524Y-103697200D01*
X115109524Y-103697200D02*
X115204762Y-103744819D01*
X115204762Y-103744819D02*
X115395238Y-103744819D01*
X115395238Y-103744819D02*
X115490476Y-103697200D01*
X115490476Y-103697200D02*
X115538095Y-103649580D01*
X115538095Y-103649580D02*
X115585714Y-103554342D01*
X115585714Y-103554342D02*
X115585714Y-103316247D01*
X115585714Y-103316247D02*
X115538095Y-103221009D01*
X115538095Y-103221009D02*
X115490476Y-103173390D01*
X115490476Y-103173390D02*
X115395238Y-103125771D01*
X115395238Y-103125771D02*
X115204762Y-103125771D01*
X115204762Y-103125771D02*
X115109524Y-103173390D01*
X115109524Y-103173390D02*
X115061905Y-103221009D01*
X115061905Y-103221009D02*
X115014286Y-103316247D01*
X139438095Y-110854819D02*
X139438095Y-109854819D01*
X139438095Y-110331009D02*
X140009523Y-110331009D01*
X140009523Y-110854819D02*
X140009523Y-109854819D01*
X140914285Y-110188152D02*
X140914285Y-110854819D01*
X140676190Y-109807200D02*
X140438095Y-110521485D01*
X140438095Y-110521485D02*
X141057142Y-110521485D01*
X113590476Y-105954819D02*
X114257142Y-106954819D01*
X114257142Y-105954819D02*
X113590476Y-106954819D01*
X115161904Y-106954819D02*
X114590476Y-106954819D01*
X114876190Y-106954819D02*
X114876190Y-105954819D01*
X114876190Y-105954819D02*
X114780952Y-106097676D01*
X114780952Y-106097676D02*
X114685714Y-106192914D01*
X114685714Y-106192914D02*
X114590476Y-106240533D01*
X130233333Y-108954819D02*
X129900000Y-108478628D01*
X129661905Y-108954819D02*
X129661905Y-107954819D01*
X129661905Y-107954819D02*
X130042857Y-107954819D01*
X130042857Y-107954819D02*
X130138095Y-108002438D01*
X130138095Y-108002438D02*
X130185714Y-108050057D01*
X130185714Y-108050057D02*
X130233333Y-108145295D01*
X130233333Y-108145295D02*
X130233333Y-108288152D01*
X130233333Y-108288152D02*
X130185714Y-108383390D01*
X130185714Y-108383390D02*
X130138095Y-108431009D01*
X130138095Y-108431009D02*
X130042857Y-108478628D01*
X130042857Y-108478628D02*
X129661905Y-108478628D01*
X130804762Y-108383390D02*
X130709524Y-108335771D01*
X130709524Y-108335771D02*
X130661905Y-108288152D01*
X130661905Y-108288152D02*
X130614286Y-108192914D01*
X130614286Y-108192914D02*
X130614286Y-108145295D01*
X130614286Y-108145295D02*
X130661905Y-108050057D01*
X130661905Y-108050057D02*
X130709524Y-108002438D01*
X130709524Y-108002438D02*
X130804762Y-107954819D01*
X130804762Y-107954819D02*
X130995238Y-107954819D01*
X130995238Y-107954819D02*
X131090476Y-108002438D01*
X131090476Y-108002438D02*
X131138095Y-108050057D01*
X131138095Y-108050057D02*
X131185714Y-108145295D01*
X131185714Y-108145295D02*
X131185714Y-108192914D01*
X131185714Y-108192914D02*
X131138095Y-108288152D01*
X131138095Y-108288152D02*
X131090476Y-108335771D01*
X131090476Y-108335771D02*
X130995238Y-108383390D01*
X130995238Y-108383390D02*
X130804762Y-108383390D01*
X130804762Y-108383390D02*
X130709524Y-108431009D01*
X130709524Y-108431009D02*
X130661905Y-108478628D01*
X130661905Y-108478628D02*
X130614286Y-108573866D01*
X130614286Y-108573866D02*
X130614286Y-108764342D01*
X130614286Y-108764342D02*
X130661905Y-108859580D01*
X130661905Y-108859580D02*
X130709524Y-108907200D01*
X130709524Y-108907200D02*
X130804762Y-108954819D01*
X130804762Y-108954819D02*
X130995238Y-108954819D01*
X130995238Y-108954819D02*
X131090476Y-108907200D01*
X131090476Y-108907200D02*
X131138095Y-108859580D01*
X131138095Y-108859580D02*
X131185714Y-108764342D01*
X131185714Y-108764342D02*
X131185714Y-108573866D01*
X131185714Y-108573866D02*
X131138095Y-108478628D01*
X131138095Y-108478628D02*
X131090476Y-108431009D01*
X131090476Y-108431009D02*
X130995238Y-108383390D01*
X122961905Y-135354819D02*
X122961905Y-134354819D01*
X122961905Y-134354819D02*
X123200000Y-134354819D01*
X123200000Y-134354819D02*
X123342857Y-134402438D01*
X123342857Y-134402438D02*
X123438095Y-134497676D01*
X123438095Y-134497676D02*
X123485714Y-134592914D01*
X123485714Y-134592914D02*
X123533333Y-134783390D01*
X123533333Y-134783390D02*
X123533333Y-134926247D01*
X123533333Y-134926247D02*
X123485714Y-135116723D01*
X123485714Y-135116723D02*
X123438095Y-135211961D01*
X123438095Y-135211961D02*
X123342857Y-135307200D01*
X123342857Y-135307200D02*
X123200000Y-135354819D01*
X123200000Y-135354819D02*
X122961905Y-135354819D01*
X123914286Y-134450057D02*
X123961905Y-134402438D01*
X123961905Y-134402438D02*
X124057143Y-134354819D01*
X124057143Y-134354819D02*
X124295238Y-134354819D01*
X124295238Y-134354819D02*
X124390476Y-134402438D01*
X124390476Y-134402438D02*
X124438095Y-134450057D01*
X124438095Y-134450057D02*
X124485714Y-134545295D01*
X124485714Y-134545295D02*
X124485714Y-134640533D01*
X124485714Y-134640533D02*
X124438095Y-134783390D01*
X124438095Y-134783390D02*
X123866667Y-135354819D01*
X123866667Y-135354819D02*
X124485714Y-135354819D01*
X121338095Y-148454819D02*
X121338095Y-147454819D01*
X121909523Y-148454819D02*
X121480952Y-147883390D01*
X121909523Y-147454819D02*
X121338095Y-148026247D01*
X141133333Y-134659580D02*
X141085714Y-134707200D01*
X141085714Y-134707200D02*
X140942857Y-134754819D01*
X140942857Y-134754819D02*
X140847619Y-134754819D01*
X140847619Y-134754819D02*
X140704762Y-134707200D01*
X140704762Y-134707200D02*
X140609524Y-134611961D01*
X140609524Y-134611961D02*
X140561905Y-134516723D01*
X140561905Y-134516723D02*
X140514286Y-134326247D01*
X140514286Y-134326247D02*
X140514286Y-134183390D01*
X140514286Y-134183390D02*
X140561905Y-133992914D01*
X140561905Y-133992914D02*
X140609524Y-133897676D01*
X140609524Y-133897676D02*
X140704762Y-133802438D01*
X140704762Y-133802438D02*
X140847619Y-133754819D01*
X140847619Y-133754819D02*
X140942857Y-133754819D01*
X140942857Y-133754819D02*
X141085714Y-133802438D01*
X141085714Y-133802438D02*
X141133333Y-133850057D01*
X142085714Y-134754819D02*
X141514286Y-134754819D01*
X141800000Y-134754819D02*
X141800000Y-133754819D01*
X141800000Y-133754819D02*
X141704762Y-133897676D01*
X141704762Y-133897676D02*
X141609524Y-133992914D01*
X141609524Y-133992914D02*
X141514286Y-134040533D01*
X109238095Y-76654819D02*
X109238095Y-75654819D01*
X109238095Y-76131009D02*
X109809523Y-76131009D01*
X109809523Y-76654819D02*
X109809523Y-75654819D01*
X110190476Y-75654819D02*
X110809523Y-75654819D01*
X110809523Y-75654819D02*
X110476190Y-76035771D01*
X110476190Y-76035771D02*
X110619047Y-76035771D01*
X110619047Y-76035771D02*
X110714285Y-76083390D01*
X110714285Y-76083390D02*
X110761904Y-76131009D01*
X110761904Y-76131009D02*
X110809523Y-76226247D01*
X110809523Y-76226247D02*
X110809523Y-76464342D01*
X110809523Y-76464342D02*
X110761904Y-76559580D01*
X110761904Y-76559580D02*
X110714285Y-76607200D01*
X110714285Y-76607200D02*
X110619047Y-76654819D01*
X110619047Y-76654819D02*
X110333333Y-76654819D01*
X110333333Y-76654819D02*
X110238095Y-76607200D01*
X110238095Y-76607200D02*
X110190476Y-76559580D01*
X124772243Y-141674819D02*
X124772243Y-142389104D01*
X124772243Y-142389104D02*
X124724624Y-142531961D01*
X124724624Y-142531961D02*
X124629386Y-142627200D01*
X124629386Y-142627200D02*
X124486529Y-142674819D01*
X124486529Y-142674819D02*
X124391291Y-142674819D01*
X125677005Y-141674819D02*
X125486529Y-141674819D01*
X125486529Y-141674819D02*
X125391291Y-141722438D01*
X125391291Y-141722438D02*
X125343672Y-141770057D01*
X125343672Y-141770057D02*
X125248434Y-141912914D01*
X125248434Y-141912914D02*
X125200815Y-142103390D01*
X125200815Y-142103390D02*
X125200815Y-142484342D01*
X125200815Y-142484342D02*
X125248434Y-142579580D01*
X125248434Y-142579580D02*
X125296053Y-142627200D01*
X125296053Y-142627200D02*
X125391291Y-142674819D01*
X125391291Y-142674819D02*
X125581767Y-142674819D01*
X125581767Y-142674819D02*
X125677005Y-142627200D01*
X125677005Y-142627200D02*
X125724624Y-142579580D01*
X125724624Y-142579580D02*
X125772243Y-142484342D01*
X125772243Y-142484342D02*
X125772243Y-142246247D01*
X125772243Y-142246247D02*
X125724624Y-142151009D01*
X125724624Y-142151009D02*
X125677005Y-142103390D01*
X125677005Y-142103390D02*
X125581767Y-142055771D01*
X125581767Y-142055771D02*
X125391291Y-142055771D01*
X125391291Y-142055771D02*
X125296053Y-142103390D01*
X125296053Y-142103390D02*
X125248434Y-142151009D01*
X125248434Y-142151009D02*
X125200815Y-142246247D01*
X131938095Y-139154819D02*
X132509523Y-139154819D01*
X132223809Y-140154819D02*
X132223809Y-139154819D01*
X132842857Y-140154819D02*
X132842857Y-139154819D01*
X132842857Y-139154819D02*
X133223809Y-139154819D01*
X133223809Y-139154819D02*
X133319047Y-139202438D01*
X133319047Y-139202438D02*
X133366666Y-139250057D01*
X133366666Y-139250057D02*
X133414285Y-139345295D01*
X133414285Y-139345295D02*
X133414285Y-139488152D01*
X133414285Y-139488152D02*
X133366666Y-139583390D01*
X133366666Y-139583390D02*
X133319047Y-139631009D01*
X133319047Y-139631009D02*
X133223809Y-139678628D01*
X133223809Y-139678628D02*
X132842857Y-139678628D01*
X133747619Y-139154819D02*
X134366666Y-139154819D01*
X134366666Y-139154819D02*
X134033333Y-139535771D01*
X134033333Y-139535771D02*
X134176190Y-139535771D01*
X134176190Y-139535771D02*
X134271428Y-139583390D01*
X134271428Y-139583390D02*
X134319047Y-139631009D01*
X134319047Y-139631009D02*
X134366666Y-139726247D01*
X134366666Y-139726247D02*
X134366666Y-139964342D01*
X134366666Y-139964342D02*
X134319047Y-140059580D01*
X134319047Y-140059580D02*
X134271428Y-140107200D01*
X134271428Y-140107200D02*
X134176190Y-140154819D01*
X134176190Y-140154819D02*
X133890476Y-140154819D01*
X133890476Y-140154819D02*
X133795238Y-140107200D01*
X133795238Y-140107200D02*
X133747619Y-140059580D01*
X118633333Y-122104819D02*
X118300000Y-121628628D01*
X118061905Y-122104819D02*
X118061905Y-121104819D01*
X118061905Y-121104819D02*
X118442857Y-121104819D01*
X118442857Y-121104819D02*
X118538095Y-121152438D01*
X118538095Y-121152438D02*
X118585714Y-121200057D01*
X118585714Y-121200057D02*
X118633333Y-121295295D01*
X118633333Y-121295295D02*
X118633333Y-121438152D01*
X118633333Y-121438152D02*
X118585714Y-121533390D01*
X118585714Y-121533390D02*
X118538095Y-121581009D01*
X118538095Y-121581009D02*
X118442857Y-121628628D01*
X118442857Y-121628628D02*
X118061905Y-121628628D01*
X119490476Y-121438152D02*
X119490476Y-122104819D01*
X119252381Y-121057200D02*
X119014286Y-121771485D01*
X119014286Y-121771485D02*
X119633333Y-121771485D01*
X120388095Y-78314819D02*
X120388095Y-79124342D01*
X120388095Y-79124342D02*
X120435714Y-79219580D01*
X120435714Y-79219580D02*
X120483333Y-79267200D01*
X120483333Y-79267200D02*
X120578571Y-79314819D01*
X120578571Y-79314819D02*
X120769047Y-79314819D01*
X120769047Y-79314819D02*
X120864285Y-79267200D01*
X120864285Y-79267200D02*
X120911904Y-79219580D01*
X120911904Y-79219580D02*
X120959523Y-79124342D01*
X120959523Y-79124342D02*
X120959523Y-78314819D01*
X121388095Y-78410057D02*
X121435714Y-78362438D01*
X121435714Y-78362438D02*
X121530952Y-78314819D01*
X121530952Y-78314819D02*
X121769047Y-78314819D01*
X121769047Y-78314819D02*
X121864285Y-78362438D01*
X121864285Y-78362438D02*
X121911904Y-78410057D01*
X121911904Y-78410057D02*
X121959523Y-78505295D01*
X121959523Y-78505295D02*
X121959523Y-78600533D01*
X121959523Y-78600533D02*
X121911904Y-78743390D01*
X121911904Y-78743390D02*
X121340476Y-79314819D01*
X121340476Y-79314819D02*
X121959523Y-79314819D01*
X113104761Y-138850057D02*
X113009523Y-138802438D01*
X113009523Y-138802438D02*
X112914285Y-138707200D01*
X112914285Y-138707200D02*
X112771428Y-138564342D01*
X112771428Y-138564342D02*
X112676190Y-138516723D01*
X112676190Y-138516723D02*
X112580952Y-138516723D01*
X112628571Y-138754819D02*
X112533333Y-138707200D01*
X112533333Y-138707200D02*
X112438095Y-138611961D01*
X112438095Y-138611961D02*
X112390476Y-138421485D01*
X112390476Y-138421485D02*
X112390476Y-138088152D01*
X112390476Y-138088152D02*
X112438095Y-137897676D01*
X112438095Y-137897676D02*
X112533333Y-137802438D01*
X112533333Y-137802438D02*
X112628571Y-137754819D01*
X112628571Y-137754819D02*
X112819047Y-137754819D01*
X112819047Y-137754819D02*
X112914285Y-137802438D01*
X112914285Y-137802438D02*
X113009523Y-137897676D01*
X113009523Y-137897676D02*
X113057142Y-138088152D01*
X113057142Y-138088152D02*
X113057142Y-138421485D01*
X113057142Y-138421485D02*
X113009523Y-138611961D01*
X113009523Y-138611961D02*
X112914285Y-138707200D01*
X112914285Y-138707200D02*
X112819047Y-138754819D01*
X112819047Y-138754819D02*
X112628571Y-138754819D01*
X113438095Y-137850057D02*
X113485714Y-137802438D01*
X113485714Y-137802438D02*
X113580952Y-137754819D01*
X113580952Y-137754819D02*
X113819047Y-137754819D01*
X113819047Y-137754819D02*
X113914285Y-137802438D01*
X113914285Y-137802438D02*
X113961904Y-137850057D01*
X113961904Y-137850057D02*
X114009523Y-137945295D01*
X114009523Y-137945295D02*
X114009523Y-138040533D01*
X114009523Y-138040533D02*
X113961904Y-138183390D01*
X113961904Y-138183390D02*
X113390476Y-138754819D01*
X113390476Y-138754819D02*
X114009523Y-138754819D01*
X110438095Y-97637200D02*
X110580952Y-97684819D01*
X110580952Y-97684819D02*
X110819047Y-97684819D01*
X110819047Y-97684819D02*
X110914285Y-97637200D01*
X110914285Y-97637200D02*
X110961904Y-97589580D01*
X110961904Y-97589580D02*
X111009523Y-97494342D01*
X111009523Y-97494342D02*
X111009523Y-97399104D01*
X111009523Y-97399104D02*
X110961904Y-97303866D01*
X110961904Y-97303866D02*
X110914285Y-97256247D01*
X110914285Y-97256247D02*
X110819047Y-97208628D01*
X110819047Y-97208628D02*
X110628571Y-97161009D01*
X110628571Y-97161009D02*
X110533333Y-97113390D01*
X110533333Y-97113390D02*
X110485714Y-97065771D01*
X110485714Y-97065771D02*
X110438095Y-96970533D01*
X110438095Y-96970533D02*
X110438095Y-96875295D01*
X110438095Y-96875295D02*
X110485714Y-96780057D01*
X110485714Y-96780057D02*
X110533333Y-96732438D01*
X110533333Y-96732438D02*
X110628571Y-96684819D01*
X110628571Y-96684819D02*
X110866666Y-96684819D01*
X110866666Y-96684819D02*
X111009523Y-96732438D01*
X111961904Y-97684819D02*
X111390476Y-97684819D01*
X111676190Y-97684819D02*
X111676190Y-96684819D01*
X111676190Y-96684819D02*
X111580952Y-96827676D01*
X111580952Y-96827676D02*
X111485714Y-96922914D01*
X111485714Y-96922914D02*
X111390476Y-96970533D01*
X140766666Y-91954819D02*
X140766666Y-92669104D01*
X140766666Y-92669104D02*
X140719047Y-92811961D01*
X140719047Y-92811961D02*
X140623809Y-92907200D01*
X140623809Y-92907200D02*
X140480952Y-92954819D01*
X140480952Y-92954819D02*
X140385714Y-92954819D01*
X141719047Y-91954819D02*
X141242857Y-91954819D01*
X141242857Y-91954819D02*
X141195238Y-92431009D01*
X141195238Y-92431009D02*
X141242857Y-92383390D01*
X141242857Y-92383390D02*
X141338095Y-92335771D01*
X141338095Y-92335771D02*
X141576190Y-92335771D01*
X141576190Y-92335771D02*
X141671428Y-92383390D01*
X141671428Y-92383390D02*
X141719047Y-92431009D01*
X141719047Y-92431009D02*
X141766666Y-92526247D01*
X141766666Y-92526247D02*
X141766666Y-92764342D01*
X141766666Y-92764342D02*
X141719047Y-92859580D01*
X141719047Y-92859580D02*
X141671428Y-92907200D01*
X141671428Y-92907200D02*
X141576190Y-92954819D01*
X141576190Y-92954819D02*
X141338095Y-92954819D01*
X141338095Y-92954819D02*
X141242857Y-92907200D01*
X141242857Y-92907200D02*
X141195238Y-92859580D01*
X126433333Y-133914467D02*
X126385714Y-133962087D01*
X126385714Y-133962087D02*
X126242857Y-134009706D01*
X126242857Y-134009706D02*
X126147619Y-134009706D01*
X126147619Y-134009706D02*
X126004762Y-133962087D01*
X126004762Y-133962087D02*
X125909524Y-133866848D01*
X125909524Y-133866848D02*
X125861905Y-133771610D01*
X125861905Y-133771610D02*
X125814286Y-133581134D01*
X125814286Y-133581134D02*
X125814286Y-133438277D01*
X125814286Y-133438277D02*
X125861905Y-133247801D01*
X125861905Y-133247801D02*
X125909524Y-133152563D01*
X125909524Y-133152563D02*
X126004762Y-133057325D01*
X126004762Y-133057325D02*
X126147619Y-133009706D01*
X126147619Y-133009706D02*
X126242857Y-133009706D01*
X126242857Y-133009706D02*
X126385714Y-133057325D01*
X126385714Y-133057325D02*
X126433333Y-133104944D01*
X127290476Y-133343039D02*
X127290476Y-134009706D01*
X127052381Y-132962087D02*
X126814286Y-133676372D01*
X126814286Y-133676372D02*
X127433333Y-133676372D01*
X137561905Y-120454819D02*
X137561905Y-119454819D01*
X137561905Y-119454819D02*
X137800000Y-119454819D01*
X137800000Y-119454819D02*
X137942857Y-119502438D01*
X137942857Y-119502438D02*
X138038095Y-119597676D01*
X138038095Y-119597676D02*
X138085714Y-119692914D01*
X138085714Y-119692914D02*
X138133333Y-119883390D01*
X138133333Y-119883390D02*
X138133333Y-120026247D01*
X138133333Y-120026247D02*
X138085714Y-120216723D01*
X138085714Y-120216723D02*
X138038095Y-120311961D01*
X138038095Y-120311961D02*
X137942857Y-120407200D01*
X137942857Y-120407200D02*
X137800000Y-120454819D01*
X137800000Y-120454819D02*
X137561905Y-120454819D01*
X138466667Y-119454819D02*
X139085714Y-119454819D01*
X139085714Y-119454819D02*
X138752381Y-119835771D01*
X138752381Y-119835771D02*
X138895238Y-119835771D01*
X138895238Y-119835771D02*
X138990476Y-119883390D01*
X138990476Y-119883390D02*
X139038095Y-119931009D01*
X139038095Y-119931009D02*
X139085714Y-120026247D01*
X139085714Y-120026247D02*
X139085714Y-120264342D01*
X139085714Y-120264342D02*
X139038095Y-120359580D01*
X139038095Y-120359580D02*
X138990476Y-120407200D01*
X138990476Y-120407200D02*
X138895238Y-120454819D01*
X138895238Y-120454819D02*
X138609524Y-120454819D01*
X138609524Y-120454819D02*
X138514286Y-120407200D01*
X138514286Y-120407200D02*
X138466667Y-120359580D01*
X140566666Y-99154819D02*
X140566666Y-99869104D01*
X140566666Y-99869104D02*
X140519047Y-100011961D01*
X140519047Y-100011961D02*
X140423809Y-100107200D01*
X140423809Y-100107200D02*
X140280952Y-100154819D01*
X140280952Y-100154819D02*
X140185714Y-100154819D01*
X140947619Y-99154819D02*
X141566666Y-99154819D01*
X141566666Y-99154819D02*
X141233333Y-99535771D01*
X141233333Y-99535771D02*
X141376190Y-99535771D01*
X141376190Y-99535771D02*
X141471428Y-99583390D01*
X141471428Y-99583390D02*
X141519047Y-99631009D01*
X141519047Y-99631009D02*
X141566666Y-99726247D01*
X141566666Y-99726247D02*
X141566666Y-99964342D01*
X141566666Y-99964342D02*
X141519047Y-100059580D01*
X141519047Y-100059580D02*
X141471428Y-100107200D01*
X141471428Y-100107200D02*
X141376190Y-100154819D01*
X141376190Y-100154819D02*
X141090476Y-100154819D01*
X141090476Y-100154819D02*
X140995238Y-100107200D01*
X140995238Y-100107200D02*
X140947619Y-100059580D01*
X141433333Y-90754819D02*
X141100000Y-90278628D01*
X140861905Y-90754819D02*
X140861905Y-89754819D01*
X140861905Y-89754819D02*
X141242857Y-89754819D01*
X141242857Y-89754819D02*
X141338095Y-89802438D01*
X141338095Y-89802438D02*
X141385714Y-89850057D01*
X141385714Y-89850057D02*
X141433333Y-89945295D01*
X141433333Y-89945295D02*
X141433333Y-90088152D01*
X141433333Y-90088152D02*
X141385714Y-90183390D01*
X141385714Y-90183390D02*
X141338095Y-90231009D01*
X141338095Y-90231009D02*
X141242857Y-90278628D01*
X141242857Y-90278628D02*
X140861905Y-90278628D01*
X141814286Y-89850057D02*
X141861905Y-89802438D01*
X141861905Y-89802438D02*
X141957143Y-89754819D01*
X141957143Y-89754819D02*
X142195238Y-89754819D01*
X142195238Y-89754819D02*
X142290476Y-89802438D01*
X142290476Y-89802438D02*
X142338095Y-89850057D01*
X142338095Y-89850057D02*
X142385714Y-89945295D01*
X142385714Y-89945295D02*
X142385714Y-90040533D01*
X142385714Y-90040533D02*
X142338095Y-90183390D01*
X142338095Y-90183390D02*
X141766667Y-90754819D01*
X141766667Y-90754819D02*
X142385714Y-90754819D01*
X113333333Y-118314819D02*
X113000000Y-117838628D01*
X112761905Y-118314819D02*
X112761905Y-117314819D01*
X112761905Y-117314819D02*
X113142857Y-117314819D01*
X113142857Y-117314819D02*
X113238095Y-117362438D01*
X113238095Y-117362438D02*
X113285714Y-117410057D01*
X113285714Y-117410057D02*
X113333333Y-117505295D01*
X113333333Y-117505295D02*
X113333333Y-117648152D01*
X113333333Y-117648152D02*
X113285714Y-117743390D01*
X113285714Y-117743390D02*
X113238095Y-117791009D01*
X113238095Y-117791009D02*
X113142857Y-117838628D01*
X113142857Y-117838628D02*
X112761905Y-117838628D01*
X114190476Y-117314819D02*
X114000000Y-117314819D01*
X114000000Y-117314819D02*
X113904762Y-117362438D01*
X113904762Y-117362438D02*
X113857143Y-117410057D01*
X113857143Y-117410057D02*
X113761905Y-117552914D01*
X113761905Y-117552914D02*
X113714286Y-117743390D01*
X113714286Y-117743390D02*
X113714286Y-118124342D01*
X113714286Y-118124342D02*
X113761905Y-118219580D01*
X113761905Y-118219580D02*
X113809524Y-118267200D01*
X113809524Y-118267200D02*
X113904762Y-118314819D01*
X113904762Y-118314819D02*
X114095238Y-118314819D01*
X114095238Y-118314819D02*
X114190476Y-118267200D01*
X114190476Y-118267200D02*
X114238095Y-118219580D01*
X114238095Y-118219580D02*
X114285714Y-118124342D01*
X114285714Y-118124342D02*
X114285714Y-117886247D01*
X114285714Y-117886247D02*
X114238095Y-117791009D01*
X114238095Y-117791009D02*
X114190476Y-117743390D01*
X114190476Y-117743390D02*
X114095238Y-117695771D01*
X114095238Y-117695771D02*
X113904762Y-117695771D01*
X113904762Y-117695771D02*
X113809524Y-117743390D01*
X113809524Y-117743390D02*
X113761905Y-117791009D01*
X113761905Y-117791009D02*
X113714286Y-117886247D01*
X140933333Y-128559580D02*
X140885714Y-128607200D01*
X140885714Y-128607200D02*
X140742857Y-128654819D01*
X140742857Y-128654819D02*
X140647619Y-128654819D01*
X140647619Y-128654819D02*
X140504762Y-128607200D01*
X140504762Y-128607200D02*
X140409524Y-128511961D01*
X140409524Y-128511961D02*
X140361905Y-128416723D01*
X140361905Y-128416723D02*
X140314286Y-128226247D01*
X140314286Y-128226247D02*
X140314286Y-128083390D01*
X140314286Y-128083390D02*
X140361905Y-127892914D01*
X140361905Y-127892914D02*
X140409524Y-127797676D01*
X140409524Y-127797676D02*
X140504762Y-127702438D01*
X140504762Y-127702438D02*
X140647619Y-127654819D01*
X140647619Y-127654819D02*
X140742857Y-127654819D01*
X140742857Y-127654819D02*
X140885714Y-127702438D01*
X140885714Y-127702438D02*
X140933333Y-127750057D01*
X141266667Y-127654819D02*
X141885714Y-127654819D01*
X141885714Y-127654819D02*
X141552381Y-128035771D01*
X141552381Y-128035771D02*
X141695238Y-128035771D01*
X141695238Y-128035771D02*
X141790476Y-128083390D01*
X141790476Y-128083390D02*
X141838095Y-128131009D01*
X141838095Y-128131009D02*
X141885714Y-128226247D01*
X141885714Y-128226247D02*
X141885714Y-128464342D01*
X141885714Y-128464342D02*
X141838095Y-128559580D01*
X141838095Y-128559580D02*
X141790476Y-128607200D01*
X141790476Y-128607200D02*
X141695238Y-128654819D01*
X141695238Y-128654819D02*
X141409524Y-128654819D01*
X141409524Y-128654819D02*
X141314286Y-128607200D01*
X141314286Y-128607200D02*
X141266667Y-128559580D01*
X129366666Y-141554819D02*
X129366666Y-142269104D01*
X129366666Y-142269104D02*
X129319047Y-142411961D01*
X129319047Y-142411961D02*
X129223809Y-142507200D01*
X129223809Y-142507200D02*
X129080952Y-142554819D01*
X129080952Y-142554819D02*
X128985714Y-142554819D01*
X129747619Y-141554819D02*
X130414285Y-141554819D01*
X130414285Y-141554819D02*
X129985714Y-142554819D01*
X130263333Y-110874819D02*
X129930000Y-110398628D01*
X129691905Y-110874819D02*
X129691905Y-109874819D01*
X129691905Y-109874819D02*
X130072857Y-109874819D01*
X130072857Y-109874819D02*
X130168095Y-109922438D01*
X130168095Y-109922438D02*
X130215714Y-109970057D01*
X130215714Y-109970057D02*
X130263333Y-110065295D01*
X130263333Y-110065295D02*
X130263333Y-110208152D01*
X130263333Y-110208152D02*
X130215714Y-110303390D01*
X130215714Y-110303390D02*
X130168095Y-110351009D01*
X130168095Y-110351009D02*
X130072857Y-110398628D01*
X130072857Y-110398628D02*
X129691905Y-110398628D01*
X130739524Y-110874819D02*
X130930000Y-110874819D01*
X130930000Y-110874819D02*
X131025238Y-110827200D01*
X131025238Y-110827200D02*
X131072857Y-110779580D01*
X131072857Y-110779580D02*
X131168095Y-110636723D01*
X131168095Y-110636723D02*
X131215714Y-110446247D01*
X131215714Y-110446247D02*
X131215714Y-110065295D01*
X131215714Y-110065295D02*
X131168095Y-109970057D01*
X131168095Y-109970057D02*
X131120476Y-109922438D01*
X131120476Y-109922438D02*
X131025238Y-109874819D01*
X131025238Y-109874819D02*
X130834762Y-109874819D01*
X130834762Y-109874819D02*
X130739524Y-109922438D01*
X130739524Y-109922438D02*
X130691905Y-109970057D01*
X130691905Y-109970057D02*
X130644286Y-110065295D01*
X130644286Y-110065295D02*
X130644286Y-110303390D01*
X130644286Y-110303390D02*
X130691905Y-110398628D01*
X130691905Y-110398628D02*
X130739524Y-110446247D01*
X130739524Y-110446247D02*
X130834762Y-110493866D01*
X130834762Y-110493866D02*
X131025238Y-110493866D01*
X131025238Y-110493866D02*
X131120476Y-110446247D01*
X131120476Y-110446247D02*
X131168095Y-110398628D01*
X131168095Y-110398628D02*
X131215714Y-110303390D01*
X110728095Y-121807200D02*
X110870952Y-121854819D01*
X110870952Y-121854819D02*
X111109047Y-121854819D01*
X111109047Y-121854819D02*
X111204285Y-121807200D01*
X111204285Y-121807200D02*
X111251904Y-121759580D01*
X111251904Y-121759580D02*
X111299523Y-121664342D01*
X111299523Y-121664342D02*
X111299523Y-121569104D01*
X111299523Y-121569104D02*
X111251904Y-121473866D01*
X111251904Y-121473866D02*
X111204285Y-121426247D01*
X111204285Y-121426247D02*
X111109047Y-121378628D01*
X111109047Y-121378628D02*
X110918571Y-121331009D01*
X110918571Y-121331009D02*
X110823333Y-121283390D01*
X110823333Y-121283390D02*
X110775714Y-121235771D01*
X110775714Y-121235771D02*
X110728095Y-121140533D01*
X110728095Y-121140533D02*
X110728095Y-121045295D01*
X110728095Y-121045295D02*
X110775714Y-120950057D01*
X110775714Y-120950057D02*
X110823333Y-120902438D01*
X110823333Y-120902438D02*
X110918571Y-120854819D01*
X110918571Y-120854819D02*
X111156666Y-120854819D01*
X111156666Y-120854819D02*
X111299523Y-120902438D01*
X111680476Y-120950057D02*
X111728095Y-120902438D01*
X111728095Y-120902438D02*
X111823333Y-120854819D01*
X111823333Y-120854819D02*
X112061428Y-120854819D01*
X112061428Y-120854819D02*
X112156666Y-120902438D01*
X112156666Y-120902438D02*
X112204285Y-120950057D01*
X112204285Y-120950057D02*
X112251904Y-121045295D01*
X112251904Y-121045295D02*
X112251904Y-121140533D01*
X112251904Y-121140533D02*
X112204285Y-121283390D01*
X112204285Y-121283390D02*
X111632857Y-121854819D01*
X111632857Y-121854819D02*
X112251904Y-121854819D01*
X129338095Y-133309706D02*
X129338095Y-134119229D01*
X129338095Y-134119229D02*
X129385714Y-134214467D01*
X129385714Y-134214467D02*
X129433333Y-134262087D01*
X129433333Y-134262087D02*
X129528571Y-134309706D01*
X129528571Y-134309706D02*
X129719047Y-134309706D01*
X129719047Y-134309706D02*
X129814285Y-134262087D01*
X129814285Y-134262087D02*
X129861904Y-134214467D01*
X129861904Y-134214467D02*
X129909523Y-134119229D01*
X129909523Y-134119229D02*
X129909523Y-133309706D01*
X130909523Y-134309706D02*
X130338095Y-134309706D01*
X130623809Y-134309706D02*
X130623809Y-133309706D01*
X130623809Y-133309706D02*
X130528571Y-133452563D01*
X130528571Y-133452563D02*
X130433333Y-133547801D01*
X130433333Y-133547801D02*
X130338095Y-133595420D01*
X126638095Y-120007200D02*
X126780952Y-120054819D01*
X126780952Y-120054819D02*
X127019047Y-120054819D01*
X127019047Y-120054819D02*
X127114285Y-120007200D01*
X127114285Y-120007200D02*
X127161904Y-119959580D01*
X127161904Y-119959580D02*
X127209523Y-119864342D01*
X127209523Y-119864342D02*
X127209523Y-119769104D01*
X127209523Y-119769104D02*
X127161904Y-119673866D01*
X127161904Y-119673866D02*
X127114285Y-119626247D01*
X127114285Y-119626247D02*
X127019047Y-119578628D01*
X127019047Y-119578628D02*
X126828571Y-119531009D01*
X126828571Y-119531009D02*
X126733333Y-119483390D01*
X126733333Y-119483390D02*
X126685714Y-119435771D01*
X126685714Y-119435771D02*
X126638095Y-119340533D01*
X126638095Y-119340533D02*
X126638095Y-119245295D01*
X126638095Y-119245295D02*
X126685714Y-119150057D01*
X126685714Y-119150057D02*
X126733333Y-119102438D01*
X126733333Y-119102438D02*
X126828571Y-119054819D01*
X126828571Y-119054819D02*
X127066666Y-119054819D01*
X127066666Y-119054819D02*
X127209523Y-119102438D01*
X127542857Y-119054819D02*
X128161904Y-119054819D01*
X128161904Y-119054819D02*
X127828571Y-119435771D01*
X127828571Y-119435771D02*
X127971428Y-119435771D01*
X127971428Y-119435771D02*
X128066666Y-119483390D01*
X128066666Y-119483390D02*
X128114285Y-119531009D01*
X128114285Y-119531009D02*
X128161904Y-119626247D01*
X128161904Y-119626247D02*
X128161904Y-119864342D01*
X128161904Y-119864342D02*
X128114285Y-119959580D01*
X128114285Y-119959580D02*
X128066666Y-120007200D01*
X128066666Y-120007200D02*
X127971428Y-120054819D01*
X127971428Y-120054819D02*
X127685714Y-120054819D01*
X127685714Y-120054819D02*
X127590476Y-120007200D01*
X127590476Y-120007200D02*
X127542857Y-119959580D01*
X105038095Y-140204819D02*
X105038095Y-139204819D01*
X105038095Y-139681009D02*
X105609523Y-139681009D01*
X105609523Y-140204819D02*
X105609523Y-139204819D01*
X106038095Y-139300057D02*
X106085714Y-139252438D01*
X106085714Y-139252438D02*
X106180952Y-139204819D01*
X106180952Y-139204819D02*
X106419047Y-139204819D01*
X106419047Y-139204819D02*
X106514285Y-139252438D01*
X106514285Y-139252438D02*
X106561904Y-139300057D01*
X106561904Y-139300057D02*
X106609523Y-139395295D01*
X106609523Y-139395295D02*
X106609523Y-139490533D01*
X106609523Y-139490533D02*
X106561904Y-139633390D01*
X106561904Y-139633390D02*
X105990476Y-140204819D01*
X105990476Y-140204819D02*
X106609523Y-140204819D01*
X140566666Y-102854819D02*
X140566666Y-103569104D01*
X140566666Y-103569104D02*
X140519047Y-103711961D01*
X140519047Y-103711961D02*
X140423809Y-103807200D01*
X140423809Y-103807200D02*
X140280952Y-103854819D01*
X140280952Y-103854819D02*
X140185714Y-103854819D01*
X140995238Y-102950057D02*
X141042857Y-102902438D01*
X141042857Y-102902438D02*
X141138095Y-102854819D01*
X141138095Y-102854819D02*
X141376190Y-102854819D01*
X141376190Y-102854819D02*
X141471428Y-102902438D01*
X141471428Y-102902438D02*
X141519047Y-102950057D01*
X141519047Y-102950057D02*
X141566666Y-103045295D01*
X141566666Y-103045295D02*
X141566666Y-103140533D01*
X141566666Y-103140533D02*
X141519047Y-103283390D01*
X141519047Y-103283390D02*
X140947619Y-103854819D01*
X140947619Y-103854819D02*
X141566666Y-103854819D01*
X118961905Y-149054819D02*
X118961905Y-148054819D01*
X118961905Y-148054819D02*
X119200000Y-148054819D01*
X119200000Y-148054819D02*
X119342857Y-148102438D01*
X119342857Y-148102438D02*
X119438095Y-148197676D01*
X119438095Y-148197676D02*
X119485714Y-148292914D01*
X119485714Y-148292914D02*
X119533333Y-148483390D01*
X119533333Y-148483390D02*
X119533333Y-148626247D01*
X119533333Y-148626247D02*
X119485714Y-148816723D01*
X119485714Y-148816723D02*
X119438095Y-148911961D01*
X119438095Y-148911961D02*
X119342857Y-149007200D01*
X119342857Y-149007200D02*
X119200000Y-149054819D01*
X119200000Y-149054819D02*
X118961905Y-149054819D01*
X120485714Y-149054819D02*
X119914286Y-149054819D01*
X120200000Y-149054819D02*
X120200000Y-148054819D01*
X120200000Y-148054819D02*
X120104762Y-148197676D01*
X120104762Y-148197676D02*
X120009524Y-148292914D01*
X120009524Y-148292914D02*
X119914286Y-148340533D01*
X116238095Y-136054819D02*
X116238095Y-135054819D01*
X116809523Y-136054819D02*
X116380952Y-135483390D01*
X116809523Y-135054819D02*
X116238095Y-135626247D01*
X105023333Y-101909580D02*
X104975714Y-101957200D01*
X104975714Y-101957200D02*
X104832857Y-102004819D01*
X104832857Y-102004819D02*
X104737619Y-102004819D01*
X104737619Y-102004819D02*
X104594762Y-101957200D01*
X104594762Y-101957200D02*
X104499524Y-101861961D01*
X104499524Y-101861961D02*
X104451905Y-101766723D01*
X104451905Y-101766723D02*
X104404286Y-101576247D01*
X104404286Y-101576247D02*
X104404286Y-101433390D01*
X104404286Y-101433390D02*
X104451905Y-101242914D01*
X104451905Y-101242914D02*
X104499524Y-101147676D01*
X104499524Y-101147676D02*
X104594762Y-101052438D01*
X104594762Y-101052438D02*
X104737619Y-101004819D01*
X104737619Y-101004819D02*
X104832857Y-101004819D01*
X104832857Y-101004819D02*
X104975714Y-101052438D01*
X104975714Y-101052438D02*
X105023333Y-101100057D01*
X105499524Y-102004819D02*
X105690000Y-102004819D01*
X105690000Y-102004819D02*
X105785238Y-101957200D01*
X105785238Y-101957200D02*
X105832857Y-101909580D01*
X105832857Y-101909580D02*
X105928095Y-101766723D01*
X105928095Y-101766723D02*
X105975714Y-101576247D01*
X105975714Y-101576247D02*
X105975714Y-101195295D01*
X105975714Y-101195295D02*
X105928095Y-101100057D01*
X105928095Y-101100057D02*
X105880476Y-101052438D01*
X105880476Y-101052438D02*
X105785238Y-101004819D01*
X105785238Y-101004819D02*
X105594762Y-101004819D01*
X105594762Y-101004819D02*
X105499524Y-101052438D01*
X105499524Y-101052438D02*
X105451905Y-101100057D01*
X105451905Y-101100057D02*
X105404286Y-101195295D01*
X105404286Y-101195295D02*
X105404286Y-101433390D01*
X105404286Y-101433390D02*
X105451905Y-101528628D01*
X105451905Y-101528628D02*
X105499524Y-101576247D01*
X105499524Y-101576247D02*
X105594762Y-101623866D01*
X105594762Y-101623866D02*
X105785238Y-101623866D01*
X105785238Y-101623866D02*
X105880476Y-101576247D01*
X105880476Y-101576247D02*
X105928095Y-101528628D01*
X105928095Y-101528628D02*
X105975714Y-101433390D01*
X113270833Y-78029580D02*
X113223214Y-78077200D01*
X113223214Y-78077200D02*
X113080357Y-78124819D01*
X113080357Y-78124819D02*
X112985119Y-78124819D01*
X112985119Y-78124819D02*
X112842262Y-78077200D01*
X112842262Y-78077200D02*
X112747024Y-77981961D01*
X112747024Y-77981961D02*
X112699405Y-77886723D01*
X112699405Y-77886723D02*
X112651786Y-77696247D01*
X112651786Y-77696247D02*
X112651786Y-77553390D01*
X112651786Y-77553390D02*
X112699405Y-77362914D01*
X112699405Y-77362914D02*
X112747024Y-77267676D01*
X112747024Y-77267676D02*
X112842262Y-77172438D01*
X112842262Y-77172438D02*
X112985119Y-77124819D01*
X112985119Y-77124819D02*
X113080357Y-77124819D01*
X113080357Y-77124819D02*
X113223214Y-77172438D01*
X113223214Y-77172438D02*
X113270833Y-77220057D01*
X113842262Y-77553390D02*
X113747024Y-77505771D01*
X113747024Y-77505771D02*
X113699405Y-77458152D01*
X113699405Y-77458152D02*
X113651786Y-77362914D01*
X113651786Y-77362914D02*
X113651786Y-77315295D01*
X113651786Y-77315295D02*
X113699405Y-77220057D01*
X113699405Y-77220057D02*
X113747024Y-77172438D01*
X113747024Y-77172438D02*
X113842262Y-77124819D01*
X113842262Y-77124819D02*
X114032738Y-77124819D01*
X114032738Y-77124819D02*
X114127976Y-77172438D01*
X114127976Y-77172438D02*
X114175595Y-77220057D01*
X114175595Y-77220057D02*
X114223214Y-77315295D01*
X114223214Y-77315295D02*
X114223214Y-77362914D01*
X114223214Y-77362914D02*
X114175595Y-77458152D01*
X114175595Y-77458152D02*
X114127976Y-77505771D01*
X114127976Y-77505771D02*
X114032738Y-77553390D01*
X114032738Y-77553390D02*
X113842262Y-77553390D01*
X113842262Y-77553390D02*
X113747024Y-77601009D01*
X113747024Y-77601009D02*
X113699405Y-77648628D01*
X113699405Y-77648628D02*
X113651786Y-77743866D01*
X113651786Y-77743866D02*
X113651786Y-77934342D01*
X113651786Y-77934342D02*
X113699405Y-78029580D01*
X113699405Y-78029580D02*
X113747024Y-78077200D01*
X113747024Y-78077200D02*
X113842262Y-78124819D01*
X113842262Y-78124819D02*
X114032738Y-78124819D01*
X114032738Y-78124819D02*
X114127976Y-78077200D01*
X114127976Y-78077200D02*
X114175595Y-78029580D01*
X114175595Y-78029580D02*
X114223214Y-77934342D01*
X114223214Y-77934342D02*
X114223214Y-77743866D01*
X114223214Y-77743866D02*
X114175595Y-77648628D01*
X114175595Y-77648628D02*
X114127976Y-77601009D01*
X114127976Y-77601009D02*
X114032738Y-77553390D01*
X121533333Y-133459580D02*
X121485714Y-133507200D01*
X121485714Y-133507200D02*
X121342857Y-133554819D01*
X121342857Y-133554819D02*
X121247619Y-133554819D01*
X121247619Y-133554819D02*
X121104762Y-133507200D01*
X121104762Y-133507200D02*
X121009524Y-133411961D01*
X121009524Y-133411961D02*
X120961905Y-133316723D01*
X120961905Y-133316723D02*
X120914286Y-133126247D01*
X120914286Y-133126247D02*
X120914286Y-132983390D01*
X120914286Y-132983390D02*
X120961905Y-132792914D01*
X120961905Y-132792914D02*
X121009524Y-132697676D01*
X121009524Y-132697676D02*
X121104762Y-132602438D01*
X121104762Y-132602438D02*
X121247619Y-132554819D01*
X121247619Y-132554819D02*
X121342857Y-132554819D01*
X121342857Y-132554819D02*
X121485714Y-132602438D01*
X121485714Y-132602438D02*
X121533333Y-132650057D01*
X121914286Y-132650057D02*
X121961905Y-132602438D01*
X121961905Y-132602438D02*
X122057143Y-132554819D01*
X122057143Y-132554819D02*
X122295238Y-132554819D01*
X122295238Y-132554819D02*
X122390476Y-132602438D01*
X122390476Y-132602438D02*
X122438095Y-132650057D01*
X122438095Y-132650057D02*
X122485714Y-132745295D01*
X122485714Y-132745295D02*
X122485714Y-132840533D01*
X122485714Y-132840533D02*
X122438095Y-132983390D01*
X122438095Y-132983390D02*
X121866667Y-133554819D01*
X121866667Y-133554819D02*
X122485714Y-133554819D01*
X140766666Y-95254819D02*
X140766666Y-95969104D01*
X140766666Y-95969104D02*
X140719047Y-96111961D01*
X140719047Y-96111961D02*
X140623809Y-96207200D01*
X140623809Y-96207200D02*
X140480952Y-96254819D01*
X140480952Y-96254819D02*
X140385714Y-96254819D01*
X141671428Y-95588152D02*
X141671428Y-96254819D01*
X141433333Y-95207200D02*
X141195238Y-95921485D01*
X141195238Y-95921485D02*
X141814285Y-95921485D01*
X127533333Y-114904819D02*
X127200000Y-114428628D01*
X126961905Y-114904819D02*
X126961905Y-113904819D01*
X126961905Y-113904819D02*
X127342857Y-113904819D01*
X127342857Y-113904819D02*
X127438095Y-113952438D01*
X127438095Y-113952438D02*
X127485714Y-114000057D01*
X127485714Y-114000057D02*
X127533333Y-114095295D01*
X127533333Y-114095295D02*
X127533333Y-114238152D01*
X127533333Y-114238152D02*
X127485714Y-114333390D01*
X127485714Y-114333390D02*
X127438095Y-114381009D01*
X127438095Y-114381009D02*
X127342857Y-114428628D01*
X127342857Y-114428628D02*
X126961905Y-114428628D01*
X127866667Y-113904819D02*
X128533333Y-113904819D01*
X128533333Y-113904819D02*
X128104762Y-114904819D01*
X128723333Y-100992080D02*
X128675714Y-101039700D01*
X128675714Y-101039700D02*
X128532857Y-101087319D01*
X128532857Y-101087319D02*
X128437619Y-101087319D01*
X128437619Y-101087319D02*
X128294762Y-101039700D01*
X128294762Y-101039700D02*
X128199524Y-100944461D01*
X128199524Y-100944461D02*
X128151905Y-100849223D01*
X128151905Y-100849223D02*
X128104286Y-100658747D01*
X128104286Y-100658747D02*
X128104286Y-100515890D01*
X128104286Y-100515890D02*
X128151905Y-100325414D01*
X128151905Y-100325414D02*
X128199524Y-100230176D01*
X128199524Y-100230176D02*
X128294762Y-100134938D01*
X128294762Y-100134938D02*
X128437619Y-100087319D01*
X128437619Y-100087319D02*
X128532857Y-100087319D01*
X128532857Y-100087319D02*
X128675714Y-100134938D01*
X128675714Y-100134938D02*
X128723333Y-100182557D01*
X129056667Y-100087319D02*
X129723333Y-100087319D01*
X129723333Y-100087319D02*
X129294762Y-101087319D01*
X140566666Y-106254819D02*
X140566666Y-106969104D01*
X140566666Y-106969104D02*
X140519047Y-107111961D01*
X140519047Y-107111961D02*
X140423809Y-107207200D01*
X140423809Y-107207200D02*
X140280952Y-107254819D01*
X140280952Y-107254819D02*
X140185714Y-107254819D01*
X141566666Y-107254819D02*
X140995238Y-107254819D01*
X141280952Y-107254819D02*
X141280952Y-106254819D01*
X141280952Y-106254819D02*
X141185714Y-106397676D01*
X141185714Y-106397676D02*
X141090476Y-106492914D01*
X141090476Y-106492914D02*
X140995238Y-106540533D01*
X105233333Y-129054819D02*
X104900000Y-128578628D01*
X104661905Y-129054819D02*
X104661905Y-128054819D01*
X104661905Y-128054819D02*
X105042857Y-128054819D01*
X105042857Y-128054819D02*
X105138095Y-128102438D01*
X105138095Y-128102438D02*
X105185714Y-128150057D01*
X105185714Y-128150057D02*
X105233333Y-128245295D01*
X105233333Y-128245295D02*
X105233333Y-128388152D01*
X105233333Y-128388152D02*
X105185714Y-128483390D01*
X105185714Y-128483390D02*
X105138095Y-128531009D01*
X105138095Y-128531009D02*
X105042857Y-128578628D01*
X105042857Y-128578628D02*
X104661905Y-128578628D01*
X106138095Y-128054819D02*
X105661905Y-128054819D01*
X105661905Y-128054819D02*
X105614286Y-128531009D01*
X105614286Y-128531009D02*
X105661905Y-128483390D01*
X105661905Y-128483390D02*
X105757143Y-128435771D01*
X105757143Y-128435771D02*
X105995238Y-128435771D01*
X105995238Y-128435771D02*
X106090476Y-128483390D01*
X106090476Y-128483390D02*
X106138095Y-128531009D01*
X106138095Y-128531009D02*
X106185714Y-128626247D01*
X106185714Y-128626247D02*
X106185714Y-128864342D01*
X106185714Y-128864342D02*
X106138095Y-128959580D01*
X106138095Y-128959580D02*
X106090476Y-129007200D01*
X106090476Y-129007200D02*
X105995238Y-129054819D01*
X105995238Y-129054819D02*
X105757143Y-129054819D01*
X105757143Y-129054819D02*
X105661905Y-129007200D01*
X105661905Y-129007200D02*
X105614286Y-128959580D01*
X124738095Y-139154819D02*
X125309523Y-139154819D01*
X125023809Y-140154819D02*
X125023809Y-139154819D01*
X125642857Y-140154819D02*
X125642857Y-139154819D01*
X125642857Y-139154819D02*
X126023809Y-139154819D01*
X126023809Y-139154819D02*
X126119047Y-139202438D01*
X126119047Y-139202438D02*
X126166666Y-139250057D01*
X126166666Y-139250057D02*
X126214285Y-139345295D01*
X126214285Y-139345295D02*
X126214285Y-139488152D01*
X126214285Y-139488152D02*
X126166666Y-139583390D01*
X126166666Y-139583390D02*
X126119047Y-139631009D01*
X126119047Y-139631009D02*
X126023809Y-139678628D01*
X126023809Y-139678628D02*
X125642857Y-139678628D01*
X127166666Y-140154819D02*
X126595238Y-140154819D01*
X126880952Y-140154819D02*
X126880952Y-139154819D01*
X126880952Y-139154819D02*
X126785714Y-139297676D01*
X126785714Y-139297676D02*
X126690476Y-139392914D01*
X126690476Y-139392914D02*
X126595238Y-139440533D01*
X133533333Y-133714467D02*
X133485714Y-133762087D01*
X133485714Y-133762087D02*
X133342857Y-133809706D01*
X133342857Y-133809706D02*
X133247619Y-133809706D01*
X133247619Y-133809706D02*
X133104762Y-133762087D01*
X133104762Y-133762087D02*
X133009524Y-133666848D01*
X133009524Y-133666848D02*
X132961905Y-133571610D01*
X132961905Y-133571610D02*
X132914286Y-133381134D01*
X132914286Y-133381134D02*
X132914286Y-133238277D01*
X132914286Y-133238277D02*
X132961905Y-133047801D01*
X132961905Y-133047801D02*
X133009524Y-132952563D01*
X133009524Y-132952563D02*
X133104762Y-132857325D01*
X133104762Y-132857325D02*
X133247619Y-132809706D01*
X133247619Y-132809706D02*
X133342857Y-132809706D01*
X133342857Y-132809706D02*
X133485714Y-132857325D01*
X133485714Y-132857325D02*
X133533333Y-132904944D01*
X134438095Y-132809706D02*
X133961905Y-132809706D01*
X133961905Y-132809706D02*
X133914286Y-133285896D01*
X133914286Y-133285896D02*
X133961905Y-133238277D01*
X133961905Y-133238277D02*
X134057143Y-133190658D01*
X134057143Y-133190658D02*
X134295238Y-133190658D01*
X134295238Y-133190658D02*
X134390476Y-133238277D01*
X134390476Y-133238277D02*
X134438095Y-133285896D01*
X134438095Y-133285896D02*
X134485714Y-133381134D01*
X134485714Y-133381134D02*
X134485714Y-133619229D01*
X134485714Y-133619229D02*
X134438095Y-133714467D01*
X134438095Y-133714467D02*
X134390476Y-133762087D01*
X134390476Y-133762087D02*
X134295238Y-133809706D01*
X134295238Y-133809706D02*
X134057143Y-133809706D01*
X134057143Y-133809706D02*
X133961905Y-133762087D01*
X133961905Y-133762087D02*
X133914286Y-133714467D01*
X139438095Y-142454819D02*
X139438095Y-141454819D01*
X139438095Y-141931009D02*
X140009523Y-141931009D01*
X140009523Y-142454819D02*
X140009523Y-141454819D01*
X141009523Y-142454819D02*
X140438095Y-142454819D01*
X140723809Y-142454819D02*
X140723809Y-141454819D01*
X140723809Y-141454819D02*
X140628571Y-141597676D01*
X140628571Y-141597676D02*
X140533333Y-141692914D01*
X140533333Y-141692914D02*
X140438095Y-141740533D01*
X132290476Y-141652439D02*
X132290476Y-142366724D01*
X132290476Y-142366724D02*
X132242857Y-142509581D01*
X132242857Y-142509581D02*
X132147619Y-142604820D01*
X132147619Y-142604820D02*
X132004762Y-142652439D01*
X132004762Y-142652439D02*
X131909524Y-142652439D01*
X133290476Y-142652439D02*
X132719048Y-142652439D01*
X133004762Y-142652439D02*
X133004762Y-141652439D01*
X133004762Y-141652439D02*
X132909524Y-141795296D01*
X132909524Y-141795296D02*
X132814286Y-141890534D01*
X132814286Y-141890534D02*
X132719048Y-141938153D01*
X133909524Y-141652439D02*
X134004762Y-141652439D01*
X134004762Y-141652439D02*
X134100000Y-141700058D01*
X134100000Y-141700058D02*
X134147619Y-141747677D01*
X134147619Y-141747677D02*
X134195238Y-141842915D01*
X134195238Y-141842915D02*
X134242857Y-142033391D01*
X134242857Y-142033391D02*
X134242857Y-142271486D01*
X134242857Y-142271486D02*
X134195238Y-142461962D01*
X134195238Y-142461962D02*
X134147619Y-142557200D01*
X134147619Y-142557200D02*
X134100000Y-142604820D01*
X134100000Y-142604820D02*
X134004762Y-142652439D01*
X134004762Y-142652439D02*
X133909524Y-142652439D01*
X133909524Y-142652439D02*
X133814286Y-142604820D01*
X133814286Y-142604820D02*
X133766667Y-142557200D01*
X133766667Y-142557200D02*
X133719048Y-142461962D01*
X133719048Y-142461962D02*
X133671429Y-142271486D01*
X133671429Y-142271486D02*
X133671429Y-142033391D01*
X133671429Y-142033391D02*
X133719048Y-141842915D01*
X133719048Y-141842915D02*
X133766667Y-141747677D01*
X133766667Y-141747677D02*
X133814286Y-141700058D01*
X133814286Y-141700058D02*
X133909524Y-141652439D01*
X132061905Y-113254819D02*
X132061905Y-112254819D01*
X132061905Y-112254819D02*
X132300000Y-112254819D01*
X132300000Y-112254819D02*
X132442857Y-112302438D01*
X132442857Y-112302438D02*
X132538095Y-112397676D01*
X132538095Y-112397676D02*
X132585714Y-112492914D01*
X132585714Y-112492914D02*
X132633333Y-112683390D01*
X132633333Y-112683390D02*
X132633333Y-112826247D01*
X132633333Y-112826247D02*
X132585714Y-113016723D01*
X132585714Y-113016723D02*
X132538095Y-113111961D01*
X132538095Y-113111961D02*
X132442857Y-113207200D01*
X132442857Y-113207200D02*
X132300000Y-113254819D01*
X132300000Y-113254819D02*
X132061905Y-113254819D01*
X133538095Y-112254819D02*
X133061905Y-112254819D01*
X133061905Y-112254819D02*
X133014286Y-112731009D01*
X133014286Y-112731009D02*
X133061905Y-112683390D01*
X133061905Y-112683390D02*
X133157143Y-112635771D01*
X133157143Y-112635771D02*
X133395238Y-112635771D01*
X133395238Y-112635771D02*
X133490476Y-112683390D01*
X133490476Y-112683390D02*
X133538095Y-112731009D01*
X133538095Y-112731009D02*
X133585714Y-112826247D01*
X133585714Y-112826247D02*
X133585714Y-113064342D01*
X133585714Y-113064342D02*
X133538095Y-113159580D01*
X133538095Y-113159580D02*
X133490476Y-113207200D01*
X133490476Y-113207200D02*
X133395238Y-113254819D01*
X133395238Y-113254819D02*
X133157143Y-113254819D01*
X133157143Y-113254819D02*
X133061905Y-113207200D01*
X133061905Y-113207200D02*
X133014286Y-113159580D01*
X112904761Y-142828057D02*
X112809523Y-142780438D01*
X112809523Y-142780438D02*
X112714285Y-142685200D01*
X112714285Y-142685200D02*
X112571428Y-142542342D01*
X112571428Y-142542342D02*
X112476190Y-142494723D01*
X112476190Y-142494723D02*
X112380952Y-142494723D01*
X112428571Y-142732819D02*
X112333333Y-142685200D01*
X112333333Y-142685200D02*
X112238095Y-142589961D01*
X112238095Y-142589961D02*
X112190476Y-142399485D01*
X112190476Y-142399485D02*
X112190476Y-142066152D01*
X112190476Y-142066152D02*
X112238095Y-141875676D01*
X112238095Y-141875676D02*
X112333333Y-141780438D01*
X112333333Y-141780438D02*
X112428571Y-141732819D01*
X112428571Y-141732819D02*
X112619047Y-141732819D01*
X112619047Y-141732819D02*
X112714285Y-141780438D01*
X112714285Y-141780438D02*
X112809523Y-141875676D01*
X112809523Y-141875676D02*
X112857142Y-142066152D01*
X112857142Y-142066152D02*
X112857142Y-142399485D01*
X112857142Y-142399485D02*
X112809523Y-142589961D01*
X112809523Y-142589961D02*
X112714285Y-142685200D01*
X112714285Y-142685200D02*
X112619047Y-142732819D01*
X112619047Y-142732819D02*
X112428571Y-142732819D01*
X113809523Y-142732819D02*
X113238095Y-142732819D01*
X113523809Y-142732819D02*
X113523809Y-141732819D01*
X113523809Y-141732819D02*
X113428571Y-141875676D01*
X113428571Y-141875676D02*
X113333333Y-141970914D01*
X113333333Y-141970914D02*
X113238095Y-142018533D01*
D12*
%TO.C,J8*%
X102920000Y-90940000D02*
X102920000Y-83210000D01*
X105680000Y-83210000D02*
X102920000Y-83210000D01*
X105680000Y-90940000D02*
X102920000Y-90940000D01*
X105680000Y-90940000D02*
X105680000Y-83210000D01*
X105680000Y-92210000D02*
X105680000Y-93590000D01*
X105680000Y-93590000D02*
X104300000Y-93590000D01*
%TO.C,R10*%
X127902936Y-105275000D02*
X128357064Y-105275000D01*
X127902936Y-106745000D02*
X128357064Y-106745000D01*
%TO.C,D4*%
X105490000Y-115595000D02*
X105490000Y-118685000D01*
X105490000Y-115595170D02*
G75*
G02*
X111040000Y-117140000I2560000J-1544830D01*
G01*
X111040000Y-117140000D02*
G75*
G02*
X105490000Y-118684830I-2990000J0D01*
G01*
X110550000Y-117140000D02*
G75*
G02*
X105550000Y-117140000I-2500000J0D01*
G01*
X105550000Y-117140000D02*
G75*
G02*
X110550000Y-117140000I2500000J0D01*
G01*
%TO.C,R3*%
X113245000Y-83502936D02*
X113245000Y-83957064D01*
X114715000Y-83502936D02*
X114715000Y-83957064D01*
%TO.C,C10*%
X104478748Y-107890000D02*
X105901252Y-107890000D01*
X104478748Y-109710000D02*
X105901252Y-109710000D01*
%TO.C,TP2*%
X130700000Y-137300000D02*
G75*
G02*
X128300000Y-137300000I-1200000J0D01*
G01*
X128300000Y-137300000D02*
G75*
G02*
X130700000Y-137300000I1200000J0D01*
G01*
%TO.C,R1*%
X133165000Y-123527064D02*
X133165000Y-123072936D01*
X134635000Y-123527064D02*
X134635000Y-123072936D01*
%TO.C,J9*%
X126550000Y-76070000D02*
X142050000Y-76070000D01*
X126550000Y-85190000D02*
X126550000Y-76070000D01*
X127850000Y-77380000D02*
X132250000Y-77380000D01*
X127850000Y-83880000D02*
X127850000Y-77380000D01*
X132250000Y-77380000D02*
X132250000Y-76070000D01*
X136340000Y-74680000D02*
X136840000Y-75680000D01*
X136350000Y-76070000D02*
X136350000Y-77380000D01*
X136350000Y-77380000D02*
X140750000Y-77380000D01*
X136840000Y-75680000D02*
X137340000Y-74680000D01*
X137340000Y-74680000D02*
X136340000Y-74680000D01*
X140750000Y-77380000D02*
X140750000Y-83880000D01*
X140750000Y-83880000D02*
X127850000Y-83880000D01*
X142050000Y-76070000D02*
X142050000Y-85190000D01*
X142050000Y-85190000D02*
X126550000Y-85190000D01*
%TO.C,C6*%
X113860000Y-99031248D02*
X113860000Y-100453752D01*
X115680000Y-99031248D02*
X115680000Y-100453752D01*
%TO.C,X1*%
X107850000Y-99500000D02*
X107850000Y-113300000D01*
X107850000Y-113300000D02*
X113250000Y-113300000D01*
X113250000Y-99500000D02*
X107850000Y-99500000D01*
X113250000Y-113300000D02*
X113250000Y-99500000D01*
%TO.C,R8*%
X127472936Y-107665000D02*
X127927064Y-107665000D01*
X127472936Y-109135000D02*
X127927064Y-109135000D01*
%TO.C,D2*%
X119430000Y-142500000D02*
X122370000Y-142500000D01*
X119430000Y-142620000D02*
X122370000Y-142620000D01*
X119430000Y-142740000D02*
X122370000Y-142740000D01*
X120900000Y-137060000D02*
X120900000Y-138080000D01*
X120900000Y-144540000D02*
X120900000Y-143520000D01*
X119430000Y-143520000D02*
X122370000Y-143520000D01*
X122370000Y-138080000D01*
X119430000Y-138080000D01*
X119430000Y-143520000D01*
%TO.C,C1*%
X135370000Y-137810000D02*
X141830000Y-137810000D01*
X135370000Y-137850000D02*
X141830000Y-137850000D01*
X135371000Y-137770000D02*
X141829000Y-137770000D01*
X135372000Y-137730000D02*
X141828000Y-137730000D01*
X135374000Y-137690000D02*
X141826000Y-137690000D01*
X135376000Y-137650000D02*
X141824000Y-137650000D01*
X135379000Y-137610000D02*
X137560000Y-137610000D01*
X135382000Y-137570000D02*
X137560000Y-137570000D01*
X135386000Y-137530000D02*
X137560000Y-137530000D01*
X135390000Y-137490000D02*
X137560000Y-137490000D01*
X135395000Y-137450000D02*
X137560000Y-137450000D01*
X135400000Y-137410000D02*
X137560000Y-137410000D01*
X135405000Y-137370000D02*
X137560000Y-137370000D01*
X135412000Y-137330000D02*
X137560000Y-137330000D01*
X135418000Y-137290000D02*
X137560000Y-137290000D01*
X135426000Y-137250000D02*
X137560000Y-137250000D01*
X135433000Y-137210000D02*
X137560000Y-137210000D01*
X135441000Y-137170000D02*
X137560000Y-137170000D01*
X135450000Y-137130000D02*
X137560000Y-137130000D01*
X135460000Y-137090000D02*
X137560000Y-137090000D01*
X135469000Y-137050000D02*
X137560000Y-137050000D01*
X135480000Y-137010000D02*
X137560000Y-137010000D01*
X135491000Y-136970000D02*
X137560000Y-136970000D01*
X135502000Y-136930000D02*
X137560000Y-136930000D01*
X135514000Y-136890000D02*
X137560000Y-136890000D01*
X135527000Y-136850000D02*
X137560000Y-136850000D01*
X135540000Y-136810000D02*
X137560000Y-136810000D01*
X135553000Y-136770000D02*
X137560000Y-136770000D01*
X135568000Y-136730000D02*
X137560000Y-136730000D01*
X135583000Y-136690000D02*
X137560000Y-136690000D01*
X135598000Y-136650000D02*
X137560000Y-136650000D01*
X135614000Y-136610000D02*
X137560000Y-136610000D01*
X135631000Y-136570000D02*
X137560000Y-136570000D01*
X135648000Y-136530000D02*
X137560000Y-136530000D01*
X135666000Y-136490000D02*
X137560000Y-136490000D01*
X135685000Y-136450000D02*
X137560000Y-136450000D01*
X135704000Y-136410000D02*
X137560000Y-136410000D01*
X135724000Y-136370000D02*
X137560000Y-136370000D01*
X135745000Y-136330000D02*
X137560000Y-136330000D01*
X135766000Y-136290000D02*
X137560000Y-136290000D01*
X135788000Y-136250000D02*
X137560000Y-136250000D01*
X135811000Y-136210000D02*
X137560000Y-136210000D01*
X135835000Y-136170000D02*
X137560000Y-136170000D01*
X135859000Y-136130000D02*
X137560000Y-136130000D01*
X135884000Y-136090000D02*
X137560000Y-136090000D01*
X135910000Y-136050000D02*
X137560000Y-136050000D01*
X135937000Y-136010000D02*
X137560000Y-136010000D01*
X135964000Y-135970000D02*
X137560000Y-135970000D01*
X135993000Y-135930000D02*
X137560000Y-135930000D01*
X136023000Y-135890000D02*
X137560000Y-135890000D01*
X136053000Y-135850000D02*
X137560000Y-135850000D01*
X136084000Y-135810000D02*
X137560000Y-135810000D01*
X136117000Y-135770000D02*
X137560000Y-135770000D01*
X136150000Y-135730000D02*
X137560000Y-135730000D01*
X136185000Y-135690000D02*
X137560000Y-135690000D01*
X136221000Y-135650000D02*
X137560000Y-135650000D01*
X136258000Y-135610000D02*
X137560000Y-135610000D01*
X136296000Y-135570000D02*
X137560000Y-135570000D01*
X136336000Y-135530000D02*
X140864000Y-135530000D01*
X136377000Y-135490000D02*
X140823000Y-135490000D01*
X136419000Y-135450000D02*
X140781000Y-135450000D01*
X136446000Y-141035241D02*
X137076000Y-141035241D01*
X136463000Y-135410000D02*
X140737000Y-135410000D01*
X136509000Y-135370000D02*
X140691000Y-135370000D01*
X136556000Y-135330000D02*
X140644000Y-135330000D01*
X136605000Y-135290000D02*
X140595000Y-135290000D01*
X136657000Y-135250000D02*
X140543000Y-135250000D01*
X136710000Y-135210000D02*
X140490000Y-135210000D01*
X136761000Y-141350241D02*
X136761000Y-140720241D01*
X136766000Y-135170000D02*
X140434000Y-135170000D01*
X136825000Y-135130000D02*
X140375000Y-135130000D01*
X136886000Y-135090000D02*
X140314000Y-135090000D01*
X136951000Y-135050000D02*
X140249000Y-135050000D01*
X137019000Y-135010000D02*
X140181000Y-135010000D01*
X137091000Y-134970000D02*
X140109000Y-134970000D01*
X137168000Y-134930000D02*
X140032000Y-134930000D01*
X137250000Y-134890000D02*
X139950000Y-134890000D01*
X137339000Y-134850000D02*
X139861000Y-134850000D01*
X137435000Y-134810000D02*
X139765000Y-134810000D01*
X137542000Y-134770000D02*
X139658000Y-134770000D01*
X137661000Y-134730000D02*
X139539000Y-134730000D01*
X137799000Y-134690000D02*
X139401000Y-134690000D01*
X137967000Y-134650000D02*
X139233000Y-134650000D01*
X138198000Y-134610000D02*
X139002000Y-134610000D01*
X139640000Y-135570000D02*
X140904000Y-135570000D01*
X139640000Y-135610000D02*
X140942000Y-135610000D01*
X139640000Y-135650000D02*
X140979000Y-135650000D01*
X139640000Y-135690000D02*
X141015000Y-135690000D01*
X139640000Y-135730000D02*
X141050000Y-135730000D01*
X139640000Y-135770000D02*
X141083000Y-135770000D01*
X139640000Y-135810000D02*
X141116000Y-135810000D01*
X139640000Y-135850000D02*
X141147000Y-135850000D01*
X139640000Y-135890000D02*
X141177000Y-135890000D01*
X139640000Y-135930000D02*
X141207000Y-135930000D01*
X139640000Y-135970000D02*
X141236000Y-135970000D01*
X139640000Y-136010000D02*
X141263000Y-136010000D01*
X139640000Y-136050000D02*
X141290000Y-136050000D01*
X139640000Y-136090000D02*
X141316000Y-136090000D01*
X139640000Y-136130000D02*
X141341000Y-136130000D01*
X139640000Y-136170000D02*
X141365000Y-136170000D01*
X139640000Y-136210000D02*
X141389000Y-136210000D01*
X139640000Y-136250000D02*
X141412000Y-136250000D01*
X139640000Y-136290000D02*
X141434000Y-136290000D01*
X139640000Y-136330000D02*
X141455000Y-136330000D01*
X139640000Y-136370000D02*
X141476000Y-136370000D01*
X139640000Y-136410000D02*
X141496000Y-136410000D01*
X139640000Y-136450000D02*
X141515000Y-136450000D01*
X139640000Y-136490000D02*
X141534000Y-136490000D01*
X139640000Y-136530000D02*
X141552000Y-136530000D01*
X139640000Y-136570000D02*
X141569000Y-136570000D01*
X139640000Y-136610000D02*
X141586000Y-136610000D01*
X139640000Y-136650000D02*
X141602000Y-136650000D01*
X139640000Y-136690000D02*
X141617000Y-136690000D01*
X139640000Y-136730000D02*
X141632000Y-136730000D01*
X139640000Y-136770000D02*
X141647000Y-136770000D01*
X139640000Y-136810000D02*
X141660000Y-136810000D01*
X139640000Y-136850000D02*
X141673000Y-136850000D01*
X139640000Y-136890000D02*
X141686000Y-136890000D01*
X139640000Y-136930000D02*
X141698000Y-136930000D01*
X139640000Y-136970000D02*
X141709000Y-136970000D01*
X139640000Y-137010000D02*
X141720000Y-137010000D01*
X139640000Y-137050000D02*
X141731000Y-137050000D01*
X139640000Y-137090000D02*
X141740000Y-137090000D01*
X139640000Y-137130000D02*
X141750000Y-137130000D01*
X139640000Y-137170000D02*
X141759000Y-137170000D01*
X139640000Y-137210000D02*
X141767000Y-137210000D01*
X139640000Y-137250000D02*
X141774000Y-137250000D01*
X139640000Y-137290000D02*
X141782000Y-137290000D01*
X139640000Y-137330000D02*
X141788000Y-137330000D01*
X139640000Y-137370000D02*
X141795000Y-137370000D01*
X139640000Y-137410000D02*
X141800000Y-137410000D01*
X139640000Y-137450000D02*
X141805000Y-137450000D01*
X139640000Y-137490000D02*
X141810000Y-137490000D01*
X139640000Y-137530000D02*
X141814000Y-137530000D01*
X139640000Y-137570000D02*
X141818000Y-137570000D01*
X139640000Y-137610000D02*
X141821000Y-137610000D01*
X141870000Y-137850000D02*
G75*
G02*
X135330000Y-137850000I-3270000J0D01*
G01*
X135330000Y-137850000D02*
G75*
G02*
X141870000Y-137850000I3270000J0D01*
G01*
%TO.C,J6*%
X123720000Y-145930000D02*
X123720000Y-143280000D01*
X126480000Y-143280000D02*
X123720000Y-143280000D01*
X126480000Y-145930000D02*
X123720000Y-145930000D01*
X126480000Y-145930000D02*
X126480000Y-143280000D01*
X126480000Y-147200000D02*
X126480000Y-148580000D01*
X126480000Y-148580000D02*
X125100000Y-148580000D01*
%TO.C,TP3*%
X134400000Y-137300000D02*
G75*
G02*
X132000000Y-137300000I-1200000J0D01*
G01*
X132000000Y-137300000D02*
G75*
G02*
X134400000Y-137300000I1200000J0D01*
G01*
%TO.C,R4*%
X118572936Y-122565000D02*
X119027064Y-122565000D01*
X118572936Y-124035000D02*
X119027064Y-124035000D01*
D10*
%TO.C,U2*%
X117300000Y-81240000D02*
X117300000Y-82040000D01*
X117300000Y-82040000D02*
X116500000Y-82040000D01*
X117400000Y-117330000D02*
X117400000Y-117730000D01*
X117400000Y-117730000D02*
X117800000Y-117730000D01*
X118300000Y-80240000D02*
X117300000Y-81240000D01*
X118800000Y-80240000D02*
X118300000Y-80240000D01*
X124380000Y-80240000D02*
X123980000Y-80240000D01*
X124380000Y-80640000D02*
X124380000Y-80240000D01*
X124400000Y-117330000D02*
X124400000Y-117730000D01*
X124400000Y-117730000D02*
X123900000Y-117730000D01*
D12*
%TO.C,Q2*%
X111100000Y-133600000D02*
X115100000Y-133600000D01*
X111100000Y-137400000D02*
X111100000Y-133600000D01*
X115100000Y-133600000D02*
X115100000Y-137400000D01*
X115100000Y-137400000D02*
X111100000Y-137400000D01*
D10*
%TO.C,S1*%
X108100000Y-92800000D02*
X108100000Y-92300000D01*
X108100000Y-92800000D02*
X108100000Y-93300000D01*
X111200000Y-89700000D02*
X110700000Y-89700000D01*
X111200000Y-89700000D02*
X111700000Y-89700000D01*
X111200000Y-95900000D02*
X110700000Y-95900000D01*
X111200000Y-95900000D02*
X111700000Y-95900000D01*
X114300000Y-92800000D02*
X114300000Y-92300000D01*
X114300000Y-92800000D02*
X114300000Y-93300000D01*
D12*
%TO.C,J5*%
X131770000Y-93530000D02*
X131770000Y-92150000D01*
X133150000Y-93530000D02*
X131770000Y-93530000D01*
X134420000Y-90770000D02*
X139610000Y-90770000D01*
X134420000Y-93530000D02*
X134420000Y-90770000D01*
X134420000Y-93530000D02*
X139610000Y-93530000D01*
X139610000Y-93530000D02*
X139610000Y-90770000D01*
%TO.C,C4*%
X125370000Y-130888526D02*
X125370000Y-129466022D01*
X127190000Y-130888526D02*
X127190000Y-129466022D01*
%TO.C,D3*%
X140790000Y-125445000D02*
X140790000Y-122355000D01*
X135240000Y-123900000D02*
G75*
G02*
X140790000Y-122355170I2990000J0D01*
G01*
X140790000Y-125444830D02*
G75*
G02*
X135240000Y-123900000I-2560000J1544830D01*
G01*
X140730000Y-123900000D02*
G75*
G02*
X135730000Y-123900000I-2500000J0D01*
G01*
X135730000Y-123900000D02*
G75*
G02*
X140730000Y-123900000I2500000J0D01*
G01*
%TO.C,J3*%
X131760000Y-100830000D02*
X131760000Y-99450000D01*
X133140000Y-100830000D02*
X131760000Y-100830000D01*
X134410000Y-98070000D02*
X139600000Y-98070000D01*
X134410000Y-100830000D02*
X134410000Y-98070000D01*
X134410000Y-100830000D02*
X139600000Y-100830000D01*
X139600000Y-100830000D02*
X139600000Y-98070000D01*
%TO.C,R2*%
X129490000Y-87600000D02*
X130180000Y-87600000D01*
X140110000Y-87600000D02*
X139420000Y-87600000D01*
X139420000Y-89320000D02*
X130180000Y-89320000D01*
X130180000Y-85880000D01*
X139420000Y-85880000D01*
X139420000Y-89320000D01*
%TO.C,R6*%
X113727064Y-115475000D02*
X113272936Y-115475000D01*
X113727064Y-116945000D02*
X113272936Y-116945000D01*
%TO.C,C3*%
X135320000Y-129970000D02*
X136860000Y-129970000D01*
X135320000Y-130010000D02*
X136860000Y-130010000D01*
X135321000Y-129930000D02*
X136860000Y-129930000D01*
X135323000Y-129890000D02*
X136860000Y-129890000D01*
X135325000Y-129850000D02*
X136860000Y-129850000D01*
X135328000Y-129810000D02*
X136860000Y-129810000D01*
X135331000Y-129770000D02*
X136860000Y-129770000D01*
X135335000Y-129730000D02*
X136860000Y-129730000D01*
X135340000Y-129690000D02*
X136860000Y-129690000D01*
X135345000Y-129650000D02*
X136860000Y-129650000D01*
X135351000Y-129610000D02*
X136860000Y-129610000D01*
X135357000Y-129570000D02*
X136860000Y-129570000D01*
X135364000Y-129530000D02*
X136860000Y-129530000D01*
X135372000Y-129490000D02*
X136860000Y-129490000D01*
X135381000Y-129450000D02*
X136860000Y-129450000D01*
X135390000Y-129410000D02*
X136860000Y-129410000D01*
X135399000Y-129370000D02*
X136860000Y-129370000D01*
X135410000Y-129330000D02*
X136860000Y-129330000D01*
X135421000Y-129290000D02*
X136860000Y-129290000D01*
X135433000Y-129250000D02*
X136860000Y-129250000D01*
X135445000Y-129210000D02*
X136860000Y-129210000D01*
X135458000Y-129170000D02*
X136860000Y-129170000D01*
X135472000Y-129130000D02*
X136860000Y-129130000D01*
X135487000Y-129090000D02*
X136860000Y-129090000D01*
X135502000Y-129050000D02*
X136860000Y-129050000D01*
X135518000Y-129010000D02*
X136860000Y-129010000D01*
X135535000Y-128970000D02*
X136860000Y-128970000D01*
X135553000Y-128930000D02*
X136860000Y-128930000D01*
X135571000Y-128890000D02*
X136860000Y-128890000D01*
X135591000Y-128850000D02*
X136860000Y-128850000D01*
X135611000Y-128810000D02*
X136860000Y-128810000D01*
X135632000Y-128770000D02*
X136860000Y-128770000D01*
X135654000Y-128730000D02*
X136860000Y-128730000D01*
X135677000Y-128690000D02*
X136860000Y-128690000D01*
X135701000Y-128650000D02*
X136860000Y-128650000D01*
X135725000Y-128610000D02*
X136860000Y-128610000D01*
X135751000Y-128570000D02*
X136860000Y-128570000D01*
X135778000Y-128530000D02*
X136860000Y-128530000D01*
X135806000Y-128490000D02*
X136860000Y-128490000D01*
X135835000Y-128450000D02*
X136860000Y-128450000D01*
X135865000Y-128410000D02*
X136860000Y-128410000D01*
X135897000Y-128370000D02*
X136860000Y-128370000D01*
X135930000Y-128330000D02*
X136860000Y-128330000D01*
X135964000Y-128290000D02*
X136860000Y-128290000D01*
X135999000Y-128250000D02*
X136860000Y-128250000D01*
X136036000Y-128210000D02*
X136860000Y-128210000D01*
X136075000Y-128170000D02*
X136860000Y-128170000D01*
X136115000Y-128130000D02*
X136860000Y-128130000D01*
X136157000Y-128090000D02*
X136860000Y-128090000D01*
X136175000Y-132564775D02*
X136675000Y-132564775D01*
X136201000Y-128050000D02*
X136860000Y-128050000D01*
X136248000Y-128010000D02*
X136860000Y-128010000D01*
X136296000Y-127970000D02*
X139504000Y-127970000D01*
X136347000Y-127930000D02*
X139453000Y-127930000D01*
X136401000Y-127890000D02*
X139399000Y-127890000D01*
X136425000Y-132814775D02*
X136425000Y-132314775D01*
X136457000Y-127850000D02*
X139343000Y-127850000D01*
X136517000Y-127810000D02*
X139283000Y-127810000D01*
X136581000Y-127770000D02*
X139219000Y-127770000D01*
X136649000Y-127730000D02*
X139151000Y-127730000D01*
X136723000Y-127690000D02*
X139077000Y-127690000D01*
X136802000Y-127650000D02*
X138998000Y-127650000D01*
X136889000Y-127610000D02*
X138911000Y-127610000D01*
X136986000Y-127570000D02*
X138814000Y-127570000D01*
X137095000Y-127530000D02*
X138705000Y-127530000D01*
X137223000Y-127490000D02*
X138577000Y-127490000D01*
X137383000Y-127450000D02*
X138417000Y-127450000D01*
X137617000Y-127410000D02*
X138183000Y-127410000D01*
X138940000Y-128010000D02*
X139552000Y-128010000D01*
X138940000Y-128050000D02*
X139599000Y-128050000D01*
X138940000Y-128090000D02*
X139643000Y-128090000D01*
X138940000Y-128130000D02*
X139685000Y-128130000D01*
X138940000Y-128170000D02*
X139725000Y-128170000D01*
X138940000Y-128210000D02*
X139764000Y-128210000D01*
X138940000Y-128250000D02*
X139801000Y-128250000D01*
X138940000Y-128290000D02*
X139836000Y-128290000D01*
X138940000Y-128330000D02*
X139870000Y-128330000D01*
X138940000Y-128370000D02*
X139903000Y-128370000D01*
X138940000Y-128410000D02*
X139935000Y-128410000D01*
X138940000Y-128450000D02*
X139965000Y-128450000D01*
X138940000Y-128490000D02*
X139994000Y-128490000D01*
X138940000Y-128530000D02*
X140022000Y-128530000D01*
X138940000Y-128570000D02*
X140049000Y-128570000D01*
X138940000Y-128610000D02*
X140075000Y-128610000D01*
X138940000Y-128650000D02*
X140099000Y-128650000D01*
X138940000Y-128690000D02*
X140123000Y-128690000D01*
X138940000Y-128730000D02*
X140146000Y-128730000D01*
X138940000Y-128770000D02*
X140168000Y-128770000D01*
X138940000Y-128810000D02*
X140189000Y-128810000D01*
X138940000Y-128850000D02*
X140209000Y-128850000D01*
X138940000Y-128890000D02*
X140229000Y-128890000D01*
X138940000Y-128930000D02*
X140247000Y-128930000D01*
X138940000Y-128970000D02*
X140265000Y-128970000D01*
X138940000Y-129010000D02*
X140282000Y-129010000D01*
X138940000Y-129050000D02*
X140298000Y-129050000D01*
X138940000Y-129090000D02*
X140313000Y-129090000D01*
X138940000Y-129130000D02*
X140328000Y-129130000D01*
X138940000Y-129170000D02*
X140342000Y-129170000D01*
X138940000Y-129210000D02*
X140355000Y-129210000D01*
X138940000Y-129250000D02*
X140367000Y-129250000D01*
X138940000Y-129290000D02*
X140379000Y-129290000D01*
X138940000Y-129330000D02*
X140390000Y-129330000D01*
X138940000Y-129370000D02*
X140401000Y-129370000D01*
X138940000Y-129410000D02*
X140410000Y-129410000D01*
X138940000Y-129450000D02*
X140419000Y-129450000D01*
X138940000Y-129490000D02*
X140428000Y-129490000D01*
X138940000Y-129530000D02*
X140436000Y-129530000D01*
X138940000Y-129570000D02*
X140443000Y-129570000D01*
X138940000Y-129610000D02*
X140449000Y-129610000D01*
X138940000Y-129650000D02*
X140455000Y-129650000D01*
X138940000Y-129690000D02*
X140460000Y-129690000D01*
X138940000Y-129730000D02*
X140465000Y-129730000D01*
X138940000Y-129770000D02*
X140469000Y-129770000D01*
X138940000Y-129810000D02*
X140472000Y-129810000D01*
X138940000Y-129850000D02*
X140475000Y-129850000D01*
X138940000Y-129890000D02*
X140477000Y-129890000D01*
X138940000Y-129930000D02*
X140479000Y-129930000D01*
X138940000Y-129970000D02*
X140480000Y-129970000D01*
X138940000Y-130010000D02*
X140480000Y-130010000D01*
X140520000Y-130010000D02*
G75*
G02*
X135280000Y-130010000I-2620000J0D01*
G01*
X135280000Y-130010000D02*
G75*
G02*
X140520000Y-130010000I2620000J0D01*
G01*
%TO.C,J7*%
X128120000Y-143245000D02*
X129500000Y-143245000D01*
X128120000Y-144625000D02*
X128120000Y-143245000D01*
X128120000Y-145895000D02*
X128120000Y-148545000D01*
X128120000Y-145895000D02*
X130880000Y-145895000D01*
X128120000Y-148545000D02*
X130880000Y-148545000D01*
X130880000Y-145895000D02*
X130880000Y-148545000D01*
%TO.C,R9*%
X127472936Y-109665000D02*
X127927064Y-109665000D01*
X127472936Y-111135000D02*
X127927064Y-111135000D01*
D10*
%TO.C,S2*%
X108390000Y-125580000D02*
X108390000Y-125080000D01*
X108390000Y-125580000D02*
X108390000Y-126080000D01*
X111490000Y-122480000D02*
X110990000Y-122480000D01*
X111490000Y-122480000D02*
X111990000Y-122480000D01*
X111490000Y-128680000D02*
X110990000Y-128680000D01*
X111490000Y-128680000D02*
X111990000Y-128680000D01*
X114590000Y-125580000D02*
X114590000Y-125080000D01*
X114590000Y-125580000D02*
X114590000Y-126080000D01*
D12*
%TO.C,U1*%
X127790000Y-128429774D02*
X127790000Y-132029774D01*
X127801522Y-128391296D02*
G75*
G02*
X132240001Y-130229774I1838478J-1838478D01*
G01*
X132240000Y-130229774D02*
G75*
G02*
X127801522Y-132068252I-2600000J0D01*
G01*
D13*
%TO.C,S3*%
X122877200Y-121019600D02*
X122877200Y-124880400D01*
X122877200Y-124880400D02*
X124007613Y-124880400D01*
X124007613Y-121019600D02*
X122877200Y-121019600D01*
X125992387Y-124880400D02*
X126507613Y-124880400D01*
X126507613Y-121019600D02*
X125992387Y-121019600D01*
X128492387Y-124880400D02*
X129007613Y-124880400D01*
X129007613Y-121019600D02*
X128492387Y-121019600D01*
X130992387Y-124880400D02*
X132122800Y-124880400D01*
X132122800Y-121019600D02*
X130992387Y-121019600D01*
X132122800Y-124880400D02*
X132122800Y-121019600D01*
D12*
%TO.C,J2*%
X131730000Y-104540000D02*
X131730000Y-103160000D01*
X133110000Y-104540000D02*
X131730000Y-104540000D01*
X134380000Y-101780000D02*
X139570000Y-101780000D01*
X134380000Y-104540000D02*
X134380000Y-101780000D01*
X134380000Y-104540000D02*
X139570000Y-104540000D01*
X139570000Y-104540000D02*
X139570000Y-101780000D01*
%TO.C,D1*%
X117000000Y-139160000D02*
X117000000Y-140180000D01*
X117000000Y-146640000D02*
X117000000Y-145620000D01*
X118470000Y-140960000D02*
X115530000Y-140960000D01*
X118470000Y-141080000D02*
X115530000Y-141080000D01*
X118470000Y-141200000D02*
X115530000Y-141200000D01*
X118470000Y-140180000D02*
X115530000Y-140180000D01*
X115530000Y-145620000D01*
X118470000Y-145620000D01*
X118470000Y-140180000D01*
%TO.C,C9*%
X104478748Y-102490000D02*
X105901252Y-102490000D01*
X104478748Y-104310000D02*
X105901252Y-104310000D01*
%TO.C,C8*%
X112726248Y-78610000D02*
X114148752Y-78610000D01*
X112726248Y-80430000D02*
X114148752Y-80430000D01*
%TO.C,C2*%
X119120000Y-129615113D02*
X120660000Y-129615113D01*
X119120000Y-129655113D02*
X120660000Y-129655113D01*
X119121000Y-129575113D02*
X120660000Y-129575113D01*
X119123000Y-129535113D02*
X120660000Y-129535113D01*
X119125000Y-129495113D02*
X120660000Y-129495113D01*
X119128000Y-129455113D02*
X120660000Y-129455113D01*
X119131000Y-129415113D02*
X120660000Y-129415113D01*
X119135000Y-129375113D02*
X120660000Y-129375113D01*
X119140000Y-129335113D02*
X120660000Y-129335113D01*
X119145000Y-129295113D02*
X120660000Y-129295113D01*
X119151000Y-129255113D02*
X120660000Y-129255113D01*
X119157000Y-129215113D02*
X120660000Y-129215113D01*
X119164000Y-129175113D02*
X120660000Y-129175113D01*
X119172000Y-129135113D02*
X120660000Y-129135113D01*
X119181000Y-129095113D02*
X120660000Y-129095113D01*
X119190000Y-129055113D02*
X120660000Y-129055113D01*
X119199000Y-129015113D02*
X120660000Y-129015113D01*
X119210000Y-128975113D02*
X120660000Y-128975113D01*
X119221000Y-128935113D02*
X120660000Y-128935113D01*
X119233000Y-128895113D02*
X120660000Y-128895113D01*
X119245000Y-128855113D02*
X120660000Y-128855113D01*
X119258000Y-128815113D02*
X120660000Y-128815113D01*
X119272000Y-128775113D02*
X120660000Y-128775113D01*
X119287000Y-128735113D02*
X120660000Y-128735113D01*
X119302000Y-128695113D02*
X120660000Y-128695113D01*
X119318000Y-128655113D02*
X120660000Y-128655113D01*
X119335000Y-128615113D02*
X120660000Y-128615113D01*
X119353000Y-128575113D02*
X120660000Y-128575113D01*
X119371000Y-128535113D02*
X120660000Y-128535113D01*
X119391000Y-128495113D02*
X120660000Y-128495113D01*
X119411000Y-128455113D02*
X120660000Y-128455113D01*
X119432000Y-128415113D02*
X120660000Y-128415113D01*
X119454000Y-128375113D02*
X120660000Y-128375113D01*
X119477000Y-128335113D02*
X120660000Y-128335113D01*
X119501000Y-128295113D02*
X120660000Y-128295113D01*
X119525000Y-128255113D02*
X120660000Y-128255113D01*
X119551000Y-128215113D02*
X120660000Y-128215113D01*
X119578000Y-128175113D02*
X120660000Y-128175113D01*
X119606000Y-128135113D02*
X120660000Y-128135113D01*
X119635000Y-128095113D02*
X120660000Y-128095113D01*
X119665000Y-128055113D02*
X120660000Y-128055113D01*
X119697000Y-128015113D02*
X120660000Y-128015113D01*
X119730000Y-127975113D02*
X120660000Y-127975113D01*
X119764000Y-127935113D02*
X120660000Y-127935113D01*
X119799000Y-127895113D02*
X120660000Y-127895113D01*
X119836000Y-127855113D02*
X120660000Y-127855113D01*
X119875000Y-127815113D02*
X120660000Y-127815113D01*
X119915000Y-127775113D02*
X120660000Y-127775113D01*
X119957000Y-127735113D02*
X120660000Y-127735113D01*
X119975000Y-132209888D02*
X120475000Y-132209888D01*
X120001000Y-127695113D02*
X120660000Y-127695113D01*
X120048000Y-127655113D02*
X120660000Y-127655113D01*
X120096000Y-127615113D02*
X123304000Y-127615113D01*
X120147000Y-127575113D02*
X123253000Y-127575113D01*
X120201000Y-127535113D02*
X123199000Y-127535113D01*
X120225000Y-132459888D02*
X120225000Y-131959888D01*
X120257000Y-127495113D02*
X123143000Y-127495113D01*
X120317000Y-127455113D02*
X123083000Y-127455113D01*
X120381000Y-127415113D02*
X123019000Y-127415113D01*
X120449000Y-127375113D02*
X122951000Y-127375113D01*
X120523000Y-127335113D02*
X122877000Y-127335113D01*
X120602000Y-127295113D02*
X122798000Y-127295113D01*
X120689000Y-127255113D02*
X122711000Y-127255113D01*
X120786000Y-127215113D02*
X122614000Y-127215113D01*
X120895000Y-127175113D02*
X122505000Y-127175113D01*
X121023000Y-127135113D02*
X122377000Y-127135113D01*
X121183000Y-127095113D02*
X122217000Y-127095113D01*
X121417000Y-127055113D02*
X121983000Y-127055113D01*
X122740000Y-127655113D02*
X123352000Y-127655113D01*
X122740000Y-127695113D02*
X123399000Y-127695113D01*
X122740000Y-127735113D02*
X123443000Y-127735113D01*
X122740000Y-127775113D02*
X123485000Y-127775113D01*
X122740000Y-127815113D02*
X123525000Y-127815113D01*
X122740000Y-127855113D02*
X123564000Y-127855113D01*
X122740000Y-127895113D02*
X123601000Y-127895113D01*
X122740000Y-127935113D02*
X123636000Y-127935113D01*
X122740000Y-127975113D02*
X123670000Y-127975113D01*
X122740000Y-128015113D02*
X123703000Y-128015113D01*
X122740000Y-128055113D02*
X123735000Y-128055113D01*
X122740000Y-128095113D02*
X123765000Y-128095113D01*
X122740000Y-128135113D02*
X123794000Y-128135113D01*
X122740000Y-128175113D02*
X123822000Y-128175113D01*
X122740000Y-128215113D02*
X123849000Y-128215113D01*
X122740000Y-128255113D02*
X123875000Y-128255113D01*
X122740000Y-128295113D02*
X123899000Y-128295113D01*
X122740000Y-128335113D02*
X123923000Y-128335113D01*
X122740000Y-128375113D02*
X123946000Y-128375113D01*
X122740000Y-128415113D02*
X123968000Y-128415113D01*
X122740000Y-128455113D02*
X123989000Y-128455113D01*
X122740000Y-128495113D02*
X124009000Y-128495113D01*
X122740000Y-128535113D02*
X124029000Y-128535113D01*
X122740000Y-128575113D02*
X124047000Y-128575113D01*
X122740000Y-128615113D02*
X124065000Y-128615113D01*
X122740000Y-128655113D02*
X124082000Y-128655113D01*
X122740000Y-128695113D02*
X124098000Y-128695113D01*
X122740000Y-128735113D02*
X124113000Y-128735113D01*
X122740000Y-128775113D02*
X124128000Y-128775113D01*
X122740000Y-128815113D02*
X124142000Y-128815113D01*
X122740000Y-128855113D02*
X124155000Y-128855113D01*
X122740000Y-128895113D02*
X124167000Y-128895113D01*
X122740000Y-128935113D02*
X124179000Y-128935113D01*
X122740000Y-128975113D02*
X124190000Y-128975113D01*
X122740000Y-129015113D02*
X124201000Y-129015113D01*
X122740000Y-129055113D02*
X124210000Y-129055113D01*
X122740000Y-129095113D02*
X124219000Y-129095113D01*
X122740000Y-129135113D02*
X124228000Y-129135113D01*
X122740000Y-129175113D02*
X124236000Y-129175113D01*
X122740000Y-129215113D02*
X124243000Y-129215113D01*
X122740000Y-129255113D02*
X124249000Y-129255113D01*
X122740000Y-129295113D02*
X124255000Y-129295113D01*
X122740000Y-129335113D02*
X124260000Y-129335113D01*
X122740000Y-129375113D02*
X124265000Y-129375113D01*
X122740000Y-129415113D02*
X124269000Y-129415113D01*
X122740000Y-129455113D02*
X124272000Y-129455113D01*
X122740000Y-129495113D02*
X124275000Y-129495113D01*
X122740000Y-129535113D02*
X124277000Y-129535113D01*
X122740000Y-129575113D02*
X124279000Y-129575113D01*
X122740000Y-129615113D02*
X124280000Y-129615113D01*
X122740000Y-129655113D02*
X124280000Y-129655113D01*
X124320000Y-129655113D02*
G75*
G02*
X119080000Y-129655113I-2620000J0D01*
G01*
X119080000Y-129655113D02*
G75*
G02*
X124320000Y-129655113I2620000J0D01*
G01*
%TO.C,J4*%
X131790000Y-97120000D02*
X131790000Y-95740000D01*
X133170000Y-97120000D02*
X131790000Y-97120000D01*
X134440000Y-94360000D02*
X139630000Y-94360000D01*
X134440000Y-97120000D02*
X134440000Y-94360000D01*
X134440000Y-97120000D02*
X139630000Y-97120000D01*
X139630000Y-97120000D02*
X139630000Y-94360000D01*
%TO.C,R7*%
X127472936Y-115365000D02*
X127927064Y-115365000D01*
X127472936Y-116835000D02*
X127927064Y-116835000D01*
%TO.C,C7*%
X126130000Y-99921248D02*
X126130000Y-101343752D01*
X127950000Y-99921248D02*
X127950000Y-101343752D01*
%TO.C,J1*%
X131710000Y-108260000D02*
X131710000Y-106880000D01*
X133090000Y-108260000D02*
X131710000Y-108260000D01*
X134360000Y-105500000D02*
X139550000Y-105500000D01*
X134360000Y-108260000D02*
X134360000Y-105500000D01*
X134360000Y-108260000D02*
X139550000Y-108260000D01*
X139550000Y-108260000D02*
X139550000Y-105500000D01*
%TO.C,R5*%
X105890000Y-131200000D02*
X106580000Y-131200000D01*
X116510000Y-131200000D02*
X115820000Y-131200000D01*
X115820000Y-132920000D02*
X106580000Y-132920000D01*
X106580000Y-129480000D01*
X115820000Y-129480000D01*
X115820000Y-132920000D01*
%TO.C,TP1*%
X127200000Y-137400000D02*
G75*
G02*
X124800000Y-137400000I-1200000J0D01*
G01*
X124800000Y-137400000D02*
G75*
G02*
X127200000Y-137400000I1200000J0D01*
G01*
%TO.C,C5*%
X132710000Y-130818526D02*
X132710000Y-129396022D01*
X134530000Y-130818526D02*
X134530000Y-129396022D01*
%TO.C,J10*%
X131720000Y-143197620D02*
X133100000Y-143197620D01*
X131720000Y-144577620D02*
X131720000Y-143197620D01*
X131720000Y-145847620D02*
X131720000Y-148497620D01*
X131720000Y-145847620D02*
X134480000Y-145847620D01*
X131720000Y-148497620D02*
X134480000Y-148497620D01*
X134480000Y-145847620D02*
X134480000Y-148497620D01*
%TO.C,D5*%
X135365000Y-118245000D02*
X135365000Y-115155000D01*
X129815000Y-116700000D02*
G75*
G02*
X135365000Y-115155170I2990000J0D01*
G01*
X135365000Y-118244830D02*
G75*
G02*
X129815000Y-116700000I-2560000J1544830D01*
G01*
X135305000Y-116700000D02*
G75*
G02*
X130305000Y-116700000I-2500000J0D01*
G01*
X130305000Y-116700000D02*
G75*
G02*
X135305000Y-116700000I2500000J0D01*
G01*
%TO.C,Q1*%
X111000000Y-143000000D02*
X115000000Y-143000000D01*
X111000000Y-146800000D02*
X111000000Y-143000000D01*
X115000000Y-143000000D02*
X115000000Y-146800000D01*
X115000000Y-146800000D02*
X111000000Y-146800000D01*
%TD*%
M02*
