%TF.GenerationSoftware,KiCad,Pcbnew,9.0.3*%
%TF.CreationDate,2025-09-18T17:46:44+12:00*%
%TF.ProjectId,pcb_draft_lfr,7063625f-6472-4616-9674-5f6c66722e6b,REV4*%
%TF.SameCoordinates,Original*%
%TF.FileFunction,Soldermask,Top*%
%TF.FilePolarity,Negative*%
%FSLAX46Y46*%
G04 Gerber Fmt 4.6, Leading zero omitted, Abs format (unit mm)*
G04 Created by KiCad (PCBNEW 9.0.3) date 2025-09-18 17:46:44*
%MOMM*%
%LPD*%
G01*
G04 APERTURE LIST*
G04 APERTURE END LIST*
G36*
X117256790Y-146910393D02*
G01*
X117420952Y-146963733D01*
X117574748Y-147042096D01*
X117714393Y-147143553D01*
X117836447Y-147265607D01*
X117937904Y-147405252D01*
X118016267Y-147559048D01*
X118069607Y-147723210D01*
X118096609Y-147893695D01*
X118096609Y-148066305D01*
X118069607Y-148236790D01*
X118016267Y-148400952D01*
X117937904Y-148554748D01*
X117836447Y-148694393D01*
X117714393Y-148816447D01*
X117574748Y-148917904D01*
X117420952Y-148996267D01*
X117256790Y-149049607D01*
X117086305Y-149076609D01*
X116913695Y-149076609D01*
X116743210Y-149049607D01*
X116579048Y-148996267D01*
X116425252Y-148917904D01*
X116285607Y-148816447D01*
X116163553Y-148694393D01*
X116062096Y-148554748D01*
X115983733Y-148400952D01*
X115930393Y-148236790D01*
X115903391Y-148066305D01*
X115903391Y-147893695D01*
X115930393Y-147723210D01*
X115983733Y-147559048D01*
X116062096Y-147405252D01*
X116163553Y-147265607D01*
X116285607Y-147143553D01*
X116425252Y-147042096D01*
X116579048Y-146963733D01*
X116743210Y-146910393D01*
X116913695Y-146883391D01*
X117086305Y-146883391D01*
X117256790Y-146910393D01*
G37*
G36*
X125950000Y-148050000D02*
G01*
X124250000Y-148050000D01*
X124250000Y-146350000D01*
X125950000Y-146350000D01*
X125950000Y-148050000D01*
G37*
G36*
X129746742Y-146351601D02*
G01*
X129900687Y-146415367D01*
X130039234Y-146507941D01*
X130157059Y-146625766D01*
X130249633Y-146764313D01*
X130313399Y-146918258D01*
X130345907Y-147081685D01*
X130345907Y-147248315D01*
X130313399Y-147411742D01*
X130249633Y-147565687D01*
X130157059Y-147704234D01*
X130039234Y-147822059D01*
X129900687Y-147914633D01*
X129746742Y-147978399D01*
X129583315Y-148010907D01*
X129416685Y-148010907D01*
X129253258Y-147978399D01*
X129099313Y-147914633D01*
X128960766Y-147822059D01*
X128842941Y-147704234D01*
X128750367Y-147565687D01*
X128686601Y-147411742D01*
X128654093Y-147248315D01*
X128654093Y-147081685D01*
X128686601Y-146918258D01*
X128750367Y-146764313D01*
X128842941Y-146625766D01*
X128960766Y-146507941D01*
X129099313Y-146415367D01*
X129253258Y-146351601D01*
X129416685Y-146319093D01*
X129583315Y-146319093D01*
X129746742Y-146351601D01*
G37*
G36*
X133346742Y-146304221D02*
G01*
X133500687Y-146367987D01*
X133639234Y-146460561D01*
X133757059Y-146578386D01*
X133849633Y-146716933D01*
X133913399Y-146870878D01*
X133945907Y-147034305D01*
X133945907Y-147200935D01*
X133913399Y-147364362D01*
X133849633Y-147518307D01*
X133757059Y-147656854D01*
X133639234Y-147774679D01*
X133500687Y-147867253D01*
X133346742Y-147931019D01*
X133183315Y-147963527D01*
X133016685Y-147963527D01*
X132853258Y-147931019D01*
X132699313Y-147867253D01*
X132560766Y-147774679D01*
X132442941Y-147656854D01*
X132350367Y-147518307D01*
X132286601Y-147364362D01*
X132254093Y-147200935D01*
X132254093Y-147034305D01*
X132286601Y-146870878D01*
X132350367Y-146716933D01*
X132442941Y-146578386D01*
X132560766Y-146460561D01*
X132699313Y-146367987D01*
X132853258Y-146304221D01*
X133016685Y-146271713D01*
X133183315Y-146271713D01*
X133346742Y-146304221D01*
G37*
G36*
X140473513Y-144544208D02*
G01*
X140712293Y-144621793D01*
X140935998Y-144735776D01*
X141139117Y-144883350D01*
X141316650Y-145060883D01*
X141464224Y-145264002D01*
X141578207Y-145487707D01*
X141655792Y-145726487D01*
X141695068Y-145974465D01*
X141695068Y-146225535D01*
X141655792Y-146473513D01*
X141578207Y-146712293D01*
X141464224Y-146935998D01*
X141316650Y-147139117D01*
X141139117Y-147316650D01*
X140935998Y-147464224D01*
X140712293Y-147578207D01*
X140473513Y-147655792D01*
X140225535Y-147695068D01*
X139974465Y-147695068D01*
X139726487Y-147655792D01*
X139487707Y-147578207D01*
X139264002Y-147464224D01*
X139060883Y-147316650D01*
X138883350Y-147139117D01*
X138735776Y-146935998D01*
X138621793Y-146712293D01*
X138544208Y-146473513D01*
X138504932Y-146225535D01*
X138504932Y-145974465D01*
X138544208Y-145726487D01*
X138621793Y-145487707D01*
X138735776Y-145264002D01*
X138883350Y-145060883D01*
X139060883Y-144883350D01*
X139264002Y-144735776D01*
X139487707Y-144621793D01*
X139726487Y-144544208D01*
X139974465Y-144504932D01*
X140225535Y-144504932D01*
X140473513Y-144544208D01*
G37*
G36*
X121754048Y-144780805D02*
G01*
X121805410Y-144786764D01*
X121822958Y-144794512D01*
X121845671Y-144799030D01*
X121869983Y-144815275D01*
X121890793Y-144824463D01*
X121905006Y-144838676D01*
X121926777Y-144853223D01*
X121941323Y-144874993D01*
X121955536Y-144889206D01*
X121964723Y-144910013D01*
X121980970Y-144934329D01*
X121985487Y-144957042D01*
X121993235Y-144974589D01*
X121999196Y-145025965D01*
X121999999Y-145030000D01*
X121999999Y-145032881D01*
X122000000Y-145032890D01*
X122000000Y-145974465D01*
X122000000Y-146730001D01*
X121999194Y-146734050D01*
X121993235Y-146785410D01*
X121985488Y-146802954D01*
X121980970Y-146825671D01*
X121964722Y-146849987D01*
X121955536Y-146870793D01*
X121941325Y-146885003D01*
X121926777Y-146906777D01*
X121905003Y-146921325D01*
X121890793Y-146935536D01*
X121869987Y-146944722D01*
X121845671Y-146960970D01*
X121822955Y-146965488D01*
X121805410Y-146973235D01*
X121754036Y-146979196D01*
X121750000Y-146979999D01*
X121747117Y-146979999D01*
X121747109Y-146980000D01*
X120052891Y-146980000D01*
X120052890Y-146979999D01*
X120049999Y-146980000D01*
X120045950Y-146979194D01*
X119994589Y-146973235D01*
X119977043Y-146965488D01*
X119954329Y-146960970D01*
X119930013Y-146944723D01*
X119909206Y-146935536D01*
X119894993Y-146921323D01*
X119873223Y-146906777D01*
X119858676Y-146885006D01*
X119844463Y-146870793D01*
X119835275Y-146849983D01*
X119819030Y-146825671D01*
X119814512Y-146802959D01*
X119806764Y-146785410D01*
X119800803Y-146734034D01*
X119800001Y-146730000D01*
X119800000Y-146727117D01*
X119800000Y-146727109D01*
X119800000Y-145032890D01*
X119800000Y-145032889D01*
X119800000Y-145029999D01*
X119800804Y-145025952D01*
X119806764Y-144974589D01*
X119814512Y-144957039D01*
X119819030Y-144934329D01*
X119835273Y-144910018D01*
X119844463Y-144889206D01*
X119858678Y-144874990D01*
X119873223Y-144853223D01*
X119894990Y-144838678D01*
X119909206Y-144824463D01*
X119930018Y-144815273D01*
X119954329Y-144799030D01*
X119977038Y-144794513D01*
X119994589Y-144786764D01*
X120045965Y-144780803D01*
X120050000Y-144780001D01*
X120052882Y-144780000D01*
X120052891Y-144780000D01*
X121747109Y-144780000D01*
X121750001Y-144780000D01*
X121754048Y-144780805D01*
G37*
G36*
X112126537Y-145465224D02*
G01*
X112191421Y-145508579D01*
X112234776Y-145573463D01*
X112250000Y-145650000D01*
X112250000Y-146050000D01*
X112234776Y-146126537D01*
X112191421Y-146191421D01*
X112126537Y-146234776D01*
X112050000Y-146250000D01*
X111550000Y-146250000D01*
X111473463Y-146234776D01*
X111408579Y-146191421D01*
X111365224Y-146126537D01*
X111350000Y-146050000D01*
X111350000Y-145650000D01*
X111365224Y-145573463D01*
X111408579Y-145508579D01*
X111473463Y-145465224D01*
X111550000Y-145450000D01*
X112050000Y-145450000D01*
X112126537Y-145465224D01*
G37*
G36*
X125346742Y-143846601D02*
G01*
X125500687Y-143910367D01*
X125639234Y-144002941D01*
X125757059Y-144120766D01*
X125849633Y-144259313D01*
X125913399Y-144413258D01*
X125945907Y-144576685D01*
X125945907Y-144743315D01*
X125913399Y-144906742D01*
X125849633Y-145060687D01*
X125757059Y-145199234D01*
X125639234Y-145317059D01*
X125500687Y-145409633D01*
X125346742Y-145473399D01*
X125183315Y-145505907D01*
X125016685Y-145505907D01*
X124853258Y-145473399D01*
X124699313Y-145409633D01*
X124560766Y-145317059D01*
X124442941Y-145199234D01*
X124350367Y-145060687D01*
X124286601Y-144906742D01*
X124254093Y-144743315D01*
X124254093Y-144576685D01*
X124286601Y-144413258D01*
X124350367Y-144259313D01*
X124442941Y-144120766D01*
X124560766Y-144002941D01*
X124699313Y-143910367D01*
X124853258Y-143846601D01*
X125016685Y-143814093D01*
X125183315Y-143814093D01*
X125346742Y-143846601D01*
G37*
G36*
X106173513Y-142344208D02*
G01*
X106412293Y-142421793D01*
X106635998Y-142535776D01*
X106839117Y-142683350D01*
X107016650Y-142860883D01*
X107164224Y-143064002D01*
X107278207Y-143287707D01*
X107355792Y-143526487D01*
X107395068Y-143774465D01*
X107395068Y-144025535D01*
X107355792Y-144273513D01*
X107278207Y-144512293D01*
X107164224Y-144735998D01*
X107016650Y-144939117D01*
X106839117Y-145116650D01*
X106635998Y-145264224D01*
X106412293Y-145378207D01*
X106173513Y-145455792D01*
X105925535Y-145495068D01*
X105674465Y-145495068D01*
X105426487Y-145455792D01*
X105187707Y-145378207D01*
X104964002Y-145264224D01*
X104760883Y-145116650D01*
X104583350Y-144939117D01*
X104435776Y-144735998D01*
X104321793Y-144512293D01*
X104244208Y-144273513D01*
X104204932Y-144025535D01*
X104204932Y-143774465D01*
X104244208Y-143526487D01*
X104321793Y-143287707D01*
X104435776Y-143064002D01*
X104583350Y-142860883D01*
X104760883Y-142683350D01*
X104964002Y-142535776D01*
X105187707Y-142421793D01*
X105426487Y-142344208D01*
X105674465Y-142304932D01*
X105925535Y-142304932D01*
X106173513Y-142344208D01*
G37*
G36*
X130350000Y-145475000D02*
G01*
X128650000Y-145475000D01*
X128650000Y-143775000D01*
X130350000Y-143775000D01*
X130350000Y-145475000D01*
G37*
G36*
X133950000Y-145427620D02*
G01*
X132250000Y-145427620D01*
X132250000Y-143727620D01*
X133950000Y-143727620D01*
X133950000Y-145427620D01*
G37*
G36*
X114526537Y-144515224D02*
G01*
X114591421Y-144558579D01*
X114634776Y-144623463D01*
X114650000Y-144700000D01*
X114650000Y-145100000D01*
X114634776Y-145176537D01*
X114591421Y-145241421D01*
X114526537Y-145284776D01*
X114450000Y-145300000D01*
X113950000Y-145300000D01*
X113873463Y-145284776D01*
X113808579Y-145241421D01*
X113765224Y-145176537D01*
X113750000Y-145100000D01*
X113750000Y-144700000D01*
X113765224Y-144623463D01*
X113808579Y-144558579D01*
X113873463Y-144515224D01*
X113950000Y-144500000D01*
X114450000Y-144500000D01*
X114526537Y-144515224D01*
G37*
G36*
X112126537Y-143565224D02*
G01*
X112191421Y-143608579D01*
X112234776Y-143673463D01*
X112250000Y-143750000D01*
X112250000Y-144150000D01*
X112234776Y-144226537D01*
X112191421Y-144291421D01*
X112126537Y-144334776D01*
X112050000Y-144350000D01*
X111550000Y-144350000D01*
X111473463Y-144334776D01*
X111408579Y-144291421D01*
X111365224Y-144226537D01*
X111350000Y-144150000D01*
X111350000Y-143750000D01*
X111365224Y-143673463D01*
X111408579Y-143608579D01*
X111473463Y-143565224D01*
X111550000Y-143550000D01*
X112050000Y-143550000D01*
X112126537Y-143565224D01*
G37*
G36*
X139154047Y-138300805D02*
G01*
X139205408Y-138306764D01*
X139222954Y-138314511D01*
X139245671Y-138319030D01*
X139269991Y-138335280D01*
X139290793Y-138344465D01*
X139305000Y-138358672D01*
X139326777Y-138373223D01*
X139341327Y-138394999D01*
X139355534Y-138409206D01*
X139364718Y-138430006D01*
X139380970Y-138454329D01*
X139385489Y-138477048D01*
X139393235Y-138494591D01*
X139399192Y-138545940D01*
X139400000Y-138550000D01*
X139400000Y-139650000D01*
X139399192Y-139654059D01*
X139393235Y-139705408D01*
X139385489Y-139722950D01*
X139380970Y-139745671D01*
X139364716Y-139769995D01*
X139355534Y-139790793D01*
X139341329Y-139804997D01*
X139326777Y-139826777D01*
X139304997Y-139841329D01*
X139290793Y-139855534D01*
X139269995Y-139864716D01*
X139245671Y-139880970D01*
X139222950Y-139885489D01*
X139205408Y-139893235D01*
X139154061Y-139899192D01*
X139150000Y-139900000D01*
X138050000Y-139900000D01*
X138045941Y-139899192D01*
X137994591Y-139893235D01*
X137977048Y-139885489D01*
X137954329Y-139880970D01*
X137930006Y-139864718D01*
X137909206Y-139855534D01*
X137894999Y-139841327D01*
X137873223Y-139826777D01*
X137858672Y-139805000D01*
X137844465Y-139790793D01*
X137835280Y-139769991D01*
X137819030Y-139745671D01*
X137814511Y-139722954D01*
X137806764Y-139705408D01*
X137800805Y-139654049D01*
X137800000Y-139650000D01*
X137800000Y-138550000D01*
X137800804Y-138545953D01*
X137806764Y-138494591D01*
X137814511Y-138477043D01*
X137819030Y-138454329D01*
X137835278Y-138430010D01*
X137844465Y-138409206D01*
X137858674Y-138394996D01*
X137873223Y-138373223D01*
X137894996Y-138358674D01*
X137909206Y-138344465D01*
X137930010Y-138335278D01*
X137954329Y-138319030D01*
X137977043Y-138314511D01*
X137994591Y-138306764D01*
X138045952Y-138300805D01*
X138050000Y-138300000D01*
X139150000Y-138300000D01*
X139154047Y-138300805D01*
G37*
G36*
X117854048Y-136720805D02*
G01*
X117905410Y-136726764D01*
X117922958Y-136734512D01*
X117945671Y-136739030D01*
X117969983Y-136755275D01*
X117990793Y-136764463D01*
X118005006Y-136778676D01*
X118026777Y-136793223D01*
X118041323Y-136814993D01*
X118055536Y-136829206D01*
X118064723Y-136850013D01*
X118080970Y-136874329D01*
X118085487Y-136897042D01*
X118093235Y-136914589D01*
X118099196Y-136965965D01*
X118099999Y-136970000D01*
X118099999Y-136972881D01*
X118100000Y-136972890D01*
X118100000Y-137871281D01*
X118100000Y-138670001D01*
X118099194Y-138674050D01*
X118093235Y-138725410D01*
X118085488Y-138742954D01*
X118080970Y-138765671D01*
X118064722Y-138789987D01*
X118055536Y-138810793D01*
X118041325Y-138825003D01*
X118026777Y-138846777D01*
X118005003Y-138861325D01*
X117990793Y-138875536D01*
X117969987Y-138884722D01*
X117945671Y-138900970D01*
X117922955Y-138905488D01*
X117905410Y-138913235D01*
X117854036Y-138919196D01*
X117850000Y-138919999D01*
X117847117Y-138919999D01*
X117847109Y-138920000D01*
X116152891Y-138920000D01*
X116152890Y-138919999D01*
X116149999Y-138920000D01*
X116145950Y-138919194D01*
X116094589Y-138913235D01*
X116077043Y-138905488D01*
X116054329Y-138900970D01*
X116030013Y-138884723D01*
X116009206Y-138875536D01*
X115994993Y-138861323D01*
X115973223Y-138846777D01*
X115958676Y-138825006D01*
X115944463Y-138810793D01*
X115935275Y-138789983D01*
X115919030Y-138765671D01*
X115914512Y-138742959D01*
X115906764Y-138725410D01*
X115900803Y-138674034D01*
X115900001Y-138670000D01*
X115900000Y-138667117D01*
X115900000Y-138667109D01*
X115900000Y-136972890D01*
X115900000Y-136972889D01*
X115900000Y-136969999D01*
X115900804Y-136965952D01*
X115906764Y-136914589D01*
X115914512Y-136897039D01*
X115919030Y-136874329D01*
X115935273Y-136850018D01*
X115944463Y-136829206D01*
X115958678Y-136814990D01*
X115973223Y-136793223D01*
X115994990Y-136778678D01*
X116009206Y-136764463D01*
X116030018Y-136755273D01*
X116054329Y-136739030D01*
X116077038Y-136734513D01*
X116094589Y-136726764D01*
X116145965Y-136720803D01*
X116150000Y-136720001D01*
X116152882Y-136720000D01*
X116152891Y-136720000D01*
X117847109Y-136720000D01*
X117850001Y-136720000D01*
X117854048Y-136720805D01*
G37*
G36*
X126290285Y-136443060D02*
G01*
X126471397Y-136518079D01*
X126634393Y-136626990D01*
X126773010Y-136765607D01*
X126881921Y-136928603D01*
X126956940Y-137109715D01*
X126995185Y-137301983D01*
X126995185Y-137498017D01*
X126956940Y-137690285D01*
X126881921Y-137871397D01*
X126773010Y-138034393D01*
X126634393Y-138173010D01*
X126471397Y-138281921D01*
X126290285Y-138356940D01*
X126098017Y-138395185D01*
X125901983Y-138395185D01*
X125709715Y-138356940D01*
X125528603Y-138281921D01*
X125365607Y-138173010D01*
X125226990Y-138034393D01*
X125118079Y-137871397D01*
X125043060Y-137690285D01*
X125004815Y-137498017D01*
X125004815Y-137301983D01*
X125043060Y-137109715D01*
X125118079Y-136928603D01*
X125226990Y-136765607D01*
X125365607Y-136626990D01*
X125528603Y-136518079D01*
X125709715Y-136443060D01*
X125901983Y-136404815D01*
X126098017Y-136404815D01*
X126290285Y-136443060D01*
G37*
G36*
X129790285Y-136343060D02*
G01*
X129971397Y-136418079D01*
X130134393Y-136526990D01*
X130273010Y-136665607D01*
X130381921Y-136828603D01*
X130456940Y-137009715D01*
X130495185Y-137201983D01*
X130495185Y-137398017D01*
X130456940Y-137590285D01*
X130381921Y-137771397D01*
X130273010Y-137934393D01*
X130134393Y-138073010D01*
X129971397Y-138181921D01*
X129790285Y-138256940D01*
X129598017Y-138295185D01*
X129401983Y-138295185D01*
X129209715Y-138256940D01*
X129028603Y-138181921D01*
X128865607Y-138073010D01*
X128726990Y-137934393D01*
X128618079Y-137771397D01*
X128543060Y-137590285D01*
X128504815Y-137398017D01*
X128504815Y-137201983D01*
X128543060Y-137009715D01*
X128618079Y-136828603D01*
X128726990Y-136665607D01*
X128865607Y-136526990D01*
X129028603Y-136418079D01*
X129209715Y-136343060D01*
X129401983Y-136304815D01*
X129598017Y-136304815D01*
X129790285Y-136343060D01*
G37*
G36*
X133490285Y-136343060D02*
G01*
X133671397Y-136418079D01*
X133834393Y-136526990D01*
X133973010Y-136665607D01*
X134081921Y-136828603D01*
X134156940Y-137009715D01*
X134195185Y-137201983D01*
X134195185Y-137398017D01*
X134156940Y-137590285D01*
X134081921Y-137771397D01*
X133973010Y-137934393D01*
X133834393Y-138073010D01*
X133671397Y-138181921D01*
X133490285Y-138256940D01*
X133298017Y-138295185D01*
X133101983Y-138295185D01*
X132909715Y-138256940D01*
X132728603Y-138181921D01*
X132565607Y-138073010D01*
X132426990Y-137934393D01*
X132318079Y-137771397D01*
X132243060Y-137590285D01*
X132204815Y-137398017D01*
X132204815Y-137201983D01*
X132243060Y-137009715D01*
X132318079Y-136828603D01*
X132426990Y-136665607D01*
X132565607Y-136526990D01*
X132728603Y-136418079D01*
X132909715Y-136343060D01*
X133101983Y-136304815D01*
X133298017Y-136304815D01*
X133490285Y-136343060D01*
G37*
G36*
X138832228Y-135834448D02*
G01*
X138977117Y-135894463D01*
X139107515Y-135981592D01*
X139218408Y-136092485D01*
X139305537Y-136222883D01*
X139365552Y-136367772D01*
X139396148Y-136521586D01*
X139396148Y-136678414D01*
X139365552Y-136832228D01*
X139305537Y-136977117D01*
X139218408Y-137107515D01*
X139107515Y-137218408D01*
X138977117Y-137305537D01*
X138832228Y-137365552D01*
X138678414Y-137396148D01*
X138521586Y-137396148D01*
X138367772Y-137365552D01*
X138222883Y-137305537D01*
X138092485Y-137218408D01*
X137981592Y-137107515D01*
X137894463Y-136977117D01*
X137834448Y-136832228D01*
X137803852Y-136678414D01*
X137803852Y-136521586D01*
X137834448Y-136367772D01*
X137894463Y-136222883D01*
X137981592Y-136092485D01*
X138092485Y-135981592D01*
X138222883Y-135894463D01*
X138367772Y-135834448D01*
X138521586Y-135803852D01*
X138678414Y-135803852D01*
X138832228Y-135834448D01*
G37*
G36*
X112226537Y-136065224D02*
G01*
X112291421Y-136108579D01*
X112334776Y-136173463D01*
X112350000Y-136250000D01*
X112350000Y-136650000D01*
X112334776Y-136726537D01*
X112291421Y-136791421D01*
X112226537Y-136834776D01*
X112150000Y-136850000D01*
X111650000Y-136850000D01*
X111573463Y-136834776D01*
X111508579Y-136791421D01*
X111465224Y-136726537D01*
X111450000Y-136650000D01*
X111450000Y-136250000D01*
X111465224Y-136173463D01*
X111508579Y-136108579D01*
X111573463Y-136065224D01*
X111650000Y-136050000D01*
X112150000Y-136050000D01*
X112226537Y-136065224D01*
G37*
G36*
X121156790Y-134650393D02*
G01*
X121320952Y-134703733D01*
X121474748Y-134782096D01*
X121614393Y-134883553D01*
X121736447Y-135005607D01*
X121837904Y-135145252D01*
X121916267Y-135299048D01*
X121969607Y-135463210D01*
X121996609Y-135633695D01*
X121996609Y-135806305D01*
X121969607Y-135976790D01*
X121916267Y-136140952D01*
X121837904Y-136294748D01*
X121736447Y-136434393D01*
X121614393Y-136556447D01*
X121474748Y-136657904D01*
X121320952Y-136736267D01*
X121156790Y-136789607D01*
X120986305Y-136816609D01*
X120813695Y-136816609D01*
X120643210Y-136789607D01*
X120479048Y-136736267D01*
X120325252Y-136657904D01*
X120185607Y-136556447D01*
X120063553Y-136434393D01*
X119962096Y-136294748D01*
X119883733Y-136140952D01*
X119830393Y-135976790D01*
X119803391Y-135806305D01*
X119803391Y-135633695D01*
X119830393Y-135463210D01*
X119883733Y-135299048D01*
X119962096Y-135145252D01*
X120063553Y-135005607D01*
X120185607Y-134883553D01*
X120325252Y-134782096D01*
X120479048Y-134703733D01*
X120643210Y-134650393D01*
X120813695Y-134623391D01*
X120986305Y-134623391D01*
X121156790Y-134650393D01*
G37*
G36*
X114626537Y-135115224D02*
G01*
X114691421Y-135158579D01*
X114734776Y-135223463D01*
X114750000Y-135300000D01*
X114750000Y-135700000D01*
X114734776Y-135776537D01*
X114691421Y-135841421D01*
X114626537Y-135884776D01*
X114550000Y-135900000D01*
X114050000Y-135900000D01*
X113973463Y-135884776D01*
X113908579Y-135841421D01*
X113865224Y-135776537D01*
X113850000Y-135700000D01*
X113850000Y-135300000D01*
X113865224Y-135223463D01*
X113908579Y-135158579D01*
X113973463Y-135115224D01*
X114050000Y-135100000D01*
X114550000Y-135100000D01*
X114626537Y-135115224D01*
G37*
G36*
X112226537Y-134165224D02*
G01*
X112291421Y-134208579D01*
X112334776Y-134273463D01*
X112350000Y-134350000D01*
X112350000Y-134750000D01*
X112334776Y-134826537D01*
X112291421Y-134891421D01*
X112226537Y-134934776D01*
X112150000Y-134950000D01*
X111650000Y-134950000D01*
X111573463Y-134934776D01*
X111508579Y-134891421D01*
X111465224Y-134826537D01*
X111450000Y-134750000D01*
X111450000Y-134350000D01*
X111465224Y-134273463D01*
X111508579Y-134208579D01*
X111573463Y-134165224D01*
X111650000Y-134150000D01*
X112150000Y-134150000D01*
X112226537Y-134165224D01*
G37*
G36*
X126934047Y-131078079D02*
G01*
X126985408Y-131084038D01*
X127002954Y-131091785D01*
X127025671Y-131096304D01*
X127049991Y-131112554D01*
X127070793Y-131121739D01*
X127085000Y-131135946D01*
X127106777Y-131150497D01*
X127121327Y-131172273D01*
X127135534Y-131186480D01*
X127144718Y-131207280D01*
X127160970Y-131231603D01*
X127165489Y-131254322D01*
X127173235Y-131271865D01*
X127179192Y-131323214D01*
X127180000Y-131327274D01*
X127180000Y-132152274D01*
X127179192Y-132156333D01*
X127173235Y-132207682D01*
X127165489Y-132225224D01*
X127160970Y-132247945D01*
X127144716Y-132272269D01*
X127135534Y-132293067D01*
X127121329Y-132307271D01*
X127106777Y-132329051D01*
X127084997Y-132343603D01*
X127070793Y-132357808D01*
X127049995Y-132366990D01*
X127025671Y-132383244D01*
X127002950Y-132387763D01*
X126985408Y-132395509D01*
X126934061Y-132401466D01*
X126930000Y-132402274D01*
X125630000Y-132402274D01*
X125625941Y-132401466D01*
X125574591Y-132395509D01*
X125557048Y-132387763D01*
X125534329Y-132383244D01*
X125510006Y-132366992D01*
X125489206Y-132357808D01*
X125474999Y-132343601D01*
X125453223Y-132329051D01*
X125438672Y-132307274D01*
X125424465Y-132293067D01*
X125415280Y-132272265D01*
X125399030Y-132247945D01*
X125394511Y-132225228D01*
X125386764Y-132207682D01*
X125380805Y-132156323D01*
X125380000Y-132152274D01*
X125380000Y-131327274D01*
X125380804Y-131323227D01*
X125386764Y-131271865D01*
X125394511Y-131254317D01*
X125399030Y-131231603D01*
X125415278Y-131207284D01*
X125424465Y-131186480D01*
X125438674Y-131172270D01*
X125453223Y-131150497D01*
X125474996Y-131135948D01*
X125489206Y-131121739D01*
X125510010Y-131112552D01*
X125534329Y-131096304D01*
X125557043Y-131091785D01*
X125574591Y-131084038D01*
X125625952Y-131078079D01*
X125630000Y-131077274D01*
X126930000Y-131077274D01*
X126934047Y-131078079D01*
G37*
G36*
X134274047Y-131008079D02*
G01*
X134325408Y-131014038D01*
X134342954Y-131021785D01*
X134365671Y-131026304D01*
X134389991Y-131042554D01*
X134410793Y-131051739D01*
X134425000Y-131065946D01*
X134446777Y-131080497D01*
X134461327Y-131102273D01*
X134475534Y-131116480D01*
X134484718Y-131137280D01*
X134500970Y-131161603D01*
X134505489Y-131184322D01*
X134513235Y-131201865D01*
X134519192Y-131253214D01*
X134520000Y-131257274D01*
X134520000Y-132082274D01*
X134519192Y-132086333D01*
X134513235Y-132137682D01*
X134505489Y-132155224D01*
X134500970Y-132177945D01*
X134484716Y-132202269D01*
X134475534Y-132223067D01*
X134461329Y-132237271D01*
X134446777Y-132259051D01*
X134424997Y-132273603D01*
X134410793Y-132287808D01*
X134389995Y-132296990D01*
X134365671Y-132313244D01*
X134342950Y-132317763D01*
X134325408Y-132325509D01*
X134274061Y-132331466D01*
X134270000Y-132332274D01*
X132970000Y-132332274D01*
X132965941Y-132331466D01*
X132914591Y-132325509D01*
X132897048Y-132317763D01*
X132874329Y-132313244D01*
X132850006Y-132296992D01*
X132829206Y-132287808D01*
X132814999Y-132273601D01*
X132793223Y-132259051D01*
X132778672Y-132237274D01*
X132764465Y-132223067D01*
X132755280Y-132202265D01*
X132739030Y-132177945D01*
X132734511Y-132155228D01*
X132726764Y-132137682D01*
X132720805Y-132086323D01*
X132720000Y-132082274D01*
X132720000Y-131257274D01*
X132720804Y-131253227D01*
X132726764Y-131201865D01*
X132734511Y-131184317D01*
X132739030Y-131161603D01*
X132755278Y-131137284D01*
X132764465Y-131116480D01*
X132778674Y-131102270D01*
X132793223Y-131080497D01*
X132814996Y-131065948D01*
X132829206Y-131051739D01*
X132850010Y-131042552D01*
X132874329Y-131026304D01*
X132897043Y-131021785D01*
X132914591Y-131014038D01*
X132965952Y-131008079D01*
X132970000Y-131007274D01*
X134270000Y-131007274D01*
X134274047Y-131008079D01*
G37*
G36*
X129933526Y-130979265D02*
G01*
X130065909Y-131014737D01*
X130184600Y-131083263D01*
X130281511Y-131180174D01*
X130350037Y-131298865D01*
X130385509Y-131431248D01*
X130385509Y-131568300D01*
X130350037Y-131700683D01*
X130281511Y-131819374D01*
X130184600Y-131916285D01*
X130065909Y-131984811D01*
X129933526Y-132020283D01*
X129865000Y-132024774D01*
X129863363Y-132024774D01*
X129416637Y-132024774D01*
X129415000Y-132024774D01*
X129346474Y-132020283D01*
X129214091Y-131984811D01*
X129095400Y-131916285D01*
X128998489Y-131819374D01*
X128929963Y-131700683D01*
X128894491Y-131568300D01*
X128894491Y-131431248D01*
X128929963Y-131298865D01*
X128998489Y-131180174D01*
X129095400Y-131083263D01*
X129214091Y-131014737D01*
X129346474Y-130979265D01*
X129415000Y-130974774D01*
X129865000Y-130974774D01*
X129933526Y-130979265D01*
G37*
G36*
X105082228Y-130434448D02*
G01*
X105227117Y-130494463D01*
X105357515Y-130581592D01*
X105468408Y-130692485D01*
X105555537Y-130822883D01*
X105615552Y-130967772D01*
X105646148Y-131121586D01*
X105646148Y-131278414D01*
X105615552Y-131432228D01*
X105555537Y-131577117D01*
X105468408Y-131707515D01*
X105357515Y-131818408D01*
X105227117Y-131905537D01*
X105082228Y-131965552D01*
X104928414Y-131996148D01*
X104771586Y-131996148D01*
X104617772Y-131965552D01*
X104472883Y-131905537D01*
X104342485Y-131818408D01*
X104231592Y-131707515D01*
X104144463Y-131577117D01*
X104084448Y-131432228D01*
X104053852Y-131278414D01*
X104053852Y-131121586D01*
X104084448Y-130967772D01*
X104144463Y-130822883D01*
X104231592Y-130692485D01*
X104342485Y-130581592D01*
X104472883Y-130494463D01*
X104617772Y-130434448D01*
X104771586Y-130403852D01*
X104928414Y-130403852D01*
X105082228Y-130434448D01*
G37*
G36*
X117782228Y-130434448D02*
G01*
X117927117Y-130494463D01*
X118057515Y-130581592D01*
X118168408Y-130692485D01*
X118255537Y-130822883D01*
X118315552Y-130967772D01*
X118346148Y-131121586D01*
X118346148Y-131278414D01*
X118315552Y-131432228D01*
X118255537Y-131577117D01*
X118168408Y-131707515D01*
X118057515Y-131818408D01*
X117927117Y-131905537D01*
X117782228Y-131965552D01*
X117628414Y-131996148D01*
X117471586Y-131996148D01*
X117317772Y-131965552D01*
X117172883Y-131905537D01*
X117042485Y-131818408D01*
X116931592Y-131707515D01*
X116844463Y-131577117D01*
X116784448Y-131432228D01*
X116753852Y-131278414D01*
X116753852Y-131121586D01*
X116784448Y-130967772D01*
X116844463Y-130822883D01*
X116931592Y-130692485D01*
X117042485Y-130581592D01*
X117172883Y-130494463D01*
X117317772Y-130434448D01*
X117471586Y-130403852D01*
X117628414Y-130403852D01*
X117782228Y-130434448D01*
G37*
G36*
X138454047Y-130210805D02*
G01*
X138505408Y-130216764D01*
X138522954Y-130224511D01*
X138545671Y-130229030D01*
X138569991Y-130245280D01*
X138590793Y-130254465D01*
X138605000Y-130268672D01*
X138626777Y-130283223D01*
X138641327Y-130304999D01*
X138655534Y-130319206D01*
X138664718Y-130340006D01*
X138680970Y-130364329D01*
X138685489Y-130387048D01*
X138693235Y-130404591D01*
X138699192Y-130455940D01*
X138700000Y-130460000D01*
X138700000Y-131560000D01*
X138699192Y-131564059D01*
X138693235Y-131615408D01*
X138685489Y-131632950D01*
X138680970Y-131655671D01*
X138664716Y-131679995D01*
X138655534Y-131700793D01*
X138641329Y-131714997D01*
X138626777Y-131736777D01*
X138604997Y-131751329D01*
X138590793Y-131765534D01*
X138569995Y-131774716D01*
X138545671Y-131790970D01*
X138522950Y-131795489D01*
X138505408Y-131803235D01*
X138454061Y-131809192D01*
X138450000Y-131810000D01*
X137350000Y-131810000D01*
X137345941Y-131809192D01*
X137294591Y-131803235D01*
X137277048Y-131795489D01*
X137254329Y-131790970D01*
X137230006Y-131774718D01*
X137209206Y-131765534D01*
X137194999Y-131751327D01*
X137173223Y-131736777D01*
X137158672Y-131715000D01*
X137144465Y-131700793D01*
X137135280Y-131679991D01*
X137119030Y-131655671D01*
X137114511Y-131632954D01*
X137106764Y-131615408D01*
X137100805Y-131564049D01*
X137100000Y-131560000D01*
X137100000Y-130460000D01*
X137100804Y-130455953D01*
X137106764Y-130404591D01*
X137114511Y-130387043D01*
X137119030Y-130364329D01*
X137135278Y-130340010D01*
X137144465Y-130319206D01*
X137158674Y-130304996D01*
X137173223Y-130283223D01*
X137194996Y-130268674D01*
X137209206Y-130254465D01*
X137230010Y-130245278D01*
X137254329Y-130229030D01*
X137277043Y-130224511D01*
X137294591Y-130216764D01*
X137345952Y-130210805D01*
X137350000Y-130210000D01*
X138450000Y-130210000D01*
X138454047Y-130210805D01*
G37*
G36*
X122254047Y-129855918D02*
G01*
X122305408Y-129861877D01*
X122322954Y-129869624D01*
X122345671Y-129874143D01*
X122369991Y-129890393D01*
X122390793Y-129899578D01*
X122405000Y-129913785D01*
X122426777Y-129928336D01*
X122441327Y-129950112D01*
X122455534Y-129964319D01*
X122464718Y-129985119D01*
X122480970Y-130009442D01*
X122485489Y-130032161D01*
X122493235Y-130049704D01*
X122499192Y-130101053D01*
X122500000Y-130105113D01*
X122500000Y-131205113D01*
X122499192Y-131209172D01*
X122493235Y-131260521D01*
X122485489Y-131278063D01*
X122480970Y-131300784D01*
X122464716Y-131325108D01*
X122455534Y-131345906D01*
X122441329Y-131360110D01*
X122426777Y-131381890D01*
X122404997Y-131396442D01*
X122390793Y-131410647D01*
X122369995Y-131419829D01*
X122345671Y-131436083D01*
X122322950Y-131440602D01*
X122305408Y-131448348D01*
X122254061Y-131454305D01*
X122250000Y-131455113D01*
X121150000Y-131455113D01*
X121145941Y-131454305D01*
X121094591Y-131448348D01*
X121077048Y-131440602D01*
X121054329Y-131436083D01*
X121030006Y-131419831D01*
X121009206Y-131410647D01*
X120994999Y-131396440D01*
X120973223Y-131381890D01*
X120958672Y-131360113D01*
X120944465Y-131345906D01*
X120935280Y-131325104D01*
X120919030Y-131300784D01*
X120914511Y-131278067D01*
X120906764Y-131260521D01*
X120900805Y-131209162D01*
X120900000Y-131205113D01*
X120900000Y-130105113D01*
X120900804Y-130101066D01*
X120906764Y-130049704D01*
X120914511Y-130032156D01*
X120919030Y-130009442D01*
X120935278Y-129985123D01*
X120944465Y-129964319D01*
X120958674Y-129950109D01*
X120973223Y-129928336D01*
X120994996Y-129913787D01*
X121009206Y-129899578D01*
X121030010Y-129890391D01*
X121054329Y-129874143D01*
X121077043Y-129869624D01*
X121094591Y-129861877D01*
X121145952Y-129855918D01*
X121150000Y-129855113D01*
X122250000Y-129855113D01*
X122254047Y-129855918D01*
G37*
G36*
X129933526Y-129709265D02*
G01*
X130065909Y-129744737D01*
X130184600Y-129813263D01*
X130281511Y-129910174D01*
X130350037Y-130028865D01*
X130385509Y-130161248D01*
X130385509Y-130298300D01*
X130350037Y-130430683D01*
X130281511Y-130549374D01*
X130184600Y-130646285D01*
X130065909Y-130714811D01*
X129933526Y-130750283D01*
X129865000Y-130754774D01*
X129863363Y-130754774D01*
X129416637Y-130754774D01*
X129415000Y-130754774D01*
X129346474Y-130750283D01*
X129214091Y-130714811D01*
X129095400Y-130646285D01*
X128998489Y-130549374D01*
X128929963Y-130430683D01*
X128894491Y-130298300D01*
X128894491Y-130161248D01*
X128929963Y-130028865D01*
X128998489Y-129910174D01*
X129095400Y-129813263D01*
X129214091Y-129744737D01*
X129346474Y-129709265D01*
X129415000Y-129704774D01*
X129865000Y-129704774D01*
X129933526Y-129709265D01*
G37*
G36*
X138132228Y-128244448D02*
G01*
X138277117Y-128304463D01*
X138407515Y-128391592D01*
X138518408Y-128502485D01*
X138605537Y-128632883D01*
X138665552Y-128777772D01*
X138696148Y-128931586D01*
X138696148Y-129088414D01*
X138665552Y-129242228D01*
X138605537Y-129387117D01*
X138518408Y-129517515D01*
X138407515Y-129628408D01*
X138277117Y-129715537D01*
X138132228Y-129775552D01*
X137978414Y-129806148D01*
X137821586Y-129806148D01*
X137667772Y-129775552D01*
X137522883Y-129715537D01*
X137392485Y-129628408D01*
X137281592Y-129517515D01*
X137194463Y-129387117D01*
X137134448Y-129242228D01*
X137103852Y-129088414D01*
X137103852Y-128931586D01*
X137134448Y-128777772D01*
X137194463Y-128632883D01*
X137281592Y-128502485D01*
X137392485Y-128391592D01*
X137522883Y-128304463D01*
X137667772Y-128244448D01*
X137821586Y-128213852D01*
X137978414Y-128213852D01*
X138132228Y-128244448D01*
G37*
G36*
X130390000Y-129484774D02*
G01*
X128890000Y-129484774D01*
X128890000Y-128434774D01*
X130390000Y-128434774D01*
X130390000Y-129484774D01*
G37*
G36*
X121932228Y-127889561D02*
G01*
X122077117Y-127949576D01*
X122207515Y-128036705D01*
X122318408Y-128147598D01*
X122405537Y-128277996D01*
X122465552Y-128422885D01*
X122496148Y-128576699D01*
X122496148Y-128733527D01*
X122465552Y-128887341D01*
X122405537Y-129032230D01*
X122318408Y-129162628D01*
X122207515Y-129273521D01*
X122077117Y-129360650D01*
X121932228Y-129420665D01*
X121778414Y-129451261D01*
X121621586Y-129451261D01*
X121467772Y-129420665D01*
X121322883Y-129360650D01*
X121192485Y-129273521D01*
X121081592Y-129162628D01*
X120994463Y-129032230D01*
X120934448Y-128887341D01*
X120903852Y-128733527D01*
X120903852Y-128576699D01*
X120934448Y-128422885D01*
X120994463Y-128277996D01*
X121081592Y-128147598D01*
X121192485Y-128036705D01*
X121322883Y-127949576D01*
X121467772Y-127889561D01*
X121621586Y-127858965D01*
X121778414Y-127858965D01*
X121932228Y-127889561D01*
G37*
G36*
X126934047Y-127953079D02*
G01*
X126985408Y-127959038D01*
X127002954Y-127966785D01*
X127025671Y-127971304D01*
X127049991Y-127987554D01*
X127070793Y-127996739D01*
X127085000Y-128010946D01*
X127106777Y-128025497D01*
X127121327Y-128047273D01*
X127135534Y-128061480D01*
X127144718Y-128082280D01*
X127160970Y-128106603D01*
X127165489Y-128129322D01*
X127173235Y-128146865D01*
X127179192Y-128198214D01*
X127180000Y-128202274D01*
X127180000Y-129027274D01*
X127179192Y-129031333D01*
X127173235Y-129082682D01*
X127165489Y-129100224D01*
X127160970Y-129122945D01*
X127144716Y-129147269D01*
X127135534Y-129168067D01*
X127121329Y-129182271D01*
X127106777Y-129204051D01*
X127084997Y-129218603D01*
X127070793Y-129232808D01*
X127049995Y-129241990D01*
X127025671Y-129258244D01*
X127002950Y-129262763D01*
X126985408Y-129270509D01*
X126934061Y-129276466D01*
X126930000Y-129277274D01*
X125630000Y-129277274D01*
X125625941Y-129276466D01*
X125574591Y-129270509D01*
X125557048Y-129262763D01*
X125534329Y-129258244D01*
X125510006Y-129241992D01*
X125489206Y-129232808D01*
X125474999Y-129218601D01*
X125453223Y-129204051D01*
X125438672Y-129182274D01*
X125424465Y-129168067D01*
X125415280Y-129147265D01*
X125399030Y-129122945D01*
X125394511Y-129100228D01*
X125386764Y-129082682D01*
X125380805Y-129031323D01*
X125380000Y-129027274D01*
X125380000Y-128202274D01*
X125380804Y-128198227D01*
X125386764Y-128146865D01*
X125394511Y-128129317D01*
X125399030Y-128106603D01*
X125415278Y-128082284D01*
X125424465Y-128061480D01*
X125438674Y-128047270D01*
X125453223Y-128025497D01*
X125474996Y-128010948D01*
X125489206Y-127996739D01*
X125510010Y-127987552D01*
X125534329Y-127971304D01*
X125557043Y-127966785D01*
X125574591Y-127959038D01*
X125625952Y-127953079D01*
X125630000Y-127952274D01*
X126930000Y-127952274D01*
X126934047Y-127953079D01*
G37*
G36*
X134274047Y-127883079D02*
G01*
X134325408Y-127889038D01*
X134342954Y-127896785D01*
X134365671Y-127901304D01*
X134389991Y-127917554D01*
X134410793Y-127926739D01*
X134425000Y-127940946D01*
X134446777Y-127955497D01*
X134461327Y-127977273D01*
X134475534Y-127991480D01*
X134484718Y-128012280D01*
X134500970Y-128036603D01*
X134505489Y-128059322D01*
X134513235Y-128076865D01*
X134519192Y-128128214D01*
X134520000Y-128132274D01*
X134520000Y-128957274D01*
X134519192Y-128961333D01*
X134513235Y-129012682D01*
X134505489Y-129030224D01*
X134500970Y-129052945D01*
X134484716Y-129077269D01*
X134475534Y-129098067D01*
X134461329Y-129112271D01*
X134446777Y-129134051D01*
X134424997Y-129148603D01*
X134410793Y-129162808D01*
X134389995Y-129171990D01*
X134365671Y-129188244D01*
X134342950Y-129192763D01*
X134325408Y-129200509D01*
X134274061Y-129206466D01*
X134270000Y-129207274D01*
X132970000Y-129207274D01*
X132965941Y-129206466D01*
X132914591Y-129200509D01*
X132897048Y-129192763D01*
X132874329Y-129188244D01*
X132850006Y-129171992D01*
X132829206Y-129162808D01*
X132814999Y-129148601D01*
X132793223Y-129134051D01*
X132778672Y-129112274D01*
X132764465Y-129098067D01*
X132755280Y-129077265D01*
X132739030Y-129052945D01*
X132734511Y-129030228D01*
X132726764Y-129012682D01*
X132720805Y-128961323D01*
X132720000Y-128957274D01*
X132720000Y-128132274D01*
X132720804Y-128128227D01*
X132726764Y-128076865D01*
X132734511Y-128059317D01*
X132739030Y-128036603D01*
X132755278Y-128012284D01*
X132764465Y-127991480D01*
X132778674Y-127977270D01*
X132793223Y-127955497D01*
X132814996Y-127940948D01*
X132829206Y-127926739D01*
X132850010Y-127917552D01*
X132874329Y-127901304D01*
X132897043Y-127896785D01*
X132914591Y-127889038D01*
X132965952Y-127883079D01*
X132970000Y-127882274D01*
X134270000Y-127882274D01*
X134274047Y-127883079D01*
G37*
G36*
X115740000Y-128830000D02*
G01*
X113740000Y-128830000D01*
X113740000Y-126830000D01*
X115740000Y-126830000D01*
X115740000Y-128830000D01*
G37*
G36*
X108530285Y-126873060D02*
G01*
X108711397Y-126948079D01*
X108874393Y-127056990D01*
X109013010Y-127195607D01*
X109121921Y-127358603D01*
X109196940Y-127539715D01*
X109235185Y-127731983D01*
X109235185Y-127928017D01*
X109196940Y-128120285D01*
X109121921Y-128301397D01*
X109013010Y-128464393D01*
X108874393Y-128603010D01*
X108711397Y-128711921D01*
X108530285Y-128786940D01*
X108338017Y-128825185D01*
X108141983Y-128825185D01*
X107949715Y-128786940D01*
X107768603Y-128711921D01*
X107605607Y-128603010D01*
X107466990Y-128464393D01*
X107358079Y-128301397D01*
X107283060Y-128120285D01*
X107244815Y-127928017D01*
X107244815Y-127731983D01*
X107283060Y-127539715D01*
X107358079Y-127358603D01*
X107466990Y-127195607D01*
X107605607Y-127056990D01*
X107768603Y-126948079D01*
X107949715Y-126873060D01*
X108141983Y-126834815D01*
X108338017Y-126834815D01*
X108530285Y-126873060D01*
G37*
G36*
X125202764Y-123931577D02*
G01*
X125329271Y-123983978D01*
X125443124Y-124060052D01*
X125539948Y-124156876D01*
X125616022Y-124270729D01*
X125668423Y-124397236D01*
X125695137Y-124531535D01*
X125695137Y-124668465D01*
X125668423Y-124802764D01*
X125616022Y-124929271D01*
X125539948Y-125043124D01*
X125443124Y-125139948D01*
X125329271Y-125216022D01*
X125202764Y-125268423D01*
X125068465Y-125295137D01*
X124931535Y-125295137D01*
X124797236Y-125268423D01*
X124670729Y-125216022D01*
X124556876Y-125139948D01*
X124460052Y-125043124D01*
X124383978Y-124929271D01*
X124331577Y-124802764D01*
X124304863Y-124668465D01*
X124304863Y-124531535D01*
X124331577Y-124397236D01*
X124383978Y-124270729D01*
X124460052Y-124156876D01*
X124556876Y-124060052D01*
X124670729Y-123983978D01*
X124797236Y-123931577D01*
X124931535Y-123904863D01*
X125068465Y-123904863D01*
X125202764Y-123931577D01*
G37*
G36*
X127702764Y-123931577D02*
G01*
X127829271Y-123983978D01*
X127943124Y-124060052D01*
X128039948Y-124156876D01*
X128116022Y-124270729D01*
X128168423Y-124397236D01*
X128195137Y-124531535D01*
X128195137Y-124668465D01*
X128168423Y-124802764D01*
X128116022Y-124929271D01*
X128039948Y-125043124D01*
X127943124Y-125139948D01*
X127829271Y-125216022D01*
X127702764Y-125268423D01*
X127568465Y-125295137D01*
X127431535Y-125295137D01*
X127297236Y-125268423D01*
X127170729Y-125216022D01*
X127056876Y-125139948D01*
X126960052Y-125043124D01*
X126883978Y-124929271D01*
X126831577Y-124802764D01*
X126804863Y-124668465D01*
X126804863Y-124531535D01*
X126831577Y-124397236D01*
X126883978Y-124270729D01*
X126960052Y-124156876D01*
X127056876Y-124060052D01*
X127170729Y-123983978D01*
X127297236Y-123931577D01*
X127431535Y-123904863D01*
X127568465Y-123904863D01*
X127702764Y-123931577D01*
G37*
G36*
X130202764Y-123931577D02*
G01*
X130329271Y-123983978D01*
X130443124Y-124060052D01*
X130539948Y-124156876D01*
X130616022Y-124270729D01*
X130668423Y-124397236D01*
X130695137Y-124531535D01*
X130695137Y-124668465D01*
X130668423Y-124802764D01*
X130616022Y-124929271D01*
X130539948Y-125043124D01*
X130443124Y-125139948D01*
X130329271Y-125216022D01*
X130202764Y-125268423D01*
X130068465Y-125295137D01*
X129931535Y-125295137D01*
X129797236Y-125268423D01*
X129670729Y-125216022D01*
X129556876Y-125139948D01*
X129460052Y-125043124D01*
X129383978Y-124929271D01*
X129331577Y-124802764D01*
X129304863Y-124668465D01*
X129304863Y-124531535D01*
X129331577Y-124397236D01*
X129383978Y-124270729D01*
X129460052Y-124156876D01*
X129556876Y-124060052D01*
X129670729Y-123983978D01*
X129797236Y-123931577D01*
X129931535Y-123904863D01*
X130068465Y-123904863D01*
X130202764Y-123931577D01*
G37*
G36*
X134354047Y-123700805D02*
G01*
X134405408Y-123706764D01*
X134422954Y-123714511D01*
X134445671Y-123719030D01*
X134469991Y-123735280D01*
X134490793Y-123744465D01*
X134505000Y-123758672D01*
X134526777Y-123773223D01*
X134541327Y-123794999D01*
X134555534Y-123809206D01*
X134564718Y-123830006D01*
X134580970Y-123854329D01*
X134585489Y-123877048D01*
X134593235Y-123894591D01*
X134599192Y-123945940D01*
X134600000Y-123950000D01*
X134600000Y-124650000D01*
X134599192Y-124654059D01*
X134593235Y-124705408D01*
X134585489Y-124722950D01*
X134580970Y-124745671D01*
X134564716Y-124769995D01*
X134555534Y-124790793D01*
X134541329Y-124804997D01*
X134526777Y-124826777D01*
X134504997Y-124841329D01*
X134490793Y-124855534D01*
X134469995Y-124864716D01*
X134445671Y-124880970D01*
X134422950Y-124885489D01*
X134405408Y-124893235D01*
X134354061Y-124899192D01*
X134350000Y-124900000D01*
X133450000Y-124900000D01*
X133445941Y-124899192D01*
X133394591Y-124893235D01*
X133377048Y-124885489D01*
X133354329Y-124880970D01*
X133330006Y-124864718D01*
X133309206Y-124855534D01*
X133294999Y-124841327D01*
X133273223Y-124826777D01*
X133258672Y-124805000D01*
X133244465Y-124790793D01*
X133235280Y-124769991D01*
X133219030Y-124745671D01*
X133214511Y-124722954D01*
X133206764Y-124705408D01*
X133200805Y-124654049D01*
X133200000Y-124650000D01*
X133200000Y-123950000D01*
X133200804Y-123945953D01*
X133206764Y-123894591D01*
X133214511Y-123877043D01*
X133219030Y-123854329D01*
X133235278Y-123830010D01*
X133244465Y-123809206D01*
X133258674Y-123794996D01*
X133273223Y-123773223D01*
X133294996Y-123758674D01*
X133309206Y-123744465D01*
X133330010Y-123735278D01*
X133354329Y-123719030D01*
X133377043Y-123714511D01*
X133394591Y-123706764D01*
X133445952Y-123700805D01*
X133450000Y-123700000D01*
X134350000Y-123700000D01*
X134354047Y-123700805D01*
G37*
G36*
X140400000Y-124800000D02*
G01*
X138600000Y-124800000D01*
X138600000Y-123000000D01*
X140400000Y-123000000D01*
X140400000Y-124800000D01*
G37*
G36*
X137221256Y-123038754D02*
G01*
X137384257Y-123106271D01*
X137530954Y-123204291D01*
X137655709Y-123329046D01*
X137753729Y-123475743D01*
X137821246Y-123638744D01*
X137855666Y-123811785D01*
X137855666Y-123988215D01*
X137821246Y-124161256D01*
X137753729Y-124324257D01*
X137655709Y-124470954D01*
X137530954Y-124595709D01*
X137384257Y-124693729D01*
X137221256Y-124761246D01*
X137048215Y-124795666D01*
X136871785Y-124795666D01*
X136698744Y-124761246D01*
X136535743Y-124693729D01*
X136389046Y-124595709D01*
X136264291Y-124470954D01*
X136166271Y-124324257D01*
X136098754Y-124161256D01*
X136064334Y-123988215D01*
X136064334Y-123811785D01*
X136098754Y-123638744D01*
X136166271Y-123475743D01*
X136264291Y-123329046D01*
X136389046Y-123204291D01*
X136535743Y-123106271D01*
X136698744Y-123038754D01*
X136871785Y-123004334D01*
X137048215Y-123004334D01*
X137221256Y-123038754D01*
G37*
G36*
X108530285Y-122373060D02*
G01*
X108711397Y-122448079D01*
X108874393Y-122556990D01*
X109013010Y-122695607D01*
X109121921Y-122858603D01*
X109196940Y-123039715D01*
X109235185Y-123231983D01*
X109235185Y-123428017D01*
X109196940Y-123620285D01*
X109121921Y-123801397D01*
X109013010Y-123964393D01*
X108874393Y-124103010D01*
X108711397Y-124211921D01*
X108530285Y-124286940D01*
X108338017Y-124325185D01*
X108141983Y-124325185D01*
X107949715Y-124286940D01*
X107768603Y-124211921D01*
X107605607Y-124103010D01*
X107466990Y-123964393D01*
X107358079Y-123801397D01*
X107283060Y-123620285D01*
X107244815Y-123428017D01*
X107244815Y-123231983D01*
X107283060Y-123039715D01*
X107358079Y-122858603D01*
X107466990Y-122695607D01*
X107605607Y-122556990D01*
X107768603Y-122448079D01*
X107949715Y-122373060D01*
X108141983Y-122334815D01*
X108338017Y-122334815D01*
X108530285Y-122373060D01*
G37*
G36*
X115030285Y-122373060D02*
G01*
X115211397Y-122448079D01*
X115374393Y-122556990D01*
X115513010Y-122695607D01*
X115621921Y-122858603D01*
X115696940Y-123039715D01*
X115735185Y-123231983D01*
X115735185Y-123428017D01*
X115696940Y-123620285D01*
X115621921Y-123801397D01*
X115513010Y-123964393D01*
X115374393Y-124103010D01*
X115211397Y-124211921D01*
X115030285Y-124286940D01*
X114838017Y-124325185D01*
X114641983Y-124325185D01*
X114449715Y-124286940D01*
X114268603Y-124211921D01*
X114105607Y-124103010D01*
X113966990Y-123964393D01*
X113858079Y-123801397D01*
X113783060Y-123620285D01*
X113744815Y-123428017D01*
X113744815Y-123231983D01*
X113783060Y-123039715D01*
X113858079Y-122858603D01*
X113966990Y-122695607D01*
X114105607Y-122556990D01*
X114268603Y-122448079D01*
X114449715Y-122373060D01*
X114641983Y-122334815D01*
X114838017Y-122334815D01*
X115030285Y-122373060D01*
G37*
G36*
X118154047Y-122600805D02*
G01*
X118205408Y-122606764D01*
X118222954Y-122614511D01*
X118245671Y-122619030D01*
X118269991Y-122635280D01*
X118290793Y-122644465D01*
X118305000Y-122658672D01*
X118326777Y-122673223D01*
X118341327Y-122694999D01*
X118355534Y-122709206D01*
X118364718Y-122730006D01*
X118380970Y-122754329D01*
X118385489Y-122777048D01*
X118393235Y-122794591D01*
X118399192Y-122845940D01*
X118400000Y-122850000D01*
X118400000Y-123750000D01*
X118399192Y-123754059D01*
X118393235Y-123805408D01*
X118385489Y-123822950D01*
X118380970Y-123845671D01*
X118364716Y-123869995D01*
X118355534Y-123890793D01*
X118341329Y-123904997D01*
X118326777Y-123926777D01*
X118304997Y-123941329D01*
X118290793Y-123955534D01*
X118269995Y-123964716D01*
X118245671Y-123980970D01*
X118222950Y-123985489D01*
X118205408Y-123993235D01*
X118154061Y-123999192D01*
X118150000Y-124000000D01*
X117450000Y-124000000D01*
X117445941Y-123999192D01*
X117394591Y-123993235D01*
X117377048Y-123985489D01*
X117354329Y-123980970D01*
X117330006Y-123964718D01*
X117309206Y-123955534D01*
X117294999Y-123941327D01*
X117273223Y-123926777D01*
X117258672Y-123905000D01*
X117244465Y-123890793D01*
X117235280Y-123869991D01*
X117219030Y-123845671D01*
X117214511Y-123822954D01*
X117206764Y-123805408D01*
X117200805Y-123754049D01*
X117200000Y-123750000D01*
X117200000Y-122850000D01*
X117200804Y-122845953D01*
X117206764Y-122794591D01*
X117214511Y-122777043D01*
X117219030Y-122754329D01*
X117235278Y-122730010D01*
X117244465Y-122709206D01*
X117258674Y-122694996D01*
X117273223Y-122673223D01*
X117294996Y-122658674D01*
X117309206Y-122644465D01*
X117330010Y-122635278D01*
X117354329Y-122619030D01*
X117377043Y-122614511D01*
X117394591Y-122606764D01*
X117445952Y-122600805D01*
X117450000Y-122600000D01*
X118150000Y-122600000D01*
X118154047Y-122600805D01*
G37*
G36*
X120154047Y-122600805D02*
G01*
X120205408Y-122606764D01*
X120222954Y-122614511D01*
X120245671Y-122619030D01*
X120269991Y-122635280D01*
X120290793Y-122644465D01*
X120305000Y-122658672D01*
X120326777Y-122673223D01*
X120341327Y-122694999D01*
X120355534Y-122709206D01*
X120364718Y-122730006D01*
X120380970Y-122754329D01*
X120385489Y-122777048D01*
X120393235Y-122794591D01*
X120399192Y-122845940D01*
X120400000Y-122850000D01*
X120400000Y-123750000D01*
X120399192Y-123754059D01*
X120393235Y-123805408D01*
X120385489Y-123822950D01*
X120380970Y-123845671D01*
X120364716Y-123869995D01*
X120355534Y-123890793D01*
X120341329Y-123904997D01*
X120326777Y-123926777D01*
X120304997Y-123941329D01*
X120290793Y-123955534D01*
X120269995Y-123964716D01*
X120245671Y-123980970D01*
X120222950Y-123985489D01*
X120205408Y-123993235D01*
X120154061Y-123999192D01*
X120150000Y-124000000D01*
X119450000Y-124000000D01*
X119445941Y-123999192D01*
X119394591Y-123993235D01*
X119377048Y-123985489D01*
X119354329Y-123980970D01*
X119330006Y-123964718D01*
X119309206Y-123955534D01*
X119294999Y-123941327D01*
X119273223Y-123926777D01*
X119258672Y-123905000D01*
X119244465Y-123890793D01*
X119235280Y-123869991D01*
X119219030Y-123845671D01*
X119214511Y-123822954D01*
X119206764Y-123805408D01*
X119200805Y-123754049D01*
X119200000Y-123750000D01*
X119200000Y-122850000D01*
X119200804Y-122845953D01*
X119206764Y-122794591D01*
X119214511Y-122777043D01*
X119219030Y-122754329D01*
X119235278Y-122730010D01*
X119244465Y-122709206D01*
X119258674Y-122694996D01*
X119273223Y-122673223D01*
X119294996Y-122658674D01*
X119309206Y-122644465D01*
X119330010Y-122635278D01*
X119354329Y-122619030D01*
X119377043Y-122614511D01*
X119394591Y-122606764D01*
X119445952Y-122600805D01*
X119450000Y-122600000D01*
X120150000Y-122600000D01*
X120154047Y-122600805D01*
G37*
G36*
X134354047Y-121700805D02*
G01*
X134405408Y-121706764D01*
X134422954Y-121714511D01*
X134445671Y-121719030D01*
X134469991Y-121735280D01*
X134490793Y-121744465D01*
X134505000Y-121758672D01*
X134526777Y-121773223D01*
X134541327Y-121794999D01*
X134555534Y-121809206D01*
X134564718Y-121830006D01*
X134580970Y-121854329D01*
X134585489Y-121877048D01*
X134593235Y-121894591D01*
X134599192Y-121945940D01*
X134600000Y-121950000D01*
X134600000Y-122650000D01*
X134599192Y-122654059D01*
X134593235Y-122705408D01*
X134585489Y-122722950D01*
X134580970Y-122745671D01*
X134564716Y-122769995D01*
X134555534Y-122790793D01*
X134541329Y-122804997D01*
X134526777Y-122826777D01*
X134504997Y-122841329D01*
X134490793Y-122855534D01*
X134469995Y-122864716D01*
X134445671Y-122880970D01*
X134422950Y-122885489D01*
X134405408Y-122893235D01*
X134354061Y-122899192D01*
X134350000Y-122900000D01*
X133450000Y-122900000D01*
X133445941Y-122899192D01*
X133394591Y-122893235D01*
X133377048Y-122885489D01*
X133354329Y-122880970D01*
X133330006Y-122864718D01*
X133309206Y-122855534D01*
X133294999Y-122841327D01*
X133273223Y-122826777D01*
X133258672Y-122805000D01*
X133244465Y-122790793D01*
X133235280Y-122769991D01*
X133219030Y-122745671D01*
X133214511Y-122722954D01*
X133206764Y-122705408D01*
X133200805Y-122654049D01*
X133200000Y-122650000D01*
X133200000Y-121950000D01*
X133200804Y-121945953D01*
X133206764Y-121894591D01*
X133214511Y-121877043D01*
X133219030Y-121854329D01*
X133235278Y-121830010D01*
X133244465Y-121809206D01*
X133258674Y-121794996D01*
X133273223Y-121773223D01*
X133294996Y-121758674D01*
X133309206Y-121744465D01*
X133330010Y-121735278D01*
X133354329Y-121719030D01*
X133377043Y-121714511D01*
X133394591Y-121706764D01*
X133445952Y-121700805D01*
X133450000Y-121700000D01*
X134350000Y-121700000D01*
X134354047Y-121700805D01*
G37*
G36*
X125202764Y-120631577D02*
G01*
X125329271Y-120683978D01*
X125443124Y-120760052D01*
X125539948Y-120856876D01*
X125616022Y-120970729D01*
X125668423Y-121097236D01*
X125695137Y-121231535D01*
X125695137Y-121368465D01*
X125668423Y-121502764D01*
X125616022Y-121629271D01*
X125539948Y-121743124D01*
X125443124Y-121839948D01*
X125329271Y-121916022D01*
X125202764Y-121968423D01*
X125068465Y-121995137D01*
X124931535Y-121995137D01*
X124797236Y-121968423D01*
X124670729Y-121916022D01*
X124556876Y-121839948D01*
X124460052Y-121743124D01*
X124383978Y-121629271D01*
X124331577Y-121502764D01*
X124304863Y-121368465D01*
X124304863Y-121231535D01*
X124331577Y-121097236D01*
X124383978Y-120970729D01*
X124460052Y-120856876D01*
X124556876Y-120760052D01*
X124670729Y-120683978D01*
X124797236Y-120631577D01*
X124931535Y-120604863D01*
X125068465Y-120604863D01*
X125202764Y-120631577D01*
G37*
G36*
X127702764Y-120631577D02*
G01*
X127829271Y-120683978D01*
X127943124Y-120760052D01*
X128039948Y-120856876D01*
X128116022Y-120970729D01*
X128168423Y-121097236D01*
X128195137Y-121231535D01*
X128195137Y-121368465D01*
X128168423Y-121502764D01*
X128116022Y-121629271D01*
X128039948Y-121743124D01*
X127943124Y-121839948D01*
X127829271Y-121916022D01*
X127702764Y-121968423D01*
X127568465Y-121995137D01*
X127431535Y-121995137D01*
X127297236Y-121968423D01*
X127170729Y-121916022D01*
X127056876Y-121839948D01*
X126960052Y-121743124D01*
X126883978Y-121629271D01*
X126831577Y-121502764D01*
X126804863Y-121368465D01*
X126804863Y-121231535D01*
X126831577Y-121097236D01*
X126883978Y-120970729D01*
X126960052Y-120856876D01*
X127056876Y-120760052D01*
X127170729Y-120683978D01*
X127297236Y-120631577D01*
X127431535Y-120604863D01*
X127568465Y-120604863D01*
X127702764Y-120631577D01*
G37*
G36*
X130202764Y-120631577D02*
G01*
X130329271Y-120683978D01*
X130443124Y-120760052D01*
X130539948Y-120856876D01*
X130616022Y-120970729D01*
X130668423Y-121097236D01*
X130695137Y-121231535D01*
X130695137Y-121368465D01*
X130668423Y-121502764D01*
X130616022Y-121629271D01*
X130539948Y-121743124D01*
X130443124Y-121839948D01*
X130329271Y-121916022D01*
X130202764Y-121968423D01*
X130068465Y-121995137D01*
X129931535Y-121995137D01*
X129797236Y-121968423D01*
X129670729Y-121916022D01*
X129556876Y-121839948D01*
X129460052Y-121743124D01*
X129383978Y-121629271D01*
X129331577Y-121502764D01*
X129304863Y-121368465D01*
X129304863Y-121231535D01*
X129331577Y-121097236D01*
X129383978Y-120970729D01*
X129460052Y-120856876D01*
X129556876Y-120760052D01*
X129670729Y-120683978D01*
X129797236Y-120631577D01*
X129931535Y-120604863D01*
X130068465Y-120604863D01*
X130202764Y-120631577D01*
G37*
G36*
X107680000Y-118040000D02*
G01*
X105880000Y-118040000D01*
X105880000Y-116240000D01*
X107680000Y-116240000D01*
X107680000Y-118040000D01*
G37*
G36*
X109581256Y-116278754D02*
G01*
X109744257Y-116346271D01*
X109890954Y-116444291D01*
X110015709Y-116569046D01*
X110113729Y-116715743D01*
X110181246Y-116878744D01*
X110215666Y-117051785D01*
X110215666Y-117228215D01*
X110181246Y-117401256D01*
X110113729Y-117564257D01*
X110015709Y-117710954D01*
X109890954Y-117835709D01*
X109744257Y-117933729D01*
X109581256Y-118001246D01*
X109408215Y-118035666D01*
X109231785Y-118035666D01*
X109058744Y-118001246D01*
X108895743Y-117933729D01*
X108749046Y-117835709D01*
X108624291Y-117710954D01*
X108526271Y-117564257D01*
X108458754Y-117401256D01*
X108424334Y-117228215D01*
X108424334Y-117051785D01*
X108458754Y-116878744D01*
X108526271Y-116715743D01*
X108624291Y-116569046D01*
X108749046Y-116444291D01*
X108895743Y-116346271D01*
X109058744Y-116278754D01*
X109231785Y-116244334D01*
X109408215Y-116244334D01*
X109581256Y-116278754D01*
G37*
G36*
X134975000Y-117600000D02*
G01*
X133175000Y-117600000D01*
X133175000Y-115800000D01*
X134975000Y-115800000D01*
X134975000Y-117600000D01*
G37*
G36*
X131796256Y-115838754D02*
G01*
X131959257Y-115906271D01*
X132105954Y-116004291D01*
X132230709Y-116129046D01*
X132328729Y-116275743D01*
X132396246Y-116438744D01*
X132430666Y-116611785D01*
X132430666Y-116788215D01*
X132396246Y-116961256D01*
X132328729Y-117124257D01*
X132230709Y-117270954D01*
X132105954Y-117395709D01*
X131959257Y-117493729D01*
X131796256Y-117561246D01*
X131623215Y-117595666D01*
X131446785Y-117595666D01*
X131273744Y-117561246D01*
X131110743Y-117493729D01*
X130964046Y-117395709D01*
X130839291Y-117270954D01*
X130741271Y-117124257D01*
X130673754Y-116961256D01*
X130639334Y-116788215D01*
X130639334Y-116611785D01*
X130673754Y-116438744D01*
X130741271Y-116275743D01*
X130839291Y-116129046D01*
X130964046Y-116004291D01*
X131110743Y-115906271D01*
X131273744Y-115838754D01*
X131446785Y-115804334D01*
X131623215Y-115804334D01*
X131796256Y-115838754D01*
G37*
G36*
X117332228Y-115394448D02*
G01*
X117477117Y-115454463D01*
X117607515Y-115541592D01*
X117718408Y-115652485D01*
X117805537Y-115782883D01*
X117865552Y-115927772D01*
X117896148Y-116081586D01*
X117896148Y-116238414D01*
X117865552Y-116392228D01*
X117805537Y-116537117D01*
X117718408Y-116667515D01*
X117607515Y-116778408D01*
X117477117Y-116865537D01*
X117332228Y-116925552D01*
X117178414Y-116956148D01*
X117021586Y-116956148D01*
X116867772Y-116925552D01*
X116722883Y-116865537D01*
X116592485Y-116778408D01*
X116481592Y-116667515D01*
X116394463Y-116537117D01*
X116334448Y-116392228D01*
X116303852Y-116238414D01*
X116303852Y-116081586D01*
X116334448Y-115927772D01*
X116394463Y-115782883D01*
X116481592Y-115652485D01*
X116592485Y-115541592D01*
X116722883Y-115454463D01*
X116867772Y-115394448D01*
X117021586Y-115363852D01*
X117178414Y-115363852D01*
X117332228Y-115394448D01*
G37*
G36*
X124952228Y-115394448D02*
G01*
X125097117Y-115454463D01*
X125227515Y-115541592D01*
X125338408Y-115652485D01*
X125425537Y-115782883D01*
X125485552Y-115927772D01*
X125516148Y-116081586D01*
X125516148Y-116238414D01*
X125485552Y-116392228D01*
X125425537Y-116537117D01*
X125338408Y-116667515D01*
X125227515Y-116778408D01*
X125097117Y-116865537D01*
X124952228Y-116925552D01*
X124798414Y-116956148D01*
X124641586Y-116956148D01*
X124487772Y-116925552D01*
X124342883Y-116865537D01*
X124212485Y-116778408D01*
X124101592Y-116667515D01*
X124014463Y-116537117D01*
X123954448Y-116392228D01*
X123923852Y-116238414D01*
X123923852Y-116081586D01*
X123954448Y-115927772D01*
X124014463Y-115782883D01*
X124101592Y-115652485D01*
X124212485Y-115541592D01*
X124342883Y-115454463D01*
X124487772Y-115394448D01*
X124641586Y-115363852D01*
X124798414Y-115363852D01*
X124952228Y-115394448D01*
G37*
G36*
X112854047Y-115510805D02*
G01*
X112905408Y-115516764D01*
X112922954Y-115524511D01*
X112945671Y-115529030D01*
X112969991Y-115545280D01*
X112990793Y-115554465D01*
X113005000Y-115568672D01*
X113026777Y-115583223D01*
X113041327Y-115604999D01*
X113055534Y-115619206D01*
X113064718Y-115640006D01*
X113080970Y-115664329D01*
X113085489Y-115687048D01*
X113093235Y-115704591D01*
X113099192Y-115755940D01*
X113100000Y-115760000D01*
X113100000Y-116660000D01*
X113099192Y-116664059D01*
X113093235Y-116715408D01*
X113085489Y-116732950D01*
X113080970Y-116755671D01*
X113064716Y-116779995D01*
X113055534Y-116800793D01*
X113041329Y-116814997D01*
X113026777Y-116836777D01*
X113004997Y-116851329D01*
X112990793Y-116865534D01*
X112969995Y-116874716D01*
X112945671Y-116890970D01*
X112922950Y-116895489D01*
X112905408Y-116903235D01*
X112854061Y-116909192D01*
X112850000Y-116910000D01*
X112150000Y-116910000D01*
X112145941Y-116909192D01*
X112094591Y-116903235D01*
X112077048Y-116895489D01*
X112054329Y-116890970D01*
X112030006Y-116874718D01*
X112009206Y-116865534D01*
X111994999Y-116851327D01*
X111973223Y-116836777D01*
X111958672Y-116815000D01*
X111944465Y-116800793D01*
X111935280Y-116779991D01*
X111919030Y-116755671D01*
X111914511Y-116732954D01*
X111906764Y-116715408D01*
X111900805Y-116664049D01*
X111900000Y-116660000D01*
X111900000Y-115760000D01*
X111900804Y-115755953D01*
X111906764Y-115704591D01*
X111914511Y-115687043D01*
X111919030Y-115664329D01*
X111935278Y-115640010D01*
X111944465Y-115619206D01*
X111958674Y-115604996D01*
X111973223Y-115583223D01*
X111994996Y-115568674D01*
X112009206Y-115554465D01*
X112030010Y-115545278D01*
X112054329Y-115529030D01*
X112077043Y-115524511D01*
X112094591Y-115516764D01*
X112145952Y-115510805D01*
X112150000Y-115510000D01*
X112850000Y-115510000D01*
X112854047Y-115510805D01*
G37*
G36*
X114854047Y-115510805D02*
G01*
X114905408Y-115516764D01*
X114922954Y-115524511D01*
X114945671Y-115529030D01*
X114969991Y-115545280D01*
X114990793Y-115554465D01*
X115005000Y-115568672D01*
X115026777Y-115583223D01*
X115041327Y-115604999D01*
X115055534Y-115619206D01*
X115064718Y-115640006D01*
X115080970Y-115664329D01*
X115085489Y-115687048D01*
X115093235Y-115704591D01*
X115099192Y-115755940D01*
X115100000Y-115760000D01*
X115100000Y-116660000D01*
X115099192Y-116664059D01*
X115093235Y-116715408D01*
X115085489Y-116732950D01*
X115080970Y-116755671D01*
X115064716Y-116779995D01*
X115055534Y-116800793D01*
X115041329Y-116814997D01*
X115026777Y-116836777D01*
X115004997Y-116851329D01*
X114990793Y-116865534D01*
X114969995Y-116874716D01*
X114945671Y-116890970D01*
X114922950Y-116895489D01*
X114905408Y-116903235D01*
X114854061Y-116909192D01*
X114850000Y-116910000D01*
X114150000Y-116910000D01*
X114145941Y-116909192D01*
X114094591Y-116903235D01*
X114077048Y-116895489D01*
X114054329Y-116890970D01*
X114030006Y-116874718D01*
X114009206Y-116865534D01*
X113994999Y-116851327D01*
X113973223Y-116836777D01*
X113958672Y-116815000D01*
X113944465Y-116800793D01*
X113935280Y-116779991D01*
X113919030Y-116755671D01*
X113914511Y-116732954D01*
X113906764Y-116715408D01*
X113900805Y-116664049D01*
X113900000Y-116660000D01*
X113900000Y-115760000D01*
X113900804Y-115755953D01*
X113906764Y-115704591D01*
X113914511Y-115687043D01*
X113919030Y-115664329D01*
X113935278Y-115640010D01*
X113944465Y-115619206D01*
X113958674Y-115604996D01*
X113973223Y-115583223D01*
X113994996Y-115568674D01*
X114009206Y-115554465D01*
X114030010Y-115545278D01*
X114054329Y-115529030D01*
X114077043Y-115524511D01*
X114094591Y-115516764D01*
X114145952Y-115510805D01*
X114150000Y-115510000D01*
X114850000Y-115510000D01*
X114854047Y-115510805D01*
G37*
G36*
X127054047Y-115400805D02*
G01*
X127105408Y-115406764D01*
X127122954Y-115414511D01*
X127145671Y-115419030D01*
X127169991Y-115435280D01*
X127190793Y-115444465D01*
X127205000Y-115458672D01*
X127226777Y-115473223D01*
X127241327Y-115494999D01*
X127255534Y-115509206D01*
X127264718Y-115530006D01*
X127280970Y-115554329D01*
X127285489Y-115577048D01*
X127293235Y-115594591D01*
X127299192Y-115645940D01*
X127300000Y-115650000D01*
X127300000Y-116550000D01*
X127299192Y-116554059D01*
X127293235Y-116605408D01*
X127285489Y-116622950D01*
X127280970Y-116645671D01*
X127264716Y-116669995D01*
X127255534Y-116690793D01*
X127241329Y-116704997D01*
X127226777Y-116726777D01*
X127204997Y-116741329D01*
X127190793Y-116755534D01*
X127169995Y-116764716D01*
X127145671Y-116780970D01*
X127122950Y-116785489D01*
X127105408Y-116793235D01*
X127054061Y-116799192D01*
X127050000Y-116800000D01*
X126350000Y-116800000D01*
X126345941Y-116799192D01*
X126294591Y-116793235D01*
X126277048Y-116785489D01*
X126254329Y-116780970D01*
X126230006Y-116764718D01*
X126209206Y-116755534D01*
X126194999Y-116741327D01*
X126173223Y-116726777D01*
X126158672Y-116705000D01*
X126144465Y-116690793D01*
X126135280Y-116669991D01*
X126119030Y-116645671D01*
X126114511Y-116622954D01*
X126106764Y-116605408D01*
X126100805Y-116554049D01*
X126100000Y-116550000D01*
X126100000Y-115650000D01*
X126100804Y-115645953D01*
X126106764Y-115594591D01*
X126114511Y-115577043D01*
X126119030Y-115554329D01*
X126135278Y-115530010D01*
X126144465Y-115509206D01*
X126158674Y-115494996D01*
X126173223Y-115473223D01*
X126194996Y-115458674D01*
X126209206Y-115444465D01*
X126230010Y-115435278D01*
X126254329Y-115419030D01*
X126277043Y-115414511D01*
X126294591Y-115406764D01*
X126345952Y-115400805D01*
X126350000Y-115400000D01*
X127050000Y-115400000D01*
X127054047Y-115400805D01*
G37*
G36*
X129054047Y-115400805D02*
G01*
X129105408Y-115406764D01*
X129122954Y-115414511D01*
X129145671Y-115419030D01*
X129169991Y-115435280D01*
X129190793Y-115444465D01*
X129205000Y-115458672D01*
X129226777Y-115473223D01*
X129241327Y-115494999D01*
X129255534Y-115509206D01*
X129264718Y-115530006D01*
X129280970Y-115554329D01*
X129285489Y-115577048D01*
X129293235Y-115594591D01*
X129299192Y-115645940D01*
X129300000Y-115650000D01*
X129300000Y-116550000D01*
X129299192Y-116554059D01*
X129293235Y-116605408D01*
X129285489Y-116622950D01*
X129280970Y-116645671D01*
X129264716Y-116669995D01*
X129255534Y-116690793D01*
X129241329Y-116704997D01*
X129226777Y-116726777D01*
X129204997Y-116741329D01*
X129190793Y-116755534D01*
X129169995Y-116764716D01*
X129145671Y-116780970D01*
X129122950Y-116785489D01*
X129105408Y-116793235D01*
X129054061Y-116799192D01*
X129050000Y-116800000D01*
X128350000Y-116800000D01*
X128345941Y-116799192D01*
X128294591Y-116793235D01*
X128277048Y-116785489D01*
X128254329Y-116780970D01*
X128230006Y-116764718D01*
X128209206Y-116755534D01*
X128194999Y-116741327D01*
X128173223Y-116726777D01*
X128158672Y-116705000D01*
X128144465Y-116690793D01*
X128135280Y-116669991D01*
X128119030Y-116645671D01*
X128114511Y-116622954D01*
X128106764Y-116605408D01*
X128100805Y-116554049D01*
X128100000Y-116550000D01*
X128100000Y-115650000D01*
X128100804Y-115645953D01*
X128106764Y-115594591D01*
X128114511Y-115577043D01*
X128119030Y-115554329D01*
X128135278Y-115530010D01*
X128144465Y-115509206D01*
X128158674Y-115494996D01*
X128173223Y-115473223D01*
X128194996Y-115458674D01*
X128209206Y-115444465D01*
X128230010Y-115435278D01*
X128254329Y-115419030D01*
X128277043Y-115414511D01*
X128294591Y-115406764D01*
X128345952Y-115400805D01*
X128350000Y-115400000D01*
X129050000Y-115400000D01*
X129054047Y-115400805D01*
G37*
G36*
X140473513Y-113044208D02*
G01*
X140712293Y-113121793D01*
X140935998Y-113235776D01*
X141139117Y-113383350D01*
X141316650Y-113560883D01*
X141464224Y-113764002D01*
X141578207Y-113987707D01*
X141655792Y-114226487D01*
X141695068Y-114474465D01*
X141695068Y-114725535D01*
X141655792Y-114973513D01*
X141578207Y-115212293D01*
X141464224Y-115435998D01*
X141316650Y-115639117D01*
X141139117Y-115816650D01*
X140935998Y-115964224D01*
X140712293Y-116078207D01*
X140473513Y-116155792D01*
X140225535Y-116195068D01*
X139974465Y-116195068D01*
X139726487Y-116155792D01*
X139487707Y-116078207D01*
X139264002Y-115964224D01*
X139060883Y-115816650D01*
X138883350Y-115639117D01*
X138735776Y-115435998D01*
X138621793Y-115212293D01*
X138544208Y-114973513D01*
X138504932Y-114725535D01*
X138504932Y-114474465D01*
X138544208Y-114226487D01*
X138621793Y-113987707D01*
X138735776Y-113764002D01*
X138883350Y-113560883D01*
X139060883Y-113383350D01*
X139264002Y-113235776D01*
X139487707Y-113121793D01*
X139726487Y-113044208D01*
X139974465Y-113004932D01*
X140225535Y-113004932D01*
X140473513Y-113044208D01*
G37*
G36*
X117332228Y-112854448D02*
G01*
X117477117Y-112914463D01*
X117607515Y-113001592D01*
X117718408Y-113112485D01*
X117805537Y-113242883D01*
X117865552Y-113387772D01*
X117896148Y-113541586D01*
X117896148Y-113698414D01*
X117865552Y-113852228D01*
X117805537Y-113997117D01*
X117718408Y-114127515D01*
X117607515Y-114238408D01*
X117477117Y-114325537D01*
X117332228Y-114385552D01*
X117178414Y-114416148D01*
X117021586Y-114416148D01*
X116867772Y-114385552D01*
X116722883Y-114325537D01*
X116592485Y-114238408D01*
X116481592Y-114127515D01*
X116394463Y-113997117D01*
X116334448Y-113852228D01*
X116303852Y-113698414D01*
X116303852Y-113541586D01*
X116334448Y-113387772D01*
X116394463Y-113242883D01*
X116481592Y-113112485D01*
X116592485Y-113001592D01*
X116722883Y-112914463D01*
X116867772Y-112854448D01*
X117021586Y-112823852D01*
X117178414Y-112823852D01*
X117332228Y-112854448D01*
G37*
G36*
X124952228Y-112854448D02*
G01*
X125097117Y-112914463D01*
X125227515Y-113001592D01*
X125338408Y-113112485D01*
X125425537Y-113242883D01*
X125485552Y-113387772D01*
X125516148Y-113541586D01*
X125516148Y-113698414D01*
X125485552Y-113852228D01*
X125425537Y-113997117D01*
X125338408Y-114127515D01*
X125227515Y-114238408D01*
X125097117Y-114325537D01*
X124952228Y-114385552D01*
X124798414Y-114416148D01*
X124641586Y-114416148D01*
X124487772Y-114385552D01*
X124342883Y-114325537D01*
X124212485Y-114238408D01*
X124101592Y-114127515D01*
X124014463Y-113997117D01*
X123954448Y-113852228D01*
X123923852Y-113698414D01*
X123923852Y-113541586D01*
X123954448Y-113387772D01*
X124014463Y-113242883D01*
X124101592Y-113112485D01*
X124212485Y-113001592D01*
X124342883Y-112914463D01*
X124487772Y-112854448D01*
X124641586Y-112823852D01*
X124798414Y-112823852D01*
X124952228Y-112854448D01*
G37*
G36*
X111426537Y-108415224D02*
G01*
X111491421Y-108458579D01*
X111534776Y-108523463D01*
X111550000Y-108600000D01*
X111550000Y-112700000D01*
X111534776Y-112776537D01*
X111491421Y-112841421D01*
X111426537Y-112884776D01*
X111350000Y-112900000D01*
X109750000Y-112900000D01*
X109673463Y-112884776D01*
X109608579Y-112841421D01*
X109565224Y-112776537D01*
X109550000Y-112700000D01*
X109550000Y-108600000D01*
X109565224Y-108523463D01*
X109608579Y-108458579D01*
X109673463Y-108415224D01*
X109750000Y-108400000D01*
X111350000Y-108400000D01*
X111426537Y-108415224D01*
G37*
G36*
X117332228Y-110314448D02*
G01*
X117477117Y-110374463D01*
X117607515Y-110461592D01*
X117718408Y-110572485D01*
X117805537Y-110702883D01*
X117865552Y-110847772D01*
X117896148Y-111001586D01*
X117896148Y-111158414D01*
X117865552Y-111312228D01*
X117805537Y-111457117D01*
X117718408Y-111587515D01*
X117607515Y-111698408D01*
X117477117Y-111785537D01*
X117332228Y-111845552D01*
X117178414Y-111876148D01*
X117021586Y-111876148D01*
X116867772Y-111845552D01*
X116722883Y-111785537D01*
X116592485Y-111698408D01*
X116481592Y-111587515D01*
X116394463Y-111457117D01*
X116334448Y-111312228D01*
X116303852Y-111158414D01*
X116303852Y-111001586D01*
X116334448Y-110847772D01*
X116394463Y-110702883D01*
X116481592Y-110572485D01*
X116592485Y-110461592D01*
X116722883Y-110374463D01*
X116867772Y-110314448D01*
X117021586Y-110283852D01*
X117178414Y-110283852D01*
X117332228Y-110314448D01*
G37*
G36*
X124952228Y-110314448D02*
G01*
X125097117Y-110374463D01*
X125227515Y-110461592D01*
X125338408Y-110572485D01*
X125425537Y-110702883D01*
X125485552Y-110847772D01*
X125516148Y-111001586D01*
X125516148Y-111158414D01*
X125485552Y-111312228D01*
X125425537Y-111457117D01*
X125338408Y-111587515D01*
X125227515Y-111698408D01*
X125097117Y-111785537D01*
X124952228Y-111845552D01*
X124798414Y-111876148D01*
X124641586Y-111876148D01*
X124487772Y-111845552D01*
X124342883Y-111785537D01*
X124212485Y-111698408D01*
X124101592Y-111587515D01*
X124014463Y-111457117D01*
X123954448Y-111312228D01*
X123923852Y-111158414D01*
X123923852Y-111001586D01*
X123954448Y-110847772D01*
X124014463Y-110702883D01*
X124101592Y-110572485D01*
X124212485Y-110461592D01*
X124342883Y-110374463D01*
X124487772Y-110314448D01*
X124641586Y-110283852D01*
X124798414Y-110283852D01*
X124952228Y-110314448D01*
G37*
G36*
X127054047Y-109700805D02*
G01*
X127105408Y-109706764D01*
X127122954Y-109714511D01*
X127145671Y-109719030D01*
X127169991Y-109735280D01*
X127190793Y-109744465D01*
X127205000Y-109758672D01*
X127226777Y-109773223D01*
X127241327Y-109794999D01*
X127255534Y-109809206D01*
X127264718Y-109830006D01*
X127280970Y-109854329D01*
X127285489Y-109877048D01*
X127293235Y-109894591D01*
X127299192Y-109945940D01*
X127300000Y-109950000D01*
X127300000Y-110850000D01*
X127299192Y-110854059D01*
X127293235Y-110905408D01*
X127285489Y-110922950D01*
X127280970Y-110945671D01*
X127264716Y-110969995D01*
X127255534Y-110990793D01*
X127241329Y-111004997D01*
X127226777Y-111026777D01*
X127204997Y-111041329D01*
X127190793Y-111055534D01*
X127169995Y-111064716D01*
X127145671Y-111080970D01*
X127122950Y-111085489D01*
X127105408Y-111093235D01*
X127054061Y-111099192D01*
X127050000Y-111100000D01*
X126350000Y-111100000D01*
X126345941Y-111099192D01*
X126294591Y-111093235D01*
X126277048Y-111085489D01*
X126254329Y-111080970D01*
X126230006Y-111064718D01*
X126209206Y-111055534D01*
X126194999Y-111041327D01*
X126173223Y-111026777D01*
X126158672Y-111005000D01*
X126144465Y-110990793D01*
X126135280Y-110969991D01*
X126119030Y-110945671D01*
X126114511Y-110922954D01*
X126106764Y-110905408D01*
X126100805Y-110854049D01*
X126100000Y-110850000D01*
X126100000Y-109950000D01*
X126100804Y-109945953D01*
X126106764Y-109894591D01*
X126114511Y-109877043D01*
X126119030Y-109854329D01*
X126135278Y-109830010D01*
X126144465Y-109809206D01*
X126158674Y-109794996D01*
X126173223Y-109773223D01*
X126194996Y-109758674D01*
X126209206Y-109744465D01*
X126230010Y-109735278D01*
X126254329Y-109719030D01*
X126277043Y-109714511D01*
X126294591Y-109706764D01*
X126345952Y-109700805D01*
X126350000Y-109700000D01*
X127050000Y-109700000D01*
X127054047Y-109700805D01*
G37*
G36*
X129054047Y-109700805D02*
G01*
X129105408Y-109706764D01*
X129122954Y-109714511D01*
X129145671Y-109719030D01*
X129169991Y-109735280D01*
X129190793Y-109744465D01*
X129205000Y-109758672D01*
X129226777Y-109773223D01*
X129241327Y-109794999D01*
X129255534Y-109809206D01*
X129264718Y-109830006D01*
X129280970Y-109854329D01*
X129285489Y-109877048D01*
X129293235Y-109894591D01*
X129299192Y-109945940D01*
X129300000Y-109950000D01*
X129300000Y-110850000D01*
X129299192Y-110854059D01*
X129293235Y-110905408D01*
X129285489Y-110922950D01*
X129280970Y-110945671D01*
X129264716Y-110969995D01*
X129255534Y-110990793D01*
X129241329Y-111004997D01*
X129226777Y-111026777D01*
X129204997Y-111041329D01*
X129190793Y-111055534D01*
X129169995Y-111064716D01*
X129145671Y-111080970D01*
X129122950Y-111085489D01*
X129105408Y-111093235D01*
X129054061Y-111099192D01*
X129050000Y-111100000D01*
X128350000Y-111100000D01*
X128345941Y-111099192D01*
X128294591Y-111093235D01*
X128277048Y-111085489D01*
X128254329Y-111080970D01*
X128230006Y-111064718D01*
X128209206Y-111055534D01*
X128194999Y-111041327D01*
X128173223Y-111026777D01*
X128158672Y-111005000D01*
X128144465Y-110990793D01*
X128135280Y-110969991D01*
X128119030Y-110945671D01*
X128114511Y-110922954D01*
X128106764Y-110905408D01*
X128100805Y-110854049D01*
X128100000Y-110850000D01*
X128100000Y-109950000D01*
X128100804Y-109945953D01*
X128106764Y-109894591D01*
X128114511Y-109877043D01*
X128119030Y-109854329D01*
X128135278Y-109830010D01*
X128144465Y-109809206D01*
X128158674Y-109794996D01*
X128173223Y-109773223D01*
X128194996Y-109758674D01*
X128209206Y-109744465D01*
X128230010Y-109735278D01*
X128254329Y-109719030D01*
X128277043Y-109714511D01*
X128294591Y-109706764D01*
X128345952Y-109700805D01*
X128350000Y-109700000D01*
X129050000Y-109700000D01*
X129054047Y-109700805D01*
G37*
G36*
X104044047Y-107900805D02*
G01*
X104095408Y-107906764D01*
X104112954Y-107914511D01*
X104135671Y-107919030D01*
X104159991Y-107935280D01*
X104180793Y-107944465D01*
X104195000Y-107958672D01*
X104216777Y-107973223D01*
X104231327Y-107994999D01*
X104245534Y-108009206D01*
X104254718Y-108030006D01*
X104270970Y-108054329D01*
X104275489Y-108077048D01*
X104283235Y-108094591D01*
X104289192Y-108145940D01*
X104290000Y-108150000D01*
X104290000Y-109450000D01*
X104289192Y-109454059D01*
X104283235Y-109505408D01*
X104275489Y-109522950D01*
X104270970Y-109545671D01*
X104254716Y-109569995D01*
X104245534Y-109590793D01*
X104231329Y-109604997D01*
X104216777Y-109626777D01*
X104194997Y-109641329D01*
X104180793Y-109655534D01*
X104159995Y-109664716D01*
X104135671Y-109680970D01*
X104112950Y-109685489D01*
X104095408Y-109693235D01*
X104044061Y-109699192D01*
X104040000Y-109700000D01*
X103215000Y-109700000D01*
X103210941Y-109699192D01*
X103159591Y-109693235D01*
X103142048Y-109685489D01*
X103119329Y-109680970D01*
X103095006Y-109664718D01*
X103074206Y-109655534D01*
X103059999Y-109641327D01*
X103038223Y-109626777D01*
X103023672Y-109605000D01*
X103009465Y-109590793D01*
X103000280Y-109569991D01*
X102984030Y-109545671D01*
X102979511Y-109522954D01*
X102971764Y-109505408D01*
X102965805Y-109454049D01*
X102965000Y-109450000D01*
X102965000Y-108150000D01*
X102965804Y-108145953D01*
X102971764Y-108094591D01*
X102979511Y-108077043D01*
X102984030Y-108054329D01*
X103000278Y-108030010D01*
X103009465Y-108009206D01*
X103023674Y-107994996D01*
X103038223Y-107973223D01*
X103059996Y-107958674D01*
X103074206Y-107944465D01*
X103095010Y-107935278D01*
X103119329Y-107919030D01*
X103142043Y-107914511D01*
X103159591Y-107906764D01*
X103210952Y-107900805D01*
X103215000Y-107900000D01*
X104040000Y-107900000D01*
X104044047Y-107900805D01*
G37*
G36*
X107169047Y-107900805D02*
G01*
X107220408Y-107906764D01*
X107237954Y-107914511D01*
X107260671Y-107919030D01*
X107284991Y-107935280D01*
X107305793Y-107944465D01*
X107320000Y-107958672D01*
X107341777Y-107973223D01*
X107356327Y-107994999D01*
X107370534Y-108009206D01*
X107379718Y-108030006D01*
X107395970Y-108054329D01*
X107400489Y-108077048D01*
X107408235Y-108094591D01*
X107414192Y-108145940D01*
X107415000Y-108150000D01*
X107415000Y-109450000D01*
X107414192Y-109454059D01*
X107408235Y-109505408D01*
X107400489Y-109522950D01*
X107395970Y-109545671D01*
X107379716Y-109569995D01*
X107370534Y-109590793D01*
X107356329Y-109604997D01*
X107341777Y-109626777D01*
X107319997Y-109641329D01*
X107305793Y-109655534D01*
X107284995Y-109664716D01*
X107260671Y-109680970D01*
X107237950Y-109685489D01*
X107220408Y-109693235D01*
X107169061Y-109699192D01*
X107165000Y-109700000D01*
X106340000Y-109700000D01*
X106335941Y-109699192D01*
X106284591Y-109693235D01*
X106267048Y-109685489D01*
X106244329Y-109680970D01*
X106220006Y-109664718D01*
X106199206Y-109655534D01*
X106184999Y-109641327D01*
X106163223Y-109626777D01*
X106148672Y-109605000D01*
X106134465Y-109590793D01*
X106125280Y-109569991D01*
X106109030Y-109545671D01*
X106104511Y-109522954D01*
X106096764Y-109505408D01*
X106090805Y-109454049D01*
X106090000Y-109450000D01*
X106090000Y-108150000D01*
X106090804Y-108145953D01*
X106096764Y-108094591D01*
X106104511Y-108077043D01*
X106109030Y-108054329D01*
X106125278Y-108030010D01*
X106134465Y-108009206D01*
X106148674Y-107994996D01*
X106163223Y-107973223D01*
X106184996Y-107958674D01*
X106199206Y-107944465D01*
X106220010Y-107935278D01*
X106244329Y-107919030D01*
X106267043Y-107914511D01*
X106284591Y-107906764D01*
X106335952Y-107900805D01*
X106340000Y-107900000D01*
X107165000Y-107900000D01*
X107169047Y-107900805D01*
G37*
G36*
X117332228Y-107774448D02*
G01*
X117477117Y-107834463D01*
X117607515Y-107921592D01*
X117718408Y-108032485D01*
X117805537Y-108162883D01*
X117865552Y-108307772D01*
X117896148Y-108461586D01*
X117896148Y-108618414D01*
X117865552Y-108772228D01*
X117805537Y-108917117D01*
X117718408Y-109047515D01*
X117607515Y-109158408D01*
X117477117Y-109245537D01*
X117332228Y-109305552D01*
X117178414Y-109336148D01*
X117021586Y-109336148D01*
X116867772Y-109305552D01*
X116722883Y-109245537D01*
X116592485Y-109158408D01*
X116481592Y-109047515D01*
X116394463Y-108917117D01*
X116334448Y-108772228D01*
X116303852Y-108618414D01*
X116303852Y-108461586D01*
X116334448Y-108307772D01*
X116394463Y-108162883D01*
X116481592Y-108032485D01*
X116592485Y-107921592D01*
X116722883Y-107834463D01*
X116867772Y-107774448D01*
X117021586Y-107743852D01*
X117178414Y-107743852D01*
X117332228Y-107774448D01*
G37*
G36*
X124952228Y-107774448D02*
G01*
X125097117Y-107834463D01*
X125227515Y-107921592D01*
X125338408Y-108032485D01*
X125425537Y-108162883D01*
X125485552Y-108307772D01*
X125516148Y-108461586D01*
X125516148Y-108618414D01*
X125485552Y-108772228D01*
X125425537Y-108917117D01*
X125338408Y-109047515D01*
X125227515Y-109158408D01*
X125097117Y-109245537D01*
X124952228Y-109305552D01*
X124798414Y-109336148D01*
X124641586Y-109336148D01*
X124487772Y-109305552D01*
X124342883Y-109245537D01*
X124212485Y-109158408D01*
X124101592Y-109047515D01*
X124014463Y-108917117D01*
X123954448Y-108772228D01*
X123923852Y-108618414D01*
X123923852Y-108461586D01*
X123954448Y-108307772D01*
X124014463Y-108162883D01*
X124101592Y-108032485D01*
X124212485Y-107921592D01*
X124342883Y-107834463D01*
X124487772Y-107774448D01*
X124641586Y-107743852D01*
X124798414Y-107743852D01*
X124952228Y-107774448D01*
G37*
G36*
X127054047Y-107700805D02*
G01*
X127105408Y-107706764D01*
X127122954Y-107714511D01*
X127145671Y-107719030D01*
X127169991Y-107735280D01*
X127190793Y-107744465D01*
X127205000Y-107758672D01*
X127226777Y-107773223D01*
X127241327Y-107794999D01*
X127255534Y-107809206D01*
X127264718Y-107830006D01*
X127280970Y-107854329D01*
X127285489Y-107877048D01*
X127293235Y-107894591D01*
X127299192Y-107945940D01*
X127300000Y-107950000D01*
X127300000Y-108850000D01*
X127299192Y-108854059D01*
X127293235Y-108905408D01*
X127285489Y-108922950D01*
X127280970Y-108945671D01*
X127264716Y-108969995D01*
X127255534Y-108990793D01*
X127241329Y-109004997D01*
X127226777Y-109026777D01*
X127204997Y-109041329D01*
X127190793Y-109055534D01*
X127169995Y-109064716D01*
X127145671Y-109080970D01*
X127122950Y-109085489D01*
X127105408Y-109093235D01*
X127054061Y-109099192D01*
X127050000Y-109100000D01*
X126350000Y-109100000D01*
X126345941Y-109099192D01*
X126294591Y-109093235D01*
X126277048Y-109085489D01*
X126254329Y-109080970D01*
X126230006Y-109064718D01*
X126209206Y-109055534D01*
X126194999Y-109041327D01*
X126173223Y-109026777D01*
X126158672Y-109005000D01*
X126144465Y-108990793D01*
X126135280Y-108969991D01*
X126119030Y-108945671D01*
X126114511Y-108922954D01*
X126106764Y-108905408D01*
X126100805Y-108854049D01*
X126100000Y-108850000D01*
X126100000Y-107950000D01*
X126100804Y-107945953D01*
X126106764Y-107894591D01*
X126114511Y-107877043D01*
X126119030Y-107854329D01*
X126135278Y-107830010D01*
X126144465Y-107809206D01*
X126158674Y-107794996D01*
X126173223Y-107773223D01*
X126194996Y-107758674D01*
X126209206Y-107744465D01*
X126230010Y-107735278D01*
X126254329Y-107719030D01*
X126277043Y-107714511D01*
X126294591Y-107706764D01*
X126345952Y-107700805D01*
X126350000Y-107700000D01*
X127050000Y-107700000D01*
X127054047Y-107700805D01*
G37*
G36*
X129054047Y-107700805D02*
G01*
X129105408Y-107706764D01*
X129122954Y-107714511D01*
X129145671Y-107719030D01*
X129169991Y-107735280D01*
X129190793Y-107744465D01*
X129205000Y-107758672D01*
X129226777Y-107773223D01*
X129241327Y-107794999D01*
X129255534Y-107809206D01*
X129264718Y-107830006D01*
X129280970Y-107854329D01*
X129285489Y-107877048D01*
X129293235Y-107894591D01*
X129299192Y-107945940D01*
X129300000Y-107950000D01*
X129300000Y-108850000D01*
X129299192Y-108854059D01*
X129293235Y-108905408D01*
X129285489Y-108922950D01*
X129280970Y-108945671D01*
X129264716Y-108969995D01*
X129255534Y-108990793D01*
X129241329Y-109004997D01*
X129226777Y-109026777D01*
X129204997Y-109041329D01*
X129190793Y-109055534D01*
X129169995Y-109064716D01*
X129145671Y-109080970D01*
X129122950Y-109085489D01*
X129105408Y-109093235D01*
X129054061Y-109099192D01*
X129050000Y-109100000D01*
X128350000Y-109100000D01*
X128345941Y-109099192D01*
X128294591Y-109093235D01*
X128277048Y-109085489D01*
X128254329Y-109080970D01*
X128230006Y-109064718D01*
X128209206Y-109055534D01*
X128194999Y-109041327D01*
X128173223Y-109026777D01*
X128158672Y-109005000D01*
X128144465Y-108990793D01*
X128135280Y-108969991D01*
X128119030Y-108945671D01*
X128114511Y-108922954D01*
X128106764Y-108905408D01*
X128100805Y-108854049D01*
X128100000Y-108850000D01*
X128100000Y-107950000D01*
X128100804Y-107945953D01*
X128106764Y-107894591D01*
X128114511Y-107877043D01*
X128119030Y-107854329D01*
X128135278Y-107830010D01*
X128144465Y-107809206D01*
X128158674Y-107794996D01*
X128173223Y-107773223D01*
X128194996Y-107758674D01*
X128209206Y-107744465D01*
X128230010Y-107735278D01*
X128254329Y-107719030D01*
X128277043Y-107714511D01*
X128294591Y-107706764D01*
X128345952Y-107700805D01*
X128350000Y-107700000D01*
X129050000Y-107700000D01*
X129054047Y-107700805D01*
G37*
G36*
X133940000Y-107730000D02*
G01*
X132240000Y-107730000D01*
X132240000Y-106030000D01*
X133940000Y-106030000D01*
X133940000Y-107730000D01*
G37*
G36*
X135876742Y-106066601D02*
G01*
X136030687Y-106130367D01*
X136169234Y-106222941D01*
X136287059Y-106340766D01*
X136379633Y-106479313D01*
X136443399Y-106633258D01*
X136475907Y-106796685D01*
X136475907Y-106963315D01*
X136443399Y-107126742D01*
X136379633Y-107280687D01*
X136287059Y-107419234D01*
X136169234Y-107537059D01*
X136030687Y-107629633D01*
X135876742Y-107693399D01*
X135713315Y-107725907D01*
X135546685Y-107725907D01*
X135383258Y-107693399D01*
X135229313Y-107629633D01*
X135090766Y-107537059D01*
X134972941Y-107419234D01*
X134880367Y-107280687D01*
X134816601Y-107126742D01*
X134784093Y-106963315D01*
X134784093Y-106796685D01*
X134816601Y-106633258D01*
X134880367Y-106479313D01*
X134972941Y-106340766D01*
X135090766Y-106222941D01*
X135229313Y-106130367D01*
X135383258Y-106066601D01*
X135546685Y-106034093D01*
X135713315Y-106034093D01*
X135876742Y-106066601D01*
G37*
G36*
X138416742Y-106066601D02*
G01*
X138570687Y-106130367D01*
X138709234Y-106222941D01*
X138827059Y-106340766D01*
X138919633Y-106479313D01*
X138983399Y-106633258D01*
X139015907Y-106796685D01*
X139015907Y-106963315D01*
X138983399Y-107126742D01*
X138919633Y-107280687D01*
X138827059Y-107419234D01*
X138709234Y-107537059D01*
X138570687Y-107629633D01*
X138416742Y-107693399D01*
X138253315Y-107725907D01*
X138086685Y-107725907D01*
X137923258Y-107693399D01*
X137769313Y-107629633D01*
X137630766Y-107537059D01*
X137512941Y-107419234D01*
X137420367Y-107280687D01*
X137356601Y-107126742D01*
X137324093Y-106963315D01*
X137324093Y-106796685D01*
X137356601Y-106633258D01*
X137420367Y-106479313D01*
X137512941Y-106340766D01*
X137630766Y-106222941D01*
X137769313Y-106130367D01*
X137923258Y-106066601D01*
X138086685Y-106034093D01*
X138253315Y-106034093D01*
X138416742Y-106066601D01*
G37*
G36*
X117332228Y-105234448D02*
G01*
X117477117Y-105294463D01*
X117607515Y-105381592D01*
X117718408Y-105492485D01*
X117805537Y-105622883D01*
X117865552Y-105767772D01*
X117896148Y-105921586D01*
X117896148Y-106078414D01*
X117865552Y-106232228D01*
X117805537Y-106377117D01*
X117718408Y-106507515D01*
X117607515Y-106618408D01*
X117477117Y-106705537D01*
X117332228Y-106765552D01*
X117178414Y-106796148D01*
X117021586Y-106796148D01*
X116867772Y-106765552D01*
X116722883Y-106705537D01*
X116592485Y-106618408D01*
X116481592Y-106507515D01*
X116394463Y-106377117D01*
X116334448Y-106232228D01*
X116303852Y-106078414D01*
X116303852Y-105921586D01*
X116334448Y-105767772D01*
X116394463Y-105622883D01*
X116481592Y-105492485D01*
X116592485Y-105381592D01*
X116722883Y-105294463D01*
X116867772Y-105234448D01*
X117021586Y-105203852D01*
X117178414Y-105203852D01*
X117332228Y-105234448D01*
G37*
G36*
X124952228Y-105234448D02*
G01*
X125097117Y-105294463D01*
X125227515Y-105381592D01*
X125338408Y-105492485D01*
X125425537Y-105622883D01*
X125485552Y-105767772D01*
X125516148Y-105921586D01*
X125516148Y-106078414D01*
X125485552Y-106232228D01*
X125425537Y-106377117D01*
X125338408Y-106507515D01*
X125227515Y-106618408D01*
X125097117Y-106705537D01*
X124952228Y-106765552D01*
X124798414Y-106796148D01*
X124641586Y-106796148D01*
X124487772Y-106765552D01*
X124342883Y-106705537D01*
X124212485Y-106618408D01*
X124101592Y-106507515D01*
X124014463Y-106377117D01*
X123954448Y-106232228D01*
X123923852Y-106078414D01*
X123923852Y-105921586D01*
X123954448Y-105767772D01*
X124014463Y-105622883D01*
X124101592Y-105492485D01*
X124212485Y-105381592D01*
X124342883Y-105294463D01*
X124487772Y-105234448D01*
X124641586Y-105203852D01*
X124798414Y-105203852D01*
X124952228Y-105234448D01*
G37*
G36*
X127484047Y-105310805D02*
G01*
X127535408Y-105316764D01*
X127552954Y-105324511D01*
X127575671Y-105329030D01*
X127599991Y-105345280D01*
X127620793Y-105354465D01*
X127635000Y-105368672D01*
X127656777Y-105383223D01*
X127671327Y-105404999D01*
X127685534Y-105419206D01*
X127694718Y-105440006D01*
X127710970Y-105464329D01*
X127715489Y-105487048D01*
X127723235Y-105504591D01*
X127729192Y-105555940D01*
X127730000Y-105560000D01*
X127730000Y-106460000D01*
X127729192Y-106464059D01*
X127723235Y-106515408D01*
X127715489Y-106532950D01*
X127710970Y-106555671D01*
X127694716Y-106579995D01*
X127685534Y-106600793D01*
X127671329Y-106614997D01*
X127656777Y-106636777D01*
X127634997Y-106651329D01*
X127620793Y-106665534D01*
X127599995Y-106674716D01*
X127575671Y-106690970D01*
X127552950Y-106695489D01*
X127535408Y-106703235D01*
X127484061Y-106709192D01*
X127480000Y-106710000D01*
X126780000Y-106710000D01*
X126775941Y-106709192D01*
X126724591Y-106703235D01*
X126707048Y-106695489D01*
X126684329Y-106690970D01*
X126660006Y-106674718D01*
X126639206Y-106665534D01*
X126624999Y-106651327D01*
X126603223Y-106636777D01*
X126588672Y-106615000D01*
X126574465Y-106600793D01*
X126565280Y-106579991D01*
X126549030Y-106555671D01*
X126544511Y-106532954D01*
X126536764Y-106515408D01*
X126530805Y-106464049D01*
X126530000Y-106460000D01*
X126530000Y-105560000D01*
X126530804Y-105555953D01*
X126536764Y-105504591D01*
X126544511Y-105487043D01*
X126549030Y-105464329D01*
X126565278Y-105440010D01*
X126574465Y-105419206D01*
X126588674Y-105404996D01*
X126603223Y-105383223D01*
X126624996Y-105368674D01*
X126639206Y-105354465D01*
X126660010Y-105345278D01*
X126684329Y-105329030D01*
X126707043Y-105324511D01*
X126724591Y-105316764D01*
X126775952Y-105310805D01*
X126780000Y-105310000D01*
X127480000Y-105310000D01*
X127484047Y-105310805D01*
G37*
G36*
X129484047Y-105310805D02*
G01*
X129535408Y-105316764D01*
X129552954Y-105324511D01*
X129575671Y-105329030D01*
X129599991Y-105345280D01*
X129620793Y-105354465D01*
X129635000Y-105368672D01*
X129656777Y-105383223D01*
X129671327Y-105404999D01*
X129685534Y-105419206D01*
X129694718Y-105440006D01*
X129710970Y-105464329D01*
X129715489Y-105487048D01*
X129723235Y-105504591D01*
X129729192Y-105555940D01*
X129730000Y-105560000D01*
X129730000Y-106460000D01*
X129729192Y-106464059D01*
X129723235Y-106515408D01*
X129715489Y-106532950D01*
X129710970Y-106555671D01*
X129694716Y-106579995D01*
X129685534Y-106600793D01*
X129671329Y-106614997D01*
X129656777Y-106636777D01*
X129634997Y-106651329D01*
X129620793Y-106665534D01*
X129599995Y-106674716D01*
X129575671Y-106690970D01*
X129552950Y-106695489D01*
X129535408Y-106703235D01*
X129484061Y-106709192D01*
X129480000Y-106710000D01*
X128780000Y-106710000D01*
X128775941Y-106709192D01*
X128724591Y-106703235D01*
X128707048Y-106695489D01*
X128684329Y-106690970D01*
X128660006Y-106674718D01*
X128639206Y-106665534D01*
X128624999Y-106651327D01*
X128603223Y-106636777D01*
X128588672Y-106615000D01*
X128574465Y-106600793D01*
X128565280Y-106579991D01*
X128549030Y-106555671D01*
X128544511Y-106532954D01*
X128536764Y-106515408D01*
X128530805Y-106464049D01*
X128530000Y-106460000D01*
X128530000Y-105560000D01*
X128530804Y-105555953D01*
X128536764Y-105504591D01*
X128544511Y-105487043D01*
X128549030Y-105464329D01*
X128565278Y-105440010D01*
X128574465Y-105419206D01*
X128588674Y-105404996D01*
X128603223Y-105383223D01*
X128624996Y-105368674D01*
X128639206Y-105354465D01*
X128660010Y-105345278D01*
X128684329Y-105329030D01*
X128707043Y-105324511D01*
X128724591Y-105316764D01*
X128775952Y-105310805D01*
X128780000Y-105310000D01*
X129480000Y-105310000D01*
X129484047Y-105310805D01*
G37*
G36*
X111304047Y-99900805D02*
G01*
X111355408Y-99906764D01*
X111372954Y-99914511D01*
X111395671Y-99919030D01*
X111419991Y-99935280D01*
X111440793Y-99944465D01*
X111455000Y-99958672D01*
X111476777Y-99973223D01*
X111491327Y-99994999D01*
X111505534Y-100009206D01*
X111514718Y-100030006D01*
X111530970Y-100054329D01*
X111535489Y-100077048D01*
X111543235Y-100094591D01*
X111549192Y-100145940D01*
X111550000Y-100150000D01*
X111550000Y-104150000D01*
X111549192Y-104154059D01*
X111543235Y-104205408D01*
X111535489Y-104222950D01*
X111530970Y-104245671D01*
X111514716Y-104269995D01*
X111505534Y-104290793D01*
X111491329Y-104304997D01*
X111476777Y-104326777D01*
X111454997Y-104341329D01*
X111440793Y-104355534D01*
X111419995Y-104364716D01*
X111395671Y-104380970D01*
X111372950Y-104385489D01*
X111355408Y-104393235D01*
X111304061Y-104399192D01*
X111300000Y-104400000D01*
X109800000Y-104400000D01*
X109795941Y-104399192D01*
X109744591Y-104393235D01*
X109727048Y-104385489D01*
X109704329Y-104380970D01*
X109680006Y-104364718D01*
X109659206Y-104355534D01*
X109644999Y-104341327D01*
X109623223Y-104326777D01*
X109608672Y-104305000D01*
X109594465Y-104290793D01*
X109585280Y-104269991D01*
X109569030Y-104245671D01*
X109564511Y-104222954D01*
X109556764Y-104205408D01*
X109550805Y-104154049D01*
X109550000Y-104150000D01*
X109550000Y-100150000D01*
X109550804Y-100145953D01*
X109556764Y-100094591D01*
X109564511Y-100077043D01*
X109569030Y-100054329D01*
X109585278Y-100030010D01*
X109594465Y-100009206D01*
X109608674Y-99994996D01*
X109623223Y-99973223D01*
X109644996Y-99958674D01*
X109659206Y-99944465D01*
X109680010Y-99935278D01*
X109704329Y-99919030D01*
X109727043Y-99914511D01*
X109744591Y-99906764D01*
X109795952Y-99900805D01*
X109800000Y-99900000D01*
X111300000Y-99900000D01*
X111304047Y-99900805D01*
G37*
G36*
X104044047Y-102500805D02*
G01*
X104095408Y-102506764D01*
X104112954Y-102514511D01*
X104135671Y-102519030D01*
X104159991Y-102535280D01*
X104180793Y-102544465D01*
X104195000Y-102558672D01*
X104216777Y-102573223D01*
X104231327Y-102594999D01*
X104245534Y-102609206D01*
X104254718Y-102630006D01*
X104270970Y-102654329D01*
X104275489Y-102677048D01*
X104283235Y-102694591D01*
X104289192Y-102745940D01*
X104290000Y-102750000D01*
X104290000Y-104050000D01*
X104289192Y-104054059D01*
X104283235Y-104105408D01*
X104275489Y-104122950D01*
X104270970Y-104145671D01*
X104254716Y-104169995D01*
X104245534Y-104190793D01*
X104231329Y-104204997D01*
X104216777Y-104226777D01*
X104194997Y-104241329D01*
X104180793Y-104255534D01*
X104159995Y-104264716D01*
X104135671Y-104280970D01*
X104112950Y-104285489D01*
X104095408Y-104293235D01*
X104044061Y-104299192D01*
X104040000Y-104300000D01*
X103215000Y-104300000D01*
X103210941Y-104299192D01*
X103159591Y-104293235D01*
X103142048Y-104285489D01*
X103119329Y-104280970D01*
X103095006Y-104264718D01*
X103074206Y-104255534D01*
X103059999Y-104241327D01*
X103038223Y-104226777D01*
X103023672Y-104205000D01*
X103009465Y-104190793D01*
X103000280Y-104169991D01*
X102984030Y-104145671D01*
X102979511Y-104122954D01*
X102971764Y-104105408D01*
X102965805Y-104054049D01*
X102965000Y-104050000D01*
X102965000Y-102750000D01*
X102965804Y-102745953D01*
X102971764Y-102694591D01*
X102979511Y-102677043D01*
X102984030Y-102654329D01*
X103000278Y-102630010D01*
X103009465Y-102609206D01*
X103023674Y-102594996D01*
X103038223Y-102573223D01*
X103059996Y-102558674D01*
X103074206Y-102544465D01*
X103095010Y-102535278D01*
X103119329Y-102519030D01*
X103142043Y-102514511D01*
X103159591Y-102506764D01*
X103210952Y-102500805D01*
X103215000Y-102500000D01*
X104040000Y-102500000D01*
X104044047Y-102500805D01*
G37*
G36*
X107169047Y-102500805D02*
G01*
X107220408Y-102506764D01*
X107237954Y-102514511D01*
X107260671Y-102519030D01*
X107284991Y-102535280D01*
X107305793Y-102544465D01*
X107320000Y-102558672D01*
X107341777Y-102573223D01*
X107356327Y-102594999D01*
X107370534Y-102609206D01*
X107379718Y-102630006D01*
X107395970Y-102654329D01*
X107400489Y-102677048D01*
X107408235Y-102694591D01*
X107414192Y-102745940D01*
X107415000Y-102750000D01*
X107415000Y-104050000D01*
X107414192Y-104054059D01*
X107408235Y-104105408D01*
X107400489Y-104122950D01*
X107395970Y-104145671D01*
X107379716Y-104169995D01*
X107370534Y-104190793D01*
X107356329Y-104204997D01*
X107341777Y-104226777D01*
X107319997Y-104241329D01*
X107305793Y-104255534D01*
X107284995Y-104264716D01*
X107260671Y-104280970D01*
X107237950Y-104285489D01*
X107220408Y-104293235D01*
X107169061Y-104299192D01*
X107165000Y-104300000D01*
X106340000Y-104300000D01*
X106335941Y-104299192D01*
X106284591Y-104293235D01*
X106267048Y-104285489D01*
X106244329Y-104280970D01*
X106220006Y-104264718D01*
X106199206Y-104255534D01*
X106184999Y-104241327D01*
X106163223Y-104226777D01*
X106148672Y-104205000D01*
X106134465Y-104190793D01*
X106125280Y-104169991D01*
X106109030Y-104145671D01*
X106104511Y-104122954D01*
X106096764Y-104105408D01*
X106090805Y-104054049D01*
X106090000Y-104050000D01*
X106090000Y-102750000D01*
X106090804Y-102745953D01*
X106096764Y-102694591D01*
X106104511Y-102677043D01*
X106109030Y-102654329D01*
X106125278Y-102630010D01*
X106134465Y-102609206D01*
X106148674Y-102594996D01*
X106163223Y-102573223D01*
X106184996Y-102558674D01*
X106199206Y-102544465D01*
X106220010Y-102535278D01*
X106244329Y-102519030D01*
X106267043Y-102514511D01*
X106284591Y-102506764D01*
X106335952Y-102500805D01*
X106340000Y-102500000D01*
X107165000Y-102500000D01*
X107169047Y-102500805D01*
G37*
G36*
X117332228Y-102694448D02*
G01*
X117477117Y-102754463D01*
X117607515Y-102841592D01*
X117718408Y-102952485D01*
X117805537Y-103082883D01*
X117865552Y-103227772D01*
X117896148Y-103381586D01*
X117896148Y-103538414D01*
X117865552Y-103692228D01*
X117805537Y-103837117D01*
X117718408Y-103967515D01*
X117607515Y-104078408D01*
X117477117Y-104165537D01*
X117332228Y-104225552D01*
X117178414Y-104256148D01*
X117021586Y-104256148D01*
X116867772Y-104225552D01*
X116722883Y-104165537D01*
X116592485Y-104078408D01*
X116481592Y-103967515D01*
X116394463Y-103837117D01*
X116334448Y-103692228D01*
X116303852Y-103538414D01*
X116303852Y-103381586D01*
X116334448Y-103227772D01*
X116394463Y-103082883D01*
X116481592Y-102952485D01*
X116592485Y-102841592D01*
X116722883Y-102754463D01*
X116867772Y-102694448D01*
X117021586Y-102663852D01*
X117178414Y-102663852D01*
X117332228Y-102694448D01*
G37*
G36*
X124952228Y-102694448D02*
G01*
X125097117Y-102754463D01*
X125227515Y-102841592D01*
X125338408Y-102952485D01*
X125425537Y-103082883D01*
X125485552Y-103227772D01*
X125516148Y-103381586D01*
X125516148Y-103538414D01*
X125485552Y-103692228D01*
X125425537Y-103837117D01*
X125338408Y-103967515D01*
X125227515Y-104078408D01*
X125097117Y-104165537D01*
X124952228Y-104225552D01*
X124798414Y-104256148D01*
X124641586Y-104256148D01*
X124487772Y-104225552D01*
X124342883Y-104165537D01*
X124212485Y-104078408D01*
X124101592Y-103967515D01*
X124014463Y-103837117D01*
X123954448Y-103692228D01*
X123923852Y-103538414D01*
X123923852Y-103381586D01*
X123954448Y-103227772D01*
X124014463Y-103082883D01*
X124101592Y-102952485D01*
X124212485Y-102841592D01*
X124342883Y-102754463D01*
X124487772Y-102694448D01*
X124641586Y-102663852D01*
X124798414Y-102663852D01*
X124952228Y-102694448D01*
G37*
G36*
X133960000Y-104010000D02*
G01*
X132260000Y-104010000D01*
X132260000Y-102310000D01*
X133960000Y-102310000D01*
X133960000Y-104010000D01*
G37*
G36*
X135896742Y-102346601D02*
G01*
X136050687Y-102410367D01*
X136189234Y-102502941D01*
X136307059Y-102620766D01*
X136399633Y-102759313D01*
X136463399Y-102913258D01*
X136495907Y-103076685D01*
X136495907Y-103243315D01*
X136463399Y-103406742D01*
X136399633Y-103560687D01*
X136307059Y-103699234D01*
X136189234Y-103817059D01*
X136050687Y-103909633D01*
X135896742Y-103973399D01*
X135733315Y-104005907D01*
X135566685Y-104005907D01*
X135403258Y-103973399D01*
X135249313Y-103909633D01*
X135110766Y-103817059D01*
X134992941Y-103699234D01*
X134900367Y-103560687D01*
X134836601Y-103406742D01*
X134804093Y-103243315D01*
X134804093Y-103076685D01*
X134836601Y-102913258D01*
X134900367Y-102759313D01*
X134992941Y-102620766D01*
X135110766Y-102502941D01*
X135249313Y-102410367D01*
X135403258Y-102346601D01*
X135566685Y-102314093D01*
X135733315Y-102314093D01*
X135896742Y-102346601D01*
G37*
G36*
X138436742Y-102346601D02*
G01*
X138590687Y-102410367D01*
X138729234Y-102502941D01*
X138847059Y-102620766D01*
X138939633Y-102759313D01*
X139003399Y-102913258D01*
X139035907Y-103076685D01*
X139035907Y-103243315D01*
X139003399Y-103406742D01*
X138939633Y-103560687D01*
X138847059Y-103699234D01*
X138729234Y-103817059D01*
X138590687Y-103909633D01*
X138436742Y-103973399D01*
X138273315Y-104005907D01*
X138106685Y-104005907D01*
X137943258Y-103973399D01*
X137789313Y-103909633D01*
X137650766Y-103817059D01*
X137532941Y-103699234D01*
X137440367Y-103560687D01*
X137376601Y-103406742D01*
X137344093Y-103243315D01*
X137344093Y-103076685D01*
X137376601Y-102913258D01*
X137440367Y-102759313D01*
X137532941Y-102620766D01*
X137650766Y-102502941D01*
X137789313Y-102410367D01*
X137943258Y-102346601D01*
X138106685Y-102314093D01*
X138273315Y-102314093D01*
X138436742Y-102346601D01*
G37*
G36*
X127694047Y-101533305D02*
G01*
X127745408Y-101539264D01*
X127762954Y-101547011D01*
X127785671Y-101551530D01*
X127809991Y-101567780D01*
X127830793Y-101576965D01*
X127845000Y-101591172D01*
X127866777Y-101605723D01*
X127881327Y-101627499D01*
X127895534Y-101641706D01*
X127904718Y-101662506D01*
X127920970Y-101686829D01*
X127925489Y-101709548D01*
X127933235Y-101727091D01*
X127939192Y-101778440D01*
X127940000Y-101782500D01*
X127940000Y-102607500D01*
X127939192Y-102611559D01*
X127933235Y-102662908D01*
X127925489Y-102680450D01*
X127920970Y-102703171D01*
X127904716Y-102727495D01*
X127895534Y-102748293D01*
X127881329Y-102762497D01*
X127866777Y-102784277D01*
X127844997Y-102798829D01*
X127830793Y-102813034D01*
X127809995Y-102822216D01*
X127785671Y-102838470D01*
X127762950Y-102842989D01*
X127745408Y-102850735D01*
X127694061Y-102856692D01*
X127690000Y-102857500D01*
X126390000Y-102857500D01*
X126385941Y-102856692D01*
X126334591Y-102850735D01*
X126317048Y-102842989D01*
X126294329Y-102838470D01*
X126270006Y-102822218D01*
X126249206Y-102813034D01*
X126234999Y-102798827D01*
X126213223Y-102784277D01*
X126198672Y-102762500D01*
X126184465Y-102748293D01*
X126175280Y-102727491D01*
X126159030Y-102703171D01*
X126154511Y-102680454D01*
X126146764Y-102662908D01*
X126140805Y-102611549D01*
X126140000Y-102607500D01*
X126140000Y-101782500D01*
X126140804Y-101778453D01*
X126146764Y-101727091D01*
X126154511Y-101709543D01*
X126159030Y-101686829D01*
X126175278Y-101662510D01*
X126184465Y-101641706D01*
X126198674Y-101627496D01*
X126213223Y-101605723D01*
X126234996Y-101591174D01*
X126249206Y-101576965D01*
X126270010Y-101567778D01*
X126294329Y-101551530D01*
X126317043Y-101547011D01*
X126334591Y-101539264D01*
X126385952Y-101533305D01*
X126390000Y-101532500D01*
X127690000Y-101532500D01*
X127694047Y-101533305D01*
G37*
G36*
X115424047Y-100643305D02*
G01*
X115475408Y-100649264D01*
X115492954Y-100657011D01*
X115515671Y-100661530D01*
X115539991Y-100677780D01*
X115560793Y-100686965D01*
X115575000Y-100701172D01*
X115596777Y-100715723D01*
X115611327Y-100737499D01*
X115625534Y-100751706D01*
X115634718Y-100772506D01*
X115650970Y-100796829D01*
X115655489Y-100819548D01*
X115663235Y-100837091D01*
X115669192Y-100888440D01*
X115670000Y-100892500D01*
X115670000Y-101717500D01*
X115669192Y-101721559D01*
X115663235Y-101772908D01*
X115655489Y-101790450D01*
X115650970Y-101813171D01*
X115634716Y-101837495D01*
X115625534Y-101858293D01*
X115611329Y-101872497D01*
X115596777Y-101894277D01*
X115574997Y-101908829D01*
X115560793Y-101923034D01*
X115539995Y-101932216D01*
X115515671Y-101948470D01*
X115492950Y-101952989D01*
X115475408Y-101960735D01*
X115424061Y-101966692D01*
X115420000Y-101967500D01*
X114120000Y-101967500D01*
X114115941Y-101966692D01*
X114064591Y-101960735D01*
X114047048Y-101952989D01*
X114024329Y-101948470D01*
X114000006Y-101932218D01*
X113979206Y-101923034D01*
X113964999Y-101908827D01*
X113943223Y-101894277D01*
X113928672Y-101872500D01*
X113914465Y-101858293D01*
X113905280Y-101837491D01*
X113889030Y-101813171D01*
X113884511Y-101790454D01*
X113876764Y-101772908D01*
X113870805Y-101721549D01*
X113870000Y-101717500D01*
X113870000Y-100892500D01*
X113870804Y-100888453D01*
X113876764Y-100837091D01*
X113884511Y-100819543D01*
X113889030Y-100796829D01*
X113905278Y-100772510D01*
X113914465Y-100751706D01*
X113928674Y-100737496D01*
X113943223Y-100715723D01*
X113964996Y-100701174D01*
X113979206Y-100686965D01*
X114000010Y-100677778D01*
X114024329Y-100661530D01*
X114047043Y-100657011D01*
X114064591Y-100649264D01*
X114115952Y-100643305D01*
X114120000Y-100642500D01*
X115420000Y-100642500D01*
X115424047Y-100643305D01*
G37*
G36*
X117332228Y-100154448D02*
G01*
X117477117Y-100214463D01*
X117607515Y-100301592D01*
X117718408Y-100412485D01*
X117805537Y-100542883D01*
X117865552Y-100687772D01*
X117896148Y-100841586D01*
X117896148Y-100998414D01*
X117865552Y-101152228D01*
X117805537Y-101297117D01*
X117718408Y-101427515D01*
X117607515Y-101538408D01*
X117477117Y-101625537D01*
X117332228Y-101685552D01*
X117178414Y-101716148D01*
X117021586Y-101716148D01*
X116867772Y-101685552D01*
X116722883Y-101625537D01*
X116592485Y-101538408D01*
X116481592Y-101427515D01*
X116394463Y-101297117D01*
X116334448Y-101152228D01*
X116303852Y-100998414D01*
X116303852Y-100841586D01*
X116334448Y-100687772D01*
X116394463Y-100542883D01*
X116481592Y-100412485D01*
X116592485Y-100301592D01*
X116722883Y-100214463D01*
X116867772Y-100154448D01*
X117021586Y-100123852D01*
X117178414Y-100123852D01*
X117332228Y-100154448D01*
G37*
G36*
X124952228Y-100154448D02*
G01*
X125097117Y-100214463D01*
X125227515Y-100301592D01*
X125338408Y-100412485D01*
X125425537Y-100542883D01*
X125485552Y-100687772D01*
X125516148Y-100841586D01*
X125516148Y-100998414D01*
X125485552Y-101152228D01*
X125425537Y-101297117D01*
X125338408Y-101427515D01*
X125227515Y-101538408D01*
X125097117Y-101625537D01*
X124952228Y-101685552D01*
X124798414Y-101716148D01*
X124641586Y-101716148D01*
X124487772Y-101685552D01*
X124342883Y-101625537D01*
X124212485Y-101538408D01*
X124101592Y-101427515D01*
X124014463Y-101297117D01*
X123954448Y-101152228D01*
X123923852Y-100998414D01*
X123923852Y-100841586D01*
X123954448Y-100687772D01*
X124014463Y-100542883D01*
X124101592Y-100412485D01*
X124212485Y-100301592D01*
X124342883Y-100214463D01*
X124487772Y-100154448D01*
X124641586Y-100123852D01*
X124798414Y-100123852D01*
X124952228Y-100154448D01*
G37*
G36*
X133990000Y-100300000D02*
G01*
X132290000Y-100300000D01*
X132290000Y-98600000D01*
X133990000Y-98600000D01*
X133990000Y-100300000D01*
G37*
G36*
X135926742Y-98636601D02*
G01*
X136080687Y-98700367D01*
X136219234Y-98792941D01*
X136337059Y-98910766D01*
X136429633Y-99049313D01*
X136493399Y-99203258D01*
X136525907Y-99366685D01*
X136525907Y-99533315D01*
X136493399Y-99696742D01*
X136429633Y-99850687D01*
X136337059Y-99989234D01*
X136219234Y-100107059D01*
X136080687Y-100199633D01*
X135926742Y-100263399D01*
X135763315Y-100295907D01*
X135596685Y-100295907D01*
X135433258Y-100263399D01*
X135279313Y-100199633D01*
X135140766Y-100107059D01*
X135022941Y-99989234D01*
X134930367Y-99850687D01*
X134866601Y-99696742D01*
X134834093Y-99533315D01*
X134834093Y-99366685D01*
X134866601Y-99203258D01*
X134930367Y-99049313D01*
X135022941Y-98910766D01*
X135140766Y-98792941D01*
X135279313Y-98700367D01*
X135433258Y-98636601D01*
X135596685Y-98604093D01*
X135763315Y-98604093D01*
X135926742Y-98636601D01*
G37*
G36*
X138466742Y-98636601D02*
G01*
X138620687Y-98700367D01*
X138759234Y-98792941D01*
X138877059Y-98910766D01*
X138969633Y-99049313D01*
X139033399Y-99203258D01*
X139065907Y-99366685D01*
X139065907Y-99533315D01*
X139033399Y-99696742D01*
X138969633Y-99850687D01*
X138877059Y-99989234D01*
X138759234Y-100107059D01*
X138620687Y-100199633D01*
X138466742Y-100263399D01*
X138303315Y-100295907D01*
X138136685Y-100295907D01*
X137973258Y-100263399D01*
X137819313Y-100199633D01*
X137680766Y-100107059D01*
X137562941Y-99989234D01*
X137470367Y-99850687D01*
X137406601Y-99696742D01*
X137374093Y-99533315D01*
X137374093Y-99366685D01*
X137406601Y-99203258D01*
X137470367Y-99049313D01*
X137562941Y-98910766D01*
X137680766Y-98792941D01*
X137819313Y-98700367D01*
X137973258Y-98636601D01*
X138136685Y-98604093D01*
X138303315Y-98604093D01*
X138466742Y-98636601D01*
G37*
G36*
X127694047Y-98408305D02*
G01*
X127745408Y-98414264D01*
X127762954Y-98422011D01*
X127785671Y-98426530D01*
X127809991Y-98442780D01*
X127830793Y-98451965D01*
X127845000Y-98466172D01*
X127866777Y-98480723D01*
X127881327Y-98502499D01*
X127895534Y-98516706D01*
X127904718Y-98537506D01*
X127920970Y-98561829D01*
X127925489Y-98584548D01*
X127933235Y-98602091D01*
X127939192Y-98653440D01*
X127940000Y-98657500D01*
X127940000Y-99482500D01*
X127939192Y-99486559D01*
X127933235Y-99537908D01*
X127925489Y-99555450D01*
X127920970Y-99578171D01*
X127904716Y-99602495D01*
X127895534Y-99623293D01*
X127881329Y-99637497D01*
X127866777Y-99659277D01*
X127844997Y-99673829D01*
X127830793Y-99688034D01*
X127809995Y-99697216D01*
X127785671Y-99713470D01*
X127762950Y-99717989D01*
X127745408Y-99725735D01*
X127694061Y-99731692D01*
X127690000Y-99732500D01*
X126390000Y-99732500D01*
X126385941Y-99731692D01*
X126334591Y-99725735D01*
X126317048Y-99717989D01*
X126294329Y-99713470D01*
X126270006Y-99697218D01*
X126249206Y-99688034D01*
X126234999Y-99673827D01*
X126213223Y-99659277D01*
X126198672Y-99637500D01*
X126184465Y-99623293D01*
X126175280Y-99602491D01*
X126159030Y-99578171D01*
X126154511Y-99555454D01*
X126146764Y-99537908D01*
X126140805Y-99486549D01*
X126140000Y-99482500D01*
X126140000Y-98657500D01*
X126140804Y-98653453D01*
X126146764Y-98602091D01*
X126154511Y-98584543D01*
X126159030Y-98561829D01*
X126175278Y-98537510D01*
X126184465Y-98516706D01*
X126198674Y-98502496D01*
X126213223Y-98480723D01*
X126234996Y-98466174D01*
X126249206Y-98451965D01*
X126270010Y-98442778D01*
X126294329Y-98426530D01*
X126317043Y-98422011D01*
X126334591Y-98414264D01*
X126385952Y-98408305D01*
X126390000Y-98407500D01*
X127690000Y-98407500D01*
X127694047Y-98408305D01*
G37*
G36*
X117332228Y-97614448D02*
G01*
X117477117Y-97674463D01*
X117607515Y-97761592D01*
X117718408Y-97872485D01*
X117805537Y-98002883D01*
X117865552Y-98147772D01*
X117896148Y-98301586D01*
X117896148Y-98458414D01*
X117865552Y-98612228D01*
X117805537Y-98757117D01*
X117718408Y-98887515D01*
X117607515Y-98998408D01*
X117477117Y-99085537D01*
X117332228Y-99145552D01*
X117178414Y-99176148D01*
X117021586Y-99176148D01*
X116867772Y-99145552D01*
X116722883Y-99085537D01*
X116592485Y-98998408D01*
X116481592Y-98887515D01*
X116394463Y-98757117D01*
X116334448Y-98612228D01*
X116303852Y-98458414D01*
X116303852Y-98301586D01*
X116334448Y-98147772D01*
X116394463Y-98002883D01*
X116481592Y-97872485D01*
X116592485Y-97761592D01*
X116722883Y-97674463D01*
X116867772Y-97614448D01*
X117021586Y-97583852D01*
X117178414Y-97583852D01*
X117332228Y-97614448D01*
G37*
G36*
X124952228Y-97614448D02*
G01*
X125097117Y-97674463D01*
X125227515Y-97761592D01*
X125338408Y-97872485D01*
X125425537Y-98002883D01*
X125485552Y-98147772D01*
X125516148Y-98301586D01*
X125516148Y-98458414D01*
X125485552Y-98612228D01*
X125425537Y-98757117D01*
X125338408Y-98887515D01*
X125227515Y-98998408D01*
X125097117Y-99085537D01*
X124952228Y-99145552D01*
X124798414Y-99176148D01*
X124641586Y-99176148D01*
X124487772Y-99145552D01*
X124342883Y-99085537D01*
X124212485Y-98998408D01*
X124101592Y-98887515D01*
X124014463Y-98757117D01*
X123954448Y-98612228D01*
X123923852Y-98458414D01*
X123923852Y-98301586D01*
X123954448Y-98147772D01*
X124014463Y-98002883D01*
X124101592Y-97872485D01*
X124212485Y-97761592D01*
X124342883Y-97674463D01*
X124487772Y-97614448D01*
X124641586Y-97583852D01*
X124798414Y-97583852D01*
X124952228Y-97614448D01*
G37*
G36*
X115424047Y-97518305D02*
G01*
X115475408Y-97524264D01*
X115492954Y-97532011D01*
X115515671Y-97536530D01*
X115539991Y-97552780D01*
X115560793Y-97561965D01*
X115575000Y-97576172D01*
X115596777Y-97590723D01*
X115611327Y-97612499D01*
X115625534Y-97626706D01*
X115634718Y-97647506D01*
X115650970Y-97671829D01*
X115655489Y-97694548D01*
X115663235Y-97712091D01*
X115669192Y-97763440D01*
X115670000Y-97767500D01*
X115670000Y-98592500D01*
X115669192Y-98596559D01*
X115663235Y-98647908D01*
X115655489Y-98665450D01*
X115650970Y-98688171D01*
X115634716Y-98712495D01*
X115625534Y-98733293D01*
X115611329Y-98747497D01*
X115596777Y-98769277D01*
X115574997Y-98783829D01*
X115560793Y-98798034D01*
X115539995Y-98807216D01*
X115515671Y-98823470D01*
X115492950Y-98827989D01*
X115475408Y-98835735D01*
X115424061Y-98841692D01*
X115420000Y-98842500D01*
X114120000Y-98842500D01*
X114115941Y-98841692D01*
X114064591Y-98835735D01*
X114047048Y-98827989D01*
X114024329Y-98823470D01*
X114000006Y-98807218D01*
X113979206Y-98798034D01*
X113964999Y-98783827D01*
X113943223Y-98769277D01*
X113928672Y-98747500D01*
X113914465Y-98733293D01*
X113905280Y-98712491D01*
X113889030Y-98688171D01*
X113884511Y-98665454D01*
X113876764Y-98647908D01*
X113870805Y-98596549D01*
X113870000Y-98592500D01*
X113870000Y-97767500D01*
X113870804Y-97763453D01*
X113876764Y-97712091D01*
X113884511Y-97694543D01*
X113889030Y-97671829D01*
X113905278Y-97647510D01*
X113914465Y-97626706D01*
X113928674Y-97612496D01*
X113943223Y-97590723D01*
X113964996Y-97576174D01*
X113979206Y-97561965D01*
X114000010Y-97552778D01*
X114024329Y-97536530D01*
X114047043Y-97532011D01*
X114064591Y-97524264D01*
X114115952Y-97518305D01*
X114120000Y-97517500D01*
X115420000Y-97517500D01*
X115424047Y-97518305D01*
G37*
G36*
X117332228Y-95074448D02*
G01*
X117477117Y-95134463D01*
X117607515Y-95221592D01*
X117718408Y-95332485D01*
X117805537Y-95462883D01*
X117865552Y-95607772D01*
X117896148Y-95761586D01*
X117896148Y-95918414D01*
X117865552Y-96072228D01*
X117805537Y-96217117D01*
X117718408Y-96347515D01*
X117607515Y-96458408D01*
X117477117Y-96545537D01*
X117332228Y-96605552D01*
X117178414Y-96636148D01*
X117021586Y-96636148D01*
X116867772Y-96605552D01*
X116722883Y-96545537D01*
X116592485Y-96458408D01*
X116481592Y-96347515D01*
X116394463Y-96217117D01*
X116334448Y-96072228D01*
X116303852Y-95918414D01*
X116303852Y-95761586D01*
X116334448Y-95607772D01*
X116394463Y-95462883D01*
X116481592Y-95332485D01*
X116592485Y-95221592D01*
X116722883Y-95134463D01*
X116867772Y-95074448D01*
X117021586Y-95043852D01*
X117178414Y-95043852D01*
X117332228Y-95074448D01*
G37*
G36*
X124952228Y-95074448D02*
G01*
X125097117Y-95134463D01*
X125227515Y-95221592D01*
X125338408Y-95332485D01*
X125425537Y-95462883D01*
X125485552Y-95607772D01*
X125516148Y-95761586D01*
X125516148Y-95918414D01*
X125485552Y-96072228D01*
X125425537Y-96217117D01*
X125338408Y-96347515D01*
X125227515Y-96458408D01*
X125097117Y-96545537D01*
X124952228Y-96605552D01*
X124798414Y-96636148D01*
X124641586Y-96636148D01*
X124487772Y-96605552D01*
X124342883Y-96545537D01*
X124212485Y-96458408D01*
X124101592Y-96347515D01*
X124014463Y-96217117D01*
X123954448Y-96072228D01*
X123923852Y-95918414D01*
X123923852Y-95761586D01*
X123954448Y-95607772D01*
X124014463Y-95462883D01*
X124101592Y-95332485D01*
X124212485Y-95221592D01*
X124342883Y-95134463D01*
X124487772Y-95074448D01*
X124641586Y-95043852D01*
X124798414Y-95043852D01*
X124952228Y-95074448D01*
G37*
G36*
X134020000Y-96590000D02*
G01*
X132320000Y-96590000D01*
X132320000Y-94890000D01*
X134020000Y-94890000D01*
X134020000Y-96590000D01*
G37*
G36*
X135956742Y-94926601D02*
G01*
X136110687Y-94990367D01*
X136249234Y-95082941D01*
X136367059Y-95200766D01*
X136459633Y-95339313D01*
X136523399Y-95493258D01*
X136555907Y-95656685D01*
X136555907Y-95823315D01*
X136523399Y-95986742D01*
X136459633Y-96140687D01*
X136367059Y-96279234D01*
X136249234Y-96397059D01*
X136110687Y-96489633D01*
X135956742Y-96553399D01*
X135793315Y-96585907D01*
X135626685Y-96585907D01*
X135463258Y-96553399D01*
X135309313Y-96489633D01*
X135170766Y-96397059D01*
X135052941Y-96279234D01*
X134960367Y-96140687D01*
X134896601Y-95986742D01*
X134864093Y-95823315D01*
X134864093Y-95656685D01*
X134896601Y-95493258D01*
X134960367Y-95339313D01*
X135052941Y-95200766D01*
X135170766Y-95082941D01*
X135309313Y-94990367D01*
X135463258Y-94926601D01*
X135626685Y-94894093D01*
X135793315Y-94894093D01*
X135956742Y-94926601D01*
G37*
G36*
X138496742Y-94926601D02*
G01*
X138650687Y-94990367D01*
X138789234Y-95082941D01*
X138907059Y-95200766D01*
X138999633Y-95339313D01*
X139063399Y-95493258D01*
X139095907Y-95656685D01*
X139095907Y-95823315D01*
X139063399Y-95986742D01*
X138999633Y-96140687D01*
X138907059Y-96279234D01*
X138789234Y-96397059D01*
X138650687Y-96489633D01*
X138496742Y-96553399D01*
X138333315Y-96585907D01*
X138166685Y-96585907D01*
X138003258Y-96553399D01*
X137849313Y-96489633D01*
X137710766Y-96397059D01*
X137592941Y-96279234D01*
X137500367Y-96140687D01*
X137436601Y-95986742D01*
X137404093Y-95823315D01*
X137404093Y-95656685D01*
X137436601Y-95493258D01*
X137500367Y-95339313D01*
X137592941Y-95200766D01*
X137710766Y-95082941D01*
X137849313Y-94990367D01*
X138003258Y-94926601D01*
X138166685Y-94894093D01*
X138333315Y-94894093D01*
X138496742Y-94926601D01*
G37*
G36*
X115450000Y-96050000D02*
G01*
X113450000Y-96050000D01*
X113450000Y-94050000D01*
X115450000Y-94050000D01*
X115450000Y-96050000D01*
G37*
G36*
X108240285Y-94093060D02*
G01*
X108421397Y-94168079D01*
X108584393Y-94276990D01*
X108723010Y-94415607D01*
X108831921Y-94578603D01*
X108906940Y-94759715D01*
X108945185Y-94951983D01*
X108945185Y-95148017D01*
X108906940Y-95340285D01*
X108831921Y-95521397D01*
X108723010Y-95684393D01*
X108584393Y-95823010D01*
X108421397Y-95931921D01*
X108240285Y-96006940D01*
X108048017Y-96045185D01*
X107851983Y-96045185D01*
X107659715Y-96006940D01*
X107478603Y-95931921D01*
X107315607Y-95823010D01*
X107176990Y-95684393D01*
X107068079Y-95521397D01*
X106993060Y-95340285D01*
X106954815Y-95148017D01*
X106954815Y-94951983D01*
X106993060Y-94759715D01*
X107068079Y-94578603D01*
X107176990Y-94415607D01*
X107315607Y-94276990D01*
X107478603Y-94168079D01*
X107659715Y-94093060D01*
X107851983Y-94054815D01*
X108048017Y-94054815D01*
X108240285Y-94093060D01*
G37*
G36*
X117332228Y-92534448D02*
G01*
X117477117Y-92594463D01*
X117607515Y-92681592D01*
X117718408Y-92792485D01*
X117805537Y-92922883D01*
X117865552Y-93067772D01*
X117896148Y-93221586D01*
X117896148Y-93378414D01*
X117865552Y-93532228D01*
X117805537Y-93677117D01*
X117718408Y-93807515D01*
X117607515Y-93918408D01*
X117477117Y-94005537D01*
X117332228Y-94065552D01*
X117178414Y-94096148D01*
X117021586Y-94096148D01*
X116867772Y-94065552D01*
X116722883Y-94005537D01*
X116592485Y-93918408D01*
X116481592Y-93807515D01*
X116394463Y-93677117D01*
X116334448Y-93532228D01*
X116303852Y-93378414D01*
X116303852Y-93221586D01*
X116334448Y-93067772D01*
X116394463Y-92922883D01*
X116481592Y-92792485D01*
X116592485Y-92681592D01*
X116722883Y-92594463D01*
X116867772Y-92534448D01*
X117021586Y-92503852D01*
X117178414Y-92503852D01*
X117332228Y-92534448D01*
G37*
G36*
X124952228Y-92534448D02*
G01*
X125097117Y-92594463D01*
X125227515Y-92681592D01*
X125338408Y-92792485D01*
X125425537Y-92922883D01*
X125485552Y-93067772D01*
X125516148Y-93221586D01*
X125516148Y-93378414D01*
X125485552Y-93532228D01*
X125425537Y-93677117D01*
X125338408Y-93807515D01*
X125227515Y-93918408D01*
X125097117Y-94005537D01*
X124952228Y-94065552D01*
X124798414Y-94096148D01*
X124641586Y-94096148D01*
X124487772Y-94065552D01*
X124342883Y-94005537D01*
X124212485Y-93918408D01*
X124101592Y-93807515D01*
X124014463Y-93677117D01*
X123954448Y-93532228D01*
X123923852Y-93378414D01*
X123923852Y-93221586D01*
X123954448Y-93067772D01*
X124014463Y-92922883D01*
X124101592Y-92792485D01*
X124212485Y-92681592D01*
X124342883Y-92594463D01*
X124487772Y-92534448D01*
X124641586Y-92503852D01*
X124798414Y-92503852D01*
X124952228Y-92534448D01*
G37*
G36*
X105150000Y-93060000D02*
G01*
X103450000Y-93060000D01*
X103450000Y-91360000D01*
X105150000Y-91360000D01*
X105150000Y-93060000D01*
G37*
G36*
X134000000Y-93000000D02*
G01*
X132300000Y-93000000D01*
X132300000Y-91300000D01*
X134000000Y-91300000D01*
X134000000Y-93000000D01*
G37*
G36*
X135936742Y-91336601D02*
G01*
X136090687Y-91400367D01*
X136229234Y-91492941D01*
X136347059Y-91610766D01*
X136439633Y-91749313D01*
X136503399Y-91903258D01*
X136535907Y-92066685D01*
X136535907Y-92233315D01*
X136503399Y-92396742D01*
X136439633Y-92550687D01*
X136347059Y-92689234D01*
X136229234Y-92807059D01*
X136090687Y-92899633D01*
X135936742Y-92963399D01*
X135773315Y-92995907D01*
X135606685Y-92995907D01*
X135443258Y-92963399D01*
X135289313Y-92899633D01*
X135150766Y-92807059D01*
X135032941Y-92689234D01*
X134940367Y-92550687D01*
X134876601Y-92396742D01*
X134844093Y-92233315D01*
X134844093Y-92066685D01*
X134876601Y-91903258D01*
X134940367Y-91749313D01*
X135032941Y-91610766D01*
X135150766Y-91492941D01*
X135289313Y-91400367D01*
X135443258Y-91336601D01*
X135606685Y-91304093D01*
X135773315Y-91304093D01*
X135936742Y-91336601D01*
G37*
G36*
X138476742Y-91336601D02*
G01*
X138630687Y-91400367D01*
X138769234Y-91492941D01*
X138887059Y-91610766D01*
X138979633Y-91749313D01*
X139043399Y-91903258D01*
X139075907Y-92066685D01*
X139075907Y-92233315D01*
X139043399Y-92396742D01*
X138979633Y-92550687D01*
X138887059Y-92689234D01*
X138769234Y-92807059D01*
X138630687Y-92899633D01*
X138476742Y-92963399D01*
X138313315Y-92995907D01*
X138146685Y-92995907D01*
X137983258Y-92963399D01*
X137829313Y-92899633D01*
X137690766Y-92807059D01*
X137572941Y-92689234D01*
X137480367Y-92550687D01*
X137416601Y-92396742D01*
X137384093Y-92233315D01*
X137384093Y-92066685D01*
X137416601Y-91903258D01*
X137480367Y-91749313D01*
X137572941Y-91610766D01*
X137690766Y-91492941D01*
X137829313Y-91400367D01*
X137983258Y-91336601D01*
X138146685Y-91304093D01*
X138313315Y-91304093D01*
X138476742Y-91336601D01*
G37*
G36*
X117332228Y-89994448D02*
G01*
X117477117Y-90054463D01*
X117607515Y-90141592D01*
X117718408Y-90252485D01*
X117805537Y-90382883D01*
X117865552Y-90527772D01*
X117896148Y-90681586D01*
X117896148Y-90838414D01*
X117865552Y-90992228D01*
X117805537Y-91137117D01*
X117718408Y-91267515D01*
X117607515Y-91378408D01*
X117477117Y-91465537D01*
X117332228Y-91525552D01*
X117178414Y-91556148D01*
X117021586Y-91556148D01*
X116867772Y-91525552D01*
X116722883Y-91465537D01*
X116592485Y-91378408D01*
X116481592Y-91267515D01*
X116394463Y-91137117D01*
X116334448Y-90992228D01*
X116303852Y-90838414D01*
X116303852Y-90681586D01*
X116334448Y-90527772D01*
X116394463Y-90382883D01*
X116481592Y-90252485D01*
X116592485Y-90141592D01*
X116722883Y-90054463D01*
X116867772Y-89994448D01*
X117021586Y-89963852D01*
X117178414Y-89963852D01*
X117332228Y-89994448D01*
G37*
G36*
X124952228Y-89994448D02*
G01*
X125097117Y-90054463D01*
X125227515Y-90141592D01*
X125338408Y-90252485D01*
X125425537Y-90382883D01*
X125485552Y-90527772D01*
X125516148Y-90681586D01*
X125516148Y-90838414D01*
X125485552Y-90992228D01*
X125425537Y-91137117D01*
X125338408Y-91267515D01*
X125227515Y-91378408D01*
X125097117Y-91465537D01*
X124952228Y-91525552D01*
X124798414Y-91556148D01*
X124641586Y-91556148D01*
X124487772Y-91525552D01*
X124342883Y-91465537D01*
X124212485Y-91378408D01*
X124101592Y-91267515D01*
X124014463Y-91137117D01*
X123954448Y-90992228D01*
X123923852Y-90838414D01*
X123923852Y-90681586D01*
X123954448Y-90527772D01*
X124014463Y-90382883D01*
X124101592Y-90252485D01*
X124212485Y-90141592D01*
X124342883Y-90054463D01*
X124487772Y-89994448D01*
X124641586Y-89963852D01*
X124798414Y-89963852D01*
X124952228Y-89994448D01*
G37*
G36*
X108240285Y-89593060D02*
G01*
X108421397Y-89668079D01*
X108584393Y-89776990D01*
X108723010Y-89915607D01*
X108831921Y-90078603D01*
X108906940Y-90259715D01*
X108945185Y-90451983D01*
X108945185Y-90648017D01*
X108906940Y-90840285D01*
X108831921Y-91021397D01*
X108723010Y-91184393D01*
X108584393Y-91323010D01*
X108421397Y-91431921D01*
X108240285Y-91506940D01*
X108048017Y-91545185D01*
X107851983Y-91545185D01*
X107659715Y-91506940D01*
X107478603Y-91431921D01*
X107315607Y-91323010D01*
X107176990Y-91184393D01*
X107068079Y-91021397D01*
X106993060Y-90840285D01*
X106954815Y-90648017D01*
X106954815Y-90451983D01*
X106993060Y-90259715D01*
X107068079Y-90078603D01*
X107176990Y-89915607D01*
X107315607Y-89776990D01*
X107478603Y-89668079D01*
X107659715Y-89593060D01*
X107851983Y-89554815D01*
X108048017Y-89554815D01*
X108240285Y-89593060D01*
G37*
G36*
X114740285Y-89593060D02*
G01*
X114921397Y-89668079D01*
X115084393Y-89776990D01*
X115223010Y-89915607D01*
X115331921Y-90078603D01*
X115406940Y-90259715D01*
X115445185Y-90451983D01*
X115445185Y-90648017D01*
X115406940Y-90840285D01*
X115331921Y-91021397D01*
X115223010Y-91184393D01*
X115084393Y-91323010D01*
X114921397Y-91431921D01*
X114740285Y-91506940D01*
X114548017Y-91545185D01*
X114351983Y-91545185D01*
X114159715Y-91506940D01*
X113978603Y-91431921D01*
X113815607Y-91323010D01*
X113676990Y-91184393D01*
X113568079Y-91021397D01*
X113493060Y-90840285D01*
X113454815Y-90648017D01*
X113454815Y-90451983D01*
X113493060Y-90259715D01*
X113568079Y-90078603D01*
X113676990Y-89915607D01*
X113815607Y-89776990D01*
X113978603Y-89668079D01*
X114159715Y-89593060D01*
X114351983Y-89554815D01*
X114548017Y-89554815D01*
X114740285Y-89593060D01*
G37*
G36*
X104546742Y-88856601D02*
G01*
X104700687Y-88920367D01*
X104839234Y-89012941D01*
X104957059Y-89130766D01*
X105049633Y-89269313D01*
X105113399Y-89423258D01*
X105145907Y-89586685D01*
X105145907Y-89753315D01*
X105113399Y-89916742D01*
X105049633Y-90070687D01*
X104957059Y-90209234D01*
X104839234Y-90327059D01*
X104700687Y-90419633D01*
X104546742Y-90483399D01*
X104383315Y-90515907D01*
X104216685Y-90515907D01*
X104053258Y-90483399D01*
X103899313Y-90419633D01*
X103760766Y-90327059D01*
X103642941Y-90209234D01*
X103550367Y-90070687D01*
X103486601Y-89916742D01*
X103454093Y-89753315D01*
X103454093Y-89586685D01*
X103486601Y-89423258D01*
X103550367Y-89269313D01*
X103642941Y-89130766D01*
X103760766Y-89012941D01*
X103899313Y-88920367D01*
X104053258Y-88856601D01*
X104216685Y-88824093D01*
X104383315Y-88824093D01*
X104546742Y-88856601D01*
G37*
G36*
X117332228Y-87454448D02*
G01*
X117477117Y-87514463D01*
X117607515Y-87601592D01*
X117718408Y-87712485D01*
X117805537Y-87842883D01*
X117865552Y-87987772D01*
X117896148Y-88141586D01*
X117896148Y-88298414D01*
X117865552Y-88452228D01*
X117805537Y-88597117D01*
X117718408Y-88727515D01*
X117607515Y-88838408D01*
X117477117Y-88925537D01*
X117332228Y-88985552D01*
X117178414Y-89016148D01*
X117021586Y-89016148D01*
X116867772Y-88985552D01*
X116722883Y-88925537D01*
X116592485Y-88838408D01*
X116481592Y-88727515D01*
X116394463Y-88597117D01*
X116334448Y-88452228D01*
X116303852Y-88298414D01*
X116303852Y-88141586D01*
X116334448Y-87987772D01*
X116394463Y-87842883D01*
X116481592Y-87712485D01*
X116592485Y-87601592D01*
X116722883Y-87514463D01*
X116867772Y-87454448D01*
X117021586Y-87423852D01*
X117178414Y-87423852D01*
X117332228Y-87454448D01*
G37*
G36*
X124952228Y-87454448D02*
G01*
X125097117Y-87514463D01*
X125227515Y-87601592D01*
X125338408Y-87712485D01*
X125425537Y-87842883D01*
X125485552Y-87987772D01*
X125516148Y-88141586D01*
X125516148Y-88298414D01*
X125485552Y-88452228D01*
X125425537Y-88597117D01*
X125338408Y-88727515D01*
X125227515Y-88838408D01*
X125097117Y-88925537D01*
X124952228Y-88985552D01*
X124798414Y-89016148D01*
X124641586Y-89016148D01*
X124487772Y-88985552D01*
X124342883Y-88925537D01*
X124212485Y-88838408D01*
X124101592Y-88727515D01*
X124014463Y-88597117D01*
X123954448Y-88452228D01*
X123923852Y-88298414D01*
X123923852Y-88141586D01*
X123954448Y-87987772D01*
X124014463Y-87842883D01*
X124101592Y-87712485D01*
X124212485Y-87601592D01*
X124342883Y-87514463D01*
X124487772Y-87454448D01*
X124641586Y-87423852D01*
X124798414Y-87423852D01*
X124952228Y-87454448D01*
G37*
G36*
X128682228Y-86834448D02*
G01*
X128827117Y-86894463D01*
X128957515Y-86981592D01*
X129068408Y-87092485D01*
X129155537Y-87222883D01*
X129215552Y-87367772D01*
X129246148Y-87521586D01*
X129246148Y-87678414D01*
X129215552Y-87832228D01*
X129155537Y-87977117D01*
X129068408Y-88107515D01*
X128957515Y-88218408D01*
X128827117Y-88305537D01*
X128682228Y-88365552D01*
X128528414Y-88396148D01*
X128371586Y-88396148D01*
X128217772Y-88365552D01*
X128072883Y-88305537D01*
X127942485Y-88218408D01*
X127831592Y-88107515D01*
X127744463Y-87977117D01*
X127684448Y-87832228D01*
X127653852Y-87678414D01*
X127653852Y-87521586D01*
X127684448Y-87367772D01*
X127744463Y-87222883D01*
X127831592Y-87092485D01*
X127942485Y-86981592D01*
X128072883Y-86894463D01*
X128217772Y-86834448D01*
X128371586Y-86803852D01*
X128528414Y-86803852D01*
X128682228Y-86834448D01*
G37*
G36*
X141382228Y-86834448D02*
G01*
X141527117Y-86894463D01*
X141657515Y-86981592D01*
X141768408Y-87092485D01*
X141855537Y-87222883D01*
X141915552Y-87367772D01*
X141946148Y-87521586D01*
X141946148Y-87678414D01*
X141915552Y-87832228D01*
X141855537Y-87977117D01*
X141768408Y-88107515D01*
X141657515Y-88218408D01*
X141527117Y-88305537D01*
X141382228Y-88365552D01*
X141228414Y-88396148D01*
X141071586Y-88396148D01*
X140917772Y-88365552D01*
X140772883Y-88305537D01*
X140642485Y-88218408D01*
X140531592Y-88107515D01*
X140444463Y-87977117D01*
X140384448Y-87832228D01*
X140353852Y-87678414D01*
X140353852Y-87521586D01*
X140384448Y-87367772D01*
X140444463Y-87222883D01*
X140531592Y-87092485D01*
X140642485Y-86981592D01*
X140772883Y-86894463D01*
X140917772Y-86834448D01*
X141071586Y-86803852D01*
X141228414Y-86803852D01*
X141382228Y-86834448D01*
G37*
G36*
X104546742Y-86316601D02*
G01*
X104700687Y-86380367D01*
X104839234Y-86472941D01*
X104957059Y-86590766D01*
X105049633Y-86729313D01*
X105113399Y-86883258D01*
X105145907Y-87046685D01*
X105145907Y-87213315D01*
X105113399Y-87376742D01*
X105049633Y-87530687D01*
X104957059Y-87669234D01*
X104839234Y-87787059D01*
X104700687Y-87879633D01*
X104546742Y-87943399D01*
X104383315Y-87975907D01*
X104216685Y-87975907D01*
X104053258Y-87943399D01*
X103899313Y-87879633D01*
X103760766Y-87787059D01*
X103642941Y-87669234D01*
X103550367Y-87530687D01*
X103486601Y-87376742D01*
X103454093Y-87213315D01*
X103454093Y-87046685D01*
X103486601Y-86883258D01*
X103550367Y-86729313D01*
X103642941Y-86590766D01*
X103760766Y-86472941D01*
X103899313Y-86380367D01*
X104053258Y-86316601D01*
X104216685Y-86284093D01*
X104383315Y-86284093D01*
X104546742Y-86316601D01*
G37*
G36*
X117332228Y-84914448D02*
G01*
X117477117Y-84974463D01*
X117607515Y-85061592D01*
X117718408Y-85172485D01*
X117805537Y-85302883D01*
X117865552Y-85447772D01*
X117896148Y-85601586D01*
X117896148Y-85758414D01*
X117865552Y-85912228D01*
X117805537Y-86057117D01*
X117718408Y-86187515D01*
X117607515Y-86298408D01*
X117477117Y-86385537D01*
X117332228Y-86445552D01*
X117178414Y-86476148D01*
X117021586Y-86476148D01*
X116867772Y-86445552D01*
X116722883Y-86385537D01*
X116592485Y-86298408D01*
X116481592Y-86187515D01*
X116394463Y-86057117D01*
X116334448Y-85912228D01*
X116303852Y-85758414D01*
X116303852Y-85601586D01*
X116334448Y-85447772D01*
X116394463Y-85302883D01*
X116481592Y-85172485D01*
X116592485Y-85061592D01*
X116722883Y-84974463D01*
X116867772Y-84914448D01*
X117021586Y-84883852D01*
X117178414Y-84883852D01*
X117332228Y-84914448D01*
G37*
G36*
X124952228Y-84914448D02*
G01*
X125097117Y-84974463D01*
X125227515Y-85061592D01*
X125338408Y-85172485D01*
X125425537Y-85302883D01*
X125485552Y-85447772D01*
X125516148Y-85601586D01*
X125516148Y-85758414D01*
X125485552Y-85912228D01*
X125425537Y-86057117D01*
X125338408Y-86187515D01*
X125227515Y-86298408D01*
X125097117Y-86385537D01*
X124952228Y-86445552D01*
X124798414Y-86476148D01*
X124641586Y-86476148D01*
X124487772Y-86445552D01*
X124342883Y-86385537D01*
X124212485Y-86298408D01*
X124101592Y-86187515D01*
X124014463Y-86057117D01*
X123954448Y-85912228D01*
X123923852Y-85758414D01*
X123923852Y-85601586D01*
X123954448Y-85447772D01*
X124014463Y-85302883D01*
X124101592Y-85172485D01*
X124212485Y-85061592D01*
X124342883Y-84974463D01*
X124487772Y-84914448D01*
X124641586Y-84883852D01*
X124798414Y-84883852D01*
X124952228Y-84914448D01*
G37*
G36*
X104546742Y-83776601D02*
G01*
X104700687Y-83840367D01*
X104839234Y-83932941D01*
X104957059Y-84050766D01*
X105049633Y-84189313D01*
X105113399Y-84343258D01*
X105145907Y-84506685D01*
X105145907Y-84673315D01*
X105113399Y-84836742D01*
X105049633Y-84990687D01*
X104957059Y-85129234D01*
X104839234Y-85247059D01*
X104700687Y-85339633D01*
X104546742Y-85403399D01*
X104383315Y-85435907D01*
X104216685Y-85435907D01*
X104053258Y-85403399D01*
X103899313Y-85339633D01*
X103760766Y-85247059D01*
X103642941Y-85129234D01*
X103550367Y-84990687D01*
X103486601Y-84836742D01*
X103454093Y-84673315D01*
X103454093Y-84506685D01*
X103486601Y-84343258D01*
X103550367Y-84189313D01*
X103642941Y-84050766D01*
X103760766Y-83932941D01*
X103899313Y-83840367D01*
X104053258Y-83776601D01*
X104216685Y-83744093D01*
X104383315Y-83744093D01*
X104546742Y-83776601D01*
G37*
G36*
X114434047Y-84130805D02*
G01*
X114485408Y-84136764D01*
X114502954Y-84144511D01*
X114525671Y-84149030D01*
X114549991Y-84165280D01*
X114570793Y-84174465D01*
X114585000Y-84188672D01*
X114606777Y-84203223D01*
X114621327Y-84224999D01*
X114635534Y-84239206D01*
X114644718Y-84260006D01*
X114660970Y-84284329D01*
X114665489Y-84307048D01*
X114673235Y-84324591D01*
X114679192Y-84375940D01*
X114680000Y-84380000D01*
X114680000Y-85080000D01*
X114679192Y-85084059D01*
X114673235Y-85135408D01*
X114665489Y-85152950D01*
X114660970Y-85175671D01*
X114644716Y-85199995D01*
X114635534Y-85220793D01*
X114621329Y-85234997D01*
X114606777Y-85256777D01*
X114584997Y-85271329D01*
X114570793Y-85285534D01*
X114549995Y-85294716D01*
X114525671Y-85310970D01*
X114502950Y-85315489D01*
X114485408Y-85323235D01*
X114434061Y-85329192D01*
X114430000Y-85330000D01*
X113530000Y-85330000D01*
X113525941Y-85329192D01*
X113474591Y-85323235D01*
X113457048Y-85315489D01*
X113434329Y-85310970D01*
X113410006Y-85294718D01*
X113389206Y-85285534D01*
X113374999Y-85271327D01*
X113353223Y-85256777D01*
X113338672Y-85235000D01*
X113324465Y-85220793D01*
X113315280Y-85199991D01*
X113299030Y-85175671D01*
X113294511Y-85152954D01*
X113286764Y-85135408D01*
X113280805Y-85084049D01*
X113280000Y-85080000D01*
X113280000Y-84380000D01*
X113280804Y-84375953D01*
X113286764Y-84324591D01*
X113294511Y-84307043D01*
X113299030Y-84284329D01*
X113315278Y-84260010D01*
X113324465Y-84239206D01*
X113338674Y-84224996D01*
X113353223Y-84203223D01*
X113374996Y-84188674D01*
X113389206Y-84174465D01*
X113410010Y-84165278D01*
X113434329Y-84149030D01*
X113457043Y-84144511D01*
X113474591Y-84136764D01*
X113525952Y-84130805D01*
X113530000Y-84130000D01*
X114430000Y-84130000D01*
X114434047Y-84130805D01*
G37*
G36*
X117900000Y-83940000D02*
G01*
X116300000Y-83940000D01*
X116300000Y-82340000D01*
X117900000Y-82340000D01*
X117900000Y-83940000D01*
G37*
G36*
X124952228Y-82374448D02*
G01*
X125097117Y-82434463D01*
X125227515Y-82521592D01*
X125338408Y-82632485D01*
X125425537Y-82762883D01*
X125485552Y-82907772D01*
X125516148Y-83061586D01*
X125516148Y-83218414D01*
X125485552Y-83372228D01*
X125425537Y-83517117D01*
X125338408Y-83647515D01*
X125227515Y-83758408D01*
X125097117Y-83845537D01*
X124952228Y-83905552D01*
X124798414Y-83936148D01*
X124641586Y-83936148D01*
X124487772Y-83905552D01*
X124342883Y-83845537D01*
X124212485Y-83758408D01*
X124101592Y-83647515D01*
X124014463Y-83517117D01*
X123954448Y-83372228D01*
X123923852Y-83218414D01*
X123923852Y-83061586D01*
X123954448Y-82907772D01*
X124014463Y-82762883D01*
X124101592Y-82632485D01*
X124212485Y-82521592D01*
X124342883Y-82434463D01*
X124487772Y-82374448D01*
X124641586Y-82343852D01*
X124798414Y-82343852D01*
X124952228Y-82374448D01*
G37*
G36*
X114434047Y-82130805D02*
G01*
X114485408Y-82136764D01*
X114502954Y-82144511D01*
X114525671Y-82149030D01*
X114549991Y-82165280D01*
X114570793Y-82174465D01*
X114585000Y-82188672D01*
X114606777Y-82203223D01*
X114621327Y-82224999D01*
X114635534Y-82239206D01*
X114644718Y-82260006D01*
X114660970Y-82284329D01*
X114665489Y-82307048D01*
X114673235Y-82324591D01*
X114679192Y-82375940D01*
X114680000Y-82380000D01*
X114680000Y-83080000D01*
X114679192Y-83084059D01*
X114673235Y-83135408D01*
X114665489Y-83152950D01*
X114660970Y-83175671D01*
X114644716Y-83199995D01*
X114635534Y-83220793D01*
X114621329Y-83234997D01*
X114606777Y-83256777D01*
X114584997Y-83271329D01*
X114570793Y-83285534D01*
X114549995Y-83294716D01*
X114525671Y-83310970D01*
X114502950Y-83315489D01*
X114485408Y-83323235D01*
X114434061Y-83329192D01*
X114430000Y-83330000D01*
X113530000Y-83330000D01*
X113525941Y-83329192D01*
X113474591Y-83323235D01*
X113457048Y-83315489D01*
X113434329Y-83310970D01*
X113410006Y-83294718D01*
X113389206Y-83285534D01*
X113374999Y-83271327D01*
X113353223Y-83256777D01*
X113338672Y-83235000D01*
X113324465Y-83220793D01*
X113315280Y-83199991D01*
X113299030Y-83175671D01*
X113294511Y-83152954D01*
X113286764Y-83135408D01*
X113280805Y-83084049D01*
X113280000Y-83080000D01*
X113280000Y-82380000D01*
X113280804Y-82375953D01*
X113286764Y-82324591D01*
X113294511Y-82307043D01*
X113299030Y-82284329D01*
X113315278Y-82260010D01*
X113324465Y-82239206D01*
X113338674Y-82224996D01*
X113353223Y-82203223D01*
X113374996Y-82188674D01*
X113389206Y-82174465D01*
X113410010Y-82165278D01*
X113434329Y-82149030D01*
X113457043Y-82144511D01*
X113474591Y-82136764D01*
X113525952Y-82130805D01*
X113530000Y-82130000D01*
X114430000Y-82130000D01*
X114434047Y-82130805D01*
G37*
G36*
X132006742Y-81086601D02*
G01*
X132160687Y-81150367D01*
X132299234Y-81242941D01*
X132417059Y-81360766D01*
X132509633Y-81499313D01*
X132573399Y-81653258D01*
X132605907Y-81816685D01*
X132605907Y-81983315D01*
X132573399Y-82146742D01*
X132509633Y-82300687D01*
X132417059Y-82439234D01*
X132299234Y-82557059D01*
X132160687Y-82649633D01*
X132006742Y-82713399D01*
X131843315Y-82745907D01*
X131676685Y-82745907D01*
X131513258Y-82713399D01*
X131359313Y-82649633D01*
X131220766Y-82557059D01*
X131102941Y-82439234D01*
X131010367Y-82300687D01*
X130946601Y-82146742D01*
X130914093Y-81983315D01*
X130914093Y-81816685D01*
X130946601Y-81653258D01*
X131010367Y-81499313D01*
X131102941Y-81360766D01*
X131220766Y-81242941D01*
X131359313Y-81150367D01*
X131513258Y-81086601D01*
X131676685Y-81054093D01*
X131843315Y-81054093D01*
X132006742Y-81086601D01*
G37*
G36*
X134546742Y-81086601D02*
G01*
X134700687Y-81150367D01*
X134839234Y-81242941D01*
X134957059Y-81360766D01*
X135049633Y-81499313D01*
X135113399Y-81653258D01*
X135145907Y-81816685D01*
X135145907Y-81983315D01*
X135113399Y-82146742D01*
X135049633Y-82300687D01*
X134957059Y-82439234D01*
X134839234Y-82557059D01*
X134700687Y-82649633D01*
X134546742Y-82713399D01*
X134383315Y-82745907D01*
X134216685Y-82745907D01*
X134053258Y-82713399D01*
X133899313Y-82649633D01*
X133760766Y-82557059D01*
X133642941Y-82439234D01*
X133550367Y-82300687D01*
X133486601Y-82146742D01*
X133454093Y-81983315D01*
X133454093Y-81816685D01*
X133486601Y-81653258D01*
X133550367Y-81499313D01*
X133642941Y-81360766D01*
X133760766Y-81242941D01*
X133899313Y-81150367D01*
X134053258Y-81086601D01*
X134216685Y-81054093D01*
X134383315Y-81054093D01*
X134546742Y-81086601D01*
G37*
G36*
X137086742Y-81086601D02*
G01*
X137240687Y-81150367D01*
X137379234Y-81242941D01*
X137497059Y-81360766D01*
X137589633Y-81499313D01*
X137653399Y-81653258D01*
X137685907Y-81816685D01*
X137685907Y-81983315D01*
X137653399Y-82146742D01*
X137589633Y-82300687D01*
X137497059Y-82439234D01*
X137379234Y-82557059D01*
X137240687Y-82649633D01*
X137086742Y-82713399D01*
X136923315Y-82745907D01*
X136756685Y-82745907D01*
X136593258Y-82713399D01*
X136439313Y-82649633D01*
X136300766Y-82557059D01*
X136182941Y-82439234D01*
X136090367Y-82300687D01*
X136026601Y-82146742D01*
X135994093Y-81983315D01*
X135994093Y-81816685D01*
X136026601Y-81653258D01*
X136090367Y-81499313D01*
X136182941Y-81360766D01*
X136300766Y-81242941D01*
X136439313Y-81150367D01*
X136593258Y-81086601D01*
X136756685Y-81054093D01*
X136923315Y-81054093D01*
X137086742Y-81086601D01*
G37*
G36*
X112291547Y-78620805D02*
G01*
X112342908Y-78626764D01*
X112360454Y-78634511D01*
X112383171Y-78639030D01*
X112407491Y-78655280D01*
X112428293Y-78664465D01*
X112442500Y-78678672D01*
X112464277Y-78693223D01*
X112478827Y-78714999D01*
X112493034Y-78729206D01*
X112502218Y-78750006D01*
X112518470Y-78774329D01*
X112522989Y-78797048D01*
X112530735Y-78814591D01*
X112536692Y-78865940D01*
X112537500Y-78870000D01*
X112537500Y-80170000D01*
X112536692Y-80174059D01*
X112530735Y-80225408D01*
X112522989Y-80242950D01*
X112518470Y-80265671D01*
X112502216Y-80289995D01*
X112493034Y-80310793D01*
X112478829Y-80324997D01*
X112464277Y-80346777D01*
X112442497Y-80361329D01*
X112428293Y-80375534D01*
X112407495Y-80384716D01*
X112383171Y-80400970D01*
X112360450Y-80405489D01*
X112342908Y-80413235D01*
X112291561Y-80419192D01*
X112287500Y-80420000D01*
X111462500Y-80420000D01*
X111458441Y-80419192D01*
X111407091Y-80413235D01*
X111389548Y-80405489D01*
X111366829Y-80400970D01*
X111342506Y-80384718D01*
X111321706Y-80375534D01*
X111307499Y-80361327D01*
X111285723Y-80346777D01*
X111271172Y-80325000D01*
X111256965Y-80310793D01*
X111247780Y-80289991D01*
X111231530Y-80265671D01*
X111227011Y-80242954D01*
X111219264Y-80225408D01*
X111213305Y-80174049D01*
X111212500Y-80170000D01*
X111212500Y-78870000D01*
X111213304Y-78865953D01*
X111219264Y-78814591D01*
X111227011Y-78797043D01*
X111231530Y-78774329D01*
X111247778Y-78750010D01*
X111256965Y-78729206D01*
X111271174Y-78714996D01*
X111285723Y-78693223D01*
X111307496Y-78678674D01*
X111321706Y-78664465D01*
X111342510Y-78655278D01*
X111366829Y-78639030D01*
X111389543Y-78634511D01*
X111407091Y-78626764D01*
X111458452Y-78620805D01*
X111462500Y-78620000D01*
X112287500Y-78620000D01*
X112291547Y-78620805D01*
G37*
G36*
X115416547Y-78620805D02*
G01*
X115467908Y-78626764D01*
X115485454Y-78634511D01*
X115508171Y-78639030D01*
X115532491Y-78655280D01*
X115553293Y-78664465D01*
X115567500Y-78678672D01*
X115589277Y-78693223D01*
X115603827Y-78714999D01*
X115618034Y-78729206D01*
X115627218Y-78750006D01*
X115643470Y-78774329D01*
X115647989Y-78797048D01*
X115655735Y-78814591D01*
X115661692Y-78865940D01*
X115662500Y-78870000D01*
X115662500Y-80170000D01*
X115661692Y-80174059D01*
X115655735Y-80225408D01*
X115647989Y-80242950D01*
X115643470Y-80265671D01*
X115627216Y-80289995D01*
X115618034Y-80310793D01*
X115603829Y-80324997D01*
X115589277Y-80346777D01*
X115567497Y-80361329D01*
X115553293Y-80375534D01*
X115532495Y-80384716D01*
X115508171Y-80400970D01*
X115485450Y-80405489D01*
X115467908Y-80413235D01*
X115416561Y-80419192D01*
X115412500Y-80420000D01*
X114587500Y-80420000D01*
X114583441Y-80419192D01*
X114532091Y-80413235D01*
X114514548Y-80405489D01*
X114491829Y-80400970D01*
X114467506Y-80384718D01*
X114446706Y-80375534D01*
X114432499Y-80361327D01*
X114410723Y-80346777D01*
X114396172Y-80325000D01*
X114381965Y-80310793D01*
X114372780Y-80289991D01*
X114356530Y-80265671D01*
X114352011Y-80242954D01*
X114344264Y-80225408D01*
X114338305Y-80174049D01*
X114337500Y-80170000D01*
X114337500Y-78870000D01*
X114338304Y-78865953D01*
X114344264Y-78814591D01*
X114352011Y-78797043D01*
X114356530Y-78774329D01*
X114372778Y-78750010D01*
X114381965Y-78729206D01*
X114396174Y-78714996D01*
X114410723Y-78693223D01*
X114432496Y-78678674D01*
X114446706Y-78664465D01*
X114467510Y-78655278D01*
X114491829Y-78639030D01*
X114514543Y-78634511D01*
X114532091Y-78626764D01*
X114583452Y-78620805D01*
X114587500Y-78620000D01*
X115412500Y-78620000D01*
X115416547Y-78620805D01*
G37*
G36*
X137444047Y-78510805D02*
G01*
X137495408Y-78516764D01*
X137512954Y-78524511D01*
X137535671Y-78529030D01*
X137559991Y-78545280D01*
X137580793Y-78554465D01*
X137595000Y-78568672D01*
X137616777Y-78583223D01*
X137631327Y-78604999D01*
X137645534Y-78619206D01*
X137654718Y-78640006D01*
X137670970Y-78664329D01*
X137675489Y-78687048D01*
X137683235Y-78704591D01*
X137689192Y-78755940D01*
X137690000Y-78760000D01*
X137690000Y-79960000D01*
X137689192Y-79964059D01*
X137683235Y-80015408D01*
X137675489Y-80032950D01*
X137670970Y-80055671D01*
X137654716Y-80079995D01*
X137645534Y-80100793D01*
X137631329Y-80114997D01*
X137616777Y-80136777D01*
X137594997Y-80151329D01*
X137580793Y-80165534D01*
X137559995Y-80174716D01*
X137535671Y-80190970D01*
X137512950Y-80195489D01*
X137495408Y-80203235D01*
X137444061Y-80209192D01*
X137440000Y-80210000D01*
X136240000Y-80210000D01*
X136235941Y-80209192D01*
X136184591Y-80203235D01*
X136167048Y-80195489D01*
X136144329Y-80190970D01*
X136120006Y-80174718D01*
X136099206Y-80165534D01*
X136084999Y-80151327D01*
X136063223Y-80136777D01*
X136048672Y-80115000D01*
X136034465Y-80100793D01*
X136025280Y-80079991D01*
X136009030Y-80055671D01*
X136004511Y-80032954D01*
X135996764Y-80015408D01*
X135990805Y-79964049D01*
X135990000Y-79960000D01*
X135990000Y-78760000D01*
X135990804Y-78755953D01*
X135996764Y-78704591D01*
X136004511Y-78687043D01*
X136009030Y-78664329D01*
X136025278Y-78640010D01*
X136034465Y-78619206D01*
X136048674Y-78604996D01*
X136063223Y-78583223D01*
X136084996Y-78568674D01*
X136099206Y-78554465D01*
X136120010Y-78545278D01*
X136144329Y-78529030D01*
X136167043Y-78524511D01*
X136184591Y-78516764D01*
X136235952Y-78510805D01*
X136240000Y-78510000D01*
X137440000Y-78510000D01*
X137444047Y-78510805D01*
G37*
G36*
X132006742Y-78546601D02*
G01*
X132160687Y-78610367D01*
X132299234Y-78702941D01*
X132417059Y-78820766D01*
X132509633Y-78959313D01*
X132573399Y-79113258D01*
X132605907Y-79276685D01*
X132605907Y-79443315D01*
X132573399Y-79606742D01*
X132509633Y-79760687D01*
X132417059Y-79899234D01*
X132299234Y-80017059D01*
X132160687Y-80109633D01*
X132006742Y-80173399D01*
X131843315Y-80205907D01*
X131676685Y-80205907D01*
X131513258Y-80173399D01*
X131359313Y-80109633D01*
X131220766Y-80017059D01*
X131102941Y-79899234D01*
X131010367Y-79760687D01*
X130946601Y-79606742D01*
X130914093Y-79443315D01*
X130914093Y-79276685D01*
X130946601Y-79113258D01*
X131010367Y-78959313D01*
X131102941Y-78820766D01*
X131220766Y-78702941D01*
X131359313Y-78610367D01*
X131513258Y-78546601D01*
X131676685Y-78514093D01*
X131843315Y-78514093D01*
X132006742Y-78546601D01*
G37*
G36*
X134546742Y-78546601D02*
G01*
X134700687Y-78610367D01*
X134839234Y-78702941D01*
X134957059Y-78820766D01*
X135049633Y-78959313D01*
X135113399Y-79113258D01*
X135145907Y-79276685D01*
X135145907Y-79443315D01*
X135113399Y-79606742D01*
X135049633Y-79760687D01*
X134957059Y-79899234D01*
X134839234Y-80017059D01*
X134700687Y-80109633D01*
X134546742Y-80173399D01*
X134383315Y-80205907D01*
X134216685Y-80205907D01*
X134053258Y-80173399D01*
X133899313Y-80109633D01*
X133760766Y-80017059D01*
X133642941Y-79899234D01*
X133550367Y-79760687D01*
X133486601Y-79606742D01*
X133454093Y-79443315D01*
X133454093Y-79276685D01*
X133486601Y-79113258D01*
X133550367Y-78959313D01*
X133642941Y-78820766D01*
X133760766Y-78702941D01*
X133899313Y-78610367D01*
X134053258Y-78546601D01*
X134216685Y-78514093D01*
X134383315Y-78514093D01*
X134546742Y-78546601D01*
G37*
G36*
X106173513Y-76844208D02*
G01*
X106412293Y-76921793D01*
X106635998Y-77035776D01*
X106839117Y-77183350D01*
X107016650Y-77360883D01*
X107164224Y-77564002D01*
X107278207Y-77787707D01*
X107355792Y-78026487D01*
X107395068Y-78274465D01*
X107395068Y-78525535D01*
X107355792Y-78773513D01*
X107278207Y-79012293D01*
X107164224Y-79235998D01*
X107016650Y-79439117D01*
X106839117Y-79616650D01*
X106635998Y-79764224D01*
X106412293Y-79878207D01*
X106173513Y-79955792D01*
X105925535Y-79995068D01*
X105674465Y-79995068D01*
X105426487Y-79955792D01*
X105187707Y-79878207D01*
X104964002Y-79764224D01*
X104760883Y-79616650D01*
X104583350Y-79439117D01*
X104435776Y-79235998D01*
X104321793Y-79012293D01*
X104244208Y-78773513D01*
X104204932Y-78525535D01*
X104204932Y-78274465D01*
X104244208Y-78026487D01*
X104321793Y-77787707D01*
X104435776Y-77564002D01*
X104583350Y-77360883D01*
X104760883Y-77183350D01*
X104964002Y-77035776D01*
X105187707Y-76921793D01*
X105426487Y-76844208D01*
X105674465Y-76804932D01*
X105925535Y-76804932D01*
X106173513Y-76844208D01*
G37*
M02*
